<svg width="96" height="78" viewBox="0 0 96 78" fill="none" xmlns="http://www.w3.org/2000/svg">
<path d="M44.5864 37.0401C37.3354 37.0401 31.1934 36.4081 26.3264 35.1611C19.9994 34.4671 14.5724 33.3051 10.1974 31.7071L8.91842 31.2401L8.65941 29.9031C8.62841 29.7361 5.7134 13.3621 23.5584 5.73906C25.6554 4.84306 28.0304 4.38907 30.6184 4.38907C33.9634 4.38907 37.6824 5.11807 41.9644 6.61507C44.0694 4.20907 47.7104 1.65707 53.7414 1.45107C53.8614 1.44707 53.9834 1.44507 54.1024 1.44507C62.1324 1.44507 69.2984 10.2831 75.6214 18.0811C78.3584 21.4581 80.9444 24.6471 82.8874 26.1051C84.7424 26.4081 85.3744 27.3671 85.5774 28.1251C85.8904 28.6661 85.9874 29.2871 85.8484 29.9091C85.7434 30.3831 85.2194 31.9291 82.9314 31.9291C82.7734 31.9291 82.5774 31.9191 82.3574 31.9011C82.3194 31.9131 82.2824 31.9241 82.2444 31.9361C81.1294 32.6391 78.5194 33.6061 69.8534 34.9681C64.9294 35.7411 55.0974 37.0401 44.5864 37.0401Z" fill="#FECAA2"/>
<path d="M54.1037 2.88701C61.4447 2.88701 68.3807 11.442 74.4997 18.989C77.2987 22.441 79.9427 25.702 82.0267 27.263C82.1397 27.348 82.2447 27.414 82.3537 27.488C83.1547 27.573 84.1307 27.81 84.2167 28.686C84.4107 28.925 84.5217 29.22 84.4387 29.592C84.3067 30.182 83.7997 30.482 82.9317 30.482C82.7397 30.482 82.4817 30.463 82.1927 30.434C82.0187 30.493 81.8257 30.552 81.6207 30.613C80.6667 31.302 77.8697 32.243 69.6297 33.539C64.7457 34.307 54.9987 35.595 44.5867 35.595C37.3847 35.595 31.3467 34.969 26.5867 33.736C20.3237 33.055 15.0047 31.925 10.6927 30.35L10.1807 30.163L10.0777 29.627C10.0487 29.474 7.33467 14.237 24.1267 7.065C26.0427 6.247 28.2267 5.83201 30.6187 5.83101H30.6217C34.3107 5.83101 38.3137 6.79501 42.4387 8.31801C44.3677 5.75201 47.7987 3.096 53.7907 2.892C53.8947 2.889 53.9997 2.88701 54.1037 2.88701ZM54.1037 0H54.1017C53.9657 0 53.8267 0.00200378 53.6907 0.00700378C47.7427 0.210004 43.9207 2.542 41.5427 4.946C37.4767 3.6 33.8887 2.944 30.6207 2.944C27.8337 2.944 25.2677 3.438 22.9917 4.41C4.08366 12.486 7.20766 29.996 7.24166 30.172L7.34469 30.708L7.65267 32.315L9.18969 32.876L9.70168 33.063C14.1607 34.691 19.6657 35.876 26.0677 36.585C31.0347 37.845 37.2637 38.484 44.5867 38.484C55.1947 38.484 65.1107 37.174 70.0777 36.393C78.1917 35.118 81.1807 34.174 82.6597 33.365C82.7567 33.369 82.8477 33.371 82.9327 33.371C85.6037 33.371 86.9187 31.745 87.2577 30.222C87.4677 29.282 87.3387 28.347 86.8957 27.522C86.5647 26.556 85.7107 25.236 83.5017 24.752C81.7137 23.301 79.1887 20.187 76.7437 17.171C70.2177 9.12201 62.8217 0 54.1037 0Z" fill="#060709"/>
<path d="M50.1598 76.474C64.5115 76.474 76.1458 71.7341 76.1458 65.8871C76.1458 60.04 64.5115 55.3 50.1598 55.3C35.8081 55.3 24.1738 60.04 24.1738 65.8871C24.1738 71.7341 35.8081 76.474 50.1598 76.474Z" fill="#D07944"/>
<path d="M50.1595 56.743C63.7145 56.743 74.7025 60.837 74.7025 65.887C74.7025 70.937 63.7145 75.031 50.1595 75.031C36.6045 75.031 25.6165 70.937 25.6165 65.887C25.6165 60.837 36.6045 56.743 50.1595 56.743ZM50.1595 53.856C36.5285 53.856 22.7285 57.988 22.7285 65.887C22.7285 73.785 36.5275 77.918 50.1595 77.918C63.7905 77.918 77.5905 73.785 77.5905 65.887C77.5905 57.989 63.7905 53.856 50.1595 53.856Z" fill="#060709"/>
<path d="M50.1073 68.1282C42.0763 68.1282 33.9263 66.9232 27.1613 64.7342C0.267288 56.0372 1.4453 29.9992 1.4603 29.7372C1.5043 28.9732 2.13628 28.3762 2.90128 28.3762H92.0063C92.6813 28.3762 93.2663 28.8442 93.4143 29.5022C95.5943 39.1722 94.0593 47.3772 88.8513 53.8882C81.6153 62.9372 67.4933 68.1272 50.1083 68.1272L50.1073 68.1282Z" fill="#E89255"/>
<path d="M92.0079 29.8211C97.9899 56.3631 73.6859 66.6851 50.1079 66.6851C42.1229 66.6851 34.2199 65.5011 27.6059 63.3621C1.46285 54.9071 2.90184 29.8211 2.90184 29.8211H92.0079ZM92.0079 26.9331H2.90184C1.37184 26.9331 0.106847 28.1271 0.0188472 29.6551C0.00284715 29.9371 -0.342144 36.6541 2.76586 44.4851C5.64786 51.7481 12.1428 61.3951 26.7168 66.1091C33.6228 68.3421 41.9299 69.5731 50.1079 69.5731C67.9349 69.5731 82.4688 64.1851 89.9809 54.7921C95.4759 47.9211 97.1048 39.3061 94.8248 29.1871C94.5278 27.8691 93.3579 26.9331 92.0079 26.9331Z" fill="#060709"/>
<path d="M39.1549 56.5971C21.6819 50.9461 16.5359 37.8741 15.0409 29.8201H2.90087C2.90087 29.8201 1.46188 54.9051 27.6049 63.3611C45.0809 69.0131 71.5449 67.9951 84.7819 56.0871C70.8729 61.3331 52.4229 60.8891 39.1549 56.5971Z" fill="#D07944"/>
<path d="M47.455 41.4261C72.8579 41.4261 93.451 36.2303 93.451 29.8211C93.451 23.4118 72.8579 18.2161 47.455 18.2161C22.0521 18.2161 1.45898 23.4118 1.45898 29.8211C1.45898 36.2303 22.0521 41.4261 47.455 41.4261Z" fill="#FECAA2"/>
<path d="M47.4556 19.659C72.0616 19.659 92.0086 24.208 92.0086 29.82C92.0086 35.432 72.0616 39.981 47.4556 39.981C22.8496 39.981 2.90262 35.432 2.90262 29.82C2.90262 24.209 22.8496 19.659 47.4556 19.659ZM47.4556 16.772C35.3456 16.772 23.9296 17.855 15.3096 19.82C5.01763 22.167 0.015625 25.438 0.015625 29.82C0.015625 34.202 5.01863 37.473 15.3096 39.82C23.9286 41.786 35.3446 42.868 47.4556 42.868C59.5656 42.868 70.9816 41.785 79.6016 39.82C89.8936 37.473 94.8956 34.202 94.8956 29.82C94.8956 25.438 89.8926 22.167 79.6016 19.82C70.9816 17.855 59.5656 16.772 47.4556 16.772Z" fill="#060709"/>
<path d="M47.4544 36.0729C24.3254 36.0729 10.6494 32.2489 7.31641 29.8199C10.6494 27.3909 24.3254 23.5669 47.4544 23.5669C70.5834 23.5669 84.2594 27.3909 87.5934 29.8199C84.2594 32.2489 70.5834 36.0729 47.4544 36.0729Z" fill="#3D1B18"/>
<path d="M82.9312 30.0019C78.8612 30.0019 51.8352 23.4699 40.7392 13.7429L40.5332 13.5629L40.5822 13.2949C40.6002 13.1999 42.4482 3.7609 53.8072 3.3739C53.9052 3.3699 54.0042 3.3689 54.1032 3.3689C61.2152 3.3689 68.3742 12.1989 74.1262 19.2929C76.9452 22.7689 79.6072 26.0519 81.7392 27.6489C82.1612 27.9659 82.5592 28.2119 82.9212 28.3829C83.5132 28.6609 84.0832 28.9759 83.9682 29.4879C83.8542 30.0019 83.2082 30.0019 82.9312 30.0019Z" fill="#F89790"/>
<path d="M54.1028 3.84996C64.4218 3.84796 74.9028 23.131 81.4508 28.035C81.8908 28.365 82.3138 28.63 82.7178 28.819C83.7308 29.294 83.7198 29.521 82.9328 29.521C78.6998 29.521 52.0008 22.975 41.0568 13.381C41.0568 13.381 42.7218 4.23297 53.8238 3.85497C53.9148 3.85097 54.0098 3.84996 54.1028 3.84996ZM54.1038 2.88696H54.1018C53.9978 2.88696 53.8928 2.88895 53.7888 2.89195C42.0478 3.29195 40.1258 13.108 40.1078 13.208L40.0098 13.744L40.4198 14.103C51.5968 23.901 78.8288 30.482 82.9298 30.482C83.7978 30.482 84.3058 30.183 84.4368 29.592C84.6448 28.66 83.6558 28.196 83.1238 27.946C82.7918 27.79 82.4228 27.56 82.0248 27.263C79.9398 25.702 77.2968 22.441 74.4978 18.989C68.3808 11.442 61.4448 2.88696 54.1038 2.88696Z" fill="#E7C9CB"/>
<path d="M78.3772 28.8409C76.1322 27.6399 72.8293 25.2079 68.3573 20.2289C58.7863 9.57189 64.1593 8.99389 56.7323 8.16189C49.3053 7.32989 46.4733 6.27589 44.6423 9.46189C43.8153 10.9009 42.5903 12.7169 42.7413 14.7399C52.1773 21.8299 69.7082 27.0479 78.3772 28.8409Z" fill="#FF6958"/>
<path d="M58.3418 46.1561C58.3418 46.1561 83.3668 45.1941 89.1408 40.3811C89.1408 40.3811 89.1408 46.1561 86.2538 48.0811C83.3668 50.0061 62.1918 49.0441 58.3418 46.1561Z" fill="#FECAA2"/>
<path d="M42.2997 34.027C28.9387 34.027 18.3597 32.638 10.8577 29.898L10.6017 29.804L10.5497 29.536C10.5217 29.387 7.87669 14.529 24.3157 7.507C26.1717 6.714 28.2927 6.31201 30.6187 6.31201C40.4607 6.31201 52.6497 13.29 63.4047 19.446C69.6067 22.996 75.4637 26.35 79.5847 27.504C80.4167 27.737 81.1697 27.878 81.8207 27.923C82.8137 27.992 83.7827 28.12 83.7577 28.831C83.6807 31.066 60.0457 34.027 42.2997 34.027Z" fill="#F89790"/>
<path d="M30.6179 6.79404C46.1919 6.79204 68.3509 24.857 79.4549 27.969C80.299 28.206 81.079 28.356 81.788 28.405C89.459 28.938 66.1629 33.546 42.2989 33.546C30.8979 33.546 19.3719 32.495 11.0219 29.446C11.0219 29.446 8.23096 14.901 24.504 7.95004C26.38 7.15004 28.4359 6.79404 30.6179 6.79404ZM30.621 5.83203H30.6179C28.2259 5.83203 26.0419 6.24704 24.1259 7.06604C7.33394 14.238 10.048 29.475 10.077 29.628L10.18 30.164L10.6919 30.351C18.2479 33.11 28.8819 34.509 42.2989 34.509C54.6289 34.509 65.356 33.32 70.654 32.611C84.171 30.803 84.2129 29.579 84.2389 28.849C84.2819 27.614 82.7029 27.504 81.8549 27.445C81.2339 27.402 80.515 27.266 79.715 27.042C75.652 25.903 69.8189 22.564 63.6439 19.029C52.8389 12.843 40.591 5.83203 30.621 5.83203Z" fill="#E7C9CB"/>
<path d="M75.3536 30.9361C71.3276 30.4441 65.0216 28.7321 55.5146 23.9091C35.1656 13.5871 42.8146 9.63611 31.3036 12.6741C19.7926 15.7121 14.9806 15.7751 14.0936 21.5621C13.6936 24.1751 12.9176 27.5771 14.3066 30.4961C32.4026 35.5971 61.4456 33.2601 75.3536 30.9361Z" fill="#FF6958"/>
<path d="M44.5864 35.1139C36.3224 35.1139 29.6034 34.2909 24.6164 32.6659L24.3574 32.5809L24.2964 32.3149C24.2704 32.1979 21.7764 20.5899 34.4934 14.6189C36.0864 13.8709 37.9444 13.4919 40.0144 13.4919C47.6314 13.4919 57.0884 18.4709 65.4324 22.8629C70.3664 25.4609 75.0264 27.915 78.2634 28.7C78.9114 28.857 79.4954 28.946 79.9984 28.963C80.6154 28.984 81.6494 29.0189 81.6374 29.7329C81.6164 30.9179 75.0554 32.1979 69.5534 33.0629C64.6854 33.8299 54.9664 35.1139 44.5864 35.1139Z" fill="#F89790"/>
<path d="M40.0135 13.974C52.1515 13.973 69.5315 27.079 78.1495 29.169C78.8145 29.33 79.4285 29.426 79.9825 29.445C86.4925 29.667 64.7115 34.633 44.5855 34.633C37.2835 34.633 30.2015 33.98 24.7645 32.209C24.7645 32.209 22.1845 20.93 34.6975 15.055C36.3005 14.303 38.0925 13.974 40.0135 13.974ZM40.0155 13.012H40.0135C37.8715 13.012 35.9455 13.407 34.2885 14.185C21.2245 20.319 23.7995 32.304 23.8265 32.424L23.9485 32.956L24.4675 33.125C29.5025 34.765 36.2715 35.596 44.5865 35.596C54.9985 35.596 64.7455 34.308 69.6295 33.54C82.0885 31.581 82.1075 30.43 82.1195 29.743C82.1395 28.556 80.6515 28.505 80.0165 28.484C79.5455 28.468 78.9935 28.384 78.3775 28.235C75.1995 27.464 70.5655 25.024 65.6585 22.441C57.2645 18.021 47.7515 13.012 40.0155 13.012Z" fill="#E7C9CB"/>
<path d="M75.0304 31.5991C71.8734 31.3261 66.9034 30.1631 59.3484 26.6601C43.1774 19.1621 49.0404 15.8681 40.1374 18.5571C31.2344 21.2461 27.4794 21.4281 26.9464 25.9701C26.7054 28.0211 26.1944 30.6981 27.3594 32.9391C41.6264 36.4221 64.2364 33.7971 75.0304 31.5991Z" fill="#FF6958"/>
<path d="M37.7054 51.7131C37.7054 53.7191 36.0794 55.345 34.0734 55.345C32.0674 55.345 30.4414 53.7191 30.4414 51.7131C30.4414 49.7071 32.0674 48.0811 34.0734 48.0811C36.0794 48.0811 37.7054 49.7071 37.7054 51.7131Z" fill="black"/>
<path d="M49.8476 55.1331C49.8476 57.6171 47.8335 59.6311 45.3495 59.6311C42.8655 59.6311 40.8516 57.6171 40.8516 55.1331" stroke="black" stroke-width="1.925" stroke-miterlimit="10" stroke-linecap="round"/>
<path d="M58.8437 55.1331C58.8437 57.6171 56.8297 59.6311 54.3457 59.6311C51.8617 59.6311 49.8477 57.6171 49.8477 55.1331" stroke="black" stroke-width="1.925" stroke-miterlimit="10" stroke-linecap="round"/>
<path d="M36.8801 50.5231C36.8801 51.3891 36.1781 52.0911 35.3121 52.0911C34.4461 52.0911 33.7441 51.3891 33.7441 50.5231C33.7441 49.6571 34.4461 48.9551 35.3121 48.9551C36.1781 48.9551 36.8801 49.6571 36.8801 50.5231Z" fill="white"/>
<path d="M36.8802 57.3822C36.8802 58.2872 34.3772 59.0212 31.2892 59.0212C28.2012 59.0212 25.6973 58.2872 25.6973 57.3822C25.6973 56.4772 28.2012 55.7432 31.2892 55.7432C34.3772 55.7432 36.8802 56.4772 36.8802 57.3822Z" fill="#C24855"/>
<path d="M62.8164 51.7131C62.8164 53.7191 64.4424 55.345 66.4484 55.345C68.4544 55.345 70.0804 53.7191 70.0804 51.7131C70.0804 49.7071 68.4544 48.0811 66.4484 48.0811C64.4424 48.0811 62.8164 49.7071 62.8164 51.7131Z" fill="black"/>
<path d="M66.0957 50.5231C66.0957 51.3891 66.7977 52.0911 67.6637 52.0911C68.5297 52.0911 69.2317 51.3891 69.2317 50.5231C69.2317 49.6571 68.5297 48.9551 67.6637 48.9551C66.7987 48.9551 66.0957 49.6571 66.0957 50.5231Z" fill="white"/>
<path d="M69.2336 59.0212C72.3214 59.0212 74.8246 58.2874 74.8246 57.3822C74.8246 56.477 72.3214 55.7432 69.2336 55.7432C66.1458 55.7432 63.6426 56.477 63.6426 57.3822C63.6426 58.2874 66.1458 59.0212 69.2336 59.0212Z" fill="#C24855"/>
</svg>
