<svg width="152" height="126" viewBox="0 0 152 126" fill="none" xmlns="http://www.w3.org/2000/svg">
<path d="M37.9829 83.181C22.0949 83.181 9.16992 71.907 9.16992 58.049C9.16992 44.191 22.0949 32.917 37.9829 32.917C53.8709 32.917 66.7959 44.191 66.7959 58.049C66.7959 71.907 53.8709 83.181 37.9829 83.181Z" fill="#B76039"/>
<path d="M37.9849 33.418C53.6219 33.418 66.2979 44.446 66.2979 58.05C66.2979 71.654 53.6219 82.682 37.9849 82.682C22.3479 82.682 9.67188 71.654 9.67188 58.05C9.67188 44.446 22.3479 33.418 37.9849 33.418ZM37.9849 32.418C21.8219 32.418 8.67188 43.916 8.67188 58.05C8.67188 72.184 21.8219 83.682 37.9849 83.682C54.1479 83.682 67.2979 72.184 67.2979 58.05C67.2979 43.916 54.1479 32.418 37.9849 32.418Z" fill="#6C4023"/>
<path d="M37.9849 77.1539C23.4229 77.1539 11.4419 67.5869 9.86087 55.2859C9.74387 56.1939 9.67188 57.1139 9.67188 58.0499C9.67188 71.6539 22.3479 82.6819 37.9849 82.6819C53.6219 82.6819 66.2979 71.6539 66.2979 58.0499C66.2979 57.1149 66.2259 56.1949 66.1089 55.2859C64.5279 67.5869 52.5459 77.1539 37.9849 77.1539Z" fill="#9E4C2B"/>
<path d="M37.9844 38.55L40.3804 46.0291L47.8584 48.425L40.3804 50.821L37.9844 58.3L35.5874 50.821L28.1094 48.425L35.5874 46.0291L37.9844 38.55Z" fill="#FEECB7" stroke="#6C4023" stroke-miterlimit="10" stroke-linejoin="round"/>
<path d="M69.7151 89.941C65.5601 89.941 62.9952 89.126 62.8882 89.09C62.8172 89.0689 54.5561 86.535 53.6111 78.386C53.1791 74.661 55.2081 69.557 57.5591 63.646C60.2401 56.902 63.2791 49.257 63.0511 42.296C62.3111 19.803 70.6712 7.20096 87.2281 5.85196C88.3001 5.76496 89.3692 5.71997 90.4032 5.71997C100.855 5.71997 109.085 10.21 113.577 18.363C120.163 30.317 117.607 48.263 106.905 65.201C93.3012 86.726 77.7661 89.941 69.7151 89.941Z" fill="#9E4C2B"/>
<path d="M90.4011 6.22095C116.688 6.22095 125.548 34.76 106.48 64.934C93.1771 85.986 78.1491 89.442 69.7141 89.442C65.5901 89.442 63.0421 88.6159 63.0421 88.6159C63.0421 88.6159 55.0251 86.244 54.1071 78.33C53.1961 70.482 63.9781 55.3309 63.5491 42.2809C63.1201 29.2309 65.2871 8.14294 87.2671 6.35194C88.3391 6.26294 89.3811 6.22095 90.4011 6.22095ZM90.4011 5.22095C89.3541 5.22095 88.2721 5.26594 87.1861 5.35394C70.3191 6.72894 61.8001 19.509 62.5501 42.313C62.7751 49.17 59.7571 56.7619 57.0941 63.4609C54.7191 69.4349 52.6681 74.5939 53.1141 78.4439C54.0971 86.9169 62.4051 89.4699 62.7591 89.5739C62.8441 89.6019 65.4821 90.4409 69.7151 90.4409C77.8681 90.4409 93.5951 87.196 107.326 65.4669C118.126 48.3759 120.688 30.235 114.013 18.121C109.429 9.80196 101.043 5.22095 90.4011 5.22095Z" fill="#6C4023"/>
<path d="M64.6995 84.722C60.5445 84.722 57.9805 83.907 57.8725 83.871C57.8015 83.85 49.5405 81.314 48.5955 73.166C48.1635 69.441 50.1925 64.337 52.5425 58.426C55.2235 51.682 58.2625 44.037 58.0345 37.077C57.2945 14.584 65.6545 1.98199 82.2115 0.631989C83.2835 0.544989 84.3515 0.500977 85.3855 0.500977C95.8375 0.500977 104.068 4.99097 108.56 13.143C115.147 25.097 112.59 43.043 101.888 59.98C88.2865 81.507 72.7505 84.722 64.6995 84.722Z" fill="#CC6846"/>
<path d="M85.3874 1C111.674 1 120.534 29.539 101.466 59.713C88.1635 80.765 73.1355 84.221 64.7005 84.221C60.5765 84.221 58.0285 83.395 58.0285 83.395C58.0285 83.395 50.0114 81.023 49.0934 73.109C48.1824 65.261 58.9645 50.11 58.5355 37.06C58.1065 24.01 60.2734 2.922 82.2534 1.131C83.3254 1.043 84.3674 1 85.3874 1ZM85.3874 0C84.3404 0 83.2584 0.0449956 82.1724 0.132996C65.3054 1.508 56.7865 14.288 57.5365 37.092C57.7615 43.949 54.7435 51.541 52.0805 58.24C49.7055 64.214 47.6545 69.373 48.1005 73.223C49.0835 81.696 57.3914 84.249 57.7454 84.353C57.8304 84.381 60.4684 85.22 64.7014 85.22C72.8544 85.22 88.5815 81.975 102.312 60.246C113.112 43.155 115.674 25.014 108.999 12.9C104.415 4.58199 96.0294 0 85.3874 0Z" fill="#6C4023"/>
<path d="M110.984 21.3611C111.514 31.1071 108.348 42.7571 100.822 54.6681C81.015 86.0131 57.384 78.3501 57.384 78.3501C57.384 78.3501 51.285 76.5421 49.118 70.8261C49.028 71.6401 49.013 72.4051 49.094 73.1081C50.012 81.0231 58.029 83.3941 58.029 83.3941C58.029 83.3941 81.66 91.0571 101.467 59.7121C110.343 45.6661 113.152 31.9841 110.984 21.3611Z" fill="#9E4C2B"/>
<path d="M67.7422 14.4941C71.0242 14.1401 74.3392 14.4531 77.5692 15.0661C80.8112 15.6621 83.9872 16.6301 87.0292 17.9171C90.0732 19.1951 93.0122 20.7511 95.6922 22.6831C98.4232 24.5291 100.861 26.8001 102.976 29.3031C100.058 27.7581 97.3402 26.0991 94.4812 24.6871C91.6592 23.2251 88.7862 21.9051 85.8722 20.6851C82.9652 19.4421 79.9942 18.3541 76.9812 17.3241C73.9582 16.3101 70.9042 15.3771 67.7422 14.4941Z" fill="#6C4023"/>
<path d="M64.9238 28.6421C68.2058 28.2881 71.5208 28.6011 74.7508 29.2141C77.9928 29.8101 81.1688 30.7781 84.2108 32.0651C87.2548 33.3431 90.1938 34.8991 92.8738 36.8311C95.6048 38.6771 98.0428 40.9481 100.158 43.4511C97.2398 41.9061 94.5218 40.2471 91.6628 38.8351C88.8408 37.3731 85.9678 36.0531 83.0538 34.8331C80.1468 33.5901 77.1758 32.5021 74.1628 31.4721C71.1398 30.4581 68.0858 29.5251 64.9238 28.6421Z" fill="#6C4023"/>
<path d="M62.1035 42.79C65.3855 42.436 68.7005 42.749 71.9305 43.362C75.1725 43.958 78.3485 44.926 81.3905 46.213C84.4345 47.491 87.3735 49.047 90.0535 50.979C92.7845 52.825 95.2225 55.096 97.3375 57.599C94.4195 56.054 91.7015 54.395 88.8425 52.983C86.0205 51.521 83.1475 50.201 80.2335 48.981C77.3265 47.738 74.3555 46.65 71.3425 45.62C68.3205 44.606 65.2665 43.673 62.1035 42.79Z" fill="#6C4023"/>
<path d="M59.2871 56.9369C61.6961 56.5069 64.1431 56.6649 66.5301 57.0389C68.9191 57.4319 71.2641 58.1079 73.4981 59.0559C75.7351 59.9909 77.8801 61.1689 79.8221 62.6249C81.7851 64.0439 83.5301 65.7709 84.9611 67.7279C82.7231 66.7359 80.7121 65.5989 78.6021 64.6439C76.5351 63.6269 74.4451 62.7089 72.3411 61.8239C70.2401 60.9289 68.1061 60.1059 65.9371 59.3149C63.7671 58.5039 61.5731 57.7529 59.2871 56.9369Z" fill="#6C4023"/>
<path d="M103.552 116.804C99.398 116.804 96.833 115.989 96.726 115.953C96.655 115.932 88.394 113.396 87.449 105.248C87.017 101.524 89.047 96.419 91.396 90.509C94.078 83.764 97.117 76.119 96.888 69.158C96.148 46.666 104.508 34.063 121.065 32.714C122.137 32.627 123.205 32.583 124.239 32.583C134.691 32.583 142.921 37.073 147.413 45.225C154 57.179 151.443 75.125 140.741 92.062C127.138 113.588 111.604 116.804 103.553 116.804H103.552Z" fill="#9E4C2B"/>
<path d="M124.239 33.082C150.526 33.082 159.386 61.621 140.318 91.795C127.015 112.847 111.987 116.303 103.552 116.303C99.428 116.303 96.88 115.477 96.88 115.477C96.88 115.477 88.863 113.105 87.945 105.191C87.034 97.343 97.816 82.192 97.387 69.142C96.958 56.092 99.125 35.004 121.105 33.213C122.177 33.125 123.219 33.082 124.239 33.082ZM124.239 32.082C123.192 32.082 122.11 32.127 121.024 32.215C104.157 33.59 95.638 46.37 96.388 69.174C96.613 76.031 93.595 83.623 90.932 90.322C88.557 96.296 86.506 101.455 86.952 105.305C87.935 113.778 96.243 116.331 96.597 116.435C96.682 116.463 99.32 117.302 103.553 117.302C111.706 117.302 127.433 114.057 141.164 92.328C151.964 75.237 154.526 57.096 147.851 44.982C143.267 36.664 134.881 32.082 124.239 32.082Z" fill="#6C4023"/>
<path d="M98.5374 111.583C94.3824 111.583 91.8174 110.768 91.7104 110.732C91.6394 110.711 83.3784 108.175 82.4334 100.028C82.0014 96.3031 84.0304 91.1991 86.3804 85.2881C89.0614 78.5441 92.1004 70.8991 91.8724 63.9381C91.1334 41.4451 99.4934 28.8431 116.049 27.4931C117.121 27.4061 118.189 27.3621 119.223 27.3621C129.675 27.3621 137.905 31.8521 142.397 40.0041C148.984 51.9581 146.427 69.9051 135.725 86.8421C122.123 108.368 106.588 111.583 98.5374 111.583Z" fill="#CC6846"/>
<path d="M119.223 27.8621C145.51 27.8621 154.37 56.4011 135.302 86.5751C121.999 107.627 106.971 111.083 98.5364 111.083C94.4124 111.083 91.8644 110.257 91.8644 110.257C91.8644 110.257 83.8474 107.885 82.9294 99.9711C82.0184 92.1231 92.8004 76.972 92.3714 63.922C91.9424 50.872 94.1094 29.7841 116.089 27.9931C117.161 27.9051 118.203 27.8621 119.223 27.8621ZM119.223 26.8621C118.176 26.8621 117.094 26.9071 116.008 26.9951C99.1414 28.3701 90.6224 41.1501 91.3724 63.9541C91.5974 70.8111 88.5794 78.4031 85.9164 85.1021C83.5414 91.0761 81.4904 96.2351 81.9364 100.085C82.9194 108.558 91.2274 111.111 91.5814 111.215C91.6664 111.243 94.3044 112.082 98.5374 112.082C106.69 112.082 122.417 108.837 136.148 87.108C146.948 70.017 149.51 51.8761 142.835 39.7621C138.251 31.4441 129.865 26.8621 119.223 26.8621Z" fill="#6C4023"/>
<path d="M144.82 48.2222C145.35 57.9682 142.184 69.6182 134.658 81.5292C114.851 112.874 91.2199 105.211 91.2199 105.211C91.2199 105.211 85.1209 103.403 82.9539 97.6872C82.8639 98.5012 82.8489 99.2662 82.9299 99.9692C83.8479 107.884 91.8649 110.255 91.8649 110.255C91.8649 110.255 115.496 117.918 135.303 86.5732C144.179 72.5282 146.988 58.8462 144.82 48.2222Z" fill="#9E4C2B"/>
<path d="M101.58 41.3562C104.862 41.0022 108.177 41.3152 111.407 41.9282C114.649 42.5242 117.825 43.4922 120.867 44.7792C123.911 46.0572 126.85 47.6132 129.53 49.5452C132.261 51.3912 134.699 53.6622 136.814 56.1652C133.896 54.6202 131.178 52.9612 128.319 51.5492C125.497 50.0872 122.624 48.7672 119.71 47.5472C116.803 46.3042 113.832 45.2162 110.819 44.1862C107.796 43.1722 104.742 42.2392 101.58 41.3562Z" fill="#6C4023"/>
<path d="M98.7598 55.5031C102.042 55.1491 105.357 55.4621 108.587 56.0751C111.829 56.6711 115.005 57.6392 118.047 58.9262C121.091 60.2042 124.03 61.7601 126.71 63.6921C129.441 65.5381 131.879 67.8091 133.994 70.3121C131.076 68.7671 128.358 67.1081 125.499 65.6961C122.677 64.2341 119.804 62.9141 116.89 61.6941C113.983 60.4511 111.012 59.3631 107.999 58.3331C104.976 57.3201 101.922 56.3861 98.7598 55.5031Z" fill="#6C4023"/>
<path d="M95.9414 69.6511C99.2234 69.2971 102.538 69.6101 105.768 70.2231C109.01 70.8191 112.186 71.7871 115.228 73.0741C118.272 74.3521 121.211 75.9081 123.891 77.8401C126.622 79.6861 129.06 81.9571 131.175 84.4601C128.257 82.9151 125.539 81.2561 122.68 79.8441C119.858 78.3821 116.985 77.0621 114.071 75.8421C111.164 74.5991 108.193 73.5111 105.18 72.4811C102.157 71.4681 99.1034 70.5341 95.9414 69.6511Z" fill="#6C4023"/>
<path d="M93.123 83.799C95.532 83.369 97.9791 83.526 100.366 83.901C102.755 84.294 105.1 84.97 107.334 85.918C109.571 86.853 111.716 88.031 113.658 89.487C115.621 90.906 117.366 92.633 118.797 94.59C116.559 93.598 114.548 92.461 112.438 91.506C110.371 90.489 108.281 89.571 106.177 88.686C104.076 87.791 101.942 86.968 99.773 86.177C97.603 85.366 95.41 84.614 93.123 83.799Z" fill="#6C4023"/>
<path d="M118.019 121.421C116.779 121.421 115.617 120.829 114.871 119.863C114.125 120.829 112.963 121.421 111.723 121.421C110.634 121.421 109.602 120.974 108.856 120.2C108.11 120.973 107.078 121.421 105.989 121.421C104.629 121.421 103.379 120.707 102.658 119.595C101.937 120.707 100.687 121.421 99.3266 121.421C98.1586 121.421 97.0556 120.895 96.3056 120.012C95.5556 120.895 94.4526 121.421 93.2846 121.421C92.0226 121.421 90.8516 120.818 90.1086 119.834C89.3646 120.818 88.1936 121.421 86.9326 121.421C85.6706 121.421 84.4996 120.818 83.7566 119.834C83.0126 120.818 81.8416 121.421 80.5806 121.421C79.0886 121.421 77.7746 120.604 77.0956 119.357C76.4156 120.604 75.1016 121.421 73.6106 121.421C72.1186 121.421 70.8046 120.604 70.1256 119.357C69.4456 120.604 68.1316 121.421 66.6406 121.421C65.3786 121.421 64.2076 120.818 63.4646 119.834C62.7206 120.818 61.5496 121.421 60.2886 121.421C59.0266 121.421 57.8556 120.818 57.1126 119.834C56.3696 120.818 55.1976 121.421 53.9366 121.421C52.7676 121.421 51.6646 120.896 50.9156 120.012C50.1656 120.896 49.0626 121.421 47.8946 121.421C46.5346 121.421 45.2856 120.707 44.5636 119.596C43.8426 120.707 42.5926 121.421 41.2326 121.421C40.1436 121.421 39.1106 120.974 38.3656 120.2C37.6196 120.973 36.5876 121.421 35.4986 121.421C34.2586 121.421 33.0966 120.829 32.3506 119.863C31.6056 120.829 30.4426 121.421 29.2036 121.421C27.3126 121.421 25.7246 120.101 25.3266 118.309C24.9386 118.435 24.5436 118.498 24.1446 118.498C21.9466 118.498 20.1596 116.71 20.1596 114.513C20.1596 114.125 20.2196 113.74 20.3376 113.362C18.6936 112.858 17.5176 111.322 17.5176 109.566C17.5176 108.057 18.3776 106.703 19.6686 106.029C18.7836 105.283 18.2486 104.175 18.2486 102.989C18.2486 101.402 19.1926 99.9908 20.6116 99.3608C20.3146 98.7958 20.1596 98.1748 20.1596 97.5368C20.1596 95.6328 21.5206 94.0238 23.3216 93.6408C23.1276 93.1658 23.0266 92.6578 23.0266 92.1398C23.0266 90.2798 24.3136 88.7048 26.0686 88.2808C25.8796 87.8128 25.7816 87.3138 25.7816 86.8098C25.7816 84.7478 27.3546 83.0478 29.3636 82.8448C29.2996 82.5598 29.2676 82.2698 29.2676 81.9758C29.2676 80.1258 30.5136 78.5738 32.2566 78.1318C32.1376 77.7548 32.0786 77.3698 32.0786 76.9828C32.0786 74.8888 33.7016 73.1678 35.7556 73.0088C35.6286 72.6198 35.5636 72.2198 35.5636 71.8108C35.5636 69.7318 37.1646 68.0188 39.1976 67.8408C39.0976 67.4948 39.0486 67.1438 39.0486 66.7888C39.0486 64.8498 40.4626 63.2158 42.3146 62.8738C42.2366 62.5608 42.1966 62.2418 42.1966 61.9178C42.1966 59.8788 43.7366 58.1918 45.7146 57.9598C45.6936 57.8018 45.6826 57.6478 45.6826 57.4948C45.6826 55.3238 47.4276 53.5538 49.5886 53.5118C49.5326 53.2448 49.5056 52.9738 49.5056 52.6988C49.5056 50.5018 51.2936 48.7148 53.4906 48.7148C53.5486 48.7148 53.6056 48.7168 53.6636 48.7198C53.5406 48.3338 53.4776 47.9328 53.4776 47.5288C53.4776 45.3318 55.2656 43.5438 57.4626 43.5438C57.7416 43.5438 58.0196 43.5748 58.2946 43.6368C58.2816 43.5098 58.2746 43.3828 58.2746 43.2568C58.2746 41.0598 60.0626 39.2718 62.2596 39.2718C62.6076 39.2718 62.9536 39.3188 63.2896 39.4118C63.2556 39.2088 63.2396 39.0038 63.2396 38.7978C63.2396 36.5998 65.0276 34.8128 67.2246 34.8128C68.1986 34.8128 69.1206 35.1668 69.8356 35.7918C70.3556 34.1898 71.8496 33.0498 73.6136 33.0498C75.4366 33.0498 76.9766 34.2788 77.4496 35.9518C78.1816 35.2358 79.1756 34.8128 80.2276 34.8128C82.4256 34.8128 84.2126 36.6008 84.2126 38.7978C84.2126 38.9858 84.1996 39.1728 84.1726 39.3568C84.4356 39.3008 84.7006 39.2728 84.9676 39.2728C87.1656 39.2728 88.9526 41.0608 88.9526 43.2578C88.9526 43.3838 88.9456 43.5108 88.9316 43.6378C89.2066 43.5758 89.4846 43.5448 89.7636 43.5448C91.9606 43.5448 93.7486 45.3328 93.7486 47.5298C93.7486 47.9338 93.6856 48.3358 93.5626 48.7208C93.6206 48.7178 93.6786 48.7158 93.7356 48.7158C95.9336 48.7158 97.7206 50.5028 97.7206 52.6998C97.7206 52.9748 97.6926 53.2468 97.6376 53.5128C99.7986 53.5548 101.544 55.3258 101.544 57.4958C101.544 57.6478 101.533 57.8018 101.511 57.9608C103.49 58.1928 105.029 59.8798 105.029 61.9188C105.029 62.2428 104.989 62.5628 104.911 62.8748C106.763 63.2168 108.176 64.8508 108.176 66.7898C108.176 67.1438 108.126 67.4958 108.027 67.8418C110.061 68.0198 111.661 69.7328 111.661 71.8118C111.661 72.2198 111.597 72.6218 111.469 73.0098C113.523 73.1678 115.146 74.8898 115.146 76.9838C115.146 77.3718 115.086 77.7558 114.968 78.1328C116.711 78.5738 117.957 80.1268 117.957 81.9768C117.957 82.2708 117.925 82.5618 117.861 82.8458C119.869 83.0488 121.442 84.7488 121.442 86.8108C121.442 87.3148 121.344 87.8128 121.155 88.2818C122.909 88.7068 124.197 90.2798 124.197 92.1408C124.197 92.6588 124.096 93.1668 123.902 93.6418C125.704 94.0238 127.065 95.6328 127.065 97.5378C127.065 98.1768 126.91 98.7968 126.613 99.3618C128.031 99.9918 128.976 101.402 128.976 102.99C128.976 104.176 128.441 105.284 127.557 106.03C128.848 106.704 129.708 108.058 129.708 109.567C129.708 111.323 128.532 112.858 126.888 113.363C127.006 113.741 127.066 114.126 127.066 114.514C127.066 116.711 125.278 118.499 123.081 118.499C122.682 118.499 122.286 118.436 121.899 118.31C121.498 120.1 119.91 121.421 118.019 121.421Z" fill="#FEFDFF"/>
<path d="M73.6106 33.5459C75.5356 33.5459 77.0956 35.1059 77.0956 37.0309C77.0956 37.1379 77.0736 37.2389 77.0636 37.3439C77.6146 36.1449 78.8186 35.3089 80.2246 35.3089C82.1496 35.3089 83.7096 36.8689 83.7096 38.7939C83.7096 39.2689 83.6126 39.7219 83.4406 40.1339C83.9026 39.9079 84.4156 39.7689 84.9646 39.7689C86.8896 39.7689 88.4496 41.3289 88.4496 43.2539C88.4496 43.6589 88.3666 44.0429 88.2396 44.4039C88.7006 44.1779 89.2126 44.0409 89.7606 44.0409C91.6856 44.0409 93.2456 45.6009 93.2456 47.5259C93.2456 48.2119 93.0406 48.8469 92.6986 49.3859C93.0276 49.2829 93.3706 49.2119 93.7326 49.2119C95.6576 49.2119 97.2176 50.7719 97.2176 52.6969C97.2176 53.1849 97.1156 53.6489 96.9346 54.0709C97.1366 54.0349 97.3426 54.0079 97.5556 54.0079C99.4806 54.0079 101.041 55.5679 101.041 57.4929C101.041 57.8249 100.98 58.1399 100.893 58.4449C100.943 58.4429 100.99 58.4299 101.041 58.4299C102.966 58.4299 104.526 59.9899 104.526 61.9149C104.526 62.4099 104.42 62.8789 104.233 63.3059C106.137 63.3309 107.673 64.8769 107.673 66.7869C107.673 67.3569 107.523 67.8879 107.28 68.3629C107.411 68.3479 107.538 68.3229 107.673 68.3229C109.598 68.3229 111.158 69.8829 111.158 71.8079C111.158 72.4429 110.976 73.0299 110.679 73.5429C110.837 73.5209 110.994 73.4949 111.158 73.4949C113.083 73.4949 114.643 75.0549 114.643 76.9799C114.643 77.5349 114.501 78.0519 114.271 78.5179C116.052 78.6739 117.454 80.1509 117.454 81.9729C117.454 82.4629 117.351 82.9279 117.169 83.3509C117.265 83.3429 117.357 83.3219 117.454 83.3219C119.379 83.3219 120.939 84.8819 120.939 86.8069C120.939 87.4939 120.733 88.1309 120.39 88.6699C122.228 88.7669 123.693 90.2739 123.693 92.1369C123.693 92.8449 123.479 93.5019 123.116 94.0519C125.021 94.0749 126.56 95.6219 126.56 97.5329C126.56 98.3199 126.289 99.0379 125.85 99.6209C127.355 100.007 128.472 101.36 128.472 102.985C128.472 104.394 127.632 105.601 126.429 106.15C128.013 106.478 129.203 107.881 129.203 109.562C129.203 111.321 127.896 112.76 126.203 112.998C126.425 113.457 126.561 113.965 126.561 114.51C126.561 116.435 125.001 117.995 123.076 117.995C122.5 117.995 121.965 117.842 121.486 117.594C121.4 119.442 119.887 120.918 118.017 120.918C116.621 120.918 115.425 120.092 114.869 118.906C114.313 120.091 113.117 120.918 111.721 120.918C110.531 120.918 109.483 120.32 108.854 119.41C108.225 120.32 107.177 120.918 105.987 120.918C104.402 120.918 103.08 119.853 102.656 118.405C102.233 119.853 100.91 120.918 99.3246 120.918C98.0236 120.918 96.9016 120.196 96.3036 119.139C95.7046 120.196 94.5836 120.918 93.2826 120.918C91.8656 120.918 90.6516 120.069 90.1066 118.854C89.5616 120.068 88.3476 120.918 86.9306 120.918C85.5136 120.918 84.2996 120.069 83.7546 118.854C83.2096 120.068 81.9956 120.918 80.5786 120.918C78.8466 120.918 77.4206 119.651 77.1506 117.995H77.0376C76.7676 119.651 75.3416 120.918 73.6096 120.918C71.8776 120.918 70.4516 119.651 70.1816 117.995H70.0686C69.7986 119.651 68.3726 120.918 66.6406 120.918C65.2236 120.918 64.0096 120.069 63.4646 118.854C62.9196 120.068 61.7056 120.918 60.2886 120.918C58.8716 120.918 57.6576 120.069 57.1126 118.854C56.5676 120.068 55.3536 120.918 53.9366 120.918C52.6356 120.918 51.5136 120.196 50.9156 119.139C50.3166 120.196 49.1956 120.918 47.8946 120.918C46.3096 120.918 44.9866 119.853 44.5636 118.405C44.1406 119.853 42.8176 120.918 41.2326 120.918C40.0426 120.918 38.9946 120.32 38.3656 119.41C37.7366 120.32 36.6886 120.918 35.4986 120.918C34.1026 120.918 32.9066 120.092 32.3506 118.906C31.7946 120.091 30.5986 120.918 29.2026 120.918C27.3336 120.918 25.8196 119.442 25.7336 117.594C25.2546 117.842 24.7196 117.995 24.1436 117.995C22.2186 117.995 20.6586 116.435 20.6586 114.51C20.6586 113.966 20.7946 113.457 21.0166 112.998C19.3236 112.76 18.0166 111.32 18.0166 109.562C18.0166 107.881 19.2076 106.479 20.7906 106.15C19.5876 105.601 18.7476 104.394 18.7476 102.985C18.7476 101.36 19.8646 100.007 21.3696 99.6209C20.9296 99.0379 20.6596 98.3199 20.6596 97.5329C20.6596 95.6219 22.1986 94.0749 24.1036 94.0519C23.7406 93.5019 23.5266 92.8449 23.5266 92.1369C23.5266 90.2749 24.9916 88.7669 26.8296 88.6699C26.4866 88.1299 26.2806 87.4939 26.2806 86.8069C26.2806 84.8819 27.8406 83.3219 29.7656 83.3219C29.8636 83.3219 29.9556 83.3429 30.0506 83.3509C29.8686 82.9279 29.7656 82.4629 29.7656 81.9729C29.7656 80.1519 31.1676 78.6739 32.9486 78.5179C32.7176 78.0519 32.5766 77.5349 32.5766 76.9799C32.5766 75.0549 34.1366 73.4949 36.0616 73.4949C36.2256 73.4949 36.3826 73.5209 36.5406 73.5429C36.2436 73.0299 36.0616 72.4429 36.0616 71.8079C36.0616 69.8829 37.6216 68.3229 39.5466 68.3229C39.6816 68.3229 39.8086 68.3479 39.9396 68.3629C39.6966 67.8879 39.5466 67.3569 39.5466 66.7869C39.5466 64.8779 41.0836 63.3309 42.9866 63.3059C42.8006 62.8789 42.6936 62.4099 42.6936 61.9149C42.6936 59.9899 44.2536 58.4299 46.1786 58.4299C46.2296 58.4299 46.2766 58.4429 46.3266 58.4449C46.2396 58.1409 46.1786 57.8259 46.1786 57.4929C46.1786 55.5679 47.7386 54.0079 49.6636 54.0079C49.8766 54.0079 50.0826 54.0339 50.2846 54.0709C50.1036 53.6489 50.0016 53.1849 50.0016 52.6969C50.0016 50.7719 51.5616 49.2119 53.4866 49.2119C53.8496 49.2119 54.1926 49.2829 54.5206 49.3859C54.1786 48.8469 53.9736 48.2119 53.9736 47.5259C53.9736 45.6009 55.5336 44.0409 57.4586 44.0409C58.0066 44.0409 58.5186 44.1789 58.9796 44.4039C58.8526 44.0419 58.7696 43.6589 58.7696 43.2539C58.7696 41.3289 60.3296 39.7689 62.2546 39.7689C62.9316 39.7689 63.5576 39.9699 64.0926 40.3039C63.8706 39.8449 63.7356 39.3369 63.7356 38.7929C63.7356 36.8679 65.2956 35.3079 67.2206 35.3079C68.4446 35.3079 69.5166 35.9419 70.1386 36.8959C70.2106 35.0359 71.7316 33.5459 73.6106 33.5459ZM73.6106 32.5459C71.8636 32.5459 70.3526 33.5379 69.6156 35.0029C68.9106 34.5549 68.0846 34.3089 67.2216 34.3089C64.7486 34.3089 62.7366 36.3209 62.7366 38.7939V38.7959C62.5776 38.7779 62.4166 38.7689 62.2566 38.7689C59.8506 38.7689 57.8816 40.6729 57.7756 43.0529C57.6706 43.0449 57.5656 43.0409 57.4596 43.0409C54.9866 43.0409 52.9746 45.0529 52.9746 47.5259C52.9746 47.7639 52.9936 48.0009 53.0326 48.2349C50.7726 48.4639 49.0026 50.3779 49.0026 52.6969C49.0026 52.8169 49.0076 52.9369 49.0166 53.0549C46.8496 53.3699 45.1796 55.2409 45.1796 57.4929C45.1796 57.5089 45.1796 57.5259 45.1796 57.5419C43.1866 57.9979 41.6936 59.7849 41.6936 61.9149C41.6936 62.1109 41.7066 62.3059 41.7316 62.4989C39.8926 63.0599 38.5456 64.7779 38.5456 66.7869C38.5456 67.0009 38.5616 67.2139 38.5936 67.4249C36.5766 67.8629 35.0606 69.6619 35.0606 71.8079C35.0606 72.0719 35.0846 72.3339 35.1316 72.5909C33.1026 73.0199 31.5756 74.8249 31.5756 76.9789C31.5756 77.2529 31.6016 77.5239 31.6536 77.7929C29.9446 78.4329 28.7646 80.0619 28.7646 81.9719C28.7646 82.1249 28.7726 82.2769 28.7876 82.4279C26.7826 82.8749 25.2796 84.6679 25.2796 86.8059C25.2796 87.1929 25.3306 87.5779 25.4306 87.9499C23.7256 88.5889 22.5246 90.2279 22.5246 92.1359C22.5246 92.5309 22.5766 92.9219 22.6786 93.2979C20.9246 93.9089 19.6576 95.5829 19.6576 97.5319C19.6576 98.0829 19.7596 98.6219 19.9576 99.1299C18.6136 99.9189 17.7466 101.371 17.7466 102.985C17.7466 104.088 18.1586 105.133 18.8646 105.937C17.7356 106.763 17.0156 108.098 17.0156 109.562C17.0156 111.375 18.1286 112.979 19.7406 113.671C19.6856 113.948 19.6576 114.228 19.6576 114.51C19.6576 116.983 21.6696 118.995 24.1426 118.995C24.4236 118.995 24.7026 118.967 24.9776 118.913C25.5876 120.672 27.2516 121.918 29.2016 121.918C30.3946 121.918 31.5226 121.433 32.3496 120.613C33.1766 121.432 34.3046 121.918 35.4976 121.918C36.5566 121.918 37.5676 121.542 38.3646 120.879C39.1616 121.543 40.1726 121.918 41.2316 121.918C42.5246 121.918 43.7296 121.345 44.5626 120.413C45.3946 121.345 46.5996 121.918 47.8936 121.918C49.0246 121.918 50.0996 121.482 50.9146 120.73C51.7306 121.482 52.8056 121.918 53.9356 121.918C55.1466 121.918 56.2846 121.425 57.1116 120.592C57.9386 121.425 59.0766 121.918 60.2876 121.918C61.4986 121.918 62.6366 121.425 63.4636 120.592C64.2906 121.425 65.4286 121.918 66.6396 121.918C68.0406 121.918 69.3006 121.279 70.1246 120.252C70.9486 121.278 72.2096 121.918 73.6096 121.918C75.0096 121.918 76.2706 121.279 77.0946 120.252C77.9186 121.278 79.1796 121.918 80.5796 121.918C81.7906 121.918 82.9286 121.425 83.7556 120.592C84.5826 121.425 85.7206 121.918 86.9316 121.918C88.1426 121.918 89.2806 121.425 90.1076 120.592C90.9346 121.425 92.0726 121.918 93.2836 121.918C94.4136 121.918 95.4896 121.482 96.3046 120.73C97.1206 121.482 98.1956 121.918 99.3256 121.918C100.62 121.918 101.824 121.345 102.657 120.413C103.489 121.345 104.694 121.918 105.988 121.918C107.047 121.918 108.058 121.542 108.855 120.879C109.652 121.543 110.663 121.918 111.722 121.918C112.915 121.918 114.043 121.433 114.87 120.613C115.697 121.432 116.825 121.918 118.018 121.918C119.968 121.918 121.631 120.671 122.242 118.913C122.518 118.968 122.796 118.995 123.077 118.995C125.55 118.995 127.562 116.983 127.562 114.51C127.562 114.228 127.534 113.948 127.479 113.671C129.091 112.979 130.204 111.375 130.204 109.562C130.204 108.098 129.485 106.763 128.355 105.937C129.061 105.133 129.473 104.089 129.473 102.985C129.473 101.371 128.606 99.9189 127.262 99.1299C127.46 98.6219 127.562 98.0829 127.562 97.5319C127.562 95.5829 126.295 93.9089 124.541 93.2979C124.643 92.9209 124.695 92.5309 124.695 92.1359C124.695 90.2279 123.494 88.5889 121.789 87.9499C121.889 87.5769 121.94 87.1929 121.94 86.8059C121.94 84.6679 120.437 82.8749 118.432 82.4279C118.447 82.2769 118.455 82.1249 118.455 81.9719C118.455 80.0619 117.275 78.4329 115.566 77.7929C115.618 77.5239 115.644 77.2519 115.644 76.9789C115.644 74.8239 114.117 73.0189 112.088 72.5909C112.135 72.3339 112.159 72.0719 112.159 71.8079C112.159 69.6619 110.643 67.8619 108.626 67.4249C108.658 67.2139 108.674 67.0009 108.674 66.7869C108.674 64.7779 107.327 63.0609 105.488 62.4989C105.514 62.3059 105.526 62.1109 105.526 61.9149C105.526 59.7849 104.034 57.9979 102.041 57.5419C102.041 57.5259 102.041 57.5089 102.041 57.4929C102.041 55.2399 100.371 53.3699 98.2036 53.0549C98.2126 52.9359 98.2176 52.8169 98.2176 52.6969C98.2176 50.3779 96.4476 48.4639 94.1876 48.2349C94.2256 48.0009 94.2456 47.7639 94.2456 47.5259C94.2456 45.0529 92.2336 43.0409 89.7606 43.0409C89.6546 43.0409 89.5496 43.0449 89.4446 43.0529C89.3386 40.6729 87.3696 38.7689 84.9636 38.7689C84.8786 38.7689 84.7936 38.7719 84.7086 38.7769C84.6996 36.3119 82.6906 34.3089 80.2236 34.3089C79.2936 34.3089 78.4036 34.6019 77.6656 35.1179C76.9476 33.5989 75.3996 32.5459 73.6106 32.5459Z" fill="#6C4023"/>
<path d="M118.019 121.421C116.779 121.421 115.617 120.829 114.871 119.863C114.125 120.829 112.962 121.421 111.722 121.421C110.633 121.421 109.601 120.974 108.855 120.2C108.109 120.973 107.078 121.421 105.989 121.421C104.631 121.421 103.383 120.71 102.661 119.601C101.945 120.722 100.711 121.421 99.3275 121.421C98.1595 121.421 97.0565 120.895 96.3065 120.012C95.5565 120.895 94.4535 121.421 93.2855 121.421C92.0235 121.421 90.8525 120.818 90.1095 119.834C89.3655 120.818 88.1945 121.421 86.9335 121.421C85.6715 121.421 84.5005 120.818 83.7575 119.834C83.0135 120.818 81.8425 121.421 80.5815 121.421C79.0895 121.421 77.7765 120.604 77.0965 119.357C76.4165 120.604 75.1035 121.421 73.6115 121.421C72.1195 121.421 70.8055 120.604 70.1265 119.357C69.4465 120.604 68.1325 121.421 66.6415 121.421C65.3795 121.421 64.2085 120.818 63.4655 119.834C62.7215 120.818 61.5505 121.421 60.2895 121.421C59.0275 121.421 57.8565 120.818 57.1135 119.834C56.3695 120.818 55.1985 121.421 53.9375 121.421C52.7685 121.421 51.6665 120.896 50.9165 120.012C50.1665 120.896 49.0635 121.421 47.8955 121.421C46.5355 121.421 45.2865 120.707 44.5645 119.596C43.8435 120.707 42.5935 121.421 41.2335 121.421C40.1445 121.421 39.1125 120.974 38.3665 120.2C37.6205 120.973 36.5885 121.421 35.4995 121.421C34.2595 121.421 33.0975 120.829 32.3525 119.863C31.6065 120.829 30.4445 121.421 29.2045 121.421C27.3135 121.421 25.7255 120.101 25.3275 118.309C24.9395 118.435 24.5445 118.498 24.1455 118.498C21.9475 118.498 20.1605 116.71 20.1605 114.513C20.1605 114.117 20.2235 113.724 20.3465 113.338C20.2455 113.282 20.1625 113.194 20.1195 113.089C20.0615 112.946 20.0615 112.781 20.1385 112.648C20.1585 110.751 21.5225 109.143 23.3235 108.761C23.1295 108.286 23.0285 107.778 23.0285 107.26C23.0285 105.398 24.3155 103.824 26.0705 103.401C25.8815 102.932 25.7835 102.433 25.7835 101.929C25.7835 99.868 27.3565 98.1679 29.3655 97.9649C29.3015 97.6799 29.2695 97.3899 29.2695 97.0949C29.2695 95.2449 30.5155 93.694 32.2585 93.252C32.1395 92.875 32.0805 92.4899 32.0805 92.1029C32.0805 90.0089 33.7035 88.2879 35.7575 88.1289C35.6305 87.7399 35.5655 87.3399 35.5655 86.9309C35.5655 84.8519 37.1665 83.1389 39.1995 82.9609C39.1005 82.6149 39.0505 82.2639 39.0505 81.9089C39.0505 79.9699 40.4645 78.336 42.3165 77.994C42.2385 77.681 42.1985 77.361 42.1985 77.037C42.1985 74.998 43.7385 73.3109 45.7165 73.0789C45.6945 72.9209 45.6845 72.767 45.6845 72.615C45.6845 70.444 47.4295 68.673 49.5905 68.631C49.5345 68.364 49.5075 68.094 49.5075 67.818C49.5075 65.621 51.2955 63.8329 53.4925 63.8329C53.5495 63.8329 53.6075 63.835 53.6655 63.838C53.5425 63.452 53.4795 63.0519 53.4795 62.6469C53.4795 60.4499 55.2675 58.663 57.4645 58.663C57.7435 58.663 58.0215 58.694 58.2965 58.756C58.2825 58.629 58.2755 58.5019 58.2755 58.3759C58.2755 56.1789 60.0635 54.391 62.2605 54.391C62.6085 54.391 62.9555 54.4379 63.2915 54.5309C63.2575 54.3269 63.2415 54.122 63.2415 53.916C63.2415 51.719 65.0295 49.9309 67.2265 49.9309C68.2005 49.9309 69.1225 50.2849 69.8375 50.9099C70.3575 49.3079 71.8515 48.1689 73.6155 48.1689C75.4375 48.1689 76.9785 49.398 77.4515 51.071C78.1835 50.355 79.1775 49.9309 80.2295 49.9309C82.4275 49.9309 84.2145 51.719 84.2145 53.916C84.2145 54.104 84.2015 54.291 84.1745 54.476C84.4375 54.42 84.7025 54.3919 84.9695 54.3919C87.1675 54.3919 88.9545 56.18 88.9545 58.377C88.9545 58.503 88.9475 58.629 88.9335 58.757C89.2075 58.695 89.4855 58.6639 89.7655 58.6639C91.9625 58.6639 93.7505 60.4509 93.7505 62.6479C93.7505 63.0529 93.6875 63.454 93.5645 63.839C93.6225 63.836 93.6805 63.834 93.7375 63.834C95.9355 63.834 97.7225 65.6219 97.7225 67.8189C97.7225 68.0939 97.6945 68.366 97.6395 68.632C99.8005 68.674 101.545 70.4449 101.545 72.6159C101.545 72.7679 101.535 72.922 101.514 73.08C103.492 73.312 105.031 74.999 105.031 77.038C105.031 77.362 104.991 77.683 104.912 77.995C106.764 78.337 108.178 79.9709 108.178 81.9099C108.178 82.2639 108.129 82.6159 108.03 82.9619C110.063 83.1399 111.664 84.8529 111.664 86.9319C111.664 87.3399 111.599 87.7419 111.471 88.1299C113.526 88.2869 115.149 90.0099 115.149 92.1039C115.149 92.4919 115.089 92.876 114.971 93.253C116.714 93.694 117.961 95.2459 117.961 97.0959C117.961 97.3909 117.928 97.6819 117.864 97.9659C119.872 98.1689 121.446 99.869 121.446 101.93C121.446 102.434 121.348 102.933 121.159 103.402C122.912 103.826 124.2 105.4 124.2 107.261C124.2 107.779 124.1 108.287 123.906 108.762C125.665 109.135 127.004 110.678 127.066 112.524C127.168 112.647 127.222 112.823 127.187 112.974C127.148 113.141 127.047 113.296 126.888 113.355C127.008 113.735 127.069 114.123 127.069 114.514C127.069 116.711 125.281 118.499 123.084 118.499C122.685 118.499 122.289 118.436 121.902 118.31C121.498 120.1 119.91 121.421 118.019 121.421Z" fill="#FEFDFF"/>
<path d="M73.6107 48.666C75.5357 48.666 77.0958 50.226 77.0958 52.151C77.0958 52.258 77.0737 52.359 77.0637 52.464C77.6147 51.265 78.8188 50.429 80.2248 50.429C82.1498 50.429 83.7097 51.989 83.7097 53.914C83.7097 54.389 83.6128 54.842 83.4408 55.254C83.9028 55.028 84.4157 54.889 84.9647 54.889C86.8897 54.889 88.4498 56.449 88.4498 58.374C88.4498 58.779 88.3667 59.163 88.2397 59.524C88.7007 59.298 89.2127 59.161 89.7607 59.161C91.6857 59.161 93.2458 60.721 93.2458 62.646C93.2458 63.332 93.0408 63.967 92.6988 64.506C93.0278 64.403 93.3708 64.332 93.7327 64.332C95.6578 64.332 97.2177 65.892 97.2177 67.817C97.2177 68.305 97.1157 68.769 96.9347 69.191C97.1367 69.155 97.3428 69.128 97.5557 69.128C99.4808 69.128 101.041 70.688 101.041 72.613C101.041 72.945 100.98 73.26 100.893 73.565C100.943 73.563 100.99 73.55 101.041 73.55C102.966 73.55 104.526 75.11 104.526 77.035C104.526 77.53 104.42 77.999 104.233 78.426C106.137 78.451 107.673 79.997 107.673 81.907C107.673 82.477 107.523 83.008 107.28 83.483C107.411 83.468 107.538 83.443 107.673 83.443C109.598 83.443 111.158 85.003 111.158 86.928C111.158 87.563 110.976 88.15 110.679 88.663C110.837 88.641 110.994 88.615 111.158 88.615C113.083 88.615 114.643 90.175 114.643 92.1C114.643 92.655 114.501 93.173 114.271 93.638C116.052 93.794 117.454 95.271 117.454 97.093C117.454 97.583 117.351 98.048 117.169 98.471C117.265 98.463 117.357 98.442 117.454 98.442C119.379 98.442 120.939 100.002 120.939 101.927C120.939 102.614 120.733 103.25 120.39 103.79C122.228 103.886 123.693 105.394 123.693 107.257C123.693 107.965 123.479 108.622 123.116 109.172C125.021 109.195 126.56 110.742 126.56 112.653C126.56 112.718 126.624 112.796 126.713 112.879C126.546 112.929 126.378 112.974 126.202 112.999C126.424 113.458 126.56 113.966 126.56 114.511C126.56 116.436 125 117.996 123.075 117.996C122.499 117.996 121.964 117.843 121.485 117.595C121.399 119.443 119.886 120.919 118.016 120.919C116.62 120.919 115.424 120.093 114.868 118.907C114.312 120.092 113.116 120.919 111.72 120.919C110.53 120.919 109.482 120.321 108.853 119.411C108.224 120.321 107.176 120.919 105.986 120.919C104.401 120.919 103.079 119.854 102.655 118.406C102.232 119.854 100.909 120.919 99.3238 120.919C98.0228 120.919 96.9008 120.197 96.3028 119.14C95.7038 120.197 94.5828 120.919 93.2818 120.919C91.8648 120.919 90.6507 120.07 90.1057 118.855C89.5607 120.069 88.3467 120.919 86.9297 120.919C85.5127 120.919 84.2987 120.07 83.7537 118.855C83.2087 120.069 81.9948 120.919 80.5778 120.919C78.8458 120.919 77.4197 119.652 77.1487 117.996H77.0358C76.7658 119.652 75.3397 120.919 73.6067 120.919C71.8747 120.919 70.4488 119.652 70.1778 117.996H70.0648C69.7948 119.652 68.3687 120.919 66.6357 120.919C65.2187 120.919 64.0047 120.07 63.4597 118.855C62.9147 120.069 61.7007 120.919 60.2837 120.919C58.8667 120.919 57.6527 120.07 57.1077 118.855C56.5628 120.069 55.3488 120.919 53.9318 120.919C52.6308 120.919 51.5088 120.197 50.9108 119.14C50.3118 120.197 49.1908 120.919 47.8898 120.919C46.3048 120.919 44.9827 119.854 44.5587 118.406C44.1357 119.854 42.8127 120.919 41.2277 120.919C40.0377 120.919 38.9897 120.321 38.3607 119.411C37.7317 120.321 36.6837 120.919 35.4937 120.919C34.0977 120.919 32.9018 120.093 32.3458 118.907C31.7898 120.092 30.5937 120.919 29.1977 120.919C27.3287 120.919 25.8148 119.443 25.7288 117.595C25.2498 117.843 24.7148 117.996 24.1388 117.996C22.2138 117.996 20.6537 116.436 20.6537 114.511C20.6537 113.967 20.7897 113.458 21.0117 112.999C20.8577 112.977 20.7107 112.935 20.5647 112.894C20.6167 112.803 20.6537 112.718 20.6537 112.653C20.6537 110.742 22.1927 109.195 24.0977 109.172C23.7347 108.622 23.5207 107.965 23.5207 107.257C23.5207 105.395 24.9858 103.887 26.8238 103.79C26.4808 103.25 26.2747 102.614 26.2747 101.927C26.2747 100.002 27.8348 98.442 29.7598 98.442C29.8578 98.442 29.9498 98.463 30.0448 98.471C29.8628 98.048 29.7598 97.583 29.7598 97.093C29.7598 95.272 31.1617 93.794 32.9427 93.638C32.7117 93.172 32.5708 92.655 32.5708 92.1C32.5708 90.175 34.1307 88.615 36.0557 88.615C36.2197 88.615 36.3767 88.641 36.5347 88.663C36.2377 88.15 36.0557 87.563 36.0557 86.928C36.0557 85.003 37.6157 83.443 39.5407 83.443C39.6757 83.443 39.8027 83.468 39.9337 83.483C39.6907 83.008 39.5407 82.477 39.5407 81.907C39.5407 79.998 41.0777 78.451 42.9807 78.426C42.7947 77.999 42.6877 77.53 42.6877 77.035C42.6877 75.11 44.2478 73.55 46.1728 73.55C46.2238 73.55 46.2708 73.563 46.3208 73.565C46.2338 73.261 46.1728 72.945 46.1728 72.613C46.1728 70.688 47.7327 69.128 49.6577 69.128C49.8707 69.128 50.0767 69.154 50.2787 69.191C50.0977 68.769 49.9957 68.305 49.9957 67.817C49.9957 65.892 51.5557 64.332 53.4807 64.332C53.8437 64.332 54.1868 64.403 54.5148 64.506C54.1728 63.967 53.9677 63.332 53.9677 62.646C53.9677 60.721 55.5278 59.161 57.4528 59.161C58.0008 59.161 58.5127 59.299 58.9737 59.524C58.8467 59.162 58.7638 58.779 58.7638 58.374C58.7638 56.449 60.3237 54.889 62.2487 54.889C62.9257 54.889 63.5518 55.09 64.0868 55.424C63.8648 54.965 63.7298 54.457 63.7298 53.913C63.7298 51.988 65.2897 50.428 67.2147 50.428C68.4387 50.428 69.5107 51.062 70.1327 52.016C70.2107 50.156 71.7317 48.666 73.6107 48.666ZM73.6107 47.666C71.8637 47.666 70.3527 48.658 69.6157 50.123C68.9107 49.675 68.0847 49.429 67.2217 49.429C64.7487 49.429 62.7367 51.441 62.7367 53.914V53.916C62.5777 53.898 62.4167 53.889 62.2567 53.889C59.8507 53.889 57.8817 55.793 57.7757 58.173C57.6707 58.165 57.5657 58.161 57.4597 58.161C54.9867 58.161 52.9748 60.173 52.9748 62.646C52.9748 62.884 52.9937 63.121 53.0327 63.355C50.7727 63.584 49.0027 65.498 49.0027 67.817C49.0027 67.937 49.0077 68.057 49.0167 68.175C46.8497 68.49 45.1797 70.361 45.1797 72.613C45.1797 72.629 45.1797 72.646 45.1797 72.662C43.1867 73.118 41.6948 74.905 41.6948 77.035C41.6948 77.231 41.7077 77.426 41.7327 77.619C39.8937 78.18 38.5467 79.898 38.5467 81.907C38.5467 82.121 38.5627 82.334 38.5947 82.545C36.5777 82.983 35.0618 84.782 35.0618 86.928C35.0618 87.192 35.0857 87.454 35.1327 87.711C33.1037 88.14 31.5767 89.945 31.5767 92.099C31.5767 92.373 31.6027 92.644 31.6547 92.913C29.9457 93.553 28.7657 95.182 28.7657 97.092C28.7657 97.245 28.7737 97.397 28.7887 97.548C26.7837 97.995 25.2808 99.788 25.2808 101.926C25.2808 102.313 25.3318 102.698 25.4318 103.07C23.7268 103.709 22.5257 105.348 22.5257 107.256C22.5257 107.651 22.5777 108.042 22.6797 108.418C20.9787 109.011 19.7357 110.603 19.6627 112.476C19.5537 112.725 19.5457 113.014 19.6497 113.266C19.6837 113.349 19.7278 113.426 19.7808 113.496C19.6998 113.83 19.6598 114.168 19.6598 114.51C19.6598 116.983 21.6717 118.995 24.1447 118.995C24.4257 118.995 24.7048 118.967 24.9798 118.913C25.5898 120.672 27.2538 121.918 29.2038 121.918C30.3968 121.918 31.5247 121.433 32.3517 120.613C33.1787 121.432 34.3067 121.918 35.4997 121.918C36.5587 121.918 37.5697 121.542 38.3668 120.878C39.1638 121.542 40.1748 121.918 41.2338 121.918C42.5278 121.918 43.7317 121.345 44.5647 120.413C45.3967 121.345 46.6017 121.918 47.8957 121.918C49.0257 121.918 50.1017 121.482 50.9167 120.729C51.7327 121.481 52.8077 121.918 53.9377 121.918C55.1487 121.918 56.2868 121.425 57.1138 120.592C57.9408 121.425 59.0788 121.918 60.2898 121.918C61.5008 121.918 62.6388 121.425 63.4658 120.592C64.2928 121.425 65.4307 121.918 66.6417 121.918C68.0427 121.918 69.3028 121.279 70.1268 120.252C70.9508 121.278 72.2117 121.918 73.6117 121.918C75.0117 121.918 76.2727 121.279 77.0967 120.252C77.9207 121.278 79.1817 121.918 80.5817 121.918C81.7927 121.918 82.9307 121.425 83.7577 120.592C84.5847 121.425 85.7227 121.918 86.9337 121.918C88.1447 121.918 89.2827 121.425 90.1097 120.592C90.9367 121.425 92.0748 121.918 93.2858 121.918C94.4158 121.918 95.4918 121.482 96.3068 120.729C97.1228 121.481 98.1978 121.918 99.3278 121.918C100.621 121.918 101.826 121.345 102.659 120.413C103.491 121.345 104.696 121.918 105.99 121.918C107.049 121.918 108.06 121.542 108.857 120.878C109.654 121.542 110.665 121.918 111.724 121.918C112.917 121.918 114.045 121.433 114.872 120.613C115.699 121.432 116.827 121.918 118.02 121.918C119.97 121.918 121.633 120.671 122.244 118.913C122.52 118.968 122.798 118.995 123.079 118.995C125.552 118.995 127.564 116.983 127.564 114.51C127.564 114.188 127.528 113.868 127.456 113.553C127.569 113.429 127.651 113.277 127.691 113.108C127.755 112.837 127.702 112.556 127.553 112.329C127.422 110.52 126.2 108.996 124.544 108.419C124.646 108.042 124.698 107.652 124.698 107.257C124.698 105.349 123.497 103.71 121.792 103.071C121.892 102.699 121.943 102.314 121.943 101.927C121.943 99.789 120.44 97.996 118.435 97.549C118.45 97.398 118.458 97.246 118.458 97.093C118.458 95.183 117.278 93.554 115.569 92.914C115.621 92.645 115.647 92.373 115.647 92.1C115.647 89.945 114.12 88.14 112.091 87.712C112.138 87.455 112.162 87.193 112.162 86.929C112.162 84.783 110.646 82.983 108.629 82.546C108.661 82.335 108.677 82.122 108.677 81.908C108.677 79.899 107.33 78.182 105.491 77.62C105.517 77.427 105.529 77.232 105.529 77.036C105.529 74.906 104.037 73.119 102.044 72.663C102.044 72.647 102.044 72.63 102.044 72.614C102.044 70.361 100.374 68.491 98.2067 68.176C98.2158 68.057 98.2208 67.938 98.2208 67.818C98.2208 65.499 96.4508 63.585 94.1908 63.356C94.2288 63.122 94.2487 62.885 94.2487 62.647C94.2487 60.174 92.2368 58.162 89.7638 58.162C89.6578 58.162 89.5527 58.166 89.4477 58.174C89.3417 55.794 87.3728 53.89 84.9668 53.89C84.8818 53.89 84.7958 53.893 84.7118 53.898C84.7028 51.433 82.6937 49.43 80.2267 49.43C79.2967 49.43 78.4068 49.723 77.6688 50.239C76.9478 48.719 75.3997 47.666 73.6107 47.666Z" fill="#6C4023"/>
<path d="M126.563 112.655C126.563 110.744 125.024 109.197 123.119 109.174C123.482 108.624 123.696 107.967 123.696 107.259C123.696 106.501 123.445 105.81 123.034 105.241C122.475 105.233 121.954 105.084 121.488 104.843C121.402 106.691 119.889 108.167 118.019 108.167C116.623 108.167 115.427 107.341 114.871 106.155C114.315 107.34 113.119 108.167 111.723 108.167C110.533 108.167 109.485 107.569 108.856 106.659C108.227 107.569 107.179 108.167 105.989 108.167C104.404 108.167 103.082 107.102 102.658 105.654C102.235 107.102 100.912 108.167 99.3274 108.167C98.0264 108.167 96.9044 107.445 96.3064 106.388C95.7074 107.445 94.5864 108.167 93.2854 108.167C91.8684 108.167 90.6544 107.318 90.1094 106.103C89.5644 107.317 88.3504 108.167 86.9334 108.167C85.5164 108.167 84.3024 107.318 83.7574 106.103C83.2124 107.317 81.9984 108.167 80.5814 108.167C78.8494 108.167 77.4234 106.9 77.1524 105.244H77.0394C76.7694 106.9 75.3434 108.167 73.6104 108.167C71.8784 108.167 70.4524 106.9 70.1814 105.244H70.0684C69.7984 106.9 68.3724 108.167 66.6394 108.167C65.2224 108.167 64.0084 107.318 63.4634 106.103C62.9184 107.317 61.7044 108.167 60.2874 108.167C58.8704 108.167 57.6564 107.318 57.1114 106.103C56.5664 107.317 55.3524 108.167 53.9354 108.167C52.6344 108.167 51.5124 107.445 50.9144 106.388C50.3154 107.445 49.1944 108.167 47.8934 108.167C46.3084 108.167 44.9864 107.102 44.5624 105.654C44.1394 107.102 42.8164 108.167 41.2314 108.167C40.0414 108.167 38.9934 107.569 38.3644 106.659C37.7354 107.569 36.6874 108.167 35.4974 108.167C34.1014 108.167 32.9054 107.341 32.3494 106.155C31.7934 107.34 30.5974 108.167 29.2014 108.167C27.3324 108.167 25.8184 106.691 25.7324 104.843C25.2664 105.084 24.7454 105.233 24.1864 105.241C23.7754 105.81 23.5244 106.502 23.5244 107.259C23.5244 107.967 23.7384 108.624 24.1014 109.174C22.1964 109.197 20.6574 110.744 20.6574 112.655C20.6574 112.721 20.6204 112.805 20.5684 112.896C20.7154 112.937 20.8614 112.979 21.0154 113.001C20.7934 113.46 20.6574 113.968 20.6574 114.513C20.6574 116.438 22.2174 117.998 24.1424 117.998C24.7184 117.998 25.2534 117.845 25.7324 117.597C25.8184 119.445 27.3314 120.921 29.2014 120.921C30.5974 120.921 31.7934 120.095 32.3494 118.909C32.9054 120.094 34.1014 120.921 35.4974 120.921C36.6874 120.921 37.7354 120.323 38.3644 119.413C38.9934 120.323 40.0414 120.921 41.2314 120.921C42.8164 120.921 44.1394 119.856 44.5624 118.408C44.9854 119.856 46.3084 120.921 47.8934 120.921C49.1944 120.921 50.3164 120.199 50.9144 119.142C51.5134 120.199 52.6344 120.921 53.9354 120.921C55.3524 120.921 56.5664 120.072 57.1114 118.857C57.6564 120.071 58.8704 120.921 60.2874 120.921C61.7044 120.921 62.9184 120.072 63.4634 118.857C64.0084 120.071 65.2224 120.921 66.6394 120.921C68.3714 120.921 69.7974 119.654 70.0684 117.998H70.1814C70.4514 119.654 71.8773 120.921 73.6104 120.921C75.3424 120.921 76.7684 119.654 77.0394 117.998H77.1524C77.4224 119.654 78.8484 120.921 80.5814 120.921C81.9984 120.921 83.2124 120.072 83.7574 118.857C84.3024 120.071 85.5164 120.921 86.9334 120.921C88.3504 120.921 89.5644 120.072 90.1094 118.857C90.6544 120.071 91.8684 120.921 93.2854 120.921C94.5864 120.921 95.7084 120.199 96.3064 119.142C96.9054 120.199 98.0264 120.921 99.3274 120.921C100.912 120.921 102.234 119.856 102.658 118.408C103.081 119.856 104.404 120.921 105.989 120.921C107.179 120.921 108.227 120.323 108.856 119.413C109.485 120.323 110.533 120.921 111.723 120.921C113.119 120.921 114.315 120.095 114.871 118.909C115.427 120.094 116.623 120.921 118.019 120.921C119.888 120.921 121.402 119.445 121.488 117.597C121.967 117.845 122.502 117.998 123.078 117.998C125.003 117.998 126.563 116.438 126.563 114.513C126.563 113.969 126.427 113.46 126.205 113.001C126.381 112.976 126.55 112.931 126.716 112.881C126.626 112.798 126.563 112.72 126.563 112.655Z" fill="#FFD2D2"/>
<path d="M57.1133 72.037V118.857C57.6583 120.071 58.8723 120.921 60.2893 120.921C61.7063 120.921 62.9203 120.072 63.4653 118.857C64.0103 120.071 65.2243 120.921 66.6413 120.921C68.3733 120.921 69.7993 119.654 70.0703 117.998H70.1833C70.4533 119.654 71.8793 120.921 73.6123 120.921C75.3443 120.921 76.7703 119.654 77.0413 117.998H77.1543C77.4243 119.654 78.8503 120.921 80.5833 120.921C82.0003 120.921 83.2143 120.072 83.7593 118.857C84.3043 120.071 85.5183 120.921 86.9353 120.921C88.3523 120.921 89.5663 120.072 90.1113 118.857V72.037C90.1113 70.395 88.7803 69.064 87.1383 69.064H60.0873C58.4443 69.064 57.1133 70.395 57.1133 72.037Z" fill="#6C4023"/>
<path d="M29.313 125.122C45.226 125.122 58.126 113.87 58.126 99.9899C58.126 86.1099 45.226 74.8579 29.313 74.8579C13.4 74.8579 0.5 86.1099 0.5 99.9899C0.5 113.87 13.4 125.122 29.313 125.122Z" fill="#B76039"/>
<path d="M29.313 75.3579C44.95 75.3579 57.626 86.3859 57.626 99.9899C57.626 113.594 44.95 124.622 29.313 124.622C13.676 124.622 1 113.594 1 99.9899C0.999 86.3859 13.676 75.3579 29.313 75.3579ZM29.313 74.3579C13.15 74.3579 0 85.8559 0 99.9899C0 114.124 13.15 125.622 29.313 125.622C45.476 125.622 58.626 114.124 58.626 99.9899C58.626 85.8559 45.476 74.3579 29.313 74.3579Z" fill="#6C4023"/>
<path d="M29.313 119.095C14.751 119.095 2.77 109.528 1.189 97.2271C1.072 98.1351 1 99.055 1 99.991C1 113.595 13.676 124.623 29.313 124.623C44.95 124.623 57.626 113.595 57.626 99.991C57.626 99.056 57.554 98.1361 57.437 97.2271C55.856 109.528 43.874 119.095 29.313 119.095Z" fill="#9E4C2B"/>
<path d="M29.3125 80.49L31.7085 87.969L39.1865 90.365L31.7085 92.761L29.3125 100.24L26.9155 92.761L19.4375 90.365L26.9155 87.969L29.3125 80.49Z" fill="#FEECB7" stroke="#6C4023" stroke-miterlimit="10" stroke-linejoin="round"/>
</svg>
