<svg width="72" height="151" viewBox="0 0 72 151" fill="none" xmlns="http://www.w3.org/2000/svg">
<path d="M4.99799 65.524C2.51799 65.524 0.5 63.506 0.5 61.026V37.965C0.5 35.485 2.51799 33.467 4.99799 33.467H66.282C68.762 33.467 70.78 35.485 70.78 37.965V61.026C70.78 63.506 68.762 65.524 66.282 65.524H4.99799Z" fill="#FA7702"/>
<path d="M66.282 33.967C68.49 33.967 70.28 35.757 70.28 37.965V61.026C70.28 63.234 68.49 65.024 66.282 65.024H4.99799C2.78999 65.024 1 63.234 1 61.026V37.965C1 35.757 2.78999 33.967 4.99799 33.967H66.282ZM66.282 32.967H4.99799C2.24199 32.967 0 35.209 0 37.965V61.026C0 63.782 2.24199 66.024 4.99799 66.024H66.282C69.038 66.024 71.28 63.782 71.28 61.026V37.965C71.28 35.209 69.038 32.967 66.282 32.967Z" fill="#6C4023"/>
<path d="M4.99799 42.9239C2.51799 42.9239 0.5 40.9059 0.5 38.4259V15.3649C0.5 12.8849 2.51799 10.8669 4.99799 10.8669H66.282C68.762 10.8669 70.78 12.8849 70.78 15.3649V38.4259C70.78 40.9059 68.762 42.9239 66.282 42.9239H4.99799Z" fill="#FAC702"/>
<path d="M66.282 11.3669C68.49 11.3669 70.28 13.1569 70.28 15.3649V38.4259C70.28 40.6339 68.49 42.4239 66.282 42.4239H4.99799C2.78999 42.4239 1 40.6339 1 38.4259V15.3649C1 13.1569 2.78999 11.3669 4.99799 11.3669H66.282ZM66.282 10.3669H4.99799C2.24199 10.3669 0 12.6089 0 15.3649V38.4259C0 41.1819 2.24199 43.4239 4.99799 43.4239H66.282C69.038 43.4239 71.28 41.1819 71.28 38.4259V15.3649C71.28 12.6089 69.038 10.3669 66.282 10.3669Z" fill="#6C4023"/>
<path d="M66.355 35.941H4.92204C2.75504 35.941 0.998047 34.047 0.998047 31.71V38.193C0.998047 40.53 2.75504 42.424 4.92204 42.424H66.355C68.522 42.424 70.2791 40.53 70.2791 38.193V31.711C70.2791 34.047 68.522 35.941 66.355 35.941Z" fill="#FAA402"/>
<path d="M26.7119 67.891C24.2319 67.891 22.2129 65.873 22.2129 63.393V37.592C22.2129 35.112 24.2309 33.094 26.7119 33.094H44.5659C47.0459 33.094 49.0649 35.112 49.0649 37.592V63.393C49.0649 65.873 47.0469 67.891 44.5659 67.891H26.7119Z" fill="#6C4023"/>
<path d="M44.5668 33.594C46.7748 33.594 48.5648 35.384 48.5648 37.592V63.393C48.5648 65.601 46.7748 67.391 44.5668 67.391H26.7128C24.5048 67.391 22.7148 65.601 22.7148 63.393V37.592C22.7148 35.384 24.5048 33.594 26.7128 33.594H44.5668ZM44.5668 32.594H26.7128C23.9568 32.594 21.7148 34.836 21.7148 37.592V63.393C21.7148 66.149 23.9568 68.391 26.7128 68.391H44.5668C47.3228 68.391 49.5648 66.149 49.5648 63.393V37.592C49.5648 34.836 47.3228 32.594 44.5668 32.594Z" fill="#6C4023"/>
<path d="M26.7119 43.297C24.2319 43.297 22.2129 41.279 22.2129 38.799V12.998C22.2129 10.518 24.2309 8.5 26.7119 8.5H44.5659C47.0459 8.5 49.0649 10.518 49.0649 12.998V38.799C49.0649 41.279 47.0469 43.297 44.5659 43.297H26.7119Z" fill="#9E4C2B"/>
<path d="M44.5668 9C46.7748 9 48.5648 10.79 48.5648 12.998V38.799C48.5648 41.007 46.7748 42.797 44.5668 42.797H26.7128C24.5048 42.797 22.7148 41.007 22.7148 38.799V12.998C22.7148 10.79 24.5048 9 26.7128 9H44.5668ZM44.5668 8H26.7128C23.9568 8 21.7148 10.242 21.7148 12.998V38.799C21.7148 41.555 23.9568 43.797 26.7128 43.797H44.5668C47.3228 43.797 49.5648 41.555 49.5648 38.799V12.998C49.5648 10.242 47.3228 8 44.5668 8Z" fill="#6C4023"/>
<path d="M4.99799 106.717C2.51799 106.717 0.5 104.699 0.5 102.219V79.1582C0.5 76.6782 2.51799 74.6602 4.99799 74.6602H66.282C68.762 74.6602 70.78 76.6782 70.78 79.1582V102.219C70.78 104.699 68.762 106.717 66.282 106.717H4.99799Z" fill="#FA7702"/>
<path d="M66.282 75.1602C68.49 75.1602 70.28 76.9502 70.28 79.1582V102.219C70.28 104.427 68.49 106.217 66.282 106.217H4.99799C2.78999 106.217 1 104.427 1 102.219V79.1582C1 76.9502 2.78999 75.1602 4.99799 75.1602H66.282ZM66.282 74.1602H4.99799C2.24199 74.1602 0 76.4022 0 79.1582V102.219C0 104.975 2.24199 107.217 4.99799 107.217H66.282C69.038 107.217 71.28 104.975 71.28 102.219V79.1582C71.28 76.4022 69.038 74.1602 66.282 74.1602Z" fill="#6C4023"/>
<path d="M4.99799 84.1171C2.51799 84.1171 0.5 82.0991 0.5 79.6191V56.5581C0.5 54.0781 2.51799 52.0601 4.99799 52.0601H66.282C68.762 52.0601 70.78 54.0781 70.78 56.5581V79.6191C70.78 82.0991 68.762 84.1171 66.282 84.1171H4.99799Z" fill="#FAC702"/>
<path d="M66.282 52.5601C68.49 52.5601 70.28 54.3501 70.28 56.5581V79.6191C70.28 81.8271 68.49 83.6171 66.282 83.6171H4.99799C2.78999 83.6171 1 81.8271 1 79.6191V56.5581C1 54.3501 2.78999 52.5601 4.99799 52.5601H66.282ZM66.282 51.5601H4.99799C2.24199 51.5601 0 53.8021 0 56.5581V79.6191C0 82.3751 2.24199 84.6171 4.99799 84.6171H66.282C69.038 84.6171 71.28 82.3751 71.28 79.6191V56.5581C71.28 53.8021 69.038 51.5601 66.282 51.5601Z" fill="#6C4023"/>
<path d="M66.355 77.1341H4.92204C2.75504 77.1341 0.998047 75.2401 0.998047 72.9031V79.3861C0.998047 81.7231 2.75504 83.6171 4.92204 83.6171H66.355C68.522 83.6171 70.2791 81.7231 70.2791 79.3861V72.9031C70.2791 75.2401 68.522 77.1341 66.355 77.1341Z" fill="#FAA402"/>
<path d="M26.7119 109.084C24.2319 109.084 22.2129 107.066 22.2129 104.586V78.7851C22.2129 76.3051 24.2309 74.2871 26.7119 74.2871H44.5659C47.0459 74.2871 49.0649 76.3051 49.0649 78.7851V104.586C49.0649 107.066 47.0469 109.084 44.5659 109.084H26.7119Z" fill="#6C4023"/>
<path d="M44.5668 74.7871C46.7748 74.7871 48.5648 76.5771 48.5648 78.7851V104.586C48.5648 106.794 46.7748 108.584 44.5668 108.584H26.7128C24.5048 108.584 22.7148 106.794 22.7148 104.586V78.7851C22.7148 76.5771 24.5048 74.7871 26.7128 74.7871H44.5668ZM44.5668 73.7871H26.7128C23.9568 73.7871 21.7148 76.0291 21.7148 78.7851V104.586C21.7148 107.342 23.9568 109.584 26.7128 109.584H44.5668C47.3228 109.584 49.5648 107.342 49.5648 104.586V78.7851C49.5648 76.0291 47.3228 73.7871 44.5668 73.7871Z" fill="#6C4023"/>
<path d="M26.7119 84.4901C24.2319 84.4901 22.2129 82.4721 22.2129 79.9921V54.1911C22.2129 51.7111 24.2309 49.6931 26.7119 49.6931H44.5659C47.0459 49.6931 49.0649 51.7111 49.0649 54.1911V79.9921C49.0649 82.4721 47.0469 84.4901 44.5659 84.4901H26.7119Z" fill="#9E4C2B"/>
<path d="M44.5668 50.1931C46.7748 50.1931 48.5648 51.9831 48.5648 54.1911V79.9921C48.5648 82.2001 46.7748 83.9901 44.5668 83.9901H26.7128C24.5048 83.9901 22.7148 82.2001 22.7148 79.9921V54.1911C22.7148 51.9831 24.5048 50.1931 26.7128 50.1931H44.5668ZM44.5668 49.1931H26.7128C23.9568 49.1931 21.7148 51.4351 21.7148 54.1911V79.9921C21.7148 82.7481 23.9568 84.9901 26.7128 84.9901H44.5668C47.3228 84.9901 49.5648 82.7481 49.5648 79.9921V54.1911C49.5648 51.4351 47.3228 49.1931 44.5668 49.1931Z" fill="#6C4023"/>
<path d="M4.99799 147.91C2.51799 147.91 0.5 145.892 0.5 143.412V120.351C0.5 117.871 2.51799 115.853 4.99799 115.853H66.282C68.762 115.853 70.78 117.871 70.78 120.351V143.412C70.78 145.892 68.762 147.91 66.282 147.91H4.99799Z" fill="#FA7702"/>
<path d="M66.282 116.353C68.49 116.353 70.28 118.143 70.28 120.351V143.412C70.28 145.62 68.49 147.41 66.282 147.41H4.99799C2.78999 147.41 1 145.62 1 143.412V120.351C1 118.143 2.78999 116.353 4.99799 116.353H66.282ZM66.282 115.353H4.99799C2.24199 115.353 0 117.595 0 120.351V143.412C0 146.168 2.24199 148.41 4.99799 148.41H66.282C69.038 148.41 71.28 146.168 71.28 143.412V120.351C71.28 117.595 69.038 115.353 66.282 115.353Z" fill="#6C4023"/>
<path d="M4.99799 125.31C2.51799 125.31 0.5 123.292 0.5 120.812V97.7509C0.5 95.2709 2.51799 93.2529 4.99799 93.2529H66.282C68.762 93.2529 70.78 95.2709 70.78 97.7509V120.811C70.78 123.291 68.762 125.309 66.282 125.309L4.99799 125.31Z" fill="#FAC702"/>
<path d="M66.282 93.7529C68.49 93.7529 70.28 95.5429 70.28 97.7509V120.812C70.28 123.02 68.49 124.81 66.282 124.81H4.99799C2.78999 124.81 1 123.02 1 120.812V97.7509C1 95.5429 2.78999 93.7529 4.99799 93.7529H66.282ZM66.282 92.7529H4.99799C2.24199 92.7529 0 94.9949 0 97.7509V120.812C0 123.568 2.24199 125.81 4.99799 125.81H66.282C69.038 125.81 71.28 123.568 71.28 120.812V97.7509C71.28 94.9949 69.038 92.7529 66.282 92.7529Z" fill="#6C4023"/>
<path d="M66.355 118.327H4.92204C2.75504 118.327 0.998047 116.433 0.998047 114.096V120.579C0.998047 122.916 2.75504 124.81 4.92204 124.81H66.355C68.522 124.81 70.2791 122.916 70.2791 120.579V114.096C70.2791 116.433 68.522 118.327 66.355 118.327Z" fill="#FAA402"/>
<path d="M26.7119 150.277C24.2319 150.277 22.2129 148.259 22.2129 145.779V119.978C22.2129 117.498 24.2309 115.48 26.7119 115.48H44.5659C47.0459 115.48 49.0649 117.498 49.0649 119.978V145.779C49.0649 148.259 47.0469 150.277 44.5659 150.277H26.7119Z" fill="#6C4023"/>
<path d="M44.5668 115.98C46.7748 115.98 48.5648 117.77 48.5648 119.978V145.779C48.5648 147.987 46.7748 149.777 44.5668 149.777H26.7128C24.5048 149.777 22.7148 147.987 22.7148 145.779V119.978C22.7148 117.77 24.5048 115.98 26.7128 115.98H44.5668ZM44.5668 114.98H26.7128C23.9568 114.98 21.7148 117.222 21.7148 119.978V145.779C21.7148 148.535 23.9568 150.777 26.7128 150.777H44.5668C47.3228 150.777 49.5648 148.535 49.5648 145.779V119.978C49.5648 117.222 47.3228 114.98 44.5668 114.98Z" fill="#6C4023"/>
<path d="M26.7119 125.683C24.2319 125.683 22.2129 123.665 22.2129 121.185V95.384C22.2129 92.904 24.2309 90.886 26.7119 90.886H44.5659C47.0459 90.886 49.0649 92.904 49.0649 95.384V121.185C49.0649 123.665 47.0469 125.683 44.5659 125.683H26.7119Z" fill="#9E4C2B"/>
<path d="M44.5668 91.386C46.7748 91.386 48.5648 93.176 48.5648 95.384V121.185C48.5648 123.393 46.7748 125.183 44.5668 125.183H26.7128C24.5048 125.183 22.7148 123.393 22.7148 121.185V95.384C22.7148 93.176 24.5048 91.386 26.7128 91.386H44.5668ZM44.5668 90.386H26.7128C23.9568 90.386 21.7148 92.628 21.7148 95.384V121.185C21.7148 123.941 23.9568 126.183 26.7128 126.183H44.5668C47.3228 126.183 49.5648 123.941 49.5648 121.185V95.384C49.5648 92.628 47.3228 90.386 44.5668 90.386Z" fill="#6C4023"/>
<path d="M61.364 16.4669C59.604 13.9019 55.8109 12.1259 51.4139 12.1259C49.6899 12.1259 48.059 12.3989 46.607 12.8859C46.683 12.5269 46.724 12.1599 46.724 11.7869C46.724 7.6099 41.8 4.2229 35.726 4.2229C29.652 4.2229 24.728 7.6089 24.728 11.7869C24.728 12.1649 24.77 12.5369 24.848 12.9009C23.385 12.4059 21.74 12.1269 19.999 12.1269C15.601 12.1269 11.808 13.9029 10.049 16.4679H9.00195V19.6909C9.00195 23.4319 12.953 26.5369 18.141 27.1449C16.036 28.5229 14.722 30.4669 14.722 32.6229C14.722 36.7999 19.6459 40.1869 25.7199 40.1869C30.1489 40.1869 33.9639 38.3849 35.7069 35.7899C37.4499 38.3849 41.2649 40.1869 45.6939 40.1869C51.7679 40.1869 56.692 36.8009 56.692 32.6229C56.692 30.4669 55.3779 28.5229 53.2729 27.1449C58.4609 26.5369 62.412 23.4319 62.412 19.6909V16.4679H61.364V16.4669Z" fill="#FA7702" stroke="#6C4023" stroke-miterlimit="10"/>
<path d="M45.692 37.462C41.559 37.462 37.732 35.888 35.705 33.403C33.678 35.888 29.851 37.462 25.718 37.462C19.378 37.462 14.22 33.845 14.22 29.399C14.22 27.475 15.156 25.673 16.88 24.231C11.958 23.272 8.5 20.132 8.5 16.467C8.5 12.021 13.658 8.40297 19.998 8.40297C21.47 8.40297 22.894 8.59297 24.242 8.96797C24.232 8.83297 24.227 8.69796 24.227 8.56396C24.227 4.11796 29.385 0.500977 35.725 0.500977C42.065 0.500977 47.223 4.11796 47.223 8.56396C47.223 8.69396 47.219 8.82497 47.209 8.95697C48.544 8.58897 49.955 8.40297 51.413 8.40297C57.753 8.40297 62.911 12.021 62.911 16.467C62.911 20.132 59.453 23.271 54.531 24.231C56.256 25.673 57.191 27.475 57.191 29.399C57.19 33.845 52.032 37.462 45.692 37.462Z" fill="#FFAC32"/>
<path d="M35.725 1C41.799 1 46.723 4.386 46.723 8.564C46.723 8.937 46.682 9.30401 46.606 9.66301C48.058 9.17701 49.689 8.903 51.413 8.903C57.487 8.903 62.411 12.289 62.411 16.467C62.411 20.208 58.46 23.313 53.272 23.921C55.377 25.299 56.691 27.243 56.691 29.399C56.691 33.576 51.767 36.963 45.693 36.963C41.264 36.963 37.449 35.161 35.706 32.566C33.963 35.161 30.148 36.963 25.719 36.963C19.645 36.963 14.721 33.577 14.721 29.399C14.721 27.243 16.035 25.299 18.14 23.921C12.952 23.313 9.00101 20.208 9.00101 16.467C9.00101 12.29 13.925 8.903 19.999 8.903C21.74 8.903 23.385 9.182 24.848 9.677C24.77 9.313 24.728 8.942 24.728 8.563C24.727 4.387 29.651 1 35.725 1ZM35.725 0C29.222 0 23.911 3.71101 23.732 8.32201C22.534 8.04401 21.284 7.903 19.998 7.903C13.382 7.903 8 11.745 8 16.467C8 20.136 11.194 23.303 15.853 24.51C14.479 25.93 13.721 27.637 13.721 29.398C13.721 34.12 19.103 37.962 25.719 37.962C29.815 37.962 33.508 36.534 35.706 34.168C37.904 36.535 41.597 37.962 45.693 37.962C52.309 37.962 57.691 34.12 57.691 29.398C57.691 27.637 56.933 25.93 55.559 24.51C60.218 23.303 63.412 20.135 63.412 16.467C63.412 11.745 58.03 7.903 51.414 7.903C50.142 7.903 48.905 8.04 47.719 8.313C47.531 3.707 42.223 0 35.725 0Z" fill="#6C4023"/>
<path d="M35.7226 27.045C29.3826 27.045 24.2246 23.428 24.2246 18.982C24.2246 14.536 29.3826 10.918 35.7226 10.918C42.0626 10.918 47.2206 14.536 47.2206 18.982C47.2206 23.428 42.0626 27.045 35.7226 27.045Z" fill="#FAE002"/>
<path d="M35.7245 11.418C41.7985 11.418 46.7226 14.804 46.7226 18.982C46.7226 23.16 41.7985 26.546 35.7245 26.546C29.6505 26.546 24.7266 23.16 24.7266 18.982C24.7266 14.804 29.6505 11.418 35.7245 11.418ZM35.7245 10.418C29.1085 10.418 23.7266 14.26 23.7266 18.982C23.7266 23.704 29.1085 27.546 35.7245 27.546C42.3405 27.546 47.7226 23.704 47.7226 18.982C47.7226 14.259 42.3395 10.418 35.7245 10.418Z" fill="#6C4023"/>
<path d="M57.2913 62.042C55.8105 59.8838 52.6191 58.3895 48.9195 58.3895C47.4689 58.3895 46.0966 58.6192 44.8749 59.029C44.9389 58.7269 44.9734 58.4181 44.9734 58.1043C44.9734 54.5898 40.8303 51.74 35.7197 51.74C30.6091 51.74 26.4661 54.5889 26.4661 58.1043C26.4661 58.4223 26.5014 58.7353 26.5671 59.0416C25.3361 58.6251 23.952 58.3903 22.4872 58.3903C18.7867 58.3903 15.5953 59.8847 14.1153 62.0428H13.2344V64.7546C13.2344 67.9023 16.5587 70.5148 20.9239 71.0264C19.1527 72.1858 18.0471 73.8215 18.0471 75.6355C18.0471 79.15 22.1902 81.9998 27.3008 81.9998C31.0273 81.9998 34.2372 80.4836 35.7038 78.3002C37.1703 80.4836 40.3802 81.9998 44.1067 81.9998C49.2173 81.9998 53.3603 79.1508 53.3603 75.6355C53.3603 73.8215 52.2548 72.1858 50.4836 71.0264C54.8488 70.5148 58.1731 67.9023 58.1731 64.7546V62.0428H57.2913V62.042Z" fill="#FA7702" stroke="#6C4023" stroke-miterlimit="10"/>
<path d="M44.1055 79.7071C40.6281 79.7071 37.4081 78.3827 35.7025 76.2919C33.997 78.3827 30.777 79.7071 27.2996 79.7071C21.9651 79.7071 17.6252 76.6629 17.6252 72.9221C17.6252 71.3032 18.4119 69.7871 19.8633 68.5746C15.722 67.7669 12.8125 65.1257 12.8125 62.042C12.8125 58.3012 17.1524 55.2579 22.4868 55.2579C23.7253 55.2579 24.9235 55.4178 26.0577 55.7333C26.0493 55.6197 26.0451 55.5061 26.0451 55.3934C26.0451 51.6525 30.3849 48.6084 35.7194 48.6084C41.0538 48.6084 45.3937 51.6525 45.3937 55.3934C45.3937 55.5028 45.3903 55.613 45.3819 55.724C46.5052 55.4144 47.6924 55.2579 48.9191 55.2579C54.2536 55.2579 58.5934 58.3012 58.5934 62.042C58.5934 65.1257 55.6839 67.7669 51.5426 68.5746C52.9931 69.7879 53.7807 71.3041 53.7807 72.9221C53.7798 76.6638 49.44 79.7071 44.1055 79.7071Z" fill="#FFAC32"/>
<path d="M35.7182 49.0284C40.8288 49.0284 44.9718 51.8774 44.9718 55.3927C44.9718 55.7065 44.9373 56.0153 44.8734 56.3174C46.0951 55.9085 47.4674 55.6779 48.918 55.6779C54.0286 55.6779 58.1716 58.5269 58.1716 62.0422C58.1716 65.1898 54.8473 67.8024 50.4821 68.3139C52.2532 69.4734 53.3588 71.109 53.3588 72.9231C53.3588 76.4376 49.2158 79.2874 44.1052 79.2874C40.3787 79.2874 37.1688 77.7712 35.7022 75.5878C34.2357 77.7712 31.0258 79.2874 27.2992 79.2874C22.1886 79.2874 18.0456 76.4384 18.0456 72.9231C18.0456 71.109 19.1512 69.4734 20.9223 68.3139C16.5572 67.8024 13.2329 65.1898 13.2329 62.0422C13.2329 58.5277 17.3759 55.6779 22.4865 55.6779C23.9513 55.6779 25.3354 55.9127 26.5664 56.3292C26.5008 56.0229 26.4654 55.7107 26.4654 55.3919C26.4654 51.8782 30.6076 49.0284 35.7182 49.0284ZM35.7182 48.187C30.2466 48.187 25.778 51.3094 25.6274 55.1891C24.6194 54.9552 23.5677 54.8365 22.4856 54.8365C16.919 54.8365 12.3906 58.0692 12.3906 62.0422C12.3906 65.1293 15.078 67.794 18.9981 68.8095C17.842 70.0043 17.2042 71.4405 17.2042 72.9222C17.2042 76.8953 21.7326 80.1279 27.2992 80.1279C30.7456 80.1279 33.8528 78.9264 35.7022 76.9357C37.5516 78.9273 40.6589 80.1279 44.1052 80.1279C49.6718 80.1279 54.2002 76.8953 54.2002 72.9222C54.2002 71.4405 53.5624 70.0043 52.4064 68.8095C56.3264 67.794 59.0138 65.1293 59.0138 62.0422C59.0138 58.0692 54.4855 54.8365 48.9188 54.8365C47.8486 54.8365 46.8077 54.9518 45.8099 55.1815C45.6525 51.3052 41.1864 48.187 35.7182 48.187Z" fill="#6C4023"/>
<path d="M35.7173 70.9424C30.3829 70.9424 26.043 67.8991 26.043 64.1583C26.043 60.4174 30.3829 57.3733 35.7173 57.3733C41.0517 57.3733 45.3916 60.4174 45.3916 64.1583C45.3916 67.8991 41.0517 70.9424 35.7173 70.9424Z" fill="#FAE002"/>
<path d="M35.7181 57.794C40.8287 57.794 44.9717 60.643 44.9717 64.1583C44.9717 67.6736 40.8287 70.5226 35.7181 70.5226C30.6075 70.5226 26.4644 67.6736 26.4644 64.1583C26.4644 60.643 30.6075 57.794 35.7181 57.794ZM35.7181 56.9526C30.1514 56.9526 25.623 60.1853 25.623 64.1583C25.623 68.1314 30.1514 71.364 35.7181 71.364C41.2847 71.364 45.8131 68.1314 45.8131 64.1583C45.8131 60.1844 41.2847 56.9526 35.7181 56.9526Z" fill="#6C4023"/>
<path d="M53.3064 105.03C52.1483 103.343 49.653 102.174 46.7596 102.174C45.6255 102.174 44.552 102.355 43.5964 102.674C43.6468 102.437 43.6733 102.197 43.6733 101.951C43.6733 99.2024 40.4332 96.9744 36.4373 96.9744C32.4406 96.9744 29.2014 99.2024 29.2014 101.951C29.2014 102.2 29.2287 102.444 29.28 102.683C28.3175 102.358 27.2346 102.174 26.0894 102.174C23.1961 102.174 20.6999 103.342 19.5427 105.029H18.8535V107.15C18.8535 109.612 21.4531 111.655 24.8665 112.054C23.4822 112.961 22.6171 114.24 22.6171 115.658C22.6171 118.406 25.8572 120.634 29.853 120.634C32.7677 120.634 35.2776 119.449 36.4245 117.742C37.5715 119.449 40.0814 120.634 42.9961 120.634C46.9928 120.634 50.232 118.406 50.232 115.658C50.232 114.24 49.3677 112.96 47.9825 112.054C51.396 111.655 53.9955 109.612 53.9955 107.15V105.029L53.3064 105.03Z" fill="#FA7702" stroke="#6C4023" stroke-miterlimit="10"/>
<path d="M42.9953 118.943C40.2975 118.943 37.7945 117.931 36.4238 116.327C35.054 117.931 32.5501 118.943 29.8523 118.943C25.6267 118.943 22.1894 116.519 22.1894 113.538C22.1894 112.32 22.7761 111.14 23.8265 110.195C20.6436 109.511 18.4258 107.441 18.4258 105.03C18.4258 102.051 21.8631 99.626 26.0887 99.626C27.0178 99.626 27.9197 99.7405 28.7754 99.9659C28.7737 99.9206 28.7728 99.8754 28.7728 99.8301C28.7728 96.8505 32.2102 94.426 36.4366 94.426C40.6622 94.426 44.0995 96.8497 44.0995 99.8301C44.0995 99.8728 44.0987 99.9164 44.0978 99.9591C44.9467 99.7379 45.8391 99.626 46.7589 99.626C50.9845 99.626 54.4226 102.05 54.4226 105.03C54.4226 107.441 52.204 109.512 49.022 110.195C50.0724 111.14 50.6591 112.321 50.6591 113.538C50.6591 116.519 47.2209 118.943 42.9953 118.943Z" fill="#FFAC32"/>
<path d="M36.4378 94.854C40.4345 94.854 43.6738 97.0821 43.6738 99.8302C43.6738 100.076 43.6464 100.317 43.5969 100.554C44.5525 100.233 45.626 100.054 46.7601 100.054C50.7568 100.054 53.996 102.282 53.996 105.03C53.996 107.492 51.3965 109.535 47.983 109.935C49.3674 110.842 50.2325 112.12 50.2325 113.539C50.2325 116.287 46.9924 118.515 42.9965 118.515C40.0818 118.515 37.5719 117.33 36.425 115.622C35.2781 117.33 32.7682 118.515 29.8535 118.515C25.8568 118.515 22.6176 116.287 22.6176 113.539C22.6176 112.12 23.4818 110.841 24.867 109.935C21.4536 109.535 18.854 107.492 18.854 105.03C18.854 102.282 22.0941 100.054 26.0899 100.054C27.2351 100.054 28.318 100.238 29.2805 100.564C29.2292 100.325 29.2019 100.08 29.2019 99.8311C29.2019 97.0821 32.4411 94.854 36.4378 94.854ZM36.4378 94C32.1627 94 28.6519 96.4014 28.3667 99.4314C27.6331 99.2777 26.8713 99.2 26.0899 99.2C21.6286 99.2 18 101.816 18 105.03C18 107.451 20.0206 109.55 23.0019 110.426C22.2017 111.347 21.7636 112.426 21.7636 113.539C21.7636 116.754 25.3931 119.369 29.8535 119.369C32.5154 119.369 34.928 118.466 36.425 116.959C37.9221 118.466 40.3346 119.369 42.9965 119.369C47.4578 119.369 51.0865 116.753 51.0865 113.539C51.0865 112.426 50.6483 111.346 49.8481 110.426C52.8295 109.55 54.85 107.451 54.85 105.03C54.85 101.815 51.2205 99.2 46.7601 99.2C45.9881 99.2 45.2349 99.276 44.509 99.4254C44.2195 96.3989 40.7095 94 36.4378 94Z" fill="#6C4023"/>
<path d="M36.4372 112.088C32.2116 112.088 28.7734 109.665 28.7734 106.684C28.7734 103.705 32.2108 101.281 36.4372 101.281C40.6628 101.281 44.1002 103.705 44.1002 106.684C44.1002 109.664 40.6628 112.088 36.4372 112.088Z" fill="#FAE002"/>
<path d="M36.4376 101.708C40.4343 101.708 43.6735 103.936 43.6735 106.684C43.6735 109.432 40.4334 111.66 36.4376 111.66C32.4417 111.66 29.2017 109.432 29.2017 106.684C29.2017 103.936 32.4409 101.708 36.4376 101.708ZM36.4376 100.854C31.9763 100.854 28.3477 103.47 28.3477 106.684C28.3477 109.899 31.9771 112.514 36.4376 112.514C40.898 112.514 44.5275 109.899 44.5275 106.684C44.5275 103.47 40.8989 100.854 36.4376 100.854Z" fill="#6C4023"/>
</svg>
