<svg width="114" height="90" viewBox="0 0 114 90" fill="none" xmlns="http://www.w3.org/2000/svg">
<path d="M101.003 88.875C99.763 88.875 98.601 88.283 97.8549 87.317C97.1089 88.283 95.9469 88.875 94.7069 88.875C93.6189 88.875 92.5859 88.428 91.8399 87.653C91.0939 88.427 90.062 88.875 88.973 88.875C87.613 88.875 86.3639 88.1609 85.6419 87.049C84.9199 88.1609 83.6709 88.875 82.3109 88.875C81.1419 88.875 80.0399 88.349 79.2899 87.466C78.5399 88.349 77.437 88.875 76.269 88.875C75.0079 88.875 73.836 88.272 73.093 87.288C72.349 88.272 71.178 88.875 69.917 88.875C68.656 88.875 67.4839 88.272 66.7409 87.288C65.9969 88.272 64.8259 88.875 63.5649 88.875C62.0729 88.875 60.76 88.058 60.08 86.81C59.4 88.058 58.0859 88.875 56.5949 88.875C55.1029 88.875 53.79 88.058 53.11 86.81C52.43 88.058 51.1159 88.875 49.6249 88.875C48.3639 88.875 47.1919 88.272 46.4489 87.288C45.7049 88.272 44.534 88.875 43.2729 88.875C42.0119 88.875 40.84 88.272 40.097 87.288C39.353 88.272 38.182 88.875 36.921 88.875C35.752 88.875 34.6489 88.349 33.8999 87.466C33.1499 88.349 32.0469 88.875 30.8789 88.875C29.5189 88.875 28.2699 88.1609 27.5479 87.049C26.8269 88.1609 25.577 88.875 24.2169 88.875C23.1279 88.875 22.0949 88.428 21.3499 87.653C20.6039 88.427 19.5719 88.875 18.4829 88.875C17.2439 88.875 16.081 88.283 15.335 87.317C14.589 88.283 13.427 88.875 12.188 88.875C10.297 88.875 8.70894 87.555 8.31094 85.763C7.92394 85.888 7.52894 85.951 7.12894 85.951C4.93094 85.951 3.14395 84.1639 3.14395 81.9669C3.14395 81.5779 3.20396 81.193 3.32196 80.815C1.67796 80.311 0.501953 78.7749 0.501953 77.019C0.501953 75.5099 1.36195 74.156 2.65295 73.482C1.76795 72.736 1.23294 71.628 1.23294 70.442C1.23294 68.855 2.17695 67.445 3.59595 66.814C3.29895 66.249 3.14395 65.628 3.14395 64.99C3.14395 63.087 4.50494 61.477 6.30594 61.094C6.11194 60.619 6.01096 60.111 6.01096 59.593C6.01096 57.733 7.29795 56.1579 9.05295 55.7339C8.86395 55.2659 8.76596 54.767 8.76596 54.263C8.76596 52.201 10.339 50.501 12.348 50.298C12.284 50.014 12.252 49.723 12.252 49.429C12.252 47.579 13.4979 46.027 15.2409 45.585C15.1219 45.208 15.063 44.823 15.063 44.436C15.063 42.342 16.686 40.621 18.74 40.462C18.613 40.073 18.5479 39.6729 18.5479 39.2639C18.5479 37.1849 20.1489 35.473 22.1819 35.295C22.0829 34.949 22.033 34.597 22.033 34.242C22.033 32.303 23.447 30.669 25.299 30.327C25.221 30.014 25.1809 29.695 25.1809 29.371C25.1809 27.332 26.7209 25.645 28.6989 25.413C28.6779 25.255 28.667 25.101 28.667 24.949C28.667 22.778 30.4119 21.007 32.5729 20.965C32.5169 20.698 32.49 20.4279 32.49 20.1519C32.49 17.9549 34.2779 16.167 36.4749 16.167C36.5329 16.167 36.59 16.169 36.6479 16.172C36.5249 15.786 36.4619 15.386 36.4619 14.981C36.4619 12.784 38.25 10.996 40.447 10.996C40.726 10.996 41.004 11.027 41.279 11.089C41.266 10.962 41.2589 10.835 41.2589 10.709C41.2589 8.51195 43.047 6.72495 45.244 6.72495C45.592 6.72495 45.938 6.77196 46.274 6.86496C46.24 6.66096 46.2239 6.45597 46.2239 6.24997C46.2239 4.05297 48.012 2.26495 50.209 2.26495C51.183 2.26495 52.1049 2.61896 52.8199 3.24396C53.3399 1.64196 54.834 0.501953 56.598 0.501953C58.421 0.501953 59.961 1.73097 60.434 3.40497C61.166 2.68797 62.1599 2.26495 63.2119 2.26495C65.4099 2.26495 67.197 4.05297 67.197 6.24997C67.197 6.43797 67.184 6.62497 67.157 6.80997C67.419 6.75397 67.6849 6.72595 67.9519 6.72595C70.1499 6.72595 71.937 8.51296 71.937 10.71C71.937 10.836 71.93 10.963 71.916 11.09C72.191 11.028 72.469 10.9969 72.748 10.9969C74.945 10.9969 76.7329 12.785 76.7329 14.982C76.7329 15.386 76.6699 15.788 76.5469 16.173C76.6049 16.17 76.6629 16.168 76.7199 16.168C78.9179 16.168 80.705 17.956 80.705 20.153C80.705 20.428 80.6769 20.7 80.6219 20.966C82.783 21.008 84.528 22.779 84.528 24.95C84.528 25.102 84.5169 25.256 84.4959 25.414C86.4739 25.646 88.0139 27.3329 88.0139 29.3719C88.0139 29.6959 87.9739 30.016 87.8959 30.328C89.7479 30.67 91.1609 32.304 91.1609 34.243C91.1609 34.5979 91.111 34.95 91.012 35.296C93.046 35.474 94.6459 37.186 94.6459 39.265C94.6459 39.673 94.5819 40.075 94.4539 40.463C96.5079 40.621 98.131 42.3429 98.131 44.437C98.131 44.825 98.0709 45.209 97.9529 45.586C99.6959 46.027 100.942 47.58 100.942 49.43C100.942 49.725 100.91 50.0149 100.846 50.299C102.854 50.5019 104.427 52.2019 104.427 54.2639C104.427 54.7679 104.329 55.266 104.14 55.735C105.894 56.16 107.182 57.733 107.182 59.594C107.182 60.112 107.081 60.62 106.887 61.095C108.688 61.478 110.05 63.087 110.05 64.991C110.05 65.63 109.895 66.25 109.597 66.815C111.016 67.446 111.96 68.856 111.96 70.443C111.96 71.629 111.425 72.737 110.541 73.483C111.832 74.157 112.692 75.511 112.692 77.02C112.692 78.776 111.516 80.311 109.872 80.8159C109.99 81.1939 110.05 81.58 110.05 81.968C110.05 84.165 108.262 85.952 106.065 85.952C105.665 85.952 105.27 85.8889 104.883 85.7639C104.482 87.5539 102.894 88.875 101.003 88.875Z" fill="#FEFDFF"/>
<path d="M56.595 1C58.52 1 60.08 2.55999 60.08 4.48499C60.08 4.59199 60.058 4.693 60.048 4.798C60.599 3.599 61.803 2.763 63.209 2.763C65.134 2.763 66.694 4.32299 66.694 6.24799C66.694 6.72299 66.597 7.17598 66.425 7.58798C66.887 7.36198 67.4 7.22299 67.949 7.22299C69.874 7.22299 71.434 8.78298 71.434 10.708C71.434 11.113 71.351 11.497 71.224 11.858C71.685 11.632 72.197 11.495 72.745 11.495C74.67 11.495 76.23 13.055 76.23 14.98C76.23 15.666 76.025 16.301 75.683 16.84C76.012 16.737 76.355 16.666 76.717 16.666C78.642 16.666 80.202 18.226 80.202 20.151C80.202 20.639 80.1 21.103 79.919 21.525C80.121 21.489 80.327 21.462 80.54 21.462C82.465 21.462 84.025 23.022 84.025 24.947C84.025 25.279 83.964 25.594 83.877 25.899C83.927 25.897 83.974 25.884 84.025 25.884C85.95 25.884 87.51 27.444 87.51 29.369C87.51 29.864 87.404 30.333 87.217 30.76C89.121 30.785 90.657 32.331 90.657 34.241C90.657 34.811 90.507 35.342 90.264 35.817C90.395 35.802 90.522 35.777 90.657 35.777C92.582 35.777 94.142 37.337 94.142 39.262C94.142 39.897 93.96 40.484 93.663 40.997C93.821 40.975 93.978 40.949 94.142 40.949C96.067 40.949 97.627 42.509 97.627 44.434C97.627 44.989 97.485 45.507 97.255 45.972C99.036 46.128 100.438 47.605 100.438 49.427C100.438 49.917 100.335 50.382 100.153 50.805C100.249 50.797 100.341 50.776 100.438 50.776C102.363 50.776 103.923 52.336 103.923 54.261C103.923 54.948 103.717 55.584 103.374 56.124C105.212 56.221 106.677 57.728 106.677 59.591C106.677 60.299 106.463 60.956 106.1 61.506C108.005 61.529 109.544 63.076 109.544 64.987C109.544 65.774 109.273 66.492 108.834 67.075C110.339 67.461 111.456 68.814 111.456 70.439C111.456 71.848 110.616 73.055 109.413 73.604C110.997 73.932 112.187 75.335 112.187 77.016C112.187 78.775 110.88 80.214 109.187 80.452C109.409 80.911 109.545 81.419 109.545 81.964C109.545 83.889 107.985 85.449 106.06 85.449C105.484 85.449 104.949 85.296 104.47 85.048C104.384 86.896 102.871 88.372 101.001 88.372C99.605 88.372 98.409 87.546 97.853 86.36C97.297 87.545 96.101 88.372 94.705 88.372C93.515 88.372 92.467 87.774 91.838 86.864C91.209 87.774 90.161 88.372 88.971 88.372C87.386 88.372 86.064 87.307 85.64 85.859C85.217 87.307 83.894 88.372 82.309 88.372C81.008 88.372 79.886 87.65 79.288 86.593C78.689 87.65 77.568 88.372 76.267 88.372C74.85 88.372 73.636 87.523 73.091 86.308C72.546 87.522 71.332 88.372 69.915 88.372C68.498 88.372 67.284 87.523 66.739 86.308C66.194 87.522 64.98 88.372 63.563 88.372C61.831 88.372 60.405 87.105 60.135 85.449H60.022C59.752 87.105 58.326 88.372 56.594 88.372C54.862 88.372 53.436 87.105 53.166 85.449H53.053C52.783 87.105 51.357 88.372 49.625 88.372C48.208 88.372 46.994 87.523 46.449 86.308C45.904 87.522 44.69 88.372 43.273 88.372C41.856 88.372 40.642 87.523 40.097 86.308C39.552 87.522 38.338 88.372 36.921 88.372C35.62 88.372 34.498 87.65 33.9 86.593C33.301 87.65 32.18 88.372 30.879 88.372C29.294 88.372 27.971 87.307 27.548 85.859C27.125 87.307 25.802 88.372 24.217 88.372C23.027 88.372 21.979 87.774 21.35 86.864C20.721 87.774 19.673 88.372 18.483 88.372C17.087 88.372 15.891 87.546 15.335 86.36C14.779 87.545 13.583 88.372 12.187 88.372C10.318 88.372 8.80402 86.896 8.71802 85.048C8.23902 85.296 7.70402 85.449 7.12802 85.449C5.20302 85.449 3.64301 83.889 3.64301 81.964C3.64301 81.42 3.77901 80.911 4.00101 80.452C2.30801 80.214 1.00101 78.774 1.00101 77.016C1.00101 75.335 2.19199 73.933 3.77499 73.604C2.57199 73.055 1.73199 71.848 1.73199 70.439C1.73199 68.814 2.849 67.461 4.354 67.075C3.914 66.492 3.64401 65.774 3.64401 64.987C3.64401 63.076 5.18301 61.529 7.08801 61.506C6.72501 60.956 6.51102 60.299 6.51102 59.591C6.51102 57.729 7.976 56.221 9.814 56.124C9.47099 55.584 9.26501 54.948 9.26501 54.261C9.26501 52.336 10.825 50.776 12.75 50.776C12.848 50.776 12.94 50.797 13.035 50.805C12.853 50.382 12.75 49.917 12.75 49.427C12.75 47.606 14.152 46.128 15.933 45.972C15.702 45.506 15.561 44.989 15.561 44.434C15.561 42.509 17.121 40.949 19.046 40.949C19.21 40.949 19.367 40.975 19.525 40.997C19.228 40.484 19.046 39.897 19.046 39.262C19.046 37.337 20.606 35.777 22.531 35.777C22.666 35.777 22.793 35.802 22.924 35.817C22.681 35.342 22.531 34.811 22.531 34.241C22.531 32.332 24.068 30.785 25.971 30.76C25.785 30.333 25.678 29.864 25.678 29.369C25.678 27.444 27.238 25.884 29.163 25.884C29.214 25.884 29.261 25.897 29.311 25.899C29.224 25.595 29.163 25.28 29.163 24.947C29.163 23.022 30.723 21.462 32.648 21.462C32.861 21.462 33.067 21.488 33.269 21.525C33.088 21.103 32.986 20.639 32.986 20.151C32.986 18.226 34.546 16.666 36.471 16.666C36.834 16.666 37.177 16.737 37.505 16.84C37.163 16.301 36.958 15.666 36.958 14.98C36.958 13.055 38.518 11.495 40.443 11.495C40.991 11.495 41.503 11.633 41.964 11.858C41.837 11.496 41.754 11.113 41.754 10.708C41.754 8.78298 43.314 7.22299 45.239 7.22299C45.916 7.22299 46.542 7.424 47.077 7.758C46.855 7.299 46.72 6.79099 46.72 6.24799C46.72 4.32299 48.28 2.763 50.205 2.763C51.429 2.763 52.501 3.39698 53.123 4.35098C53.195 2.48898 54.716 1 56.595 1ZM56.595 0C54.848 0 53.337 0.992001 52.6 2.457C51.895 2.009 51.069 1.763 50.206 1.763C47.733 1.763 45.721 3.77499 45.721 6.24799V6.25C45.562 6.232 45.401 6.22299 45.241 6.22299C42.835 6.22299 40.866 8.12699 40.76 10.507C40.655 10.499 40.55 10.495 40.444 10.495C37.971 10.495 35.959 12.507 35.959 14.98C35.959 15.218 35.978 15.455 36.017 15.689C33.757 15.918 31.987 17.832 31.987 20.151C31.987 20.271 31.992 20.391 32.001 20.509C29.834 20.824 28.164 22.694 28.164 24.947C28.164 24.963 28.164 24.98 28.164 24.996C26.171 25.452 24.678 27.239 24.678 29.369C24.678 29.565 24.691 29.76 24.716 29.953C22.877 30.514 21.53 32.232 21.53 34.241C21.53 34.455 21.546 34.668 21.578 34.879C19.561 35.317 18.045 37.116 18.045 39.262C18.045 39.526 18.069 39.788 18.116 40.045C16.087 40.474 14.56 42.279 14.56 44.433C14.56 44.707 14.586 44.978 14.638 45.247C12.929 45.887 11.749 47.516 11.749 49.426C11.749 49.579 11.757 49.731 11.772 49.882C9.767 50.329 8.26401 52.122 8.26401 54.26C8.26401 54.647 8.31501 55.032 8.41501 55.404C6.71001 56.043 5.509 57.682 5.509 59.59C5.509 59.985 5.56099 60.376 5.66299 60.752C3.90899 61.363 2.642 63.037 2.642 64.986C2.642 65.537 2.74402 66.076 2.94202 66.584C1.59802 67.373 0.731018 68.825 0.731018 70.439C0.731018 71.542 1.143 72.587 1.849 73.391C0.719999 74.217 0 75.552 0 77.016C0 78.829 1.11301 80.433 2.72501 81.125C2.67001 81.402 2.642 81.682 2.642 81.964C2.642 84.437 4.65401 86.449 7.12701 86.449C7.40801 86.449 7.68701 86.421 7.96201 86.367C8.57201 88.126 10.236 89.372 12.186 89.372C13.379 89.372 14.507 88.887 15.334 88.067C16.161 88.886 17.289 89.372 18.482 89.372C19.541 89.372 20.552 88.996 21.349 88.333C22.146 88.997 23.157 89.372 24.216 89.372C25.509 89.372 26.714 88.799 27.547 87.867C28.379 88.799 29.584 89.372 30.878 89.372C32.009 89.372 33.084 88.936 33.899 88.184C34.715 88.936 35.79 89.372 36.92 89.372C38.131 89.372 39.269 88.879 40.096 88.046C40.923 88.879 42.061 89.372 43.272 89.372C44.483 89.372 45.621 88.879 46.448 88.046C47.275 88.879 48.413 89.372 49.624 89.372C51.025 89.372 52.285 88.733 53.109 87.706C53.933 88.732 55.194 89.372 56.594 89.372C57.994 89.372 59.255 88.733 60.079 87.706C60.903 88.732 62.164 89.372 63.564 89.372C64.775 89.372 65.913 88.879 66.74 88.046C67.567 88.879 68.705 89.372 69.916 89.372C71.127 89.372 72.265 88.879 73.092 88.046C73.919 88.879 75.057 89.372 76.268 89.372C77.398 89.372 78.474 88.936 79.289 88.184C80.105 88.936 81.18 89.372 82.31 89.372C83.604 89.372 84.808 88.799 85.641 87.867C86.473 88.799 87.678 89.372 88.972 89.372C90.031 89.372 91.042 88.996 91.839 88.333C92.636 88.997 93.647 89.372 94.706 89.372C95.899 89.372 97.027 88.887 97.854 88.067C98.681 88.886 99.809 89.372 101.002 89.372C102.952 89.372 104.615 88.125 105.226 86.367C105.502 86.422 105.78 86.449 106.061 86.449C108.534 86.449 110.546 84.437 110.546 81.964C110.546 81.682 110.518 81.402 110.463 81.125C112.075 80.433 113.188 78.829 113.188 77.016C113.188 75.552 112.469 74.217 111.339 73.391C112.045 72.587 112.457 71.543 112.457 70.439C112.457 68.825 111.59 67.373 110.246 66.584C110.444 66.076 110.546 65.537 110.546 64.986C110.546 63.037 109.279 61.363 107.525 60.752C107.627 60.375 107.679 59.985 107.679 59.59C107.679 57.682 106.478 56.043 104.773 55.404C104.873 55.031 104.924 54.647 104.924 54.26C104.924 52.122 103.421 50.329 101.416 49.882C101.431 49.731 101.439 49.579 101.439 49.426C101.439 47.516 100.259 45.887 98.55 45.247C98.602 44.978 98.628 44.706 98.628 44.433C98.628 42.278 97.101 40.473 95.072 40.045C95.119 39.788 95.143 39.526 95.143 39.262C95.143 37.116 93.627 35.316 91.61 34.879C91.642 34.668 91.658 34.455 91.658 34.241C91.658 32.232 90.311 30.515 88.472 29.953C88.498 29.76 88.51 29.565 88.51 29.369C88.51 27.239 87.018 25.452 85.025 24.996C85.025 24.98 85.025 24.963 85.025 24.947C85.025 22.694 83.355 20.824 81.188 20.509C81.197 20.39 81.202 20.271 81.202 20.151C81.202 17.832 79.432 15.918 77.172 15.689C77.21 15.455 77.23 15.218 77.23 14.98C77.23 12.507 75.218 10.495 72.745 10.495C72.639 10.495 72.534 10.499 72.429 10.507C72.323 8.12699 70.354 6.22299 67.948 6.22299C67.863 6.22299 67.778 6.22599 67.693 6.23099C67.684 3.76599 65.675 1.763 63.208 1.763C62.278 1.763 61.388 2.05599 60.65 2.57199C59.932 1.05299 58.384 0 56.595 0Z" fill="#6C4023"/>
<path d="M101.004 88.8748C99.7641 88.8748 98.6021 88.2828 97.8561 87.3168C97.1101 88.2828 95.948 88.8748 94.708 88.8748C93.62 88.8748 92.587 88.4278 91.841 87.6528C91.095 88.4268 90.0631 88.8748 88.9741 88.8748C87.6141 88.8748 86.365 88.1608 85.643 87.0488C84.921 88.1608 83.6721 88.8748 82.312 88.8748C81.1431 88.8748 80.0411 88.3489 79.2911 87.4659C78.5411 88.3489 77.4381 88.8748 76.2701 88.8748C75.0091 88.8748 73.8371 88.2718 73.0941 87.2878C72.3501 88.2718 71.1791 88.8748 69.9181 88.8748C68.6571 88.8748 67.485 88.2718 66.742 87.2878C65.998 88.2718 64.827 88.8748 63.566 88.8748C62.074 88.8748 60.7611 88.0579 60.0811 86.8109C59.4011 88.0579 58.088 88.8748 56.596 88.8748C55.104 88.8748 53.7901 88.0578 53.1111 86.8098C52.4311 88.0578 51.117 88.8748 49.626 88.8748C48.365 88.8748 47.1931 88.2718 46.4501 87.2878C45.7061 88.2718 44.5351 88.8748 43.2741 88.8748C42.0131 88.8748 40.8411 88.2718 40.0981 87.2878C39.3541 88.2718 38.1831 88.8748 36.9221 88.8748C35.7531 88.8748 34.651 88.3489 33.901 87.4659C33.151 88.3489 32.048 88.8748 30.88 88.8748C29.52 88.8748 28.271 88.1608 27.549 87.0488C26.828 88.1608 25.5781 88.8748 24.2181 88.8748C23.1301 88.8748 22.0971 88.4278 21.3511 87.6528C20.6051 88.4268 19.573 88.8748 18.484 88.8748C17.244 88.8748 16.082 88.2828 15.337 87.3168C14.591 88.2828 13.4281 88.8748 12.1891 88.8748C10.2981 88.8748 8.71005 87.5548 8.31205 85.7628C7.92505 85.8878 7.53004 85.9508 7.13004 85.9508C4.93204 85.9508 3.14506 84.1638 3.14506 81.9668C3.14506 81.5688 3.20805 81.1729 3.33305 80.7849C3.24005 80.7279 3.16006 80.6448 3.12006 80.5488C3.06106 80.4058 3.04605 80.2369 3.12205 80.1039C3.14305 78.2049 4.50605 76.5958 6.30805 76.2138C6.11405 75.7388 6.01307 75.2308 6.01307 74.7128C6.01307 72.8518 7.30006 71.2769 9.05506 70.8539C8.86606 70.3848 8.76804 69.8868 8.76804 69.3828C8.76804 67.3208 10.341 65.6208 12.35 65.4178C12.286 65.1328 12.2541 64.8428 12.2541 64.5479C12.2541 62.6979 13.5 61.1468 15.243 60.7048C15.124 60.3278 15.065 59.9428 15.065 59.5558C15.065 57.4618 16.688 55.7408 18.742 55.5818C18.615 55.1928 18.5501 54.7929 18.5501 54.3839C18.5501 52.3049 20.1511 50.5919 22.1841 50.4138C22.0851 50.0678 22.035 49.7168 22.035 49.3618C22.035 47.4228 23.4491 45.7888 25.3011 45.4468C25.2231 45.1338 25.1831 44.8138 25.1831 44.4898C25.1831 42.4508 26.7231 40.7638 28.7011 40.5318C28.6791 40.3738 28.669 40.2198 28.669 40.0678C28.669 37.8968 30.4141 36.1258 32.5751 36.0838C32.5191 35.8168 32.492 35.5468 32.492 35.2708C32.492 33.0738 34.2801 31.2858 36.4771 31.2858C36.5341 31.2858 36.5921 31.2878 36.6501 31.2908C36.5271 30.9048 36.4641 30.5048 36.4641 30.1008C36.4641 27.9038 38.252 26.1158 40.449 26.1158C40.728 26.1158 41.006 26.1468 41.281 26.2088C41.267 26.0818 41.26 25.9548 41.26 25.8288C41.26 23.6318 43.0481 21.8438 45.2451 21.8438C45.5931 21.8438 45.94 21.8908 46.276 21.9838C46.242 21.7798 46.2261 21.5748 46.2261 21.3688C46.2261 19.1718 48.0141 17.3839 50.2111 17.3839C51.1851 17.3839 52.1071 17.7378 52.8221 18.3628C53.3421 16.7618 54.836 15.6218 56.6 15.6218C58.422 15.6218 59.963 16.8508 60.436 18.5238C61.168 17.8078 62.1621 17.3839 63.2141 17.3839C65.4121 17.3839 67.199 19.1718 67.199 21.3688C67.199 21.5568 67.1861 21.7438 67.1591 21.9288C67.4221 21.8728 67.687 21.8448 67.954 21.8448C70.152 21.8448 71.9391 23.6328 71.9391 25.8298C71.9391 25.9558 71.9321 26.0818 71.9181 26.2098C72.1921 26.1478 72.4701 26.1169 72.7501 26.1169C74.9471 26.1169 76.7351 27.9048 76.7351 30.1018C76.7351 30.5058 76.6721 30.9068 76.549 31.2918C76.607 31.2888 76.6651 31.2868 76.7221 31.2868C78.9201 31.2868 80.707 33.0749 80.707 35.2719C80.707 35.5469 80.6791 35.8188 80.6241 36.0848C82.7851 36.1268 84.5301 37.8978 84.5301 40.0688C84.5301 40.2208 84.5191 40.3748 84.4981 40.5328C86.4761 40.7648 88.0151 42.4518 88.0151 44.4908C88.0151 44.8148 87.975 45.1358 87.897 45.4478C89.749 45.7898 91.1631 47.4238 91.1631 49.3628C91.1631 49.7168 91.113 50.0688 91.014 50.4148C93.048 50.5928 94.648 52.3058 94.648 54.3848C94.648 54.7928 94.5841 55.1948 94.4561 55.5828C96.5111 55.7398 98.134 57.4628 98.134 59.5568C98.134 59.9448 98.0741 60.3288 97.9561 60.7058C99.6991 61.1468 100.945 62.6988 100.945 64.5488C100.945 64.8438 100.913 65.1348 100.849 65.4188C102.857 65.6218 104.43 67.3218 104.43 69.3839C104.43 69.8879 104.332 70.3858 104.143 70.8548C105.897 71.2798 107.185 72.8528 107.185 74.7138C107.185 75.2318 107.084 75.7398 106.89 76.2148C108.649 76.5878 109.988 78.1308 110.05 79.9768C110.151 80.0998 110.206 80.2748 110.171 80.4268C110.132 80.5938 110.031 80.7488 109.872 80.8078C109.992 81.1878 110.053 81.5768 110.053 81.9678C110.053 84.1648 108.265 85.9518 106.068 85.9518C105.668 85.9518 105.273 85.8888 104.886 85.7638C104.483 87.5538 102.895 88.8748 101.004 88.8748Z" fill="#FEFDFF"/>
<path d="M56.5951 16.1189C58.5201 16.1189 60.0801 17.6789 60.0801 19.6039C60.0801 19.7109 60.0581 19.8119 60.0481 19.9169C60.5991 18.7179 61.8031 17.8819 63.2091 17.8819C65.1341 17.8819 66.6941 19.4419 66.6941 21.3669C66.6941 21.8419 66.5971 22.2949 66.4251 22.7069C66.8871 22.4809 67.4001 22.3419 67.9491 22.3419C69.8741 22.3419 71.4341 23.9019 71.4341 25.8269C71.4341 26.2319 71.3511 26.6159 71.2241 26.9769C71.6851 26.7509 72.1971 26.6139 72.7451 26.6139C74.6701 26.6139 76.2301 28.1739 76.2301 30.0989C76.2301 30.7849 76.0251 31.4199 75.6831 31.9589C76.0121 31.8559 76.3551 31.7849 76.7171 31.7849C78.6421 31.7849 80.2021 33.3449 80.2021 35.2699C80.2021 35.7579 80.1001 36.2219 79.9191 36.6439C80.1211 36.6079 80.3271 36.5809 80.5401 36.5809C82.4651 36.5809 84.0251 38.1409 84.0251 40.0659C84.0251 40.3979 83.9641 40.7129 83.8771 41.0179C83.9271 41.0159 83.9741 41.0029 84.0251 41.0029C85.9501 41.0029 87.5101 42.5629 87.5101 44.4879C87.5101 44.9829 87.4041 45.4519 87.2171 45.8789C89.1211 45.9039 90.6571 47.4499 90.6571 49.3599C90.6571 49.9299 90.5071 50.4609 90.2641 50.9359C90.3951 50.9209 90.5221 50.8959 90.6571 50.8959C92.5821 50.8959 94.1421 52.4559 94.1421 54.3809C94.1421 55.0159 93.9601 55.6029 93.6631 56.1159C93.8211 56.0939 93.9781 56.0679 94.1421 56.0679C96.0671 56.0679 97.6271 57.6279 97.6271 59.5529C97.6271 60.1079 97.4851 60.6259 97.2551 61.0909C99.0361 61.2469 100.438 62.7239 100.438 64.5459C100.438 65.0359 100.335 65.5009 100.153 65.9239C100.249 65.9159 100.341 65.8949 100.438 65.8949C102.363 65.8949 103.923 67.4549 103.923 69.3799C103.923 70.0669 103.717 70.7029 103.374 71.2429C105.212 71.3389 106.677 72.8469 106.677 74.7099C106.677 75.4179 106.463 76.0749 106.1 76.6249C108.005 76.6479 109.544 78.1949 109.544 80.1059C109.544 80.1709 109.608 80.2489 109.697 80.3319C109.53 80.3819 109.362 80.4269 109.186 80.4519C109.408 80.9109 109.544 81.4189 109.544 81.9639C109.544 83.8889 107.984 85.4489 106.059 85.4489C105.483 85.4489 104.948 85.2959 104.469 85.0479C104.383 86.8959 102.87 88.3719 101 88.3719C99.6041 88.3719 98.4081 87.5459 97.8521 86.3599C97.2961 87.5449 96.1001 88.3719 94.7041 88.3719C93.5141 88.3719 92.4661 87.7739 91.8371 86.8639C91.2081 87.7739 90.1601 88.3719 88.9701 88.3719C87.3851 88.3719 86.0631 87.3069 85.6391 85.8589C85.2161 87.3069 83.8931 88.3719 82.3081 88.3719C81.0071 88.3719 79.8851 87.6499 79.2871 86.5929C78.6881 87.6499 77.5671 88.3719 76.2661 88.3719C74.8491 88.3719 73.6351 87.5229 73.0901 86.3079C72.5451 87.5219 71.3311 88.3719 69.9141 88.3719C68.4971 88.3719 67.2831 87.5229 66.7381 86.3079C66.1931 87.5219 64.9791 88.3719 63.5621 88.3719C61.8301 88.3719 60.4041 87.1049 60.1331 85.4489H60.0201C59.7501 87.1049 58.3241 88.3719 56.5911 88.3719C54.8591 88.3719 53.4331 87.1049 53.1621 85.4489H53.0491C52.7791 87.1049 51.3531 88.3719 49.6201 88.3719C48.2031 88.3719 46.9891 87.5229 46.4441 86.3079C45.8991 87.5219 44.6851 88.3719 43.2681 88.3719C41.8511 88.3719 40.6371 87.5229 40.0921 86.3079C39.5471 87.5219 38.3331 88.3719 36.9161 88.3719C35.6151 88.3719 34.4931 87.6499 33.8951 86.5929C33.2961 87.6499 32.1751 88.3719 30.8741 88.3719C29.2891 88.3719 27.9671 87.3069 27.5431 85.8589C27.1201 87.3069 25.7971 88.3719 24.2121 88.3719C23.0221 88.3719 21.9741 87.7739 21.3451 86.8639C20.7161 87.7739 19.6681 88.3719 18.4781 88.3719C17.0821 88.3719 15.8861 87.5459 15.3301 86.3599C14.7741 87.5449 13.5781 88.3719 12.1821 88.3719C10.3131 88.3719 8.79913 86.8959 8.71313 85.0479C8.23413 85.2959 7.69913 85.4489 7.12313 85.4489C5.19813 85.4489 3.63811 83.8889 3.63811 81.9639C3.63811 81.4199 3.77412 80.9109 3.99612 80.4519C3.84212 80.4299 3.69512 80.3879 3.54912 80.3469C3.60112 80.2559 3.63811 80.1709 3.63811 80.1059C3.63811 78.1949 5.17711 76.6479 7.08211 76.6249C6.71911 76.0749 6.50512 75.4179 6.50512 74.7099C6.50512 72.8479 7.97013 71.3399 9.80813 71.2429C9.46513 70.7029 9.25912 70.0669 9.25912 69.3799C9.25912 67.4549 10.8191 65.8949 12.7441 65.8949C12.8421 65.8949 12.9341 65.9159 13.0291 65.9239C12.8471 65.5009 12.7441 65.0359 12.7441 64.5459C12.7441 62.7249 14.1461 61.2469 15.9271 61.0909C15.6961 60.6249 15.5551 60.1079 15.5551 59.5529C15.5551 57.6279 17.1151 56.0679 19.0401 56.0679C19.2041 56.0679 19.3611 56.0939 19.5191 56.1159C19.2221 55.6029 19.0401 55.0159 19.0401 54.3809C19.0401 52.4559 20.6001 50.8959 22.5251 50.8959C22.6601 50.8959 22.7871 50.9209 22.9181 50.9359C22.6751 50.4609 22.5251 49.9299 22.5251 49.3599C22.5251 47.4509 24.0621 45.9039 25.9651 45.8789C25.7791 45.4519 25.6721 44.9829 25.6721 44.4879C25.6721 42.5629 27.2321 41.0029 29.1571 41.0029C29.2081 41.0029 29.2551 41.0159 29.3051 41.0179C29.2181 40.7139 29.1571 40.3979 29.1571 40.0659C29.1571 38.1409 30.7171 36.5809 32.6421 36.5809C32.8551 36.5809 33.0611 36.6069 33.2631 36.6439C33.0821 36.2219 32.9801 35.7579 32.9801 35.2699C32.9801 33.3449 34.5401 31.7849 36.4651 31.7849C36.8281 31.7849 37.1711 31.8559 37.4991 31.9589C37.1571 31.4199 36.9521 30.7849 36.9521 30.0989C36.9521 28.1739 38.5121 26.6139 40.4371 26.6139C40.9851 26.6139 41.4971 26.7519 41.9581 26.9769C41.8311 26.6149 41.7481 26.2319 41.7481 25.8269C41.7481 23.9019 43.3081 22.3419 45.2331 22.3419C45.9101 22.3419 46.5361 22.5429 47.0711 22.8769C46.8491 22.4179 46.7141 21.9099 46.7141 21.3659C46.7141 19.4409 48.2741 17.8809 50.1991 17.8809C51.4231 17.8809 52.4951 18.5149 53.1171 19.4689C53.1951 17.6089 54.7161 16.1189 56.5951 16.1189ZM56.5951 15.1189C54.8481 15.1189 53.3371 16.1109 52.6001 17.5759C51.8951 17.1279 51.0691 16.8819 50.2061 16.8819C47.7331 16.8819 45.7211 18.8939 45.7211 21.3669V21.3689C45.5621 21.3509 45.4011 21.3419 45.2411 21.3419C42.8351 21.3419 40.8661 23.2459 40.7601 25.6259C40.6551 25.6179 40.5501 25.6139 40.4441 25.6139C37.9711 25.6139 35.9591 27.6259 35.9591 30.0989C35.9591 30.3369 35.9781 30.5739 36.0171 30.8079C33.7571 31.0369 31.9871 32.9509 31.9871 35.2699C31.9871 35.3899 31.9921 35.5099 32.0011 35.6279C29.8341 35.9429 28.1641 37.8139 28.1641 40.0659C28.1641 40.0819 28.1641 40.0989 28.1641 40.1149C26.1711 40.5709 24.6791 42.3579 24.6791 44.4879C24.6791 44.6839 24.6921 44.8789 24.7171 45.0719C22.8781 45.6329 21.5311 47.3509 21.5311 49.3599C21.5311 49.5739 21.5471 49.7869 21.5791 49.9979C19.5621 50.4359 18.0461 52.2349 18.0461 54.3809C18.0461 54.6449 18.0701 54.9069 18.1171 55.1639C16.0881 55.5929 14.5611 57.3979 14.5611 59.5519C14.5611 59.8259 14.5871 60.0969 14.6391 60.3659C12.9301 61.0059 11.7501 62.6349 11.7501 64.5449C11.7501 64.6979 11.7581 64.8499 11.7731 65.0009C9.76812 65.4479 8.26513 67.2409 8.26513 69.3789C8.26513 69.7659 8.31613 70.1509 8.41613 70.5229C6.71113 71.1619 5.51012 72.8009 5.51012 74.7089C5.51012 75.1039 5.56211 75.4949 5.66411 75.8709C3.96311 76.4639 2.72012 78.0559 2.64712 79.9289C2.53812 80.1779 2.53012 80.4669 2.63412 80.7189C2.66812 80.8019 2.71213 80.8789 2.76513 80.9489C2.68413 81.2829 2.64413 81.6209 2.64413 81.9629C2.64413 84.4359 4.65611 86.4479 7.12911 86.4479C7.41011 86.4479 7.68913 86.4199 7.96413 86.3659C8.57413 88.1249 10.2381 89.3709 12.1881 89.3709C13.3811 89.3709 14.5091 88.8859 15.3361 88.0659C16.1631 88.8849 17.2911 89.3709 18.4841 89.3709C19.5431 89.3709 20.5541 88.9949 21.3511 88.3309C22.1481 88.9949 23.1591 89.3709 24.2181 89.3709C25.5121 89.3709 26.7161 88.7979 27.5491 87.8659C28.3811 88.7979 29.5861 89.3709 30.8801 89.3709C32.0101 89.3709 33.0861 88.9349 33.9011 88.1819C34.7171 88.9339 35.7921 89.3709 36.9221 89.3709C38.1331 89.3709 39.2711 88.8779 40.0981 88.0449C40.9251 88.8779 42.0631 89.3709 43.2741 89.3709C44.4851 89.3709 45.6231 88.8779 46.4501 88.0449C47.2771 88.8779 48.4151 89.3709 49.6261 89.3709C51.0271 89.3709 52.2871 88.7319 53.1111 87.7049C53.9351 88.7309 55.1961 89.3709 56.5961 89.3709C57.9961 89.3709 59.2571 88.7319 60.0811 87.7049C60.9051 88.7309 62.1661 89.3709 63.5661 89.3709C64.7771 89.3709 65.9151 88.8779 66.7421 88.0449C67.5691 88.8779 68.7071 89.3709 69.9181 89.3709C71.1291 89.3709 72.2671 88.8779 73.0941 88.0449C73.9211 88.8779 75.0591 89.3709 76.2701 89.3709C77.4001 89.3709 78.4761 88.9349 79.2911 88.1819C80.1071 88.9339 81.1821 89.3709 82.3121 89.3709C83.6051 89.3709 84.8101 88.7979 85.6431 87.8659C86.4751 88.7979 87.6801 89.3709 88.9741 89.3709C90.0331 89.3709 91.0441 88.9949 91.8411 88.3309C92.6381 88.9949 93.6491 89.3709 94.7081 89.3709C95.9011 89.3709 97.0291 88.8859 97.8561 88.0659C98.6831 88.8849 99.8111 89.3709 101.004 89.3709C102.954 89.3709 104.617 88.1239 105.228 86.3659C105.504 86.4209 105.782 86.4479 106.063 86.4479C108.536 86.4479 110.548 84.4359 110.548 81.9629C110.548 81.6409 110.512 81.3209 110.44 81.0059C110.553 80.8819 110.635 80.7299 110.675 80.5609C110.739 80.2899 110.686 80.0089 110.537 79.7819C110.406 77.9729 109.184 76.4489 107.528 75.8719C107.63 75.4949 107.682 75.1049 107.682 74.7099C107.682 72.8019 106.481 71.1629 104.776 70.5239C104.876 70.1519 104.927 69.7669 104.927 69.3799C104.927 67.2419 103.424 65.4489 101.419 65.0019C101.434 64.8509 101.442 64.6989 101.442 64.5459C101.442 62.6359 100.262 61.0069 98.5531 60.3669C98.6051 60.0979 98.6311 59.8259 98.6311 59.5529C98.6311 57.3979 97.1041 55.5929 95.0751 55.1649C95.1221 54.9079 95.1461 54.6459 95.1461 54.3819C95.1461 52.2359 93.6301 50.4359 91.6131 49.9989C91.6451 49.7879 91.6611 49.5749 91.6611 49.3609C91.6611 47.3519 90.3141 45.6349 88.4751 45.0729C88.5011 44.8799 88.5131 44.6849 88.5131 44.4889C88.5131 42.3589 87.0211 40.5719 85.0281 40.1159C85.0281 40.0999 85.0281 40.0829 85.0281 40.0669C85.0281 37.8139 83.3581 35.9439 81.1911 35.6289C81.2001 35.5099 81.2051 35.3909 81.2051 35.2709C81.2051 32.9519 79.4351 31.0379 77.1751 30.8089C77.2131 30.5749 77.2331 30.3379 77.2331 30.0999C77.2331 27.6269 75.2211 25.6149 72.7481 25.6149C72.6421 25.6149 72.5371 25.6189 72.4321 25.6269C72.3261 23.2469 70.3571 21.3429 67.9511 21.3429C67.8661 21.3429 67.7801 21.3459 67.6961 21.3509C67.6871 18.8859 65.6781 16.8829 63.2111 16.8829C62.2811 16.8829 61.3911 17.1759 60.6531 17.6919C59.9321 16.1729 58.3841 15.1189 56.5951 15.1189Z" fill="#6C4023"/>
<path d="M109.548 80.1089C109.548 78.1979 108.009 76.6509 106.104 76.6279C106.467 76.0779 106.681 75.4209 106.681 74.7129C106.681 73.2369 105.755 71.9959 104.458 71.4919C104.322 73.2919 102.838 74.7159 101.004 74.7159C99.6077 74.7159 98.4117 73.8899 97.8557 72.7039C97.2997 73.8889 96.1037 74.7159 94.7077 74.7159C93.5177 74.7159 92.4697 74.1179 91.8407 73.2079C91.2117 74.1179 90.1638 74.7159 88.9738 74.7159C87.3888 74.7159 86.0667 73.6509 85.6427 72.2029C85.2197 73.6509 83.8967 74.7159 82.3117 74.7159C81.0107 74.7159 79.8887 73.9939 79.2907 72.9369C78.6917 73.9939 77.5707 74.7159 76.2697 74.7159C74.8527 74.7159 73.6387 73.8669 73.0938 72.6519C72.5488 73.8659 71.3348 74.7159 69.9178 74.7159C68.5008 74.7159 67.2867 73.8669 66.7417 72.6519C66.1967 73.8659 64.9827 74.7159 63.5657 74.7159C61.8337 74.7159 60.4077 73.4489 60.1367 71.7929H60.0237C59.7537 73.4489 58.3277 74.7159 56.5947 74.7159C54.8627 74.7159 53.4367 73.4489 53.1657 71.7929H53.0527C52.7827 73.4489 51.3568 74.7159 49.6237 74.7159C48.2067 74.7159 46.9928 73.8669 46.4478 72.6519C45.9028 73.8659 44.6887 74.7159 43.2717 74.7159C41.8547 74.7159 40.6407 73.8669 40.0957 72.6519C39.5507 73.8659 38.3367 74.7159 36.9197 74.7159C35.6187 74.7159 34.4967 73.9939 33.8987 72.9369C33.2997 73.9939 32.1787 74.7159 30.8777 74.7159C29.2927 74.7159 27.9708 73.6509 27.5468 72.2029C27.1238 73.6509 25.8007 74.7159 24.2157 74.7159C23.0257 74.7159 21.9778 74.1179 21.3488 73.2079C20.7198 74.1179 19.6718 74.7159 18.4818 74.7159C17.0858 74.7159 15.8897 73.8899 15.3337 72.7039C14.7777 73.8889 13.5817 74.7159 12.1857 74.7159C10.3507 74.7159 8.86775 73.2919 8.73175 71.4919C7.43475 71.9969 6.50873 73.2369 6.50873 74.7129C6.50873 75.4209 6.72275 76.0779 7.08575 76.6279C5.18075 76.6509 3.64175 78.1979 3.64175 80.1089C3.64175 80.1749 3.60473 80.2589 3.55273 80.3499C3.69973 80.3909 3.84576 80.4329 3.99976 80.4549C3.77776 80.9139 3.64175 81.4219 3.64175 81.9669C3.64175 83.8919 5.20174 85.4519 7.12674 85.4519C7.70274 85.4519 8.23774 85.2989 8.71674 85.0509C8.80274 86.8989 10.3157 88.3749 12.1857 88.3749C13.5817 88.3749 14.7777 87.5489 15.3337 86.3629C15.8897 87.5479 17.0858 88.3749 18.4818 88.3749C19.6718 88.3749 20.7198 87.7769 21.3488 86.8669C21.9778 87.7769 23.0257 88.3749 24.2157 88.3749C25.8007 88.3749 27.1238 87.3099 27.5468 85.8619C27.9698 87.3099 29.2927 88.3749 30.8777 88.3749C32.1787 88.3749 33.3007 87.6529 33.8987 86.5959C34.4977 87.6529 35.6187 88.3749 36.9197 88.3749C38.3367 88.3749 39.5507 87.5259 40.0957 86.3109C40.6407 87.5249 41.8547 88.3749 43.2717 88.3749C44.6887 88.3749 45.9028 87.5259 46.4478 86.3109C46.9928 87.5249 48.2067 88.3749 49.6237 88.3749C51.3557 88.3749 52.7817 87.1079 53.0527 85.4519H53.1657C53.4357 87.1079 54.8617 88.3749 56.5947 88.3749C58.3267 88.3749 59.7527 87.1079 60.0237 85.4519H60.1367C60.4067 87.1079 61.8327 88.3749 63.5657 88.3749C64.9827 88.3749 66.1967 87.5259 66.7417 86.3109C67.2867 87.5249 68.5008 88.3749 69.9178 88.3749C71.3348 88.3749 72.5488 87.5259 73.0938 86.3109C73.6387 87.5249 74.8527 88.3749 76.2697 88.3749C77.5707 88.3749 78.6927 87.6529 79.2907 86.5959C79.8897 87.6529 81.0107 88.3749 82.3117 88.3749C83.8967 88.3749 85.2187 87.3099 85.6427 85.8619C86.0657 87.3099 87.3888 88.3749 88.9738 88.3749C90.1638 88.3749 91.2117 87.7769 91.8407 86.8669C92.4697 87.7769 93.5177 88.3749 94.7077 88.3749C96.1037 88.3749 97.2997 87.5489 97.8557 86.3629C98.4117 87.5479 99.6077 88.3749 101.004 88.3749C102.873 88.3749 104.387 86.8989 104.473 85.0509C104.952 85.2989 105.487 85.4519 106.063 85.4519C107.988 85.4519 109.548 83.8919 109.548 81.9669C109.548 81.4229 109.412 80.9139 109.19 80.4549C109.366 80.4299 109.535 80.3849 109.701 80.3349C109.611 80.2519 109.548 80.1739 109.548 80.1089Z" fill="#FFD2D2"/>
<path d="M53.1776 55.1221C53.1776 55.1221 50.8526 57.6131 52.2196 58.7651C53.9106 60.1911 55.7146 56.8771 55.7146 56.8771L53.1776 55.1221Z" fill="#FF787A"/>
<path d="M73.6729 53.195C75.2171 53.195 76.469 51.9432 76.469 50.399C76.469 48.8548 75.2171 47.603 73.6729 47.603C72.1288 47.603 70.877 48.8548 70.877 50.399C70.877 51.9432 72.1288 53.195 73.6729 53.195Z" fill="#6C4023"/>
<path d="M39.5186 53.195C41.0628 53.195 42.3146 51.9432 42.3146 50.399C42.3146 48.8548 41.0628 47.603 39.5186 47.603C37.9745 47.603 36.7227 48.8548 36.7227 50.399C36.7227 51.9432 37.9745 53.195 39.5186 53.195Z" fill="#6C4023"/>
<path d="M35.4581 59.8071C37.0023 59.8071 38.2541 58.716 38.2541 57.3701C38.2541 56.0242 37.0023 54.9331 35.4581 54.9331C33.9139 54.9331 32.6621 56.0242 32.6621 57.3701C32.6621 58.716 33.9139 59.8071 35.4581 59.8071Z" fill="#FED1D0"/>
<path d="M77.7315 59.8071C79.2757 59.8071 80.5276 58.716 80.5276 57.3701C80.5276 56.0242 79.2757 54.9331 77.7315 54.9331C76.1873 54.9331 74.9355 56.0242 74.9355 57.3701C74.9355 58.716 76.1873 59.8071 77.7315 59.8071Z" fill="#FED1D0"/>
<path d="M52.5156 52.8931C52.5156 55.1471 54.3426 56.9731 56.5956 56.9731C58.8486 56.9731 60.6756 55.1461 60.6756 52.8931" stroke="#6C4023" stroke-miterlimit="10" stroke-linecap="round"/>
<path d="M40.0977 67.877V86.3111C40.6427 87.5251 41.8567 88.3751 43.2737 88.3751C44.6907 88.3751 45.9046 87.5261 46.4496 86.3111C46.9946 87.5251 48.2086 88.3751 49.6256 88.3751C51.3576 88.3751 52.7837 87.1081 53.0547 85.4521H53.1677C53.4377 87.1081 54.8636 88.3751 56.5966 88.3751C58.3286 88.3751 59.7546 87.1081 60.0256 85.4521H60.1386C60.4086 87.1081 61.8347 88.3751 63.5677 88.3751C64.9847 88.3751 66.1987 87.5261 66.7437 86.3111C67.2887 87.5251 68.5026 88.3751 69.9196 88.3751C71.3366 88.3751 72.5506 87.5261 73.0956 86.3111V67.877C73.0956 66.235 71.7647 64.9041 70.1227 64.9041H43.0717C41.4287 64.9051 40.0977 66.236 40.0977 67.877Z" fill="#6C4023"/>
</svg>
