<svg width="176" height="89" viewBox="0 0 176 89" fill="none" xmlns="http://www.w3.org/2000/svg">
<path d="M131.069 32.493C132.839 32.24 176.656 18.191 172.186 16.404C167.717 14.616 127.496 26.621 127.496 26.621C127.496 26.621 124.812 33.387 131.069 32.493Z" fill="#C7975A"/>
<path d="M167.716 19.085C168.011 19.203 168.09 19.375 167.991 19.592C171.435 18.041 173.292 16.846 172.186 16.403C167.717 14.615 127.496 26.62 127.496 26.62C127.496 26.62 127.243 27.259 127.074 28.117C137.387 25.135 164.12 17.646 167.716 19.085Z" fill="#FFD9A8"/>
<path d="M170.768 16.222C171.396 16.222 171.877 16.28 172.187 16.404C172.257 16.432 172.314 16.463 172.361 16.496C172.379 16.509 172.388 16.525 172.403 16.539C172.426 16.561 172.452 16.582 172.467 16.605C172.479 16.625 172.481 16.649 172.488 16.67C172.494 16.69 172.505 16.709 172.507 16.73C172.509 16.756 172.499 16.784 172.494 16.812C172.49 16.832 172.491 16.851 172.483 16.872C172.471 16.904 172.448 16.939 172.428 16.974C172.417 16.993 172.411 17.01 172.397 17.029C172.37 17.068 172.331 17.11 172.294 17.152C172.279 17.168 172.269 17.184 172.253 17.2C172.208 17.246 172.153 17.294 172.097 17.343C172.081 17.357 172.068 17.371 172.05 17.385C171.986 17.438 171.913 17.494 171.837 17.55C171.822 17.561 171.809 17.572 171.793 17.583C171.71 17.643 171.618 17.705 171.522 17.768C171.508 17.777 171.497 17.786 171.483 17.795C171.383 17.86 171.274 17.927 171.161 17.995C171.147 18.003 171.135 18.011 171.121 18.019C171 18.091 170.871 18.165 170.737 18.24C170.728 18.245 170.721 18.249 170.712 18.254C170.279 18.495 169.775 18.753 169.211 19.024L169.207 19.026C169.022 19.115 168.829 19.206 168.631 19.298C168.626 19.3 168.622 19.302 168.618 19.304C168.417 19.397 168.21 19.492 167.997 19.588L167.993 19.59C157.53 24.302 132.401 32.3 131.07 32.49C130.682 32.545 130.329 32.571 130.007 32.571C126.537 32.571 126.738 29.551 127.14 27.813C127.142 27.805 127.144 27.797 127.146 27.788C127.167 27.696 127.189 27.609 127.211 27.526C127.212 27.521 127.213 27.517 127.215 27.512C127.286 27.244 127.356 27.022 127.408 26.867C127.409 26.864 127.41 26.862 127.411 26.859C127.428 26.809 127.443 26.767 127.455 26.732C127.456 26.73 127.457 26.728 127.457 26.728C127.47 26.693 127.48 26.664 127.487 26.646C127.494 26.629 127.498 26.617 127.498 26.617C127.498 26.617 162.337 16.222 170.768 16.222ZM170.768 13.54C162.046 13.54 128.168 23.621 126.73 24.051L125.485 24.423L125.005 25.631L124.998 25.649L124.98 25.696L124.949 25.781L124.914 25.871L124.9 25.918L124.872 25.998C124.801 26.208 124.712 26.49 124.621 26.831C124.588 26.955 124.561 27.066 124.534 27.182C123.949 29.709 124.261 31.805 125.429 33.275C126.147 34.179 127.524 35.256 130.006 35.256C130.46 35.256 130.945 35.22 131.449 35.148C133.3 34.884 158.922 26.618 169.09 22.04L169.106 22.033L169.114 22.029L169.167 22.005L169.172 22.002C169.348 21.923 169.55 21.831 169.746 21.739C169.969 21.635 170.172 21.539 170.368 21.445C170.994 21.144 171.547 20.86 172.015 20.599L172.034 20.588L172.065 20.57C172.2 20.495 172.351 20.408 172.492 20.324L172.517 20.309L172.564 20.28C172.682 20.209 172.817 20.126 172.942 20.045L172.977 20.022L173.013 19.998C173.141 19.913 173.259 19.833 173.366 19.755L173.407 19.725L173.451 19.691C173.564 19.607 173.673 19.523 173.768 19.443L173.832 19.39L173.887 19.339C173.992 19.247 174.091 19.155 174.174 19.069L174.26 18.981L174.325 18.901C174.429 18.782 174.519 18.671 174.59 18.569L174.706 18.403L174.774 18.27C174.847 18.143 174.927 17.989 174.997 17.796L175.11 17.488L175.138 17.25C175.166 17.095 175.197 16.855 175.18 16.571L175.154 16.139L175.031 15.821C174.962 15.601 174.869 15.397 174.749 15.202C174.588 14.941 174.413 14.754 174.304 14.648C174.187 14.527 174.063 14.419 173.927 14.321C173.705 14.16 173.452 14.022 173.179 13.913C172.546 13.659 171.779 13.54 170.768 13.54Z" fill="#020700"/>
<path d="M128.682 55.3046C142.817 53.0298 152.431 39.7273 150.156 25.5928C147.881 11.4583 134.579 1.84417 120.444 4.11903C106.31 6.3939 96.6957 19.6963 98.9706 33.8308C101.245 47.9653 114.548 57.5795 128.682 55.3046Z" fill="#FBC05A"/>
<path d="M143.194 11.698C144.994 15.228 146.016 19.22 146.016 23.454C146.016 37.77 134.41 49.376 120.094 49.376C112.779 49.376 106.176 46.341 101.463 41.467C105.749 49.873 114.481 55.633 124.563 55.633C138.879 55.633 150.485 44.027 150.485 29.711C150.485 22.71 147.704 16.362 143.194 11.698Z" fill="#EBA60D"/>
<path d="M114.729 42.225C114.729 43.706 113.528 44.907 112.047 44.907C110.566 44.907 109.365 43.706 109.365 42.225C109.365 40.744 110.566 39.543 112.047 39.543C113.529 39.543 114.729 40.744 114.729 42.225Z" fill="#FFF790"/>
<path d="M121.654 3.77996C110.907 5.12196 101.592 12.215 97.7081 22.325C96.2971 25.999 95.6241 29.907 96.8531 33.287C100.428 43.119 104.898 39.544 105.791 36.862C106.685 34.18 112.048 29.711 114.73 35.074C117.412 40.437 115.624 46.694 120.093 45.8C124.562 44.906 126.35 36.861 129.926 41.331C133.501 45.8 137.971 50.27 140.652 46.694C143.334 43.119 140.91 29.711 145.25 31.499C149.59 33.287 152.272 33.287 152.272 28.817C152.272 25.093 144.824 0.886961 121.654 3.77996Z" fill="#9B3F0C"/>
<path d="M145.25 27.029C140.91 25.241 143.333 38.649 140.652 42.225C137.97 45.801 133.501 41.331 129.926 36.862C126.35 32.393 124.563 40.437 120.093 41.331C115.624 42.225 117.411 35.968 114.73 30.605C112.048 25.242 106.685 29.711 105.791 32.393C104.897 35.075 100.428 38.65 96.8531 28.818C96.6491 28.256 96.5151 27.676 96.4101 27.089C96.0831 29.233 96.1481 31.348 96.8531 33.287C100.428 43.119 104.898 39.544 105.791 36.862C106.685 34.18 112.048 29.711 114.73 35.074C117.412 40.437 115.624 46.694 120.093 45.8C124.562 44.906 126.35 36.861 129.926 41.331C133.501 45.8 137.971 50.27 140.652 46.694C143.334 43.119 140.91 29.711 145.25 31.499C149.59 33.287 152.272 33.287 152.272 28.817C152.272 28.358 152.158 27.587 151.916 26.595C151.059 28.726 148.674 28.44 145.25 27.029Z" fill="#782900"/>
<path d="M102.215 18.9852C102.215 18.9852 113.835 6.47119 121.88 6.47119C129.925 6.47119 130.819 10.9402 126.349 10.9402C121.879 10.9402 113.835 11.8342 102.215 18.9852Z" fill="#B5663A"/>
<path d="M125.408 3.54112C142.994 3.54212 150.306 19.9921 151.915 26.5961C151.916 26.6001 151.917 26.6041 151.918 26.6081C152.097 27.3451 152.206 27.9611 152.249 28.4151C152.264 28.5681 152.271 28.7031 152.271 28.8181C152.271 31.0861 151.578 32.2001 150.33 32.5161C148.932 45.5131 137.93 55.6341 124.561 55.6341C123.998 55.6341 123.441 55.6101 122.886 55.5741C122.733 55.5641 122.581 55.5521 122.429 55.5391C121.979 55.5021 121.532 55.4551 121.089 55.3951C120.979 55.3801 120.868 55.3691 120.759 55.3531C120.219 55.2741 119.685 55.1771 119.156 55.0651C119.043 55.0411 118.933 55.0131 118.821 54.9881C118.385 54.8891 117.952 54.7801 117.525 54.6591C117.401 54.6241 117.277 54.5901 117.153 54.5531C116.104 54.2411 115.084 53.8631 114.095 53.4261C113.994 53.3811 113.893 53.3361 113.793 53.2891C113.328 53.0761 112.868 52.8521 112.418 52.6131C112.394 52.6001 112.369 52.5881 112.345 52.5761C111.848 52.3101 111.362 52.0271 110.885 51.7301C110.839 51.7011 110.793 51.6711 110.747 51.6421C110.309 51.3651 109.88 51.0761 109.46 50.7741C109.418 50.7441 109.376 50.7151 109.334 50.6841C108.417 50.0171 107.547 49.2911 106.726 48.5121C106.7 48.4881 106.675 48.4631 106.649 48.4391C104.551 46.4321 102.791 44.0781 101.46 41.4671C101.06 40.6831 100.699 39.8761 100.379 39.0481C99.2082 38.1701 97.9852 36.4041 96.8512 33.2861C96.7142 32.9091 96.6082 32.5241 96.5172 32.1351C96.4992 32.0581 96.4792 31.9811 96.4622 31.9041C96.3902 31.5581 96.3362 31.2071 96.2972 30.8541C96.2812 30.7121 96.2682 30.5691 96.2572 30.4251C96.2372 30.1531 96.2242 29.8791 96.2222 29.6031C96.2192 29.3461 96.2252 29.0881 96.2362 28.8291C96.2412 28.7231 96.2472 28.6161 96.2542 28.5091C96.3852 26.4611 96.9242 24.3581 97.7052 22.3251C101.589 12.2151 110.904 5.12212 121.651 3.78012C122.954 3.61812 124.204 3.54012 125.408 3.54112ZM125.408 0.859131H125.406C124.077 0.859131 122.702 0.947125 121.319 1.11913C109.437 2.60313 99.4302 10.3601 95.2022 21.3631C94.2642 23.8031 93.7182 26.1501 93.5782 28.3381C93.5702 28.4571 93.5632 28.5831 93.5572 28.7081C93.5432 29.0241 93.5362 29.3321 93.5402 29.6381C93.5432 29.9621 93.5582 30.2941 93.5822 30.6231C93.5962 30.8081 93.6122 30.9831 93.6322 31.1581C93.6812 31.5981 93.7502 32.0371 93.8362 32.4521C93.8542 32.5381 93.8732 32.6161 93.8922 32.6941L93.9062 32.7501C94.0302 33.2851 94.1692 33.7621 94.3302 34.2031C95.4112 37.1761 96.6622 39.3011 98.1382 40.6661C98.4222 41.3501 98.7342 42.0261 99.0712 42.6861C100.535 45.5561 102.461 48.1441 104.795 50.3771L104.863 50.4421C105.788 51.3191 106.756 52.1251 107.756 52.8531L107.859 52.9271C108.358 53.2851 108.836 53.6071 109.314 53.9091L109.463 54.0041C110.008 54.3431 110.55 54.6571 111.078 54.9401L111.109 54.9571L111.178 54.9921C111.631 55.2331 112.127 55.4771 112.675 55.7271L113.01 55.8781C114.107 56.3631 115.243 56.7821 116.385 57.1221C116.49 57.1531 116.597 57.1831 116.704 57.2131L116.796 57.2391C117.27 57.3721 117.751 57.4951 118.228 57.6021L118.33 57.6261C118.419 57.6471 118.508 57.6681 118.597 57.6871C119.186 57.8121 119.781 57.9191 120.366 58.0051C120.454 58.0181 120.541 58.0291 120.629 58.0391L120.731 58.0521C121.214 58.1171 121.711 58.1701 122.209 58.2111C122.387 58.2251 122.548 58.2391 122.712 58.2491C123.408 58.2931 123.995 58.3141 124.558 58.3141C138.716 58.3141 150.612 48.0631 152.802 34.2411C153.926 33.3741 154.95 31.7731 154.95 28.8171C154.95 28.6291 154.94 28.4081 154.916 28.1581C154.859 27.5601 154.729 26.8361 154.53 26.0091L154.526 25.9911L154.512 25.9331C152.249 16.6381 143.563 0.860131 125.408 0.859131Z" fill="#020700"/>
<path d="M116.517 31.4991C114.747 31.7521 70.93 45.8011 75.4 47.5881C79.869 49.3761 120.09 37.3711 120.09 37.3711C120.09 37.3711 122.774 30.6051 116.517 31.4991Z" fill="#FFD9A8"/>
<path d="M79.8688 44.906C79.5738 44.788 79.4948 44.616 79.5938 44.399C76.1498 45.95 74.2928 47.145 75.3998 47.588C79.8688 49.376 120.09 37.371 120.09 37.371C120.09 37.371 120.343 36.732 120.512 35.874C110.197 38.857 83.4638 46.345 79.8688 44.906Z" fill="#C7975A"/>
<path opacity="0.41" d="M139.756 38.6491C139.193 38.6491 138.636 38.6251 138.081 38.5891C137.928 38.5791 137.776 38.5671 137.624 38.5541C137.174 38.5171 136.727 38.4701 136.284 38.4101C136.174 38.3951 136.063 38.3841 135.953 38.3681C135.413 38.2891 134.879 38.1921 134.35 38.0801C134.237 38.0561 134.127 38.0281 134.015 38.0031C133.578 37.9041 133.147 37.7951 132.719 37.6741C132.595 37.6391 132.47 37.6051 132.347 37.5681C131.298 37.2561 130.278 36.8781 129.289 36.4411C129.188 36.3961 129.087 36.3511 128.987 36.3051C128.522 36.0921 128.062 35.8681 127.612 35.6291C127.588 35.6161 127.563 35.6051 127.539 35.5921C127.042 35.3261 126.556 35.0431 126.079 34.7461C126.033 34.7171 125.987 34.6871 125.941 34.6581C125.503 34.3811 125.074 34.0921 124.654 33.7901C124.612 33.7601 124.57 33.7311 124.528 33.7011C123.611 33.0341 122.741 32.3081 121.92 31.5291C121.894 31.5051 121.869 31.4801 121.843 31.4561C119.745 29.4491 117.985 27.0951 116.654 24.4841C116.254 23.7001 115.892 22.8931 115.573 22.0651C114.402 21.1881 113.179 19.4211 112.045 16.3041C111.908 15.9271 111.802 15.5421 111.711 15.1531C111.693 15.0761 111.673 14.9991 111.656 14.9221C111.584 14.5761 111.53 14.2251 111.491 13.8721C111.475 13.7301 111.462 13.5871 111.451 13.4431C111.431 13.1711 111.418 12.8971 111.416 12.6211C111.413 12.3641 111.419 12.1061 111.43 11.8471C111.435 11.7401 111.441 11.6341 111.448 11.5271C111.555 9.85311 111.945 8.14411 112.507 6.46411C105.824 9.64411 100.427 15.2391 97.7045 22.3261C96.9235 24.3591 96.3845 26.4631 96.2535 28.5101C96.2465 28.6171 96.2405 28.7231 96.2355 28.8301C96.2245 29.0891 96.2185 29.3471 96.2215 29.6041C96.2245 29.8801 96.2365 30.1531 96.2565 30.4261C96.2675 30.5691 96.2805 30.7121 96.2965 30.8551C96.3355 31.2091 96.3895 31.5591 96.4615 31.9051C96.4785 31.9831 96.4985 32.0591 96.5165 32.1361C96.6065 32.5251 96.7135 32.9101 96.8505 33.2871C97.9845 36.4051 99.2075 38.1711 100.378 39.0491C100.698 39.8771 101.059 40.6841 101.459 41.4681C102.791 44.0791 104.55 46.4331 106.648 48.4401C106.673 48.4641 106.699 48.4891 106.725 48.5131C107.546 49.2921 108.416 50.0181 109.333 50.6851C109.375 50.7151 109.417 50.7451 109.459 50.7751C109.879 51.0771 110.308 51.3661 110.746 51.6431C110.792 51.6721 110.838 51.7021 110.884 51.7311C111.361 52.0281 111.847 52.3111 112.344 52.5771C112.368 52.5901 112.393 52.6011 112.417 52.6141C112.867 52.8531 113.326 53.0771 113.792 53.2901C113.892 53.3361 113.993 53.3821 114.094 53.4271C115.083 53.8641 116.103 54.2421 117.152 54.5541C117.275 54.5911 117.4 54.6251 117.524 54.6601C117.952 54.7801 118.384 54.8901 118.82 54.9891C118.932 55.0141 119.043 55.0421 119.155 55.0661C119.684 55.1781 120.218 55.2751 120.758 55.3541C120.867 55.3701 120.978 55.3811 121.088 55.3961C121.531 55.4551 121.978 55.5031 122.428 55.5401C122.58 55.5521 122.732 55.5651 122.885 55.5751C123.439 55.6101 123.996 55.6351 124.56 55.6351C136.436 55.6351 146.438 47.6451 149.505 36.7501C146.496 37.9711 143.206 38.6491 139.756 38.6491Z" fill="#782900"/>
<path d="M115.49 52.0363C120.91 38.7851 114.562 23.649 101.311 18.2289C88.0598 12.8087 72.9237 19.157 67.5035 32.4082C62.0834 45.6594 68.4317 60.7955 81.6829 66.2157C94.934 71.6358 110.07 65.2875 115.49 52.0363Z" fill="#FBC05A"/>
<path d="M110.12 24.2119C111.92 27.7419 112.942 31.7339 112.942 35.9679C112.942 50.2839 101.336 61.8899 87.0197 61.8899C79.7047 61.8899 73.1017 58.8549 68.3887 53.9809C72.6747 62.3859 81.4067 68.1469 91.4887 68.1469C105.805 68.1469 117.411 56.5409 117.411 42.2249C117.411 35.2239 114.631 28.8759 110.12 24.2119Z" fill="#EBA60D"/>
<path d="M81.656 54.7391C81.656 56.2201 80.455 57.4211 78.974 57.4211C77.493 57.4211 76.293 56.2201 76.293 54.7391C76.293 53.2581 77.494 52.0571 78.974 52.0571C80.455 52.0571 81.656 53.2581 81.656 54.7391Z" fill="#FFF790"/>
<path d="M88.5799 16.2939C77.8329 17.6359 68.5179 24.7289 64.6339 34.8389C63.2229 38.5129 62.5499 42.4209 63.7789 45.8009C67.3539 55.6329 71.8239 52.0579 72.7169 49.3759C73.6109 46.6939 78.9739 42.2249 81.6559 47.5879C84.3379 52.9509 82.5499 59.2079 87.0189 58.3139C91.4879 57.4199 93.2759 49.3749 96.8519 53.8449C100.427 58.3139 104.897 62.7839 107.578 59.2079C110.26 55.6329 107.836 42.2249 112.176 44.0119C116.516 45.7999 119.198 45.7999 119.198 41.3299C119.199 37.6069 111.751 13.4009 88.5799 16.2939Z" fill="#9B3F0C"/>
<path d="M112.176 39.5429C107.836 37.7549 110.259 51.1629 107.578 54.7379C104.896 58.3139 100.427 53.8439 96.8519 49.3749C93.2759 44.9059 91.4889 52.9499 87.0189 53.8439C82.5499 54.7379 84.3379 48.4809 81.6559 43.1179C78.9739 37.7549 73.6109 42.2239 72.7169 44.9059C71.8229 47.5879 67.3539 51.1629 63.7789 41.3309C63.5749 40.7689 63.4409 40.1889 63.3359 39.6019C63.0089 41.7459 63.0739 43.8599 63.7789 45.7999C67.3539 55.6319 71.8239 52.0569 72.7169 49.3749C73.6109 46.6929 78.9739 42.2239 81.6559 47.5869C84.3379 52.9499 82.5499 59.2069 87.0189 58.3129C91.4879 57.4189 93.2759 49.3739 96.8519 53.8439C100.427 58.3129 104.897 62.7829 107.578 59.2069C110.26 55.6319 107.836 42.2239 112.176 44.0109C116.516 45.7989 119.198 45.7989 119.198 41.3289C119.198 40.8699 119.084 40.0989 118.842 39.1069C117.985 41.2409 115.6 40.9539 112.176 39.5429Z" fill="#782900"/>
<path d="M69.1426 31.4991C69.1426 31.4991 80.7626 18.9851 88.8076 18.9851C96.8526 18.9851 97.7456 23.4541 93.2766 23.4541C88.8076 23.4541 80.7636 24.3481 69.1426 31.4991Z" fill="#B5663A"/>
<path d="M92.3353 16.0551C109.921 16.0551 117.233 32.506 118.842 39.11C118.843 39.114 118.844 39.1181 118.845 39.1221C119.024 39.8591 119.133 40.475 119.176 40.929C119.191 41.082 119.198 41.217 119.198 41.332C119.198 43.6 118.505 44.714 117.257 45.03C115.859 58.027 104.857 68.1481 91.4883 68.1481C90.9253 68.1481 90.3683 68.124 89.8133 68.088C89.6603 68.078 89.5083 68.0661 89.3563 68.0531C88.9063 68.0161 88.4593 67.9691 88.0163 67.9091C87.9063 67.8941 87.7953 67.883 87.6863 67.8671C87.1463 67.7881 86.6123 67.6911 86.0833 67.5791C85.9713 67.5551 85.8603 67.527 85.7483 67.502C85.3113 67.403 84.8793 67.294 84.4523 67.173C84.3283 67.1381 84.2043 67.1041 84.0803 67.0681C83.0313 66.7561 82.0113 66.3781 81.0223 65.9411C80.9213 65.8961 80.8213 65.85 80.7203 65.804C80.2553 65.591 79.7953 65.3671 79.3453 65.1281C79.3213 65.1151 79.2963 65.1031 79.2723 65.091C78.7753 64.8251 78.2893 64.5421 77.8123 64.2451C77.7653 64.2161 77.7203 64.186 77.6743 64.157C77.2363 63.88 76.8073 63.591 76.3873 63.289C76.3453 63.259 76.3033 63.23 76.2613 63.2C75.3443 62.533 74.4743 61.807 73.6533 61.028C73.6273 61.004 73.6023 60.979 73.5763 60.955C71.4783 58.948 69.7193 56.594 68.3873 53.983C67.9873 53.198 67.6263 52.3921 67.3063 51.5641C66.1353 50.6861 64.9123 48.92 63.7783 45.802C63.6413 45.425 63.5353 45.04 63.4443 44.651C63.4263 44.574 63.4063 44.497 63.3893 44.42C63.3173 44.074 63.2633 43.7231 63.2243 43.3701C63.2083 43.2281 63.1953 43.0851 63.1843 42.9411C63.1643 42.6691 63.1523 42.395 63.1493 42.119C63.1463 41.862 63.1523 41.605 63.1633 41.345C63.1683 41.239 63.1743 41.1321 63.1813 41.0251C63.3123 38.9771 63.8513 36.8741 64.6323 34.8401C68.5163 24.7301 77.8313 17.637 88.5783 16.295C89.8813 16.131 91.1313 16.0551 92.3353 16.0551ZM92.3353 13.373C91.0043 13.373 89.6293 13.4611 88.2463 13.6331C76.3643 15.1171 66.3573 22.874 62.1293 33.877C61.1913 36.317 60.6453 38.6641 60.5053 40.8521C60.4973 40.9711 60.4903 41.0971 60.4843 41.2231C60.4713 41.5391 60.4633 41.8471 60.4683 42.1521C60.4713 42.4771 60.4863 42.8081 60.5103 43.1371C60.5243 43.3221 60.5403 43.497 60.5603 43.672C60.6093 44.111 60.6783 44.55 60.7653 44.966C60.7833 45.051 60.8023 45.1291 60.8213 45.2081L60.8343 45.2641C60.9593 45.8001 61.0983 46.277 61.2583 46.718C62.3393 49.691 63.5903 51.816 65.0663 53.181C65.3503 53.864 65.6623 54.541 65.9993 55.201C67.4633 58.072 69.3893 60.66 71.7243 62.8931L71.8053 62.9711C72.7163 63.8361 73.6843 64.642 74.6853 65.369L74.7883 65.4431C75.2873 65.8011 75.7653 66.1231 76.2433 66.425L76.3973 66.5231C76.9373 66.8591 77.4793 67.1731 78.0073 67.4561L78.0383 67.4731L78.1063 67.5081C78.5603 67.7501 79.0573 67.994 79.6043 68.244L79.9373 68.394C81.0363 68.88 82.1723 69.2981 83.3143 69.6391C83.4223 69.6711 83.5313 69.7021 83.6413 69.7321L83.7273 69.756C84.2003 69.889 84.6813 70.011 85.1573 70.119L85.2593 70.1431C85.3483 70.1641 85.4363 70.1851 85.5263 70.2041C86.1173 70.3291 86.7123 70.4361 87.2963 70.522C87.3833 70.535 87.4693 70.545 87.5563 70.556L87.6593 70.569C88.1453 70.634 88.6423 70.687 89.1393 70.728C89.3253 70.743 89.4833 70.7561 89.6433 70.7661C90.3383 70.8101 90.9243 70.8311 91.4883 70.8311C105.646 70.8311 117.542 60.5811 119.731 46.7581C120.855 45.8911 121.879 44.29 121.879 41.334C121.879 41.147 121.869 40.927 121.845 40.677C121.788 40.074 121.657 39.3471 121.456 38.5161L121.451 38.4971C119.177 29.1521 110.49 13.373 92.3353 13.373Z" fill="#020700"/>
<path d="M81.6566 42.2252C79.8866 42.4782 36.0696 56.5272 40.5386 58.3152C45.0076 60.1032 85.2286 48.0982 85.2286 48.0982C85.2286 48.0982 87.9136 41.3312 81.6566 42.2252Z" fill="#FFD9A8"/>
<path d="M45.0074 55.6331C44.7124 55.5151 44.6334 55.3431 44.7324 55.1261C41.2884 56.6771 39.4314 57.8721 40.5384 58.3151C45.0074 60.1031 85.2284 48.0981 85.2284 48.0981C85.2284 48.0981 85.4814 47.4591 85.6504 46.6011C75.3364 49.5831 48.6034 57.0711 45.0074 55.6331Z" fill="#C7975A"/>
<path opacity="0.41" d="M106.685 51.1631C106.122 51.1631 105.565 51.1391 105.01 51.1031C104.857 51.0931 104.705 51.0811 104.553 51.0681C104.103 51.0311 103.656 50.9841 103.213 50.9241C103.103 50.9091 102.992 50.8981 102.883 50.8821C102.343 50.8031 101.809 50.7061 101.28 50.5941C101.167 50.5701 101.057 50.5421 100.945 50.5171C100.509 50.4181 100.077 50.3091 99.6492 50.1881C99.5252 50.1531 99.4012 50.1191 99.2772 50.0821C98.2282 49.7701 97.2082 49.3921 96.2192 48.9551C96.1182 48.9101 96.0172 48.8651 95.9172 48.8181C95.4522 48.6051 94.9922 48.3811 94.5422 48.1421C94.5182 48.1291 94.4932 48.1181 94.4692 48.1051C93.9722 47.8391 93.4862 47.5561 93.0092 47.2591C92.9632 47.2301 92.9172 47.2001 92.8712 47.1711C92.4332 46.8941 92.0042 46.6051 91.5842 46.3031C91.5422 46.2731 91.5002 46.2441 91.4582 46.2131C90.5412 45.5461 89.6712 44.8201 88.8502 44.0411C88.8242 44.0171 88.7992 43.9921 88.7732 43.9681C86.6752 41.9611 84.9162 39.6071 83.5842 36.9961C83.1842 36.2121 82.8232 35.4051 82.5032 34.5771C81.3322 33.6991 80.1092 31.9331 78.9752 28.8151C78.8382 28.4381 78.7322 28.0531 78.6412 27.6641C78.6232 27.5871 78.6032 27.5101 78.5862 27.4321C78.5142 27.0861 78.4602 26.7351 78.4212 26.3821C78.4052 26.2401 78.3922 26.0971 78.3812 25.9531C78.3612 25.6811 78.3482 25.4071 78.3462 25.1311C78.3432 24.8741 78.3492 24.6161 78.3602 24.3571C78.3652 24.2511 78.3712 24.1441 78.3782 24.0371C78.4852 22.3631 78.8752 20.6541 79.4372 18.9741C72.7542 22.1541 67.3572 27.7491 64.6342 34.8361C63.8532 36.8701 63.3142 38.9731 63.1832 41.0211C63.1762 41.1281 63.1702 41.2351 63.1652 41.3411C63.1542 41.6001 63.1482 41.8581 63.1512 42.1151C63.1542 42.3911 63.1662 42.6641 63.1862 42.9371C63.1972 43.0801 63.2102 43.2231 63.2262 43.3661C63.2652 43.7201 63.3192 44.0701 63.3912 44.4161C63.4072 44.4941 63.4282 44.5701 63.4462 44.6471C63.5362 45.0361 63.6432 45.4211 63.7802 45.7981C64.9142 48.9151 66.1372 50.6821 67.3082 51.5601C67.6282 52.3881 67.9892 53.1951 68.3892 53.9791C69.7212 56.5901 71.4802 58.9441 73.5782 60.9511C73.6042 60.9751 73.6292 61.0001 73.6552 61.0241C74.4762 61.8031 75.3462 62.5291 76.2632 63.1961C76.3042 63.2261 76.3472 63.2551 76.3892 63.2851C76.8092 63.5871 77.2382 63.8761 77.6762 64.1531C77.7222 64.1821 77.7672 64.2131 77.8142 64.2411C78.2912 64.5381 78.7772 64.8211 79.2742 65.0871C79.2982 65.1001 79.3232 65.1121 79.3472 65.1241C79.7972 65.3631 80.2562 65.5871 80.7222 65.8001C80.8232 65.8461 80.9232 65.8921 81.0242 65.9371C82.0132 66.3741 83.0332 66.7511 84.0822 67.0641C84.2052 67.1011 84.3292 67.1351 84.4542 67.1691C84.8822 67.2891 85.3142 67.3991 85.7502 67.4981C85.8622 67.5231 85.9732 67.5521 86.0852 67.5751C86.6142 67.6871 87.1482 67.7841 87.6882 67.8631C87.7982 67.8791 87.9082 67.8901 88.0182 67.9051C88.4612 67.9641 88.9082 68.0121 89.3582 68.0491C89.5102 68.0611 89.6622 68.0741 89.8152 68.0841C90.3692 68.1191 90.9272 68.1441 91.4902 68.1441C103.366 68.1441 113.368 60.1541 116.435 49.2591C113.424 50.4851 110.134 51.1631 106.685 51.1631Z" fill="#782900"/>
<path d="M78.7653 66.4633C86.2269 54.2443 82.3704 38.29 70.1514 30.8283C57.9324 23.3667 41.9781 27.2232 34.5164 39.4422C27.0547 51.6612 30.9113 67.6155 43.1303 75.0772C55.3493 82.5389 71.3036 78.6823 78.7653 66.4633Z" fill="#FBC05A"/>
<path d="M75.2593 34.938C77.0593 38.468 78.0803 42.461 78.0803 46.694C78.0803 61.01 66.4743 72.616 52.1583 72.616C44.8433 72.616 38.2403 69.581 33.5273 64.707C37.8133 73.112 46.5453 78.873 56.6273 78.873C70.9433 78.873 82.5493 67.267 82.5493 52.951C82.5493 45.95 79.7693 39.602 75.2593 34.938Z" fill="#EBA60D"/>
<path d="M46.7966 65.465C46.7966 66.946 45.5956 68.147 44.1146 68.147C42.6336 68.147 41.4336 66.946 41.4336 65.465C41.4336 63.984 42.6346 62.783 44.1146 62.783C45.5966 62.784 46.7966 63.984 46.7966 65.465Z" fill="#FFF790"/>
<path d="M53.7186 27.02C42.9716 28.362 33.6566 35.4549 29.7726 45.5649C28.3616 49.2389 27.6886 53.147 28.9176 56.527C32.4936 66.359 36.9626 62.7839 37.8566 60.1029C38.7506 57.4209 44.1136 52.952 46.7956 58.3149C49.4776 63.6779 47.6896 69.9349 52.1586 69.0409C56.6276 68.1469 58.4156 60.103 61.9916 64.572C65.5666 69.041 70.0366 73.5099 72.7176 69.9349C75.3996 66.3599 72.9756 52.9519 77.3156 54.7389C81.6556 56.5269 84.3376 56.527 84.3376 52.057C84.3376 48.333 76.8896 24.127 53.7186 27.02Z" fill="#9B3F0C"/>
<path d="M77.3156 50.27C72.9756 48.482 75.3986 61.89 72.7176 65.466C70.0366 69.041 65.5666 64.572 61.9916 60.103C58.4156 55.634 56.6286 63.678 52.1586 64.572C47.6896 65.466 49.4776 59.209 46.7956 53.846C44.1136 48.483 38.7506 52.952 37.8566 55.634C36.9626 58.316 32.4936 61.891 28.9176 52.058C28.7136 51.496 28.5796 50.916 28.4746 50.329C28.1476 52.473 28.2126 54.587 28.9176 56.527C32.4936 66.359 36.9626 62.784 37.8566 60.103C38.7506 57.421 44.1136 52.952 46.7956 58.315C49.4776 63.678 47.6896 69.935 52.1586 69.041C56.6276 68.147 58.4156 60.103 61.9916 64.572C65.5666 69.041 70.0366 73.51 72.7176 69.935C75.3996 66.36 72.9756 52.952 77.3156 54.739C81.6556 56.527 84.3376 56.527 84.3376 52.057C84.3376 51.598 84.2236 50.827 83.9816 49.835C83.1246 51.967 80.7396 51.68 77.3156 50.27Z" fill="#782900"/>
<path d="M34.2812 42.2249C34.2812 42.2249 45.9013 29.7109 53.9463 29.7109C61.9913 29.7109 62.8842 34.1799 58.4152 34.1799C53.9462 34.1799 45.9012 35.0739 34.2812 42.2249Z" fill="#B5663A"/>
<path d="M57.4759 26.7811C75.0619 26.7811 82.3739 43.2321 83.9829 49.8361C83.9839 49.8401 83.9849 49.8441 83.9859 49.8481C84.1649 50.5851 84.2739 51.2011 84.3169 51.6551C84.3319 51.8081 84.3389 51.9431 84.3389 52.0581C84.3389 54.3261 83.6459 55.4401 82.3979 55.7561C80.9999 68.7531 69.9979 78.8741 56.6289 78.8741C56.0659 78.8741 55.5089 78.8501 54.9539 78.8141C54.8009 78.8041 54.6489 78.7921 54.4969 78.7791C54.0469 78.7421 53.5999 78.6951 53.1569 78.6351C53.0469 78.6201 52.9359 78.6091 52.8269 78.5931C52.2869 78.5141 51.7529 78.4171 51.2239 78.3051C51.1119 78.2811 51.0009 78.2531 50.8889 78.2281C50.4519 78.1291 50.0199 78.0201 49.5929 77.8991C49.4689 77.8641 49.3449 77.8301 49.2209 77.7931C48.1719 77.4801 47.1519 77.1031 46.1629 76.6661C46.0619 76.6211 45.9619 76.5751 45.8609 76.5291C45.3959 76.3161 44.9359 76.0921 44.4859 75.8531C44.4619 75.8401 44.4369 75.8291 44.4129 75.8161C43.9159 75.5501 43.4299 75.2671 42.9529 74.9701C42.9069 74.9411 42.8609 74.9111 42.8149 74.8821C42.3769 74.6051 41.9479 74.3161 41.5279 74.0141C41.4859 73.9841 41.4439 73.9551 41.4019 73.9251C40.4849 73.2581 39.6149 72.5321 38.7939 71.7531C38.7679 71.7291 38.7429 71.7041 38.7169 71.6801C36.6189 69.6731 34.8599 67.3191 33.5279 64.7081C33.1279 63.9231 32.7669 63.1171 32.4469 62.2891C31.2759 61.4111 30.0529 59.6451 28.9189 56.5271C28.7819 56.1501 28.6759 55.7651 28.5849 55.3761C28.5669 55.2991 28.5469 55.2221 28.5299 55.1451C28.4579 54.7991 28.4039 54.4481 28.3649 54.0951C28.3489 53.9521 28.3359 53.8101 28.3249 53.6661C28.3049 53.3941 28.2929 53.1201 28.2899 52.8441C28.2869 52.5871 28.2929 52.3291 28.3039 52.0701C28.3089 51.9631 28.3149 51.8571 28.3219 51.7501C28.4529 49.7021 28.9919 47.5991 29.7729 45.5651C33.6569 35.4551 42.9719 28.3621 53.7189 27.0201C55.0219 26.8581 56.2719 26.7811 57.4759 26.7811ZM57.4759 24.0991C56.1449 24.0991 54.7699 24.1871 53.3869 24.3591C41.5049 25.8431 31.4979 33.6001 27.2699 44.6031C26.3319 47.0431 25.7859 49.3901 25.6459 51.5781C25.6379 51.7001 25.6309 51.8251 25.6249 51.9511C25.6119 52.2641 25.6039 52.5721 25.6089 52.8791C25.6119 53.2041 25.6269 53.5361 25.6509 53.8651C25.6649 54.0471 25.6809 54.2221 25.7009 54.3971C25.7499 54.8381 25.8189 55.2771 25.9059 55.6931C25.9239 55.7791 25.9429 55.8571 25.9619 55.9351L25.9759 55.9921C26.1009 56.5271 26.2399 57.0041 26.3989 57.4441C27.4799 60.4181 28.7309 62.5431 30.2069 63.9081C30.4909 64.5911 30.8029 65.2681 31.1389 65.9271C32.6029 68.7981 34.5289 71.3861 36.8639 73.6191L36.9539 73.7041C37.8569 74.5611 38.8249 75.3671 39.8259 76.0951L39.9269 76.1671C40.4289 76.5271 40.9059 76.8491 41.3839 77.1511L41.5369 77.2491C42.0779 77.5861 42.6199 77.9001 43.1479 78.1831L43.1809 78.2011L43.2509 78.2361C43.7039 78.4771 44.2009 78.7211 44.7459 78.9711L45.0779 79.1211C46.1779 79.6071 47.3139 80.0261 48.4559 80.3661C48.5609 80.3971 48.6669 80.4271 48.7739 80.4571L48.8669 80.4831C49.3399 80.6161 49.8209 80.7381 50.2989 80.8461L50.4049 80.8711C50.4929 80.8921 50.5809 80.9121 50.6699 80.9311C51.2579 81.0561 51.8529 81.1631 52.4389 81.2491C52.5249 81.2621 52.6139 81.2731 52.7029 81.2831L52.8039 81.2951C53.2879 81.3601 53.7849 81.4131 54.2819 81.4541C54.4499 81.4681 54.6179 81.4811 54.7859 81.4921C55.4799 81.5361 56.0669 81.5571 56.6309 81.5571C70.7889 81.5571 82.6849 71.3071 84.8739 57.4841C85.9979 56.6171 87.0219 55.0161 87.0219 52.0601C87.0219 51.8721 87.0119 51.6521 86.9879 51.4031C86.9309 50.8041 86.8019 50.0831 86.6029 49.2591L86.5989 49.2411L86.5829 49.1781C84.3169 39.8781 75.6299 24.0991 57.4759 24.0991Z" fill="#020700"/>
<path d="M44.1136 54.7391C42.3436 54.9921 -1.47342 69.0411 2.99558 70.8291C7.46458 72.6171 47.6856 60.6121 47.6856 60.6121C47.6856 60.6121 50.3716 53.8451 44.1136 54.7391Z" fill="#FFD9A8"/>
<path d="M7.46642 68.147C7.17142 68.029 7.09242 67.857 7.19142 67.64C3.74742 69.191 1.89042 70.386 2.99742 70.829C7.46642 72.617 47.6874 60.612 47.6874 60.612C47.6874 60.612 47.9404 59.973 48.1094 59.115C37.7954 62.097 11.0624 69.585 7.46642 68.147Z" fill="#C7975A"/>
<path d="M45.178 54.6571C48.648 54.6571 48.447 57.6771 48.045 59.4151C48.043 59.4231 48.041 59.4311 48.039 59.4401C48.018 59.5311 47.996 59.6191 47.974 59.7021C47.973 59.7071 47.972 59.7111 47.97 59.7161C47.899 59.9841 47.83 60.2051 47.777 60.3621C47.776 60.3651 47.775 60.3671 47.774 60.3701C47.757 60.4201 47.742 60.4621 47.73 60.4971C47.729 60.4991 47.728 60.5011 47.728 60.5011C47.715 60.5361 47.705 60.5651 47.698 60.5831C47.691 60.6001 47.687 60.6121 47.687 60.6121C47.687 60.6121 12.846 71.0111 4.416 71.0111C3.788 71.0111 3.307 70.9531 2.997 70.8291C2.928 70.8011 2.87 70.7701 2.823 70.7371C2.805 70.7241 2.796 70.7081 2.781 70.6941C2.758 70.6721 2.732 70.6511 2.717 70.6281C2.704 70.6081 2.703 70.5841 2.696 70.5631C2.69 70.5431 2.679 70.5241 2.677 70.5021C2.676 70.4761 2.685 70.4481 2.69 70.4201C2.694 70.4001 2.693 70.3811 2.701 70.3601C2.713 70.3281 2.736 70.2931 2.756 70.2591C2.767 70.2401 2.773 70.2231 2.787 70.2031C2.815 70.1641 2.853 70.1221 2.891 70.0801C2.906 70.0641 2.916 70.0491 2.932 70.0321C2.977 69.9861 3.032 69.9381 3.087 69.8891C3.104 69.8751 3.116 69.8611 3.134 69.8471C3.198 69.7941 3.271 69.7381 3.347 69.6821C3.362 69.6711 3.375 69.6601 3.391 69.6491C3.474 69.5891 3.566 69.5271 3.662 69.4641C3.676 69.4551 3.687 69.4471 3.701 69.4381C3.801 69.3731 3.91 69.3061 4.023 69.2381C4.037 69.2301 4.049 69.2221 4.063 69.2141C4.184 69.1421 4.313 69.0681 4.447 68.9931C4.456 68.9881 4.463 68.9841 4.472 68.9791C4.905 68.7381 5.409 68.4801 5.973 68.2081C5.973 68.2081 5.975 68.2071 5.977 68.2061C6.162 68.1171 6.355 68.0261 6.553 67.9341C6.557 67.9321 6.562 67.9301 6.566 67.9281C6.767 67.8351 6.974 67.7401 7.187 67.6441C7.187 67.6441 7.189 67.6431 7.191 67.6421C17.654 62.9301 42.783 54.9321 44.114 54.7411C44.502 54.6831 44.856 54.6571 45.178 54.6571ZM45.178 51.9761C44.724 51.9761 44.239 52.0121 43.736 52.0841C41.885 52.3481 16.257 60.6161 6.091 65.1941C5.864 65.2961 5.647 65.3951 5.437 65.4931C5.215 65.5961 5.012 65.6921 4.816 65.7861C4.19 66.0871 3.637 66.3711 3.169 66.6321L3.151 66.6421L3.118 66.6611C2.983 66.7361 2.831 66.8231 2.69 66.9081L2.668 66.9211L2.625 66.9481C2.501 67.0221 2.365 67.1061 2.241 67.1871L2.209 67.2081L2.173 67.2331C2.041 67.3201 1.924 67.4001 1.819 67.4771L1.778 67.5071L1.735 67.5411C1.619 67.6271 1.511 67.7111 1.416 67.7901L1.354 67.8421L1.298 67.8951C1.192 67.9891 1.095 68.0791 1.013 68.1631L0.926003 68.2531L0.861003 68.3331C0.758003 68.4501 0.668003 68.5621 0.596003 68.6641L0.480002 68.8291L0.412003 68.9621C0.340003 69.0871 0.259002 69.2421 0.188002 69.4371L0.0750034 69.7461L0.0470016 69.9841C0.0190016 70.1381 -0.0109977 70.3741 0.00400231 70.6531L0.0290019 71.0921L0.154002 71.4131C0.223002 71.6321 0.316002 71.8351 0.435002 72.0301C0.597002 72.2931 0.772002 72.4801 0.880002 72.5841C0.995002 72.7031 1.117 72.8101 1.251 72.9071C1.478 73.0711 1.73 73.2091 2.003 73.3191C2.641 73.5741 3.408 73.6931 4.419 73.6931C13.141 73.6931 47.019 63.6121 48.457 63.1821L49.715 62.8071L50.19 61.5841L50.195 61.5701L50.211 61.5271L50.253 61.4121L50.314 61.2381C50.386 61.0271 50.475 60.7441 50.565 60.4031C50.597 60.2801 50.625 60.1681 50.652 60.0521C51.237 57.5251 50.925 55.4281 49.757 53.9581C49.037 53.0531 47.659 51.9761 45.178 51.9761Z" fill="#020700"/>
<path d="M48.0216 42.045C48.0216 43.427 46.9016 44.547 45.5196 44.547C44.1376 44.547 43.0176 43.427 43.0176 42.045C43.0176 40.663 44.1376 39.543 45.5196 39.543C46.9016 39.543 48.0216 40.664 48.0216 42.045Z" fill="black"/>
<path d="M56.3894 44.4019C56.3894 46.1139 55.0014 47.5009 53.2904 47.5009C51.5794 47.5009 50.1914 46.1129 50.1914 44.4019" stroke="black" stroke-width="1.0023" stroke-miterlimit="10" stroke-linecap="round"/>
<path d="M62.5886 44.4019C62.5886 46.1139 61.2006 47.5009 59.4896 47.5009C57.7776 47.5009 56.3906 46.1129 56.3906 44.4019" stroke="black" stroke-width="1.0023" stroke-miterlimit="10" stroke-linecap="round"/>
<path d="M47.455 41.226C47.455 41.823 46.971 42.307 46.374 42.307C45.777 42.307 45.293 41.823 45.293 41.226C45.293 40.629 45.777 40.146 46.374 40.146C46.971 40.146 47.455 40.629 47.455 41.226Z" fill="white"/>
<path d="M47.454 45.952C47.454 46.576 45.729 47.081 43.601 47.081C41.473 47.081 39.748 46.575 39.748 45.952C39.748 45.328 41.473 44.823 43.601 44.823C45.729 44.823 47.454 45.328 47.454 45.952Z" fill="#C24855"/>
<path d="M65.3242 42.045C65.3242 43.427 66.4442 44.547 67.8262 44.547C69.2082 44.547 70.3282 43.427 70.3282 42.045C70.3282 40.663 69.2082 39.543 67.8262 39.543C66.4452 39.543 65.3242 40.664 65.3242 42.045Z" fill="black"/>
<path d="M67.584 41.226C67.584 41.823 68.068 42.307 68.664 42.307C69.261 42.307 69.745 41.823 69.745 41.226C69.745 40.629 69.261 40.146 68.664 40.146C68.068 40.146 67.584 40.629 67.584 41.226Z" fill="white"/>
<path d="M65.8926 45.952C65.8926 46.576 67.6176 47.081 69.7456 47.081C71.8736 47.081 73.5986 46.575 73.5986 45.952C73.5986 45.328 71.8736 44.823 69.7456 44.823C67.6176 44.823 65.8926 45.328 65.8926 45.952Z" fill="#C24855"/>
<path d="M87.3517 31.3191C87.3517 32.7011 86.2317 33.8211 84.8497 33.8211C83.4677 33.8211 82.3477 32.7011 82.3477 31.3191C82.3477 29.9371 83.4677 28.8171 84.8497 28.8171C86.2317 28.8171 87.3517 29.9371 87.3517 31.3191Z" fill="black"/>
<path d="M95.7185 33.6763C95.7185 35.3883 94.3305 36.7753 92.6185 36.7753C90.9065 36.7753 89.5195 35.3873 89.5195 33.6763" stroke="black" stroke-width="1.0023" stroke-miterlimit="10" stroke-linecap="round"/>
<path d="M101.916 33.6763C101.916 35.3883 100.528 36.7753 98.8158 36.7753C97.1038 36.7753 95.7168 35.3873 95.7168 33.6763" stroke="black" stroke-width="1.0023" stroke-miterlimit="10" stroke-linecap="round"/>
<path d="M86.784 30.5002C86.784 31.0972 86.3 31.5812 85.703 31.5812C85.106 31.5812 84.623 31.0972 84.623 30.5002C84.623 29.9032 85.107 29.4192 85.703 29.4192C86.3 29.4192 86.784 29.9032 86.784 30.5002Z" fill="white"/>
<path d="M82.9311 36.3552C85.0591 36.3552 86.7841 35.8497 86.7841 35.2262C86.7841 34.6026 85.0591 34.0972 82.9311 34.0972C80.8032 34.0972 79.0781 34.6026 79.0781 35.2262C79.0781 35.8497 80.8032 36.3552 82.9311 36.3552Z" fill="#C24855"/>
<path d="M104.654 31.3191C104.654 32.7011 105.774 33.8211 107.156 33.8211C108.538 33.8211 109.658 32.7011 109.658 31.3191C109.658 29.9371 108.538 28.8171 107.156 28.8171C105.774 28.8171 104.654 29.9371 104.654 31.3191Z" fill="black"/>
<path d="M106.914 30.5002C106.914 31.0972 107.398 31.5812 107.995 31.5812C108.592 31.5812 109.076 31.0972 109.076 30.5002C109.076 29.9032 108.592 29.4192 107.995 29.4192C107.398 29.4192 106.914 29.9032 106.914 30.5002Z" fill="white"/>
<path d="M105.223 35.2262C105.223 35.8502 106.948 36.3552 109.076 36.3552C111.204 36.3552 112.929 35.8492 112.929 35.2262C112.929 34.6022 111.204 34.0972 109.076 34.0972C106.947 34.0962 105.223 34.6022 105.223 35.2262Z" fill="#C24855"/>
<path d="M118.637 18.805C118.637 20.187 117.517 21.307 116.135 21.307C114.753 21.307 113.633 20.187 113.633 18.805C113.633 17.423 114.753 16.303 116.135 16.303C117.517 16.303 118.637 17.423 118.637 18.805Z" fill="black"/>
<path d="M127.004 21.1619C127.004 22.8739 125.616 24.2619 123.905 24.2619C122.193 24.2619 120.805 22.8739 120.805 21.1619" stroke="black" stroke-width="1.0023" stroke-miterlimit="10" stroke-linecap="round"/>
<path d="M133.201 21.1619C133.201 22.8739 131.813 24.2619 130.102 24.2619C128.39 24.2619 127.002 22.8739 127.002 21.1619" stroke="black" stroke-width="1.0023" stroke-miterlimit="10" stroke-linecap="round"/>
<path d="M118.067 17.986C118.067 18.583 117.583 19.067 116.986 19.067C116.389 19.067 115.906 18.583 115.906 17.986C115.906 17.389 116.39 16.905 116.986 16.905C117.583 16.905 118.067 17.389 118.067 17.986Z" fill="white"/>
<path d="M118.067 22.711C118.067 23.335 116.342 23.84 114.214 23.84C112.086 23.84 110.361 23.334 110.361 22.711C110.361 22.087 112.086 21.582 114.214 21.582C116.342 21.582 118.067 22.088 118.067 22.711Z" fill="#C24855"/>
<path d="M135.938 18.805C135.938 20.187 137.057 21.307 138.439 21.307C139.821 21.307 140.941 20.187 140.941 18.805C140.941 17.423 139.821 16.303 138.439 16.303C137.057 16.303 135.938 17.423 135.938 18.805Z" fill="black"/>
<path d="M138.199 17.986C138.199 18.583 138.683 19.067 139.28 19.067C139.877 19.067 140.361 18.583 140.361 17.986C140.361 17.389 139.877 16.905 139.28 16.905C138.683 16.905 138.199 17.389 138.199 17.986Z" fill="white"/>
<path d="M136.508 22.711C136.508 23.335 138.233 23.84 140.361 23.84C142.489 23.84 144.214 23.334 144.214 22.711C144.214 22.087 142.489 21.582 140.361 21.582C138.233 21.582 136.508 22.088 136.508 22.711Z" fill="#C24855"/>
</svg>
