<svg width="157" height="92" viewBox="0 0 157 92" fill="none" xmlns="http://www.w3.org/2000/svg">
<g opacity="0.48">
<path d="M81.5772 63.944C64.2212 63.993 37.4862 52.054 46.8832 37.572C46.8832 37.572 53.0922 25.257 64.2452 15.366C40.3782 20.865 26.2912 48.817 26.2912 48.817C16.8952 63.299 43.6302 75.238 60.9852 75.189C78.3402 75.14 117.692 87.872 126.18 77.766C127.514 76.178 127.785 73.511 127.186 70.149C112.031 68.917 92.4712 63.913 81.5772 63.944Z" fill="#FF9E13"/>
</g>
<path d="M114.951 84.32C106.476 84.321 95.8946 82.493 85.6626 80.726C76.7136 79.181 68.2606 77.721 62.3926 77.721H62.1806C48.8436 77.721 30.3096 70.96 25.0396 61.259C22.8136 57.162 23.0396 52.818 25.6906 48.69C26.8246 46.464 44.1556 13.447 73.2516 12.941L73.6756 12.937C95.4026 12.937 118.581 40.952 127.405 59.885C129.959 65.365 133.669 75.245 129.816 79.832C127.28 82.852 122.417 84.32 114.951 84.32Z" fill="#D47700"/>
<path d="M73.6762 14.3809C102.536 14.3809 137.319 68.6549 128.711 78.9039C126.253 81.8299 121.253 82.8769 114.951 82.8769C99.1253 82.8769 75.0783 76.2779 62.3953 76.2779C62.3603 76.2779 62.3273 76.2779 62.2923 76.2779C62.2563 76.2779 62.2183 76.2779 62.1833 76.2779C44.4993 76.2779 17.3933 64.1349 26.9463 49.4099C26.9463 49.4099 44.3423 14.8879 73.2793 14.3839C73.4103 14.3819 73.5432 14.3809 73.6762 14.3809ZM73.6762 11.4929C73.5272 11.4929 73.3773 11.4939 73.2273 11.4969C43.5473 12.0139 25.8783 45.1659 24.4373 47.9709C21.5213 52.5499 21.2903 57.3799 23.7713 61.9489C29.3653 72.2479 48.1482 79.1659 62.1812 79.1659H62.2993H62.3932C68.1372 79.1659 76.5313 80.6149 85.4173 82.1499C95.7093 83.9269 106.351 85.7649 114.949 85.7649C122.868 85.7649 128.092 84.1279 130.92 80.7609C135.068 75.8219 132.009 66.3509 128.712 59.2749C119.733 40.0049 96.0312 11.4929 73.6762 11.4929Z" fill="#020700"/>
<path d="M108.378 83.717C100.27 83.717 90.1508 81.97 80.3658 80.28C71.8128 78.803 63.7349 77.408 58.1309 77.408L57.9279 77.409C45.1589 77.409 27.4128 70.931 22.3638 61.637C20.2248 57.699 20.4409 53.525 22.9859 49.559C24.0849 47.405 40.6689 15.833 68.5099 15.349L68.9159 15.345C89.7169 15.345 111.899 42.151 120.342 60.266C122.79 65.519 126.344 74.992 122.638 79.404C120.201 82.305 115.536 83.716 108.378 83.717Z" fill="#FEB04B"/>
<path d="M68.9178 16.7879C96.5088 16.7879 129.763 68.6759 121.534 78.4739C119.184 81.2719 114.404 82.2729 108.379 82.2729C93.2478 82.2729 70.2588 75.9639 58.1328 75.9639C58.0998 75.9639 58.0678 75.9639 58.0348 75.9639C58.0008 75.9639 57.9648 75.9639 57.9298 75.9639C41.0228 75.9639 15.1078 64.3539 24.2418 50.2769C24.2418 50.2769 40.8728 17.2729 68.5378 16.7899C68.6638 16.7889 68.7908 16.7879 68.9178 16.7879ZM68.9178 13.8999C68.7738 13.8999 68.6298 13.9009 68.4868 13.9039C40.0588 14.3989 23.1368 46.1099 21.7338 48.8379C18.9228 53.2559 18.7008 57.9159 21.0958 62.3249C26.4658 72.2109 44.4768 78.8519 57.9288 78.8519H58.0418H58.1318C63.6118 78.8519 71.6318 80.2369 80.1228 81.7029C89.9678 83.4029 100.147 85.1609 108.378 85.1609C115.989 85.1609 121.015 83.5809 123.745 80.3319C127.754 75.5579 124.819 66.4529 121.651 59.6549C113.052 41.2029 90.3448 13.8999 68.9178 13.8999Z" fill="#020700"/>
<path d="M99.4259 38.0269C92.1379 32.0349 86.2429 25.9119 81.6419 20.0169C80.0699 19.2639 78.4939 18.6319 76.9219 18.1289C81.8409 25.0799 88.6469 32.5469 97.7679 40.0449C113.948 53.3479 118.099 69.9259 115.37 81.6499C116.404 81.4289 117.353 81.1439 118.207 80.7879C120.465 68.3359 115.827 51.5109 99.4259 38.0269Z" fill="#FFCC81"/>
<path d="M83.5546 77.9798C77.2886 68.3738 70.1776 57.4788 58.4956 56.0588C54.5056 55.5718 51.2926 56.2948 48.9426 58.2058C44.7986 61.5798 44.0516 67.9108 43.5566 73.7308C44.4066 73.9808 45.2626 74.2118 46.1196 74.4218C46.5746 68.9938 47.1796 63.0088 50.5926 60.2308C52.3936 58.7638 54.8766 58.2468 58.1796 58.6498C68.4776 59.9118 74.9076 69.5078 81.0586 78.9328C82.2236 79.1338 83.3966 79.3358 84.5716 79.5358C84.2336 79.0208 83.8946 78.5018 83.5546 77.9798Z" fill="#FFCC81"/>
<path d="M50.7007 40.9909C60.5777 38.9889 69.2177 51.2119 78.3647 64.1559C80.3567 66.9739 82.4157 69.8879 84.5077 72.6789C91.3397 81.7959 97.0957 81.4319 99.9177 80.4049C105.299 78.4429 108.731 71.2569 108.265 62.9279C107.753 53.7889 93.5987 39.6029 78.6127 24.5849C76.0707 22.0369 73.5067 19.4629 70.9777 16.8859C70.1597 16.8119 69.3457 16.7769 68.5367 16.7909C68.1127 16.7979 67.6917 16.8139 67.2727 16.8359C70.3967 20.0459 73.6007 23.2579 76.7647 26.4289C91.3887 41.0849 105.202 54.9269 105.658 63.0739C106.054 70.1479 103.265 76.4049 99.0237 77.9499C95.3267 79.2979 90.9137 76.8699 86.5987 71.1109C84.5297 68.3499 82.4797 65.4509 80.4997 62.6469C70.8467 48.9879 61.7267 36.0889 50.1827 38.4289C45.8867 39.3019 42.4107 34.4619 40.7207 31.5009C40.4117 30.9589 40.1207 30.4039 39.8407 29.8399C39.1697 30.4689 38.5207 31.1059 37.8887 31.7449C38.0747 32.0989 38.2587 32.4559 38.4517 32.7949C41.9717 38.9689 46.3237 41.8799 50.7007 40.9909Z" fill="#FFCC81"/>
<path d="M48.0564 44.989C46.9974 43.129 43.8694 41.4 28.9384 44.571C28.4264 44.68 27.9154 44.791 27.4074 44.905C26.6244 46.117 25.9814 47.179 25.4844 48.031C26.7854 47.72 28.1274 47.413 29.4804 47.126C44.0344 44.036 45.6484 46.043 45.7854 46.281C45.7924 46.294 46.4574 47.619 41.4414 52.175C35.4774 57.592 31.9394 62.898 30.1284 67.619C30.8384 68.105 31.5844 68.574 32.3594 69.025C33.9604 64.582 37.3164 59.448 43.1964 54.108C47.7784 49.947 49.2764 47.135 48.0564 44.989Z" fill="#FFCC81"/>
<path d="M91.2712 66.0229C91.4752 65.8889 91.6912 65.7579 91.9112 65.6239C93.2642 64.7999 95.1172 63.6719 95.5282 61.2239C96.1462 57.5399 93.2312 52.0419 86.0772 43.3979C80.0482 36.1139 71.0732 27.1319 62.3942 18.4449C62.1192 18.1699 61.8432 17.8939 61.5682 17.6179C60.5762 17.8359 59.5992 18.0899 58.6422 18.3839C59.2742 19.0169 59.9092 19.6529 60.5462 20.2909C69.1832 28.9359 78.1142 37.8739 84.0642 45.0639C90.4232 52.7469 93.4142 58.0389 92.9522 60.7919C92.7532 61.9769 91.9142 62.5649 90.5532 63.3929C90.4522 63.4549 90.3512 63.5159 90.2522 63.5769C87.9812 62.2189 80.0382 52.2349 72.9962 43.3849C66.6642 35.4269 59.8942 26.9199 53.9202 20.1779C53.0942 20.5519 52.2852 20.9509 51.4902 21.3729C57.6142 28.2489 64.7022 37.1559 70.9522 45.0109C86.7222 64.8329 89.1932 67.3869 91.2712 66.0229Z" fill="#FFCC81"/>
<path d="M61.8353 62.9899C59.5703 62.1109 57.5513 62.2209 55.8393 63.3179C52.5383 65.4319 51.2813 70.8889 50.7363 75.3569C51.6083 75.4959 52.4723 75.6119 53.3263 75.7039C53.8013 71.7869 54.8263 67.0679 57.2483 65.5179C58.2343 64.8869 59.4253 64.8579 60.8913 65.4249C67.6723 68.0539 70.8403 70.6409 73.6013 77.6679C74.5803 77.8279 75.5733 77.9939 76.5773 78.1649C73.5953 69.8529 70.0743 66.1829 61.8353 62.9899Z" fill="#FFCC81"/>
<g opacity="0.48">
<path d="M24.2407 50.2779C24.2407 50.2779 40.8717 17.2739 68.5367 16.7909C96.2017 16.3089 129.801 68.6309 121.534 78.4739C113.267 88.3169 74.9376 75.9159 58.0336 75.9639C41.1286 76.0129 15.0887 64.3839 24.2407 50.2779Z" fill="#FF9E13"/>
</g>
<path d="M99.1432 83.5031C98.7232 83.5031 98.3152 83.309 98.0512 82.958C97.6852 82.471 97.6862 81.8 98.0532 81.313C99.0642 79.974 122.975 48.473 136.949 43.91C137.088 43.865 137.23 43.842 137.373 43.842C137.698 43.842 138.018 43.958 138.27 44.178C138.632 44.494 138.802 44.977 138.717 45.45C138.701 45.537 138.317 47.63 136.957 50.872C136.786 51.279 136.609 51.68 136.42 52.095L136.244 52.474C136.136 52.704 136.022 52.9411 135.904 53.1841C135.794 53.4081 135.682 53.632 135.566 53.859L135.259 54.444L135 54.923C134.827 55.239 134.646 55.564 134.455 55.894L134.151 56.417C134.071 56.553 133.988 56.69 133.904 56.828C139.102 54.284 143.36 52.8841 146.601 52.6561C146.633 52.6541 146.665 52.652 146.697 52.652C147.142 52.652 147.561 52.8691 147.818 53.2381C148.092 53.6321 148.139 54.142 147.942 54.58C147.896 54.681 146.794 57.097 144.095 60.473L143.841 60.787C143.677 60.989 143.506 61.195 143.328 61.405C143.171 61.591 143.01 61.781 142.841 61.973C142.699 62.135 142.548 62.304 142.396 62.473L142.042 62.861C141.792 63.132 141.532 63.407 141.263 63.685L140.85 64.111C140.67 64.292 140.485 64.475 140.297 64.659L139.965 64.978C139.574 65.353 139.226 65.676 138.866 66.002C138.866 66.002 138.443 66.382 138.419 66.403C143.224 65.278 147.262 64.709 150.473 64.709C151.819 64.709 153.045 64.81 154.119 65.007C154.592 65.094 154.984 65.423 155.152 65.873C155.32 66.323 155.238 66.828 154.938 67.204C154.882 67.273 153.552 68.9201 150.823 71.1131C150.815 71.1201 150.806 71.127 150.799 71.133C150.469 71.398 150.115 71.6701 149.744 71.9491L149.417 72.192C149.204 72.349 148.983 72.5081 148.755 72.6691C148.561 72.8071 148.362 72.9461 148.157 73.0871C147.984 73.2061 147.261 73.682 147.261 73.682L147.158 73.748C146.844 73.951 146.524 74.152 146.193 74.355L145.695 74.6581C145.47 74.7921 145.245 74.924 145.013 75.056L144.61 75.285C144.145 75.546 143.728 75.772 143.298 75.998L142.853 76.23C142.577 76.372 142.296 76.513 142.01 76.653L141.672 76.815C141.135 77.073 140.583 77.327 140.013 77.577L139.626 77.746C138.578 78.197 137.468 78.633 136.33 79.038L136.03 79.1431C134.81 79.57 133.536 79.968 132.242 80.325L132.138 80.353C129.697 81.019 127.191 81.54 124.631 81.918C122.956 82.165 121.274 82.348 119.564 82.474L119.377 82.4881C117.646 82.6121 115.85 82.675 114.039 82.676L113.716 82.675C110.252 82.6651 106.687 82.432 103.114 81.984C101.836 82.535 100.721 82.9921 99.6282 83.41C99.4722 83.473 99.3072 83.5031 99.1432 83.5031Z" fill="#D47700"/>
<path d="M137.374 45.2081C137.374 45.2081 137.015 47.2031 135.699 50.3441C135.696 50.3511 135.693 50.3591 135.69 50.3661C135.534 50.7381 135.363 51.1261 135.179 51.5281C135.124 51.6481 135.068 51.7681 135.011 51.8911C134.905 52.1181 134.794 52.3481 134.678 52.5841C134.573 52.7981 134.465 53.0151 134.352 53.2361C134.255 53.4251 134.154 53.6171 134.051 53.8101C133.971 53.9611 133.888 54.1131 133.805 54.2671C133.636 54.5771 133.459 54.8921 133.274 55.2131C133.177 55.3821 133.081 55.5501 132.979 55.7211C132.852 55.9351 132.721 56.1511 132.587 56.3691C132.496 56.5171 132.401 56.6671 132.307 56.8181C132.067 57.1991 131.816 57.5851 131.554 57.9761C131.463 58.1111 131.374 58.2461 131.281 58.3821C131.111 58.6311 130.937 58.8811 130.758 59.1331C130.688 59.2311 130.614 59.3311 130.543 59.4301C130.264 59.8171 129.977 60.2061 129.675 60.6001C136.039 57.0341 142.208 54.3351 146.7 54.0191C146.7 54.0191 145.654 56.3401 143.031 59.6211C142.951 59.7211 142.87 59.8221 142.787 59.9231C142.627 60.1201 142.462 60.3181 142.291 60.5211C142.138 60.7031 141.982 60.8851 141.819 61.0711C141.679 61.2311 141.533 61.3931 141.386 61.5571C141.273 61.6831 141.157 61.8091 141.04 61.9371C140.798 62.2001 140.546 62.4661 140.285 62.7361C140.152 62.8731 140.021 63.0101 139.883 63.1491C139.707 63.3271 139.527 63.5051 139.343 63.6851C139.22 63.8051 139.093 63.9271 138.966 64.0481C138.64 64.3601 138.302 64.6741 137.952 64.9911C137.831 65.1001 137.712 65.2091 137.588 65.3191C137.362 65.5201 137.132 65.7201 136.897 65.9221C136.808 65.9981 136.714 66.0751 136.623 66.1521C136.178 66.5281 135.715 66.9041 135.235 67.2811C135.13 67.3641 135.025 67.4461 134.918 67.5291C134.086 68.1731 133.202 68.8161 132.264 69.4551C138.919 67.5021 145.48 66.0781 150.476 66.0781C151.712 66.0781 152.853 66.1651 153.875 66.3531C153.875 66.3531 152.608 67.9351 149.951 70.0671C149.949 70.0681 149.947 70.0701 149.945 70.0721C149.626 70.3281 149.284 70.5921 148.925 70.8621C148.822 70.9391 148.717 71.0171 148.611 71.0961C148.403 71.2491 148.19 71.4031 147.969 71.5601C147.779 71.6941 147.588 71.8291 147.389 71.9651C147.213 72.0851 147.032 72.2061 146.849 72.3271C146.708 72.4211 146.563 72.5151 146.417 72.6091C146.115 72.8041 145.803 73.0001 145.482 73.1971C145.322 73.2951 145.163 73.3931 144.998 73.4921C144.782 73.6211 144.562 73.7491 144.338 73.8781C144.189 73.9641 144.037 74.0491 143.884 74.1341C143.49 74.3551 143.084 74.5751 142.666 74.7951C142.522 74.8701 142.379 74.9461 142.232 75.0211C141.964 75.1591 141.691 75.2961 141.413 75.4321C141.305 75.4851 141.192 75.5371 141.082 75.5901C140.56 75.8411 140.022 76.0881 139.466 76.3321C139.342 76.3861 139.219 76.4411 139.093 76.4951C138.076 76.9331 137.003 77.3541 135.874 77.7571C135.778 77.7911 135.681 77.8251 135.584 77.8591C134.41 78.2701 133.177 78.6571 131.882 79.0141C131.829 79.0291 131.775 79.0431 131.722 79.0571C129.477 79.6701 127.05 80.1861 124.434 80.5731C124.412 80.5761 124.391 80.5801 124.369 80.5831C122.803 80.8131 121.168 80.9931 119.465 81.1181C119.404 81.1231 119.343 81.1271 119.282 81.1311C117.602 81.2511 115.855 81.3141 114.041 81.3161C114.035 81.3161 114.029 81.3161 114.023 81.3161C113.924 81.3161 113.825 81.3151 113.725 81.3151C110.353 81.3051 106.759 81.0851 102.917 80.5871C101.697 81.1181 100.449 81.6391 99.1421 82.1401C99.1451 82.1361 123.647 49.6901 137.374 45.2081ZM137.374 42.4761C137.09 42.4761 136.804 42.5201 136.526 42.6111C122.149 47.3061 97.9861 79.1371 96.9641 80.4901C96.2291 81.4631 96.2281 82.8041 96.9611 83.7791C97.4891 84.4801 98.3051 84.8691 99.1451 84.8691C99.4721 84.8691 99.8031 84.8101 100.121 84.6881C101.134 84.3001 102.164 83.8811 103.317 83.3881C106.821 83.8131 110.316 84.0341 113.718 84.0441L113.829 84.0451L114.024 84.0461C115.888 84.0441 117.716 83.9801 119.477 83.8541L119.653 83.8411C121.41 83.7111 123.125 83.5241 124.766 83.2831C124.771 83.2821 124.819 83.2751 124.824 83.2741C127.449 82.8861 130.008 82.3541 132.441 81.6901L132.491 81.6761L132.609 81.6441C133.93 81.2801 135.235 80.8721 136.487 80.4341L136.791 80.3271C137.956 79.9121 139.094 79.4661 140.173 79.0011L140.565 78.8301C141.15 78.5731 141.717 78.3121 142.266 78.0481L142.385 77.9911L142.611 77.8831C142.908 77.7381 143.195 77.5931 143.478 77.4481L143.842 77.2591L143.932 77.2121C144.377 76.9781 144.805 76.7461 145.22 76.5131L145.276 76.4821C145.418 76.4021 145.56 76.3231 145.699 76.2431C145.935 76.1071 146.168 75.9711 146.396 75.8351C146.544 75.7471 146.687 75.6591 146.83 75.5711L146.908 75.5231C147.249 75.3131 147.579 75.1061 147.899 74.9001C148.054 74.8001 148.207 74.7001 148.357 74.6011C148.551 74.4721 148.744 74.3441 148.93 74.2171C149.14 74.0731 149.344 73.9301 149.545 73.7881C149.782 73.6201 150.009 73.4571 150.23 73.2931L150.563 73.0451C150.949 72.7551 151.313 72.4741 151.653 72.2011C151.664 72.1921 151.674 72.1841 151.685 72.1751C154.488 69.9181 155.857 68.2441 156.005 68.0601C156.606 67.3101 156.769 66.2991 156.433 65.3981C156.097 64.4971 155.313 63.8391 154.367 63.6651C153.211 63.4521 151.901 63.3451 150.473 63.3451C148.259 63.3451 145.675 63.6041 142.738 64.1201C142.842 64.0091 142.945 63.8991 143.046 63.7901C143.171 63.6551 143.293 63.5211 143.413 63.3881C143.57 63.2141 143.725 63.0421 143.873 62.8721C144.045 62.6751 144.211 62.4811 144.374 62.2891C144.557 62.0731 144.732 61.8611 144.903 61.6521L145.163 61.3301C147.968 57.8211 149.14 55.2531 149.188 55.1461C149.583 54.2701 149.489 53.2501 148.939 52.4611C148.426 51.7251 147.587 51.2911 146.698 51.2911C146.634 51.2911 146.57 51.2931 146.506 51.2981C143.892 51.4821 140.775 52.3321 137.088 53.8741C137.101 53.8471 137.114 53.8201 137.128 53.7931C137.252 53.5411 137.369 53.2961 137.482 53.0551L137.661 52.6691C137.858 52.2391 138.04 51.8251 138.207 51.4281C139.609 48.0821 140.019 45.9311 140.061 45.6961C140.231 44.7501 139.891 43.7841 139.166 43.1521C138.664 42.7081 138.024 42.4761 137.374 42.4761Z" fill="#020700"/>
<path d="M100.643 80.552C100.643 80.552 132.294 55.031 146.699 54.019C146.699 54.019 136.777 76.181 100.643 80.552Z" fill="#648A35"/>
<path d="M143.827 58.594C133.173 61.387 116.992 72.626 107.955 79.353C128.759 75.061 139.295 64.652 143.827 58.594Z" fill="#57772E"/>
<path d="M102.654 80.554C102.654 80.554 139.671 63.737 153.874 66.35C153.874 66.35 138.735 85.336 102.654 80.554Z" fill="#648A35"/>
<path d="M149.95 70.064C138.936 70.11 120.463 76.958 110.033 81.217C131.25 82.251 144.05 74.799 149.95 70.064Z" fill="#57772E"/>
<path d="M99.1445 82.137C99.1445 82.137 123.647 49.691 137.374 45.208C137.374 45.208 133.133 69.117 99.1445 82.137Z" fill="#648A35"/>
<path d="M135.698 50.344C126.042 55.642 113.077 70.476 105.945 79.197C125.082 69.979 132.773 57.322 135.698 50.344Z" fill="#57772E"/>
<path d="M54.6692 50.2349C54.3782 50.2349 54.0882 50.1419 53.8442 49.9569C52.9052 49.2459 51.9622 48.4959 50.8952 47.6139C47.3382 47.0469 43.8492 46.2739 40.5192 45.3159L40.2112 45.2279C38.4722 44.7209 36.7662 44.1579 35.1382 43.5559L34.9592 43.4889C33.3552 42.8909 31.7902 42.2449 30.3132 41.5699C27.8982 40.4629 25.6382 39.2619 23.5342 37.9739L23.4192 37.9039C22.2422 37.1789 21.1292 36.4399 20.0802 35.6909L19.8232 35.5069C18.8502 34.8049 17.9062 34.0769 17.0162 33.3439L16.6942 33.0749C16.2182 32.6759 15.7582 32.2779 15.3162 31.8809L15.0372 31.6319C14.7992 31.4149 14.5712 31.2029 14.3452 30.9899L14.0402 30.6979C13.6322 30.3059 13.2952 29.9719 12.9702 29.6409L12.5972 29.2589C12.4112 29.0649 12.2302 28.8749 12.0552 28.6859L11.6762 28.2709C11.4022 27.9689 11.1502 27.6859 10.9072 27.4059L10.5602 27.0019C10.4152 26.8299 10.2692 26.6579 10.1292 26.4869C9.97316 26.2979 9.82116 26.1089 9.67216 25.9199C9.49916 25.7029 9.33317 25.4889 9.17117 25.2769L8.92317 24.9499C8.64717 24.5809 8.38416 24.2199 8.14016 23.8739C6.11816 20.9889 5.29617 19.0269 5.26217 18.9449C5.07817 18.5009 5.14117 17.9929 5.42917 17.6069C5.68817 17.2579 6.09617 17.0559 6.52517 17.0559C6.57017 17.0559 6.61716 17.0589 6.66316 17.0629C10.3322 17.4349 15.2572 19.3569 21.3492 22.7889C21.3312 22.7619 21.0692 22.3399 21.0692 22.3399C20.7772 21.8659 20.5342 21.4589 20.3012 21.0569L20.0332 20.5909C19.9032 20.3609 19.7762 20.1319 19.6532 19.9059L19.4142 19.4579C19.1952 19.0409 19.0222 18.7069 18.8592 18.3769L18.6262 17.9029L18.3382 17.2979C18.2302 17.0659 18.1292 16.8409 18.0292 16.6179C17.9172 16.3659 17.8102 16.1209 17.7082 15.8789L17.5532 15.5099C15.9052 11.5149 15.5212 8.88794 15.5062 8.77794C15.4392 8.30194 15.6272 7.82494 16.0012 7.52394C16.2472 7.32494 16.5512 7.22093 16.8592 7.22093C17.0182 7.22093 17.1782 7.24894 17.3322 7.30594C20.3802 8.42994 24.0772 10.9629 28.3582 14.8579C28.3162 14.7019 28.2752 14.5469 28.2362 14.3949L28.0902 13.8069C28.0002 13.4379 27.9142 13.0749 27.8372 12.7189L27.7242 12.1949L27.5922 11.5439C27.5442 11.2919 27.5002 11.0479 27.4572 10.8059C27.4102 10.5359 27.3672 10.2759 27.3272 10.0199L27.2652 9.61295C27.1992 9.15995 27.1412 8.72594 27.0932 8.31194C26.6912 4.79494 26.9052 2.67794 26.9152 2.58894C26.9652 2.11094 27.2642 1.69494 27.7002 1.49294C27.8832 1.40794 28.0782 1.36694 28.2742 1.36694C28.5452 1.36694 28.8132 1.44793 29.0442 1.60493C41.1882 9.88993 55.3482 46.8169 55.9442 48.3839C56.1612 48.9529 55.9742 49.5979 55.4872 49.9629C55.2452 50.1429 54.9572 50.2349 54.6692 50.2349Z" fill="#D47700"/>
<path d="M28.2753 2.73199C40.2043 10.87 54.6693 48.869 54.6693 48.869C53.5543 48.023 52.5022 47.174 51.4782 46.324C47.6493 45.729 44.1373 44.936 40.8973 44.004C40.7963 43.975 40.6942 43.946 40.5942 43.917C38.8522 43.409 37.1933 42.86 35.6133 42.276C35.5553 42.255 35.4982 42.233 35.4412 42.212C33.8412 41.616 32.3223 40.987 30.8823 40.328C30.8623 40.319 30.8423 40.31 30.8223 40.301C28.4183 39.199 26.2323 38.025 24.2483 36.81C24.2013 36.781 24.1542 36.753 24.1072 36.724C22.9632 36.019 21.8872 35.303 20.8752 34.581C20.7913 34.521 20.7083 34.462 20.6252 34.402C19.6532 33.7 18.7403 32.995 17.8863 32.291C17.7813 32.204 17.6772 32.118 17.5732 32.031C17.1082 31.641 16.6603 31.254 16.2293 30.867C16.1383 30.786 16.0453 30.704 15.9563 30.623C15.7273 30.414 15.5042 30.207 15.2842 30C15.1642 29.887 15.0482 29.774 14.9312 29.661C14.5912 29.333 14.2622 29.009 13.9462 28.687C13.8242 28.563 13.7013 28.438 13.5823 28.314C13.4033 28.128 13.2272 27.943 13.0562 27.759C12.9253 27.618 12.8003 27.48 12.6733 27.341C12.4203 27.062 12.1753 26.787 11.9403 26.515C11.8263 26.384 11.7143 26.253 11.6043 26.124C11.4623 25.956 11.3212 25.79 11.1872 25.625C11.0342 25.439 10.8882 25.256 10.7432 25.074C10.5752 24.862 10.4132 24.654 10.2562 24.449C10.1762 24.344 10.0972 24.24 10.0192 24.137C9.74925 23.777 9.49524 23.428 9.26024 23.093C9.25924 23.091 9.25725 23.089 9.25625 23.087C7.30125 20.298 6.52625 18.425 6.52625 18.425C11.7393 18.954 19.1202 22.782 26.4112 27.44C25.6882 26.564 25.0193 25.7 24.4003 24.849C24.3203 24.74 24.2433 24.631 24.1653 24.523C23.8103 24.027 23.4702 23.536 23.1482 23.051C23.0822 22.952 23.0143 22.852 22.9493 22.754C22.7793 22.494 22.6143 22.238 22.4533 21.982C22.3653 21.842 22.2803 21.704 22.1953 21.566C21.9473 21.164 21.7113 20.768 21.4853 20.377C21.3973 20.225 21.3093 20.073 21.2253 19.923C21.0993 19.699 20.9753 19.478 20.8563 19.258C20.7633 19.086 20.6752 18.918 20.5862 18.75C20.4112 18.418 20.2443 18.093 20.0853 17.772C20.0083 17.617 19.9323 17.463 19.8583 17.311C19.7633 17.113 19.6683 16.917 19.5783 16.724C19.4743 16.5 19.3753 16.281 19.2793 16.064C19.1713 15.821 19.0682 15.585 18.9692 15.351C18.9182 15.23 18.8682 15.111 18.8193 14.992C17.2172 11.109 16.8613 8.588 16.8613 8.588C21.0863 10.146 26.2563 14.461 31.3713 19.662C31.1923 19.199 31.0252 18.745 30.8642 18.296C30.8232 18.181 30.7802 18.065 30.7412 17.951C30.6392 17.659 30.5422 17.37 30.4482 17.084C30.3972 16.927 30.3482 16.773 30.2992 16.618C30.1572 16.169 30.0243 15.728 29.9003 15.296C29.8513 15.125 29.8022 14.955 29.7562 14.787C29.6882 14.54 29.6233 14.296 29.5613 14.055C29.5113 13.862 29.4662 13.674 29.4202 13.485C29.3322 13.126 29.2502 12.773 29.1742 12.428C29.1362 12.257 29.1003 12.088 29.0653 11.921C29.0213 11.707 28.9772 11.494 28.9372 11.286C28.8902 11.042 28.8472 10.804 28.8062 10.569C28.7612 10.31 28.7193 10.059 28.6803 9.811C28.6593 9.678 28.6392 9.546 28.6202 9.416C28.5562 8.978 28.5002 8.558 28.4542 8.157C28.4532 8.149 28.4523 8.141 28.4513 8.134C28.0623 4.747 28.2753 2.73199 28.2753 2.73199ZM28.2743 0C27.8843 0 27.4922 0.083006 27.1272 0.253006C26.2552 0.657006 25.6592 1.48899 25.5582 2.44499C25.5332 2.68199 25.3253 4.863 25.7343 8.442C25.7353 8.455 25.7383 8.479 25.7403 8.492C25.7863 8.894 25.8463 9.344 25.9143 9.811L25.9782 10.232C26.0192 10.495 26.0642 10.763 26.1122 11.038C26.1172 11.068 26.1233 11.098 26.1283 11.128C23.0183 8.61701 20.2633 6.931 17.8043 6.024C17.4973 5.911 17.1773 5.855 16.8593 5.855C16.2443 5.855 15.6363 6.063 15.1433 6.461C14.3953 7.065 14.0193 8.01799 14.1543 8.96899C14.1713 9.08599 14.5783 11.879 16.2923 16.032L16.4522 16.414C16.5572 16.662 16.6663 16.914 16.7813 17.172C16.8843 17.404 16.9892 17.636 17.0992 17.873C17.1942 18.077 17.2942 18.286 17.3962 18.496C17.4752 18.659 17.5553 18.822 17.6373 18.986C17.7013 19.114 17.7663 19.244 17.8323 19.374C13.4513 17.22 9.80125 16.008 6.80025 15.704C6.70825 15.695 6.61525 15.69 6.52425 15.69C5.66625 15.69 4.85126 16.094 4.33326 16.791C3.75926 17.562 3.63325 18.578 4.00025 19.467C4.09125 19.687 4.95025 21.702 7.01725 24.652C7.02325 24.66 7.02925 24.669 7.03625 24.678C7.29025 25.04 7.55325 25.4 7.83225 25.772L8.08625 26.107C8.25225 26.324 8.42425 26.545 8.60325 26.77C8.75725 26.964 8.91325 27.158 9.07525 27.356C9.21725 27.529 9.36625 27.706 9.51725 27.883C9.63425 28.021 9.75326 28.16 9.87426 28.299C10.1223 28.586 10.3823 28.877 10.6503 29.173L10.6982 29.226C10.8162 29.356 10.9342 29.486 11.0562 29.617C11.2362 29.811 11.4223 30.006 11.6113 30.203C11.7263 30.323 11.8443 30.443 11.9623 30.563C12.3293 30.937 12.6752 31.279 13.0342 31.625L13.0972 31.685L13.4083 31.982C13.6393 32.2 13.8742 32.419 14.1162 32.639L14.3073 32.81L14.4043 32.897C14.8573 33.303 15.3283 33.712 15.8183 34.122L16.1493 34.397C17.0533 35.143 18.0213 35.889 19.0243 36.613L19.2873 36.801C20.3653 37.571 21.5043 38.326 22.6733 39.046L22.7652 39.102L22.8203 39.136C24.9713 40.453 27.2802 41.679 29.6832 42.781L29.7562 42.814C31.2542 43.499 32.8493 44.158 34.4863 44.768L34.6702 44.836C36.3212 45.447 38.0583 46.019 39.8283 46.536L40.0433 46.598L40.1413 46.626C43.4113 47.566 46.8292 48.331 50.3122 48.901C51.2822 49.697 52.1543 50.387 53.0183 51.042C53.5063 51.412 54.0873 51.597 54.6693 51.597C55.2453 51.597 55.8213 51.415 56.3073 51.052C57.2833 50.321 57.6562 49.033 57.2232 47.893C56.6202 46.309 42.3102 8.995 29.8162 0.472C29.3532 0.16 28.8153 0 28.2743 0Z" fill="#020700"/>
<path d="M53.6714 46.9279C53.6714 46.9279 30.4084 13.5829 16.8594 8.58691C16.8594 8.58691 20.1964 32.6389 53.6714 46.9279Z" fill="#648A35"/>
<path d="M18.3398 13.783C27.7898 19.44 40.1869 34.752 46.9859 43.735C28.2089 33.803 20.9998 20.865 18.3398 13.783Z" fill="#57772E"/>
<path d="M51.7394 46.3681C51.7394 46.3681 20.8924 19.8811 6.52539 18.4231C6.52539 18.4231 15.7584 40.8821 51.7394 46.3681Z" fill="#648A35"/>
<path d="M9.25586 23.085C19.8189 26.206 35.6439 37.9399 44.4689 44.9429C23.8069 40.0099 13.5979 29.281 9.25586 23.085Z" fill="#57772E"/>
<path d="M54.6689 48.868C54.6689 48.868 40.2049 10.87 28.2749 2.73096C28.2749 2.73096 25.6699 26.874 54.6689 48.868Z" fill="#648A35"/>
<path d="M28.4492 8.13208C36.2412 15.9161 44.5472 33.7811 48.9592 44.1471C33.1572 29.9501 29.3082 15.6481 28.4492 8.13208Z" fill="#57772E"/>
<path d="M36.8363 89.9529C26.0763 89.9529 11.5483 87.0839 6.01725 78.9979C3.69525 75.6039 3.31925 71.5969 4.92725 67.4049C5.59725 64.9529 16.1223 28.1469 45.2513 21.5689C47.1593 21.1379 49.1963 20.9199 51.3063 20.9199C73.7213 20.9199 102.78 45.6229 112.937 62.6289C116.654 68.8519 117.722 73.8049 116.027 76.9539C111.307 85.7169 91.2542 86.3919 71.8612 87.0459C62.4892 87.3609 53.6373 87.6589 47.7363 88.9009C44.4713 89.5899 40.7013 89.9529 36.8363 89.9529Z" fill="#D47700"/>
<path d="M51.3056 22.364C80.2926 22.36 120.884 64.889 114.756 76.2701C108.211 88.424 65.2036 83.75 47.4386 87.489C44.2096 88.169 40.5756 88.509 36.8356 88.509C19.9996 88.509 0.945582 81.625 6.30058 67.855C6.30058 67.855 16.5856 29.5221 45.5686 22.9771C47.4136 22.5611 49.3346 22.364 51.3056 22.364ZM51.3096 19.4771H51.3046C49.0866 19.4771 46.9426 19.708 44.9326 20.162C15.2356 26.868 4.4076 63.868 3.5526 66.956C1.7966 71.586 2.23558 76.029 4.82458 79.814C10.6726 88.363 25.7236 91.397 36.8346 91.397C40.7986 91.397 44.6706 91.023 48.0326 90.315C53.8096 89.099 62.6006 88.803 71.9076 88.489C91.7086 87.822 112.185 87.133 117.297 77.639C119.275 73.966 118.224 68.666 114.175 61.887C108.811 52.906 98.6496 42.315 87.6576 34.247C74.6816 24.722 61.7726 19.4771 51.3096 19.4771Z" fill="#020700"/>
<path d="M32.9586 90.4822C22.6556 90.4822 8.74355 87.7322 3.44155 79.9812C1.21055 76.7192 0.84756 72.8692 2.39056 68.8422C3.04056 66.4642 13.1176 31.2722 40.9886 24.9792C42.8176 24.5662 44.7696 24.3572 46.7916 24.3572C68.2426 24.3572 96.0506 47.9922 105.77 64.2632C109.335 70.2322 110.357 74.9902 108.725 78.0212C104.197 86.4312 85.0046 87.0782 66.4466 87.7032C57.4896 88.0052 49.0286 88.2902 43.3926 89.4762C40.2656 90.1342 36.6576 90.4822 32.9586 90.4822Z" fill="#FEB04B"/>
<path d="M46.791 25.8001C74.503 25.7961 113.311 66.4561 107.452 77.3371C101.195 88.9571 60.077 84.4881 43.094 88.0631C40.007 88.7131 36.533 89.0381 32.957 89.0381C16.861 89.0381 -1.35599 82.4571 3.76401 69.2921C3.76401 69.2921 13.596 32.6441 41.306 26.3871C43.07 25.9881 44.907 25.8001 46.791 25.8001ZM46.795 22.9121H46.791C44.661 22.9121 42.602 23.1341 40.671 23.5701C12.228 29.9931 1.849 65.3871 1.017 68.3921C-0.675002 72.8571 -0.249992 77.1431 2.24901 80.7961C7.86801 89.0101 22.303 91.9251 32.957 91.9251C36.755 91.9251 40.466 91.5661 43.689 90.8881C49.202 89.7281 57.601 89.4451 66.493 89.1451C85.46 88.5061 105.072 87.8461 109.994 78.7051C111.907 75.1511 110.902 70.0431 107.007 63.5201C101.87 54.9201 92.143 44.7801 81.622 37.0581C69.193 27.9361 56.824 22.9121 46.795 22.9121Z" fill="#020700"/>
<path d="M76.7896 41.289C68.2126 36.786 61.0096 31.861 55.1546 26.894C53.4176 26.465 51.7016 26.159 50.0156 25.981C56.4106 31.942 64.8106 38.0279 75.5436 43.6629C94.5846 53.6599 102.217 69.459 101.92 81.815C102.913 81.378 103.808 80.893 104.592 80.356C104.263 67.367 96.0896 51.421 76.7896 41.289Z" fill="#FFCC81"/>
<path d="M69.1701 84.7631C60.8671 76.4141 51.4451 66.9461 39.4061 67.9551C35.2941 68.2981 32.2141 69.6951 30.2511 72.1071C26.7891 76.3631 27.3601 82.8841 28.0761 88.8381C28.9831 88.9121 29.8911 88.9651 30.7971 88.9981C30.1221 83.4471 29.4811 77.3041 32.3331 73.7991C33.8381 71.9491 36.2251 70.9111 39.6311 70.6271C50.2461 69.7471 58.7121 78.0521 66.8621 86.2431C68.0751 86.2021 69.2961 86.1611 70.5201 86.1161C70.0701 85.6691 69.6211 85.2171 69.1701 84.7631Z" fill="#FFCC81"/>
<path d="M28.4252 54.4349C37.9362 50.3609 49.1722 60.8459 61.0682 71.9499C63.6582 74.3669 66.3362 76.8669 69.0212 79.2359C77.7912 86.9749 83.5022 85.4089 86.1242 83.7869C91.1242 80.6919 93.0752 72.7519 90.8682 64.4759C88.4472 55.3949 71.2582 44.0879 53.0602 32.1179C49.9732 30.0869 46.8592 28.0339 43.7782 25.9719C42.9402 26.0679 42.1152 26.2029 41.3042 26.3859C40.8792 26.4819 40.4592 26.5849 40.0422 26.6949C43.8522 29.2699 47.7432 31.8299 51.5862 34.3579C69.3442 46.0399 86.1183 57.0729 88.2773 65.1669C90.1513 72.1959 88.6523 79.0669 84.7122 81.5059C81.2773 83.6319 76.3343 82.1119 70.7943 77.2239C68.1383 74.8799 65.4732 72.3929 62.8972 69.9889C50.3442 58.2719 38.4842 47.2089 27.3682 51.9689C23.2312 53.7429 18.7272 49.6029 16.4102 46.9789C15.9862 46.4989 15.5772 46.0009 15.1792 45.4929C14.6352 46.2649 14.1152 47.0409 13.6152 47.8149C13.8752 48.1319 14.1352 48.4529 14.4002 48.7529C19.2292 54.2239 24.2112 56.2419 28.4252 54.4349Z" fill="#FFCC81"/>
<path d="M26.6 59.0061C25.147 57.3571 21.642 56.2721 7.29396 62.5741C6.80196 62.7901 6.31196 63.0091 5.82396 63.2291C5.28896 64.6111 4.86497 65.8131 4.54297 66.7731C5.78497 66.1891 7.07096 65.6001 8.37196 65.0291C22.358 58.8861 24.399 60.5671 24.586 60.7771C24.596 60.7881 25.541 61.9821 21.449 67.6091C16.584 74.2991 14.135 80.3721 13.299 85.4951C14.114 85.8361 14.961 86.1521 15.835 86.4431C16.517 81.6421 18.82 75.7821 23.617 69.1861C27.355 64.0481 28.274 60.9091 26.6 59.0061Z" fill="#FFCC81"/>
<path d="M74.433 71.1331C74.61 70.9561 74.8 70.7791 74.993 70.5981C76.181 69.4871 77.808 67.9671 77.71 65.4201C77.563 61.5871 73.485 56.6691 64.49 49.4731C56.91 43.4091 46.013 36.2521 35.476 29.3301C35.142 29.1111 34.808 28.8911 34.473 28.6711C33.521 29.0971 32.592 29.5561 31.691 30.0521C32.459 30.5571 33.229 31.0631 34.003 31.5711C44.489 38.4591 55.332 45.5811 62.813 51.5671C70.809 57.9641 74.919 62.6591 75.029 65.5231C75.076 66.7561 74.355 67.5221 73.16 68.6391C73.071 68.7221 72.983 68.8051 72.896 68.8871C70.33 67.9951 60.262 59.6171 51.336 52.1901C43.311 45.5111 34.73 38.3721 27.318 32.8411C26.566 33.3891 25.836 33.9601 25.125 34.5491C32.715 40.1841 41.699 47.6581 49.621 54.2511C69.612 70.8861 72.629 72.9391 74.433 71.1331Z" fill="#FFCC81"/>
<path d="M44.2073 74.2261C41.7463 73.8151 39.7403 74.3471 38.2483 75.8071C35.3713 78.6211 35.2463 84.3681 35.6303 88.9741C36.5353 88.9321 37.4283 88.8681 38.3053 88.7821C37.9653 84.7461 38.0113 79.7881 40.1223 77.7241C40.9813 76.8841 42.1723 76.6061 43.7653 76.8701C51.1303 78.0981 54.8543 80.0371 59.0963 86.5261C60.1133 86.4831 61.1463 86.4421 62.1913 86.4041C57.4613 78.6721 53.1553 75.7181 44.2073 74.2261Z" fill="#FFCC81"/>
<g opacity="0.48">
<path d="M60.9711 72.867C43.9881 76.442 15.3841 70.1849 21.6411 54.0959C21.6411 54.0959 25.2171 40.776 34.1281 28.825C11.8771 39.059 3.7641 69.291 3.7641 69.291C-2.4929 85.381 26.1101 91.637 43.0941 88.062C60.0771 84.4869 101.195 88.956 107.452 77.336C108.435 75.51 108.159 72.844 106.889 69.673C91.8001 71.547 71.6321 70.623 60.9711 72.867Z" fill="#FF9E13"/>
</g>
<path d="M72.4453 71.621C72.4453 72.759 75.5923 73.681 79.4743 73.681C83.3563 73.681 86.5033 72.759 86.5033 71.621C86.5033 70.483 83.3563 69.561 79.4743 69.561C75.5913 69.561 72.4453 70.484 72.4453 71.621Z" fill="#C24855"/>
<path d="M38.8041 71.621C38.8041 72.759 35.6571 73.681 31.7751 73.681C27.8931 73.681 24.7461 72.759 24.7461 71.621C24.7461 70.483 27.8931 69.561 31.7751 69.561C35.6571 69.561 38.8041 70.484 38.8041 71.621Z" fill="#C24855"/>
<path d="M82.3103 59.564L72.4453 64.546L81.4733 66.493" stroke="black" stroke-width="2.6737" stroke-miterlimit="10" stroke-linecap="round" stroke-linejoin="round"/>
<path d="M28.3398 59.564L38.2048 64.546L29.1758 66.493" stroke="black" stroke-width="2.6737" stroke-miterlimit="10" stroke-linecap="round" stroke-linejoin="round"/>
<path d="M55.7772 75.9419C50.1682 75.9419 45.4872 71.5549 45.1222 65.9549L45.0762 65.2429H66.4792L66.4322 65.9549C66.0672 71.5549 61.3862 75.9419 55.7772 75.9419Z" fill="black"/>
<path d="M65.7643 65.912C65.4233 71.138 61.0883 75.274 55.7763 75.274C50.4643 75.274 46.1293 71.138 45.7883 65.912H65.7643ZM67.1913 64.575H65.7643H45.7883H44.3613L44.4543 65.9989C44.8423 71.9499 49.8163 76.6109 55.7763 76.6109C61.7363 76.6109 66.7103 71.9499 67.0983 65.9989L67.1913 64.575Z" fill="black"/>
<path d="M49.6406 73.17C51.0546 71.392 53.2326 70.248 55.6816 70.248C58.1696 70.248 60.3766 71.43 61.7886 73.258C60.1146 74.52 58.0356 75.274 55.7766 75.274C53.4626 75.274 51.3346 74.488 49.6406 73.17Z" fill="#C24855"/>
</svg>
