<svg width="256" height="130" viewBox="0 0 256 130" fill="none" xmlns="http://www.w3.org/2000/svg">
<path d="M191.014 47.3542C193.593 46.9855 257.447 26.5108 250.933 23.9065C244.42 21.3007 185.807 38.7965 185.807 38.7965C185.807 38.7965 181.895 48.6571 191.014 47.3542Z" fill="#C7975A"/>
<path d="M244.395 27.814C244.825 27.9859 244.94 28.2366 244.796 28.5528C249.815 26.2925 252.521 24.5509 250.909 23.9053C244.397 21.2995 185.783 38.7953 185.783 38.7953C185.783 38.7953 185.414 39.7265 185.168 40.9769C200.197 36.6311 239.155 25.7168 244.395 27.814Z" fill="#FFD9A8"/>
<path d="M248.872 23.6418C249.787 23.6418 250.488 23.7264 250.94 23.9071C251.042 23.9479 251.125 23.993 251.193 24.0411C251.219 24.0601 251.233 24.0834 251.254 24.1038C251.288 24.1359 251.326 24.1665 251.348 24.2C251.365 24.2292 251.368 24.2641 251.378 24.2947C251.387 24.3239 251.403 24.3516 251.406 24.3822C251.409 24.4201 251.394 24.4609 251.387 24.5017C251.381 24.5308 251.383 24.5585 251.371 24.5891C251.354 24.6358 251.32 24.6868 251.291 24.7378C251.275 24.7654 251.266 24.7902 251.246 24.8179C251.206 24.8748 251.15 24.936 251.096 24.9972C251.074 25.0205 251.059 25.0438 251.036 25.0671C250.97 25.1342 250.89 25.2041 250.809 25.2755C250.785 25.2959 250.766 25.3164 250.74 25.3368C250.647 25.414 250.54 25.4956 250.43 25.5772C250.408 25.5932 250.389 25.6093 250.366 25.6253C250.245 25.7128 250.11 25.8031 249.971 25.8949C249.95 25.908 249.934 25.9211 249.914 25.9343C249.768 26.029 249.609 26.1267 249.445 26.2258C249.424 26.2374 249.407 26.2491 249.386 26.2607C249.21 26.3656 249.022 26.4735 248.827 26.5828C248.814 26.5901 248.803 26.5959 248.79 26.6032C248.159 26.9544 247.425 27.3304 246.603 27.7254L246.597 27.7283C246.327 27.858 246.046 27.9906 245.758 28.1247C245.75 28.1276 245.744 28.1305 245.739 28.1334C245.446 28.269 245.144 28.4074 244.834 28.5473L244.828 28.5503C229.58 35.4174 192.96 47.0735 191.02 47.3504C190.455 47.4305 189.94 47.4684 189.471 47.4684C184.414 47.4684 184.707 43.0671 185.293 40.5342C185.296 40.5226 185.299 40.5109 185.302 40.4978C185.332 40.3637 185.364 40.2369 185.396 40.116C185.398 40.1087 185.399 40.1029 185.402 40.0956C185.506 39.705 185.608 39.3815 185.684 39.1556C185.685 39.1512 185.686 39.1483 185.688 39.1439C185.713 39.071 185.735 39.0098 185.752 38.9588C185.753 38.9559 185.755 38.953 185.755 38.953C185.774 38.902 185.788 38.8597 185.799 38.8335C185.809 38.8087 185.815 38.7912 185.815 38.7912C185.815 38.7912 236.585 23.6418 248.872 23.6418ZM248.872 19.7332C236.161 19.7332 186.791 34.4249 184.695 35.0516L182.881 35.5937L182.182 37.3542L182.171 37.3805L182.145 37.449L182.1 37.5729L182.049 37.704L182.029 37.7725L181.988 37.8891C181.884 38.1951 181.755 38.6061 181.622 39.1031C181.574 39.2838 181.535 39.4456 181.495 39.6146C180.643 43.2974 181.097 46.3521 182.8 48.4944C183.846 49.8119 185.853 51.3814 189.47 51.3814C190.131 51.3814 190.838 51.329 191.572 51.2241C194.27 50.8393 231.609 38.7927 246.426 32.1208L246.45 32.1106L246.461 32.1048L246.539 32.0698L246.546 32.0654C246.802 31.9503 247.097 31.8162 247.382 31.6821C247.707 31.5306 248.003 31.3907 248.289 31.2537C249.201 30.815 250.007 30.4011 250.689 30.0207L250.717 30.0047L250.762 29.9785C250.959 29.8692 251.179 29.7424 251.384 29.62L251.421 29.5981L251.489 29.5558C251.661 29.4524 251.858 29.3314 252.04 29.2134L252.091 29.1798L252.143 29.1449C252.33 29.021 252.502 28.9044 252.658 28.7907L252.718 28.747L252.782 28.6975C252.946 28.575 253.105 28.4526 253.244 28.336L253.337 28.2588L253.417 28.1845C253.57 28.0504 253.714 27.9163 253.835 27.791L253.961 27.6627L254.055 27.5461C254.207 27.3727 254.338 27.2109 254.442 27.0623L254.611 26.8203L254.71 26.6265C254.816 26.4414 254.933 26.217 255.035 25.9357L255.199 25.4869L255.24 25.14C255.281 24.9141 255.326 24.5643 255.301 24.1504L255.263 23.5209L255.084 23.0574C254.984 22.7368 254.848 22.4395 254.673 22.1553C254.439 21.7749 254.184 21.5024 254.025 21.3479C253.854 21.1716 253.674 21.0142 253.475 20.8713C253.152 20.6367 252.783 20.4356 252.385 20.2768C251.463 19.9066 250.345 19.7332 248.872 19.7332Z" fill="#020700"/>
<path d="M187.536 80.5994C208.134 77.2841 222.145 57.8975 218.829 37.2982C215.514 16.699 196.129 2.68761 175.531 6.00294C154.932 9.31826 140.922 28.7048 144.237 49.3041C147.552 69.9033 166.938 83.9148 187.536 80.5994Z" fill="#FBC05A"/>
<path d="M208.676 17.0483C211.299 22.1929 212.788 28.0107 212.788 34.1812C212.788 55.045 195.875 71.9593 175.012 71.9593C164.352 71.9593 154.73 67.5361 147.861 60.4329C154.107 72.6836 166.832 81.078 181.525 81.078C202.387 81.078 219.301 64.1638 219.301 43.3C219.301 33.0969 215.248 23.8455 208.676 17.0483Z" fill="#EBA60D"/>
<path d="M167.188 61.5371C167.188 63.6955 165.438 65.4458 163.28 65.4458C161.121 65.4458 159.371 63.6955 159.371 61.5371C159.371 59.3787 161.121 57.6284 163.28 57.6284C165.439 57.6284 167.188 59.3787 167.188 61.5371Z" fill="#FFF790"/>
<path d="M177.299 5.5091C161.637 7.4649 148.063 17.802 142.403 32.5361C140.346 37.8905 139.366 43.5859 141.157 48.5118C146.366 62.8407 152.88 57.6306 154.182 53.7219C155.485 49.8132 163.3 43.3002 167.209 51.1161C171.117 58.932 168.511 68.0508 175.024 66.7479C181.537 65.445 184.142 53.7205 189.354 60.2349C194.563 66.7479 201.078 73.2624 204.985 68.0508C208.893 62.8407 205.361 43.3002 211.685 45.906C218.01 48.5118 221.918 48.5118 221.918 41.9973C221.918 36.5701 211.064 1.29292 177.299 5.5091Z" fill="#9B3F0C"/>
<path d="M211.683 39.3908C205.358 36.785 208.889 56.3255 204.982 61.537C201.074 66.7486 194.561 60.2341 189.351 53.7211C184.14 47.2081 181.536 58.9313 175.022 60.2342C168.509 61.5371 171.113 52.4183 167.206 44.6024C163.298 36.7865 155.482 43.2995 154.179 47.2082C152.877 51.1168 146.364 56.3269 141.154 41.9981C140.857 41.179 140.661 40.3337 140.508 39.4782C140.032 42.6029 140.127 45.6852 141.154 48.511C146.364 62.8399 152.878 57.6298 154.179 53.7211C155.482 49.8125 163.298 43.2995 167.206 51.1154C171.115 58.9313 168.509 68.05 175.022 66.7472C181.534 65.4443 184.14 53.7197 189.351 60.2342C194.561 66.7472 201.075 73.2616 204.982 68.05C208.891 62.8399 205.358 43.2995 211.683 45.9053C218.007 48.5111 221.916 48.511 221.916 41.9966C221.916 41.3276 221.75 40.204 221.397 38.7583C220.148 41.864 216.672 41.4472 211.683 39.3908Z" fill="#782900"/>
<path d="M148.951 27.6682C148.951 27.6682 165.885 9.43066 177.609 9.43066C189.333 9.43066 190.636 15.9437 184.122 15.9437C177.607 15.9437 165.885 17.2465 148.951 27.6682Z" fill="#B5663A"/>
<path d="M182.747 5.16013C208.375 5.16158 219.031 29.1354 221.376 38.7599C221.377 38.7657 221.379 38.7715 221.38 38.7773C221.641 39.8514 221.8 40.7492 221.863 41.4108C221.884 41.6338 221.895 41.8306 221.895 41.9982C221.895 45.3035 220.885 46.927 219.066 47.3875C217.029 66.329 200.996 81.0791 181.513 81.0791C180.693 81.0791 179.881 81.0441 179.072 80.9916C178.849 80.977 178.628 80.9595 178.406 80.9406C177.75 80.8867 177.099 80.8182 176.453 80.7307C176.293 80.7089 176.131 80.6928 175.972 80.6695C175.185 80.5544 174.407 80.413 173.636 80.2498C173.472 80.2148 173.311 80.174 173.148 80.1376C172.513 79.9933 171.882 79.8345 171.26 79.6581C171.079 79.6071 170.898 79.5576 170.717 79.5036C169.189 79.0489 167.702 78.4981 166.261 77.8612C166.114 77.7956 165.967 77.73 165.821 77.6615C165.143 77.3511 164.473 77.0247 163.817 76.6763C163.782 76.6574 163.746 76.6399 163.711 76.6224C162.986 76.2347 162.278 75.8223 161.583 75.3895C161.516 75.3472 161.449 75.3035 161.382 75.2612C160.744 74.8575 160.118 74.4363 159.506 73.9962C159.445 73.9525 159.384 73.9102 159.323 73.8651C157.986 72.893 156.719 71.8349 155.522 70.6997C155.484 70.6647 155.448 70.6283 155.41 70.5933C152.353 67.6683 149.788 64.2377 147.848 60.4325C147.265 59.2899 146.739 58.1138 146.273 56.9071C144.566 55.6275 142.784 53.0538 141.131 48.5097C140.932 47.9603 140.777 47.3992 140.645 46.8323C140.618 46.72 140.589 46.6078 140.565 46.4956C140.46 45.9914 140.381 45.4798 140.324 44.9654C140.301 44.7584 140.282 44.55 140.266 44.3401C140.237 43.9437 140.218 43.5444 140.215 43.1422C140.21 42.7676 140.219 42.3916 140.235 42.0142C140.242 41.8597 140.251 41.7038 140.261 41.5478C140.452 38.5631 141.238 35.4983 142.376 32.5354C148.036 17.8014 161.611 7.46423 177.272 5.50844C179.171 5.27234 180.993 5.15867 182.747 5.16013ZM182.747 1.25146H182.744C180.808 1.25146 178.804 1.37971 176.788 1.63037C159.473 3.79312 144.89 15.098 138.728 31.1334C137.361 34.6894 136.566 38.1099 136.362 41.2986C136.35 41.472 136.34 41.6557 136.331 41.8378C136.311 42.2984 136.3 42.7472 136.306 43.1932C136.311 43.6654 136.333 44.1492 136.368 44.6287C136.388 44.8983 136.411 45.1534 136.44 45.4084C136.512 46.0496 136.612 46.6894 136.738 47.2943C136.764 47.4196 136.792 47.5332 136.819 47.6469L136.84 47.7285C137.02 48.5082 137.223 49.2034 137.458 49.8461C139.033 54.1789 140.856 57.2758 143.007 59.2651C143.421 60.2619 143.876 61.2471 144.367 62.209C146.5 66.3917 149.307 70.1633 152.708 73.4176L152.807 73.5124C154.155 74.7905 155.566 75.9651 157.023 77.0261L157.173 77.1339C157.9 77.6557 158.597 78.125 159.294 78.5651L159.511 78.7035C160.305 79.1976 161.095 79.6552 161.864 80.0676L161.91 80.0924L162.01 80.1434C162.67 80.4947 163.393 80.8503 164.192 81.2146L164.68 81.4347C166.278 82.1415 167.934 82.7521 169.598 83.2476C169.751 83.2928 169.907 83.3365 170.063 83.3802L170.197 83.4181C170.888 83.612 171.589 83.7912 172.284 83.9472L172.433 83.9821C172.562 84.0128 172.692 84.0434 172.822 84.0711C173.68 84.2532 174.547 84.4092 175.4 84.5345C175.528 84.5534 175.655 84.5695 175.783 84.584L175.932 84.603C176.635 84.6977 177.36 84.7749 178.085 84.8347C178.345 84.8551 178.579 84.8755 178.818 84.8901C179.833 84.9542 180.688 84.9848 181.509 84.9848C202.141 84.9848 219.477 70.0453 222.668 49.9015C224.306 48.6379 225.799 46.3047 225.799 41.9967C225.799 41.7227 225.784 41.4006 225.749 41.0363C225.666 40.1648 225.477 39.1096 225.187 37.9044L225.181 37.8781L225.16 37.7936C221.863 24.2473 209.205 1.25292 182.747 1.25146Z" fill="#020700"/>
<path d="M169.792 45.906C167.213 46.2747 103.358 66.7493 109.872 69.3536C116.385 71.9594 174.999 54.4637 174.999 54.4637C174.999 54.4637 178.91 44.6031 169.792 45.906Z" fill="#FFD9A8"/>
<path d="M116.385 65.4445C115.955 65.2725 115.84 65.0218 115.984 64.7056C110.965 66.966 108.259 68.7075 109.872 69.3531C116.385 71.9589 174.999 54.4632 174.999 54.4632C174.999 54.4632 175.367 53.5319 175.614 52.2815C160.582 56.6288 121.624 67.5416 116.385 65.4445Z" fill="#C7975A"/>
<path opacity="0.41" d="M203.677 56.3252C202.856 56.3252 202.045 56.2902 201.236 56.2378C201.013 56.2232 200.791 56.2057 200.57 56.1868C199.914 56.1328 199.263 56.0644 198.617 55.9769C198.457 55.955 198.295 55.939 198.135 55.9157C197.348 55.8006 196.57 55.6592 195.799 55.496C195.634 55.461 195.474 55.4202 195.311 55.3838C194.674 55.2395 194.046 55.0806 193.422 54.9043C193.241 54.8533 193.059 54.8037 192.88 54.7498C191.351 54.2951 189.865 53.7442 188.423 53.1073C188.276 53.0418 188.129 52.9762 187.983 52.9091C187.306 52.5987 186.635 52.2723 185.979 51.9239C185.945 51.905 185.908 51.889 185.873 51.87C185.149 51.4824 184.441 51.0699 183.745 50.6371C183.678 50.5948 183.611 50.5511 183.544 50.5088C182.906 50.1052 182.281 49.684 181.669 49.2439C181.608 49.2001 181.546 49.1579 181.485 49.1141C180.149 48.1421 178.881 47.084 177.685 45.9487C177.647 45.9138 177.61 45.8773 177.572 45.8423C174.515 42.9174 171.95 39.4867 170.01 35.6815C169.428 34.539 168.9 33.3629 168.435 32.1561C166.729 30.878 164.946 28.3029 163.294 23.7602C163.094 23.2108 162.94 22.6497 162.807 22.0828C162.781 21.9706 162.752 21.8583 162.727 21.7461C162.622 21.2419 162.543 20.7304 162.486 20.2159C162.463 20.009 162.444 19.8005 162.428 19.5907C162.399 19.1943 162.38 18.795 162.377 18.3927C162.373 18.0182 162.382 17.6422 162.398 17.2647C162.405 17.1088 162.414 16.9543 162.424 16.7984C162.58 14.3587 163.148 11.8681 163.967 9.41968C154.228 14.0541 146.363 22.2081 142.395 32.5365C141.257 35.4994 140.471 38.5657 140.28 41.5489C140.27 41.7049 140.261 41.8593 140.254 42.0153C140.238 42.3927 140.229 42.7687 140.234 43.1433C140.238 43.5455 140.255 43.9434 140.285 44.3413C140.301 44.5497 140.32 44.7581 140.343 44.9665C140.4 45.4824 140.478 45.9924 140.583 46.4967C140.608 46.6104 140.637 46.7211 140.663 46.8333C140.795 47.4003 140.951 47.9614 141.15 48.5108C142.803 53.0549 144.585 55.6286 146.292 56.9082C146.758 58.1149 147.284 59.291 147.867 60.4336C149.808 64.2388 152.371 67.6694 155.429 70.5944C155.465 70.6293 155.503 70.6658 155.541 70.7007C156.737 71.836 158.005 72.8941 159.342 73.8661C159.403 73.9099 159.464 73.9536 159.525 73.9973C160.137 74.4375 160.762 74.8586 161.401 75.2623C161.468 75.3046 161.535 75.3483 161.602 75.3906C162.297 75.8234 163.005 76.2359 163.73 76.6235C163.764 76.6425 163.801 76.6585 163.836 76.6774C164.492 77.0257 165.161 77.3522 165.84 77.6626C165.985 77.7297 166.133 77.7967 166.28 77.8623C167.721 78.4991 169.207 79.05 170.736 79.5047C170.915 79.5587 171.098 79.6082 171.278 79.6592C171.902 79.8341 172.532 79.9944 173.167 80.1387C173.33 80.1751 173.492 80.2159 173.655 80.2509C174.426 80.4141 175.204 80.5555 175.991 80.6706C176.15 80.6939 176.312 80.71 176.472 80.7318C177.118 80.8178 177.769 80.8878 178.425 80.9417C178.646 80.9592 178.868 80.9781 179.091 80.9927C179.898 81.0437 180.71 81.0802 181.532 81.0802C198.839 81.0802 213.414 69.4357 217.884 53.5577C213.499 55.3371 208.705 56.3252 203.677 56.3252Z" fill="#782900"/>
<path d="M168.303 75.8364C176.202 56.5245 166.951 34.4655 147.64 26.5663C128.329 18.6671 106.271 27.919 98.3723 47.2309C90.4735 66.5428 99.7249 88.6018 119.036 96.501C138.347 104.4 160.404 95.1483 168.303 75.8364Z" fill="#FBC05A"/>
<path d="M160.478 35.2861C163.102 40.4307 164.591 46.2485 164.591 52.419C164.591 73.2828 147.678 90.197 126.815 90.197C116.155 90.197 106.532 85.7739 99.6641 78.6707C105.91 90.9199 118.635 99.3158 133.328 99.3158C154.19 99.3158 171.104 82.4015 171.104 61.5378C171.104 51.3347 167.052 42.0833 160.478 35.2861Z" fill="#EBA60D"/>
<path d="M118.999 79.7749C118.999 81.9332 117.249 83.6836 115.091 83.6836C112.932 83.6836 111.184 81.9332 111.184 79.7749C111.184 77.6165 112.934 75.8662 115.091 75.8662C117.249 75.8662 118.999 77.6165 118.999 79.7749Z" fill="#FFF790"/>
<path d="M129.076 23.7469C113.415 25.7027 99.84 36.0398 94.1799 50.7739C92.1236 56.1283 91.1429 61.8237 92.9339 66.7496C98.1437 81.0785 104.658 75.8684 105.959 71.9597C107.262 68.051 115.077 61.538 118.986 69.3539C122.894 77.1698 120.289 86.2886 126.801 84.9857C133.314 83.6828 135.92 71.9582 141.131 78.4727C146.341 84.9857 152.855 91.5002 156.762 86.2886C160.67 81.0785 157.138 61.538 163.463 64.1424C169.787 66.7481 173.696 66.7481 173.696 60.2337C173.697 54.8079 162.843 19.5307 129.076 23.7469Z" fill="#9B3F0C"/>
<path d="M163.46 57.6291C157.135 55.0233 160.666 74.5637 156.759 79.7738C152.851 84.9854 146.338 78.4709 141.128 71.9579C135.917 65.4449 133.313 77.1681 126.799 78.471C120.286 79.7738 122.892 70.6551 118.983 62.8392C115.075 55.0233 107.26 61.5363 105.957 65.445C104.654 69.3536 98.1412 74.5637 92.9314 60.2348C92.6341 59.4158 92.4388 58.5705 92.2858 57.715C91.8093 60.8397 91.904 63.9205 92.9314 66.7478C98.1412 81.0767 104.655 75.8666 105.957 71.9579C107.26 68.0493 115.075 61.5363 118.983 69.3522C122.892 77.1681 120.286 86.2868 126.799 84.9839C133.312 83.6811 135.917 71.9565 141.128 78.471C146.338 84.984 152.852 91.4984 156.759 86.2868C160.668 81.0767 157.135 61.5363 163.46 64.1406C169.785 66.7464 173.693 66.7464 173.693 60.2319C173.693 59.563 173.527 58.4394 173.174 56.9937C171.925 60.1037 168.45 59.6854 163.46 57.6291Z" fill="#782900"/>
<path d="M100.766 45.9058C100.766 45.9058 117.699 27.6682 129.423 27.6682C141.147 27.6682 142.449 34.1812 135.936 34.1812C129.423 34.1812 117.701 35.4841 100.766 45.9058Z" fill="#B5663A"/>
<path d="M134.555 23.3977C160.183 23.3977 170.839 47.3729 173.184 56.9974C173.185 57.0032 173.186 57.0091 173.188 57.0149C173.449 58.089 173.608 58.9867 173.67 59.6484C173.692 59.8714 173.702 60.0681 173.702 60.2357C173.702 63.541 172.692 65.1645 170.874 65.6251C168.836 84.5665 152.803 99.3166 133.321 99.3166C132.5 99.3166 131.689 99.2816 130.88 99.2292C130.657 99.2146 130.435 99.1971 130.214 99.1782C129.558 99.1242 128.907 99.0558 128.261 98.9683C128.101 98.9464 127.939 98.9304 127.78 98.9071C126.993 98.792 126.215 98.6506 125.444 98.4874C125.281 98.4524 125.119 98.4116 124.956 98.3751C124.319 98.2309 123.689 98.072 123.067 97.8957C122.887 97.8447 122.706 97.7951 122.525 97.7427C120.996 97.288 119.51 96.7371 118.069 96.1002C117.922 96.0346 117.776 95.9676 117.629 95.9005C116.951 95.5901 116.281 95.2637 115.625 94.9154C115.59 94.8964 115.553 94.8789 115.518 94.8614C114.794 94.4738 114.086 94.0613 113.391 93.6285C113.322 93.5862 113.257 93.5425 113.19 93.5002C112.551 93.0965 111.926 92.6754 111.314 92.2352C111.253 92.1915 111.192 92.1492 111.131 92.1055C109.794 91.1335 108.526 90.0754 107.33 88.9401C107.292 88.9051 107.256 88.8687 107.218 88.8337C104.16 85.9088 101.597 82.4781 99.6558 78.6729C99.0729 77.5289 98.5468 76.3543 98.0805 75.1476C96.374 73.868 94.5917 71.2942 92.9391 66.7502C92.7395 66.2007 92.585 65.6396 92.4524 65.0727C92.4262 64.9605 92.397 64.8483 92.3722 64.7361C92.2673 64.2318 92.1886 63.7203 92.1318 63.2058C92.1085 62.9989 92.0895 62.7905 92.0735 62.5806C92.0443 62.1842 92.0269 61.7849 92.0225 61.3827C92.0181 61.0081 92.0269 60.6336 92.0429 60.2546C92.0502 60.1002 92.0589 59.9442 92.0691 59.7883C92.26 56.8036 93.0455 53.7387 94.1836 50.7745C99.8438 36.0404 113.418 25.7032 129.08 23.7475C130.979 23.5084 132.8 23.3977 134.555 23.3977ZM134.555 19.489C132.615 19.489 130.612 19.6173 128.596 19.8679C111.281 22.0307 96.6975 33.3355 90.536 49.371C89.1691 52.927 88.3734 56.3474 88.1694 59.5362C88.1577 59.7096 88.1475 59.8932 88.1388 60.0769C88.1198 60.5374 88.1082 60.9863 88.1155 61.4308C88.1198 61.9044 88.1417 62.3868 88.1767 62.8663C88.1971 63.1359 88.2204 63.3909 88.2495 63.6459C88.321 64.2857 88.4215 64.9255 88.5483 65.5318C88.5745 65.6557 88.6022 65.7694 88.6299 65.8845L88.6489 65.9661C88.831 66.7472 89.0336 67.4424 89.2667 68.0851C90.8421 72.4179 92.6651 75.5148 94.8161 77.5041C95.23 78.4995 95.6847 79.4861 96.1758 80.448C98.3092 84.6321 101.116 88.4038 104.519 91.6581L104.637 91.7718C105.964 93.0324 107.375 94.2071 108.834 95.2666L108.984 95.3744C109.711 95.8962 110.408 96.3654 111.104 96.8056L111.329 96.9484C112.116 97.4381 112.906 97.8957 113.675 98.3081L113.72 98.3329L113.819 98.3839C114.481 98.7366 115.205 99.0922 116.002 99.4565L116.488 99.6751C118.089 100.383 119.745 100.993 121.409 101.49C121.566 101.536 121.725 101.581 121.885 101.625L122.011 101.66C122.7 101.854 123.401 102.032 124.095 102.189L124.243 102.224C124.373 102.255 124.501 102.285 124.632 102.313C125.494 102.495 126.361 102.651 127.212 102.776C127.339 102.795 127.464 102.81 127.591 102.826L127.741 102.845C128.449 102.94 129.173 103.017 129.898 103.077C130.169 103.098 130.399 103.117 130.632 103.132C131.645 103.196 132.499 103.227 133.321 103.227C153.953 103.227 171.289 88.2887 174.479 68.1434C176.117 66.8799 177.609 64.5466 177.609 60.2386C177.609 59.9661 177.595 59.6455 177.56 59.2811C177.477 58.4023 177.286 57.3428 176.993 56.1317L176.986 56.1041C173.672 42.4849 161.012 19.489 134.555 19.489Z" fill="#020700"/>
<path d="M118.993 61.5373C116.413 61.906 52.5589 82.3806 59.0715 84.9864C65.5842 87.5922 124.198 70.0964 124.198 70.0964C124.198 70.0964 128.111 60.2344 118.993 61.5373Z" fill="#FFD9A8"/>
<path d="M65.584 81.0776C65.1541 80.9056 65.039 80.6549 65.1832 80.3387C60.1643 82.5991 57.4581 84.3406 59.0714 84.9862C65.584 87.592 124.198 70.0963 124.198 70.0963C124.198 70.0963 124.567 69.165 124.813 67.9146C109.782 72.2604 70.8244 83.1733 65.584 81.0776Z" fill="#C7975A"/>
<path opacity="0.41" d="M155.457 74.5635C154.636 74.5635 153.824 74.5285 153.016 74.476C152.793 74.4615 152.571 74.444 152.35 74.425C151.694 74.3711 151.043 74.3026 150.397 74.2152C150.237 74.1933 150.075 74.1773 149.916 74.154C149.129 74.0388 148.351 73.8975 147.58 73.7342C147.415 73.6993 147.255 73.6584 147.092 73.622C146.456 73.4777 145.827 73.3189 145.203 73.1425C145.022 73.0915 144.842 73.042 144.661 72.9881C143.132 72.5334 141.646 71.9825 140.205 71.3456C140.057 71.28 139.91 71.2144 139.765 71.1459C139.087 70.8355 138.417 70.5091 137.761 70.1607C137.726 70.1418 137.689 70.1258 137.654 70.1068C136.93 69.7192 136.222 69.3067 135.527 68.8739C135.46 68.8316 135.393 68.7879 135.326 68.7456C134.687 68.342 134.062 67.9208 133.45 67.4807C133.389 67.4369 133.328 67.3947 133.266 67.3495C131.93 66.3774 130.662 65.3194 129.466 64.1841C129.428 64.1491 129.391 64.1127 129.354 64.0777C126.296 61.1527 123.733 57.7221 121.792 53.9169C121.209 52.7743 120.683 51.5982 120.216 50.3915C118.51 49.1119 116.728 46.5382 115.075 41.9941C114.875 41.4447 114.721 40.8836 114.588 40.3167C114.562 40.2045 114.533 40.0922 114.508 39.9786C114.403 39.4743 114.325 38.9628 114.268 38.4483C114.244 38.2414 114.225 38.033 114.209 37.8231C114.18 37.4267 114.161 37.0274 114.158 36.6251C114.154 36.2506 114.163 35.8746 114.179 35.4972C114.186 35.3427 114.195 35.1867 114.205 35.0308C114.361 32.5911 114.929 30.1005 115.748 27.6521C106.009 32.2865 98.1442 40.4405 94.176 50.7689C93.0378 53.7332 92.2523 56.7981 92.0614 59.7828C92.0512 59.9388 92.0425 60.0947 92.0352 60.2492C92.0192 60.6266 92.0104 61.0026 92.0148 61.3772C92.0192 61.7794 92.0367 62.1773 92.0658 62.5751C92.0818 62.7835 92.1008 62.9919 92.1241 63.2003C92.1809 63.7162 92.2596 64.2263 92.3646 64.7306C92.3879 64.8443 92.4185 64.955 92.4447 65.0672C92.5759 65.6342 92.7318 66.1952 92.9314 66.7447C94.584 71.2873 96.3663 73.8625 98.0728 75.142C98.5391 76.3488 99.0652 77.5249 99.6481 78.6674C101.589 82.4726 104.153 85.9033 107.21 88.8282C107.248 88.8632 107.284 88.8997 107.322 88.9346C108.519 90.0699 109.786 91.128 111.123 92.1C111.183 92.1438 111.245 92.186 111.306 92.2298C111.919 92.6699 112.544 93.0911 113.182 93.4947C113.249 93.537 113.315 93.5822 113.383 93.623C114.078 94.0558 114.786 94.4683 115.511 94.8559C115.546 94.8749 115.582 94.8924 115.617 94.9099C116.273 95.2582 116.942 95.5846 117.621 95.895C117.768 95.9621 117.914 96.0291 118.061 96.0947C119.502 96.7316 120.989 97.281 122.517 97.7372C122.697 97.7911 122.877 97.8406 123.06 97.8902C123.683 98.0651 124.313 98.2254 124.948 98.3697C125.111 98.4061 125.273 98.4483 125.436 98.4819C126.207 98.6451 126.985 98.7865 127.772 98.9016C127.933 98.9249 128.093 98.9409 128.253 98.9628C128.899 99.0488 129.55 99.1188 130.206 99.1727C130.428 99.1902 130.649 99.2091 130.872 99.2237C131.679 99.2747 132.493 99.3111 133.313 99.3111C150.62 99.3111 165.196 87.6667 169.665 71.7886C165.277 73.5754 160.483 74.5635 155.457 74.5635Z" fill="#782900"/>
<path d="M114.792 96.8621C125.665 79.0545 120.045 55.8031 102.239 44.9287C84.432 34.0542 61.1818 39.6747 50.308 57.4823C39.4341 75.2899 45.0543 98.5413 62.8609 109.416C80.6676 120.29 103.918 114.67 114.792 96.8621Z" fill="#FBC05A"/>
<path d="M109.675 50.9175C112.298 56.062 113.786 61.8813 113.786 68.0504C113.786 88.9141 96.8728 105.828 76.0102 105.828C65.3501 105.828 55.7276 101.405 48.8594 94.302C55.1053 106.551 67.8304 114.947 82.5229 114.947C103.385 114.947 120.299 98.0329 120.299 77.1691C120.299 66.9661 116.248 57.7147 109.675 50.9175Z" fill="#EBA60D"/>
<path d="M68.2041 95.4067C68.2041 97.5651 66.4539 99.3154 64.2957 99.3154C62.1374 99.3154 60.3887 97.5651 60.3887 95.4067C60.3887 93.2484 62.1389 91.498 64.2957 91.498C66.4554 91.4995 68.2041 93.2484 68.2041 95.4067Z" fill="#FFF790"/>
<path d="M78.2696 39.378C62.6081 41.3338 49.0334 51.6709 43.3732 66.405C41.317 71.7594 40.3362 77.4548 42.1273 82.3807C47.3385 96.7096 53.8512 91.4995 55.154 87.5923C56.4568 83.6836 64.2723 77.1706 68.1808 84.9865C72.0892 92.8024 69.4836 101.921 75.9962 100.618C82.5089 99.3154 85.1145 87.5923 90.3258 94.1053C95.5356 100.618 102.05 107.131 105.957 101.921C109.865 96.711 106.333 77.1706 112.657 79.7749C118.982 82.3807 122.89 82.3807 122.89 75.8662C122.89 70.439 112.037 35.1618 78.2696 39.378Z" fill="#9B3F0C"/>
<path d="M112.665 73.2621C106.34 70.6563 109.871 90.1968 105.964 95.4084C102.057 100.618 95.5429 94.1055 90.3331 87.5925C85.1218 81.0795 82.5176 92.8026 76.0035 94.1055C69.4909 95.4084 72.0965 86.2896 68.188 78.4737C64.2796 70.6578 56.4641 77.1708 55.1613 81.0795C53.8585 84.9881 47.3458 90.1982 42.1345 75.8679C41.8372 75.0489 41.642 74.2036 41.4889 73.3481C41.0124 76.4727 41.1071 79.5536 42.1345 82.3809C47.3458 96.7098 53.8585 91.4997 55.1613 87.5925C56.4641 83.6838 64.2796 77.1708 68.188 84.9867C72.0965 92.8026 69.4909 101.921 76.0035 100.618C82.5161 99.3156 85.1218 87.5925 90.3331 94.1055C95.5429 100.618 102.057 107.131 105.964 101.921C109.872 96.7112 106.34 77.1708 112.665 79.7751C118.989 82.3809 122.898 82.3809 122.898 75.8665C122.898 75.1975 122.732 74.0739 122.379 72.6282C121.13 75.7353 117.654 75.317 112.665 73.2621Z" fill="#782900"/>
<path d="M49.9648 61.5379C49.9648 61.5379 66.8986 43.3003 78.6225 43.3003C90.3465 43.3003 91.6478 49.8133 85.1352 49.8133C78.6225 49.8133 66.8986 51.1162 49.9648 61.5379Z" fill="#B5663A"/>
<path d="M83.7582 39.0295C109.386 39.0295 120.042 63.0048 122.387 72.6293C122.388 72.6351 122.39 72.6409 122.391 72.6468C122.652 73.7208 122.811 74.6186 122.873 75.2802C122.895 75.5032 122.905 75.6999 122.905 75.8675C122.905 79.1729 121.896 80.7964 120.077 81.2569C118.04 100.198 102.006 114.948 82.5239 114.948C81.7034 114.948 80.8917 114.913 80.0829 114.861C79.8599 114.846 79.6384 114.829 79.4169 114.81C78.7611 114.756 78.1097 114.688 77.4641 114.6C77.3038 114.578 77.1421 114.562 76.9832 114.539C76.1963 114.424 75.4181 114.282 74.6472 114.119C74.484 114.084 74.3222 114.043 74.159 114.007C73.5221 113.863 72.8926 113.704 72.2703 113.528C72.0896 113.477 71.9089 113.427 71.7282 113.373C70.1995 112.917 68.7131 112.367 67.2718 111.731C67.1246 111.665 66.9789 111.598 66.8317 111.531C66.1541 111.22 65.4837 110.894 64.8279 110.546C64.793 110.527 64.7565 110.511 64.7215 110.492C63.9973 110.104 63.289 109.692 62.5939 109.259C62.5269 109.217 62.4598 109.173 62.3928 109.131C61.7545 108.727 61.1293 108.306 60.5173 107.866C60.456 107.822 60.3948 107.78 60.3336 107.736C58.9973 106.764 57.7295 105.706 56.533 104.571C56.4951 104.536 56.4587 104.499 56.4208 104.464C53.3634 101.539 50.8 98.1085 48.8589 94.3033C48.276 93.1593 47.7499 91.9846 47.2836 90.7779C45.5771 89.4983 43.7948 86.9246 42.1422 82.3805C41.9426 81.8311 41.7881 81.27 41.6555 80.7031C41.6293 80.5909 41.6001 80.4787 41.5754 80.3665C41.4704 79.8622 41.3917 79.3507 41.3349 78.8362C41.3116 78.6278 41.2926 78.4209 41.2766 78.211C41.2475 77.8146 41.23 77.4153 41.2256 77.013C41.2212 76.6385 41.23 76.2625 41.246 75.885C41.2533 75.7291 41.262 75.5746 41.2722 75.4187C41.4631 72.434 42.2486 69.3691 43.3868 66.4048C49.0469 51.6708 62.6216 41.3336 78.2831 39.3778C80.182 39.1417 82.0036 39.0295 83.7582 39.0295ZM83.7582 35.1208C81.8185 35.1208 79.8147 35.2491 77.7993 35.4998C60.4837 37.6625 45.9006 48.9673 39.7392 65.0028C38.3722 68.5588 37.5765 71.9793 37.3725 75.168C37.3609 75.3458 37.3507 75.528 37.3419 75.7116C37.323 76.1678 37.3113 76.6166 37.3186 77.064C37.323 77.5377 37.3448 78.0215 37.3798 78.501C37.4002 78.7663 37.4235 79.0213 37.4527 79.2763C37.5241 79.919 37.6246 80.5588 37.7514 81.1651C37.7776 81.2904 37.8053 81.4041 37.833 81.5178L37.8534 81.6008C38.0356 82.3805 38.2381 83.0757 38.4699 83.7169C40.0452 88.0512 41.8683 91.1481 44.0192 93.1374C44.4331 94.1328 44.8878 95.1194 45.3774 96.0798C47.5109 100.264 50.3177 104.036 53.7204 107.29L53.8516 107.414C55.1675 108.663 56.5782 109.837 58.0369 110.898L58.1841 111.003C58.9157 111.528 59.6108 111.997 60.3074 112.437L60.5304 112.58C61.3188 113.071 62.1086 113.529 62.8781 113.941L62.9262 113.968L63.0282 114.019C63.6883 114.37 64.4126 114.725 65.2068 115.09L65.6906 115.308C67.2937 116.017 68.9492 116.627 70.6134 117.123C70.7664 117.168 70.9209 117.212 71.0768 117.255L71.2123 117.293C71.9016 117.487 72.6026 117.665 73.2992 117.822L73.4537 117.859C73.5819 117.889 73.7101 117.919 73.8398 117.946C74.6967 118.128 75.5638 118.284 76.4178 118.41C76.5431 118.429 76.6728 118.445 76.8025 118.459L76.9497 118.477C77.655 118.571 78.3793 118.649 79.1036 118.708C79.3484 118.729 79.5932 118.748 79.8381 118.764C80.8494 118.828 81.7049 118.859 82.5268 118.859C103.159 118.859 120.495 103.921 123.685 83.7753C125.323 82.5117 126.815 80.1784 126.815 75.8704C126.815 75.5965 126.801 75.2758 126.766 74.913C126.683 74.04 126.495 72.9892 126.205 71.7884L126.199 71.7621L126.176 71.6703C122.873 58.1167 110.214 35.1208 83.7582 35.1208Z" fill="#020700"/>
<path d="M64.2836 79.7753C61.7041 80.144 -2.15012 100.619 4.36253 103.224C10.8752 105.83 69.489 88.3345 69.489 88.3345C69.489 88.3345 73.4033 78.4724 64.2836 79.7753Z" fill="#FFD9A8"/>
<path d="M10.875 99.3151C10.4451 99.1431 10.33 98.8924 10.4743 98.5762C5.45534 100.837 2.74914 102.578 4.36237 103.224C10.875 105.83 69.4888 88.3338 69.4888 88.3338C69.4888 88.3338 69.8575 87.4025 70.1038 86.1521C55.0733 90.498 16.1154 101.411 10.875 99.3151Z" fill="#C7975A"/>
<path d="M65.8376 79.6548C70.8944 79.6548 70.6015 84.0561 70.0157 86.589C70.0128 86.6006 70.0099 86.6123 70.007 86.6254C69.9763 86.758 69.9443 86.8863 69.9122 87.0072C69.9108 87.0145 69.9093 87.0203 69.9064 87.0276C69.8029 87.4182 69.7024 87.7403 69.6251 87.9691C69.6237 87.9735 69.6222 87.9764 69.6208 87.9808C69.596 88.0536 69.5741 88.1148 69.5566 88.1658C69.5552 88.1688 69.5537 88.1717 69.5537 88.1717C69.5348 88.2227 69.5202 88.2649 69.51 88.2912C69.4998 88.316 69.494 88.3334 69.494 88.3334C69.494 88.3334 18.7204 103.489 6.43541 103.489C5.52023 103.489 4.81927 103.404 4.36751 103.223C4.26696 103.183 4.18244 103.137 4.11394 103.089C4.08771 103.07 4.0746 103.047 4.05274 103.027C4.01922 102.995 3.98133 102.964 3.95947 102.93C3.94053 102.901 3.93907 102.866 3.92887 102.836C3.92012 102.807 3.90409 102.779 3.90118 102.747C3.89972 102.709 3.91284 102.668 3.92013 102.627C3.92595 102.598 3.9245 102.571 3.93616 102.54C3.95364 102.493 3.98716 102.442 4.01631 102.393C4.03234 102.365 4.04108 102.34 4.06148 102.311C4.10229 102.254 4.15766 102.193 4.21304 102.132C4.2349 102.109 4.24947 102.087 4.27279 102.062C4.33837 101.995 4.41852 101.925 4.49867 101.853C4.52344 101.833 4.54093 101.813 4.56716 101.792C4.66043 101.715 4.76681 101.633 4.87757 101.552C4.89943 101.536 4.91837 101.52 4.94169 101.504C5.06264 101.416 5.19672 101.326 5.33662 101.234C5.35702 101.221 5.37305 101.209 5.39345 101.196C5.53918 101.101 5.69802 101.004 5.8627 100.905C5.8831 100.893 5.90059 100.881 5.92099 100.87C6.09732 100.765 6.28531 100.657 6.48059 100.548C6.49371 100.54 6.50391 100.535 6.51702 100.527C7.14803 100.176 7.88251 99.8001 8.70442 99.4037C8.70442 99.4037 8.70733 99.4022 8.71025 99.4007C8.97985 99.271 9.26111 99.1384 9.54965 99.0043C9.55548 99.0014 9.56277 98.9985 9.5686 98.9956C9.86151 98.8601 10.1632 98.7216 10.4736 98.5817C10.4736 98.5817 10.4765 98.5802 10.4794 98.5788C25.7271 91.7116 62.3474 80.0556 64.2871 79.7772C64.8525 79.6927 65.3684 79.6548 65.8376 79.6548ZM65.8376 75.7476C65.176 75.7476 64.4692 75.8 63.7362 75.905C61.0388 76.2897 23.6912 88.3393 8.87638 95.0111C8.54558 95.1598 8.22934 95.3041 7.92331 95.4469C7.59979 95.597 7.30396 95.7369 7.01833 95.8739C6.10607 96.3126 5.30018 96.7264 4.61817 97.1068L4.59194 97.1214L4.54385 97.1491C4.34711 97.2584 4.1256 97.3852 3.92013 97.5091L3.88806 97.528L3.8254 97.5673C3.6447 97.6752 3.4465 97.7976 3.2658 97.9157L3.21917 97.9463L3.1667 97.9827C2.97434 98.1095 2.80384 98.2261 2.65082 98.3383L2.59107 98.382L2.52841 98.4316C2.35936 98.5569 2.20198 98.6793 2.06353 98.7945L1.97318 98.8703L1.89157 98.9475C1.7371 99.0845 1.59574 99.2157 1.47624 99.3381L1.34946 99.4692L1.25473 99.5858C1.10463 99.7563 0.973477 99.9195 0.868552 100.068L0.699504 100.309L0.60041 100.503C0.495485 100.685 0.377443 100.911 0.273975 101.195L0.109302 101.645L0.0684951 101.992C0.0276909 102.216 -0.0160269 102.56 0.00583255 102.967L0.0422643 103.607L0.224426 104.075C0.324979 104.394 0.460508 104.69 0.633926 104.974C0.870008 105.357 1.12503 105.63 1.28242 105.781C1.45001 105.955 1.6278 106.11 1.82308 106.252C2.15388 106.491 2.52112 106.692 2.91896 106.852C3.84872 107.224 4.96646 107.397 6.43979 107.397C19.1503 107.397 68.5205 92.7056 70.6161 92.0789L72.4494 91.5324L73.1416 89.75L73.1489 89.7296L73.1722 89.6669L73.2334 89.4993L73.3223 89.2458C73.4272 88.9383 73.5569 88.5258 73.6881 88.0288C73.7347 87.8496 73.7755 87.6864 73.8149 87.5173C74.6674 83.8345 74.2127 80.7784 72.5106 78.6361C71.4613 77.3172 69.4532 75.7476 65.8376 75.7476Z" fill="#020700"/>
<path d="M69.97 61.2748C69.97 63.2889 68.3379 64.9211 66.3239 64.9211C64.3099 64.9211 62.6777 63.2889 62.6777 61.2748C62.6777 59.2607 64.3099 57.6284 66.3239 57.6284C68.3379 57.6284 69.97 59.2621 69.97 61.2748Z" fill="black"/>
<path d="M82.1729 64.71C82.1729 67.205 80.1502 69.2264 77.6568 69.2264C75.1633 69.2264 73.1406 67.2035 73.1406 64.71" stroke="black" stroke-width="1.0023" stroke-miterlimit="10" stroke-linecap="round"/>
<path d="M91.212 64.71C91.212 67.205 89.1893 69.2264 86.6958 69.2264C84.201 69.2264 82.1797 67.2035 82.1797 64.71" stroke="black" stroke-width="1.0023" stroke-miterlimit="10" stroke-linecap="round"/>
<path d="M69.1663 60.0808C69.1663 60.9508 68.461 61.6562 67.591 61.6562C66.7209 61.6562 66.0156 60.9508 66.0156 60.0808C66.0156 59.2107 66.7209 58.5068 67.591 58.5068C68.461 58.5068 69.1663 59.2107 69.1663 60.0808Z" fill="white"/>
<path d="M69.1615 66.9684C69.1615 67.8778 66.6477 68.6138 63.5466 68.6138C60.4455 68.6138 57.9316 67.8763 57.9316 66.9684C57.9316 66.059 60.4455 65.323 63.5466 65.323C66.6477 65.323 69.1615 66.059 69.1615 66.9684Z" fill="#C24855"/>
<path d="M95.1992 61.2748C95.1992 63.2889 96.8314 64.9211 98.8454 64.9211C100.859 64.9211 102.492 63.2889 102.492 61.2748C102.492 59.2607 100.859 57.6284 98.8454 57.6284C96.8328 57.6284 95.1992 59.2621 95.1992 61.2748Z" fill="black"/>
<path d="M98.4766 60.0808C98.4766 60.9508 99.1819 61.6562 100.05 61.6562C100.92 61.6562 101.626 60.9508 101.626 60.0808C101.626 59.2107 100.92 58.5068 100.05 58.5068C99.1819 58.5068 98.4766 59.2107 98.4766 60.0808Z" fill="white"/>
<path d="M96.0234 66.9684C96.0234 67.8778 98.5373 68.6138 101.638 68.6138C104.74 68.6138 107.253 67.8763 107.253 66.9684C107.253 66.059 104.74 65.323 101.638 65.323C98.5373 65.323 96.0234 66.059 96.0234 66.9684Z" fill="#C24855"/>
<path d="M127.302 45.6429C127.302 47.657 125.67 49.2893 123.656 49.2893C121.642 49.2893 120.01 47.657 120.01 45.6429C120.01 43.6288 121.642 41.9966 123.656 41.9966C125.67 41.9966 127.302 43.6288 127.302 45.6429Z" fill="black"/>
<path d="M139.483 49.0779C139.483 51.5729 137.46 53.5943 134.965 53.5943C132.47 53.5943 130.449 51.5714 130.449 49.0779" stroke="black" stroke-width="1.0023" stroke-miterlimit="10" stroke-linecap="round"/>
<path d="M148.512 49.0779C148.512 51.5729 146.49 53.5943 143.995 53.5943C141.5 53.5943 139.479 51.5714 139.479 49.0779" stroke="black" stroke-width="1.0023" stroke-miterlimit="10" stroke-linecap="round"/>
<path d="M126.479 44.4489C126.479 45.319 125.774 46.0244 124.904 46.0244C124.034 46.0244 123.33 45.319 123.33 44.4489C123.33 43.5789 124.035 42.8735 124.904 42.8735C125.774 42.8735 126.479 43.5789 126.479 44.4489Z" fill="white"/>
<path d="M120.863 52.9827C123.964 52.9827 126.478 52.246 126.478 51.3373C126.478 50.4286 123.964 49.6919 120.863 49.6919C117.762 49.6919 115.248 50.4286 115.248 51.3373C115.248 52.246 117.762 52.9827 120.863 52.9827Z" fill="#C24855"/>
<path d="M152.512 45.6429C152.512 47.657 154.144 49.2893 156.158 49.2893C158.172 49.2893 159.804 47.657 159.804 45.6429C159.804 43.6288 158.172 41.9966 156.158 41.9966C154.144 41.9966 152.512 43.6288 152.512 45.6429Z" fill="black"/>
<path d="M155.805 44.4489C155.805 45.319 156.51 46.0244 157.38 46.0244C158.25 46.0244 158.955 45.319 158.955 44.4489C158.955 43.5789 158.25 42.8735 157.38 42.8735C156.51 42.8735 155.805 43.5789 155.805 44.4489Z" fill="white"/>
<path d="M153.336 51.3373C153.336 52.2467 155.85 52.9827 158.951 52.9827C162.052 52.9827 164.566 52.2452 164.566 51.3373C164.566 50.4279 162.052 49.6919 158.951 49.6919C155.848 49.6904 153.336 50.4279 153.336 51.3373Z" fill="#C24855"/>
<path d="M172.898 27.4059C172.898 29.42 171.266 31.0522 169.252 31.0522C167.238 31.0522 165.605 29.42 165.605 27.4059C165.605 25.3918 167.238 23.7595 169.252 23.7595C171.266 23.7595 172.898 25.3918 172.898 27.4059Z" fill="black"/>
<path d="M185.09 30.8413C185.09 33.3363 183.068 35.3592 180.574 35.3592C178.079 35.3592 176.057 33.3363 176.057 30.8413" stroke="black" stroke-width="1.0023" stroke-miterlimit="10" stroke-linecap="round"/>
<path d="M194.12 30.8413C194.12 33.3363 192.097 35.3592 189.604 35.3592C187.109 35.3592 185.086 33.3363 185.086 30.8413" stroke="black" stroke-width="1.0023" stroke-miterlimit="10" stroke-linecap="round"/>
<path d="M172.059 26.2124C172.059 27.0824 171.354 27.7878 170.484 27.7878C169.614 27.7878 168.91 27.0824 168.91 26.2124C168.91 25.3423 169.615 24.637 170.484 24.637C171.354 24.637 172.059 25.3423 172.059 26.2124Z" fill="white"/>
<path d="M172.039 33.0985C172.039 34.0079 169.525 34.7439 166.424 34.7439C163.322 34.7439 160.809 34.0064 160.809 33.0985C160.809 32.1891 163.322 31.4531 166.424 31.4531C169.525 31.4531 172.039 32.1906 172.039 33.0985Z" fill="#C24855"/>
<path d="M198.092 27.4059C198.092 29.42 199.724 31.0522 201.738 31.0522C203.752 31.0522 205.384 29.42 205.384 27.4059C205.384 25.3918 203.752 23.7595 201.738 23.7595C199.724 23.7595 198.092 25.3918 198.092 27.4059Z" fill="black"/>
<path d="M201.402 26.2124C201.402 27.0824 202.108 27.7878 202.978 27.7878C203.848 27.7878 204.553 27.0824 204.553 26.2124C204.553 25.3423 203.848 24.637 202.978 24.637C202.108 24.637 201.402 25.3423 201.402 26.2124Z" fill="white"/>
<path d="M198.939 33.0985C198.939 34.0079 201.453 34.7439 204.554 34.7439C207.656 34.7439 210.169 34.0064 210.169 33.0985C210.169 32.1891 207.656 31.4531 204.554 31.4531C201.453 31.4531 198.939 32.1906 198.939 33.0985Z" fill="#C24855"/>
</svg>
