<svg width="232" height="108" viewBox="0 0 232 108" fill="none" xmlns="http://www.w3.org/2000/svg">
<path d="M169.916 21.5779L220.749 5.07088C221.544 4.81288 222.366 4.68188 223.194 4.68188C226.632 4.68188 229.655 6.87989 230.716 10.1519L230.777 10.3399C231.43 12.3489 231.261 14.4929 230.301 16.3759C229.341 18.2579 227.705 19.6539 225.696 20.3069L174.863 36.8139L169.916 21.5779Z" fill="#FFF4BD"/>
<path d="M223.193 5.18188C226.318 5.18188 229.223 7.17389 230.24 10.3059L230.301 10.4939C231.565 14.3869 229.434 18.5669 225.541 19.8319L175.183 36.1849L170.544 21.8999L220.902 5.54689C221.663 5.29989 222.435 5.18188 223.193 5.18188ZM223.194 4.18188C222.313 4.18188 221.439 4.32088 220.594 4.59488L170.236 20.9479L169.285 21.2569L169.594 22.2079L174.233 36.4929L174.542 37.4439L175.493 37.1349L225.851 20.7819C230.262 19.3499 232.685 14.5959 231.253 10.1839L231.192 9.99588C230.062 6.51888 226.848 4.18188 223.194 4.18188Z" fill="#6C4023"/>
<path d="M223.885 15.0498L173.621 31.3718L175.184 36.1838L225.448 19.8618C229.393 18.5808 231.552 14.3448 230.271 10.3998C229.996 9.55383 229.58 8.79684 229.065 8.13184C228.973 11.2118 226.984 14.0438 223.885 15.0498Z" fill="#EFD697"/>
<path d="M34.4565 106.9C19.7015 106.9 6.72454 97.4629 2.16354 83.4199C-3.62046 65.6089 6.16453 46.4149 23.9755 40.6309C27.3865 39.5229 30.9175 38.9619 34.4715 38.9619C49.2255 38.9619 62.2035 48.3989 66.7645 62.4429C72.5485 80.2529 62.7635 99.4479 44.9535 105.232C41.5415 106.338 38.0105 106.9 34.4565 106.9Z" fill="#FAA402"/>
<path d="M34.4701 39.4609C48.5761 39.4609 61.695 48.4539 66.288 62.5959C71.996 80.1719 62.3741 99.0469 44.7981 104.755C41.3641 105.87 37.8821 106.4 34.4571 106.4C20.3511 106.4 7.23206 97.4069 2.63906 83.2649C-3.06894 65.6889 6.55307 46.8139 24.1291 41.1059C27.5621 39.9909 31.0451 39.4609 34.4701 39.4609ZM34.4701 38.4609C30.8641 38.4609 27.2811 39.0309 23.8201 40.1549C5.74706 46.0239 -4.18094 65.5009 1.68806 83.5739C6.31606 97.8249 19.4851 107.4 34.4571 107.4C38.0631 107.4 41.6461 106.83 45.1071 105.706C53.8621 102.863 60.9851 96.7809 65.1661 88.5799C69.3461 80.3789 70.0831 71.0409 67.2401 62.2869C62.6111 48.0359 49.4421 38.4609 34.4701 38.4609Z" fill="#6C4023"/>
<path d="M51.5484 44.1699C53.9754 47.2199 55.9114 50.7449 57.1854 54.6709C62.8934 72.2469 53.2714 91.1219 35.6954 96.8299C26.1674 99.9239 16.2624 98.5059 8.27539 93.7659C16.7164 104.371 31.1464 109.188 44.7974 104.755C62.3734 99.0469 71.9954 80.1719 66.2874 62.5959C63.6744 54.5479 58.2954 48.1749 51.5484 44.1699Z" fill="#FA7702"/>
<path d="M17.1007 88.7828C18.5888 88.2995 19.4537 86.8564 19.0325 85.5595C18.6113 84.2625 17.0634 83.603 15.5753 84.0863C14.0872 84.5696 13.2223 86.0128 13.6435 87.3097C14.0647 88.6066 15.6126 89.2662 17.1007 88.7828Z" fill="#FED1D0"/>
<path d="M57.8409 75.5502C59.329 75.0669 60.1939 73.6237 59.7727 72.3268C59.3515 71.0299 57.8037 70.3703 56.3156 70.8536C54.8275 71.337 53.9626 72.7801 54.3838 74.077C54.805 75.3739 56.3528 76.0335 57.8409 75.5502Z" fill="#FED1D0"/>
<path d="M52.8011 64.198C53.2841 65.686 52.4701 67.284 50.9811 67.767C49.4921 68.25 47.8951 67.436 47.4121 65.947" stroke="#6C4023" stroke-miterlimit="10" stroke-linecap="round"/>
<path d="M19.8831 74.887C20.3661 76.375 19.5521 77.973 18.0631 78.457C16.5751 78.94 14.9771 78.126 14.4941 76.637" stroke="#6C4023" stroke-miterlimit="10" stroke-linecap="round"/>
<path d="M31.3711 76.793C32.0761 78.965 34.4091 80.154 36.5811 79.449C38.7531 78.744 39.9421 76.411 39.2371 74.239" stroke="#6C4023" stroke-miterlimit="10" stroke-linecap="round"/>
<path d="M93.6769 87.669C78.9219 87.669 65.9439 78.232 61.3839 64.189C55.6009 46.378 65.3849 27.184 83.1959 21.4C86.6069 20.292 90.1379 19.731 93.6919 19.731C108.446 19.731 121.424 29.168 125.985 43.212C128.787 51.839 128.061 61.042 123.942 69.124C119.822 77.206 112.802 83.199 104.174 86.001C100.761 87.108 97.2309 87.669 93.6769 87.669Z" fill="#FAA402"/>
<path d="M93.6903 20.23C107.796 20.23 120.915 29.223 125.508 43.365C131.216 60.941 121.594 79.816 104.018 85.524C100.584 86.639 97.1023 87.169 93.6773 87.169C79.5713 87.169 66.4523 78.176 61.8593 64.034C56.1513 46.458 65.7733 27.583 83.3493 21.875C86.7823 20.76 90.2643 20.23 93.6903 20.23ZM93.6903 19.23C90.0843 19.23 86.5013 19.8 83.0403 20.924C74.2853 23.767 67.1623 29.849 62.9813 38.05C58.8003 46.251 58.0643 55.589 60.9073 64.343C65.5353 78.594 78.7043 88.169 93.6763 88.169C97.2823 88.169 100.865 87.599 104.326 86.475C122.399 80.606 132.327 61.129 126.458 43.056C121.831 28.805 108.662 19.23 93.6903 19.23Z" fill="#6C4023"/>
<path d="M110.2 51.3701C111.765 51.3701 113.033 50.1017 113.033 48.5371C113.033 46.9725 111.765 45.7041 110.2 45.7041C108.636 45.7041 107.367 46.9725 107.367 48.5371C107.367 50.1017 108.636 51.3701 110.2 51.3701Z" fill="#6C4023"/>
<path d="M77.2841 62.0591C78.8488 62.0591 80.1172 60.7907 80.1172 59.2261C80.1172 57.6614 78.8488 56.3931 77.2841 56.3931C75.7195 56.3931 74.4512 57.6614 74.4512 59.2261C74.4512 60.7907 75.7195 62.0591 77.2841 62.0591Z" fill="#6C4023"/>
<path d="M110.769 24.9399C113.196 27.9899 115.132 31.5149 116.406 35.4409C122.114 53.0169 112.492 71.8919 94.9161 77.5999C85.3881 80.6939 75.4831 79.2759 67.4961 74.5359C75.9371 85.1409 90.3671 89.9579 104.018 85.5249C121.594 79.8169 131.216 60.9419 125.508 43.3659C122.895 35.3169 117.516 28.9439 110.769 24.9399Z" fill="#FA7702"/>
<path d="M76.3194 69.5494C77.8075 69.0661 78.6724 67.623 78.2512 66.3261C77.83 65.0292 76.2822 64.3696 74.7941 64.8529C73.306 65.3362 72.4411 66.7794 72.8623 68.0763C73.2835 69.3732 74.8313 70.0328 76.3194 69.5494Z" fill="#FED1D0"/>
<path d="M117.06 56.318C118.548 55.8347 119.413 54.3915 118.991 53.0946C118.57 51.7977 117.022 51.1382 115.534 51.6215C114.046 52.1048 113.181 53.5479 113.603 54.8448C114.024 56.1418 115.572 56.8013 117.06 56.318Z" fill="#FED1D0"/>
<path d="M90.5918 57.5618C91.2968 59.7338 93.6298 60.9228 95.8018 60.2168C97.9738 59.5118 99.1628 57.1788 98.4568 55.0068L90.5918 57.5618Z" stroke="#6C4023" stroke-miterlimit="10" stroke-linecap="round"/>
<path d="M152.896 68.439C138.141 68.438 125.164 59.002 120.603 44.958C117.801 36.331 118.527 27.128 122.646 19.046C126.766 10.964 133.786 4.971 142.414 2.169C145.825 1.061 149.356 0.5 152.91 0.5C167.664 0.5 180.643 9.936 185.203 23.98C190.986 41.791 181.202 60.985 163.391 66.769C159.98 67.876 156.449 68.438 152.897 68.438L152.896 68.439Z" fill="#FAA402"/>
<path d="M152.909 1C167.015 1 180.135 9.993 184.728 24.135C190.436 41.711 180.813 60.586 163.237 66.294C159.803 67.409 156.321 67.939 152.896 67.939C138.79 67.939 125.672 58.946 121.079 44.804C115.371 27.228 124.992 8.353 142.568 2.645C146.002 1.529 149.484 1 152.909 1ZM152.909 0C149.303 0 145.721 0.57 142.26 1.694C124.187 7.563 114.259 27.04 120.128 45.113C124.756 59.364 137.924 68.939 152.896 68.939C156.502 68.939 160.086 68.369 163.547 67.245C172.302 64.402 179.425 58.32 183.606 50.119C187.787 41.918 188.523 32.58 185.68 23.826C181.051 9.575 167.882 0 152.909 0Z" fill="#6C4023"/>
<path d="M169.988 5.70898C172.415 8.75898 174.351 12.284 175.625 16.21C181.333 33.786 171.711 52.661 154.135 58.369C144.607 61.463 134.702 60.045 126.715 55.305C135.156 65.91 149.586 70.727 163.237 66.294C180.813 60.586 190.435 41.711 184.727 24.135C182.114 16.086 176.735 9.71298 169.988 5.70898Z" fill="#FA7702"/>
<path d="M135.536 50.3163C137.024 49.833 137.889 48.3898 137.468 47.0929C137.047 45.796 135.499 45.1364 134.011 45.6198C132.523 46.1031 131.658 47.5462 132.079 48.8431C132.5 50.1401 134.048 50.7996 135.536 50.3163Z" fill="#FED1D0"/>
<path d="M176.276 37.0846C177.765 36.6013 178.629 35.1581 178.208 33.8612C177.787 32.5643 176.239 31.9048 174.751 32.3881C173.263 32.8714 172.398 34.3145 172.819 35.6115C173.241 36.9084 174.788 37.5679 176.276 37.0846Z" fill="#FED1D0"/>
<path d="M136.503 42.8291C138.068 42.8291 139.336 41.5607 139.336 39.9961C139.336 38.4315 138.068 37.1631 136.503 37.1631C134.938 37.1631 133.67 38.4315 133.67 39.9961C133.67 41.5607 134.938 42.8291 136.503 42.8291Z" fill="#6C4023"/>
<path d="M171.419 31.3141L167.176 30.0351L169.858 26.5081" stroke="#6C4023" stroke-miterlimit="10" stroke-linecap="round" stroke-linejoin="round"/>
<path d="M148.781 39.4349L159.157 36.0649" stroke="#6C4023" stroke-miterlimit="10" stroke-linecap="round"/>
<path d="M155.379 42.007L155.328 42.023C154.277 42.364 153.149 41.7891 152.808 40.7381L152.041 38.375L155.896 37.123L156.663 39.486C157.005 40.538 156.43 41.666 155.379 42.007Z" stroke="#6C4023" stroke-miterlimit="10" stroke-linecap="round"/>
<path d="M18.4405 66.2898C17.9595 66.2898 17.4825 66.2338 17.0255 66.1228C15.5025 65.7538 14.3605 64.8108 13.7245 63.3948C11.7665 59.0498 15.7385 50.9158 17.0025 48.5258C17.4415 47.6968 18.2985 47.1818 19.2375 47.1818C19.6465 47.1818 20.0535 47.2838 20.4165 47.4748C21.6475 48.1258 22.1205 49.6578 21.4685 50.8898C19.3055 54.9828 17.8285 59.8218 18.2945 61.2258C18.3615 61.2368 18.4235 61.2418 18.4875 61.2418C21.0005 61.2418 26.7565 55.4378 30.5655 51.5978C36.5615 45.5528 42.2115 39.8568 47.3135 39.8568C47.9885 39.8568 48.6485 39.9578 49.2755 40.1578C52.6925 41.2468 53.6855 44.9108 54.5615 48.1438C54.8925 49.3638 55.6655 52.2218 56.3005 52.3728C56.3265 52.3788 56.3725 52.3868 56.4435 52.3868C57.2135 52.3868 60.4665 51.5598 70.0025 40.9158C80.4135 29.2968 87.8166 23.6488 92.6356 23.6488C93.6156 23.6488 94.5095 23.8738 95.3665 24.3358C99.9735 26.8198 98.5885 34.2038 97.7795 37.2638C97.7675 37.3078 97.7565 37.3508 97.7465 37.3928C100.85 36.4018 109.453 30.6138 116.656 20.8668C122.736 12.6398 130.628 7.11283 136.292 7.11283C137.333 7.11283 138.289 7.29884 139.133 7.66484C141.1 8.51684 144.191 11.0798 142.8 18.6618C142.41 20.7848 142.637 21.7238 142.774 21.9458C142.848 21.9618 142.932 21.9688 143.025 21.9688C146.114 21.9688 155.004 14.7128 157.979 7.85183C158.379 6.92783 159.29 6.32983 160.297 6.32983C160.644 6.32983 160.982 6.39983 161.302 6.53883C161.921 6.80783 162.399 7.30084 162.647 7.92884C162.895 8.55684 162.883 9.24284 162.615 9.86283C159.68 16.6298 149.683 26.9998 142.907 26.9998C142.315 26.9998 141.753 26.9198 141.237 26.7628C139.447 26.2178 136.623 24.3228 137.83 17.7488C138.253 15.4468 138.289 12.8068 137.124 12.3008C136.891 12.1998 136.594 12.1488 136.242 12.1488C132.917 12.1488 126.347 16.2568 120.72 23.8718C114.928 31.7078 103.399 42.5628 96.8145 42.5638C96.0845 42.5638 95.4255 42.4258 94.8585 42.1528C93.6665 41.5808 91.8256 40.0168 92.8946 35.9728C93.9926 31.8218 93.5265 29.0878 92.9695 28.7848C92.9665 28.7848 92.8695 28.7508 92.6665 28.7508C91.4995 28.7508 86.6845 29.8708 73.7665 44.2888C66.8945 51.9588 62.2345 55.8978 58.6555 57.0598C57.8805 57.3118 57.1305 57.4398 56.4275 57.4398C55.9865 57.4398 55.5515 57.3898 55.1345 57.2908C51.5765 56.4468 50.5715 52.7398 49.6855 49.4688C49.2555 47.8828 48.5365 45.2278 47.7415 44.9748C47.6015 44.9298 47.4435 44.9078 47.2705 44.9078C44.3205 44.9078 38.2095 51.0708 34.1655 55.1488C28.2305 61.1278 23.1105 66.2888 18.4405 66.2898Z" fill="#FFF4BD"/>
<path d="M160.299 6.82788C160.568 6.82788 160.842 6.88188 161.105 6.99588C162.132 7.44088 162.603 8.63488 162.158 9.66188C159.108 16.6939 149.268 26.4979 142.908 26.4979C142.373 26.4979 141.863 26.4289 141.384 26.2829C139.753 25.7869 137.186 24.0299 138.323 17.8379C138.607 16.2889 139.08 12.6019 137.324 11.8409C137.026 11.7119 136.663 11.6469 136.243 11.6469C132.952 11.6469 126.195 15.6209 120.319 23.5729C114.237 31.8019 102.882 42.0619 96.8165 42.0619C96.1725 42.0619 95.5885 41.9459 95.0765 41.7009C94.0235 41.1959 92.4024 39.7959 93.3794 36.0989C94.4744 31.9559 94.1434 28.8469 93.2074 28.3429C93.1774 28.3269 93.0154 28.2489 92.6674 28.2489C91.1584 28.2489 86.1595 29.7069 73.3955 43.9529C66.6715 51.4579 62.0365 55.4339 58.5025 56.5819C57.7665 56.8209 57.0784 56.9369 56.4284 56.9369C56.0214 56.9369 55.6294 56.8909 55.2504 56.8019C51.9824 56.0259 51.0184 52.4719 50.1684 49.3349C49.6244 47.3279 48.9474 44.8309 47.8934 44.4959C47.7004 44.4349 47.4924 44.4049 47.2714 44.4049C44.1174 44.4049 38.2055 50.3629 33.8105 54.7939C27.9965 60.6549 22.9044 65.7899 18.4414 65.7899C18.0024 65.7899 17.5705 65.7399 17.1445 65.6369C15.7775 65.3059 14.7524 64.4599 14.1814 63.1899C12.2674 58.9409 16.5654 50.4249 17.4464 48.7599C17.8104 48.0729 18.5134 47.6819 19.2394 47.6819C19.5584 47.6819 19.8824 47.7579 20.1844 47.9169C21.1734 48.4399 21.5514 49.6659 21.0284 50.6559C18.9304 54.6269 17.1634 59.9429 17.8774 61.5259C17.9234 61.6279 17.9374 61.6589 18.0994 61.6969C18.2224 61.7269 18.3534 61.7409 18.4904 61.7409C21.2144 61.7409 26.8004 56.1059 30.9334 51.9379C36.8224 45.9999 42.4204 40.3559 47.3164 40.3559C47.9314 40.3559 48.5344 40.4449 49.1264 40.6329C52.2834 41.6389 53.2384 45.1639 54.0814 48.2729C54.5804 50.1149 55.2644 52.6379 56.1864 52.8569C56.2524 52.8729 56.3374 52.8839 56.4454 52.8839C57.5464 52.8839 61.0284 51.6809 70.3764 41.2469C82.8594 27.3159 89.1084 24.1469 92.6374 24.1469C93.6734 24.1469 94.4755 24.4199 95.1315 24.7739C99.4245 27.0889 98.0764 34.1889 97.2984 37.1339C97.1894 37.5459 97.1474 37.8389 97.1334 38.0359C99.7534 37.8109 109.309 31.6479 117.059 21.1619C123.166 12.8999 130.874 7.60988 136.293 7.60988C137.253 7.60988 138.141 7.77588 138.935 8.11988C140.766 8.91288 143.638 11.3259 142.308 18.5669C141.832 21.1599 142.212 22.2959 142.563 22.4029C142.7 22.4449 142.855 22.4649 143.026 22.4649C146.279 22.4649 155.367 15.1289 158.439 8.04688C158.77 7.28488 159.515 6.82788 160.299 6.82788ZM160.299 5.82788C159.092 5.82788 158.001 6.54388 157.521 7.65088C154.581 14.4309 145.954 21.2659 143.146 21.4619C143.076 21.1029 143.009 20.2919 143.292 18.7489C144.746 10.8269 141.436 8.11488 139.333 7.20288C138.426 6.80988 137.403 6.60988 136.293 6.60988C130.478 6.60988 122.425 12.2189 116.255 20.5669C109.672 29.4749 101.976 35.0319 98.4635 36.5919C99.2835 33.0779 100.151 26.3439 95.6065 23.8929C94.6745 23.3899 93.7034 23.1459 92.6374 23.1459C87.6684 23.1459 80.1435 28.8479 69.6325 40.5789C60.1225 51.1929 57.0405 51.8669 56.4685 51.8829C55.9675 51.4059 55.3254 49.0389 55.0474 48.0109C54.1824 44.8209 53.1074 40.8519 49.4304 39.6799C48.7544 39.4649 48.0435 39.3549 47.3175 39.3549C42.0065 39.3549 36.2854 45.1229 30.2285 51.2289C26.7985 54.6879 21.1534 60.3789 18.7124 60.7239C18.6064 59.1929 19.8604 55.0099 21.9144 51.1219C22.6944 49.6469 22.1284 47.8119 20.6534 47.0319C20.2184 46.8019 19.7304 46.6809 19.2404 46.6809C18.1154 46.6809 17.0904 47.2979 16.5634 48.2909C15.2724 50.7319 11.2194 59.0459 13.2704 63.5999C13.9734 65.1619 15.2324 66.2019 16.9104 66.6079C17.4054 66.7279 17.9214 66.7889 18.4424 66.7889C23.3204 66.7889 28.5084 61.5579 34.5164 55.5019C38.2644 51.7219 44.5304 45.4039 47.2714 45.4039C47.3924 45.4039 47.4994 45.4189 47.5904 45.4479C48.1594 45.7439 48.8904 48.4429 49.2024 49.5949C50.0804 52.8329 51.1714 56.8609 55.0184 57.7749C55.4734 57.8829 55.9474 57.9379 56.4274 57.9379C57.1824 57.9379 57.9844 57.8019 58.8104 57.5339C62.4774 56.3429 67.2054 52.3609 74.1394 44.6209C87.2484 29.9899 91.8734 29.2489 92.6674 29.2489C92.6914 29.2489 92.7125 29.2499 92.7305 29.2509C93.0615 29.7729 93.3905 32.1449 92.4125 35.8429C91.2075 40.3989 93.5714 42.0869 94.6434 42.6019C95.2794 42.9069 96.0105 43.0619 96.8165 43.0619C103.565 43.0619 115.269 32.0889 121.123 24.1669C126.996 16.2209 133.5 12.6469 136.243 12.6469C136.522 12.6469 136.758 12.6859 136.926 12.7579C137.53 13.0199 137.866 14.7869 137.339 17.6569C136.014 24.8719 139.522 26.7619 141.092 27.2389C141.655 27.4109 142.266 27.4979 142.907 27.4979C150.099 27.4979 160.1 16.9199 163.075 10.0599C163.397 9.31788 163.41 8.49588 163.113 7.74388C162.816 6.99188 162.244 6.40088 161.502 6.07888C161.119 5.91288 160.714 5.82788 160.299 5.82788Z" fill="#6C4023"/>
</svg>
