<svg width="186" height="182" viewBox="0 0 186 182" fill="none" xmlns="http://www.w3.org/2000/svg">
<path opacity="0.24" d="M100.506 6.15072C116.45 19.5146 147.472 47.0556 175.184 80.6724C180.35 86.9387 180.405 95.9816 175.339 102.329C162.255 118.725 134.864 150.629 100.188 177.583C94.0119 182.384 85.3793 182.422 79.1392 177.706C62.6177 165.218 29.9015 138.215 3.39692 102.252C-1.28384 95.9013 -1.11813 87.2068 3.83759 81.0677C16.8902 64.8996 44.6635 32.6709 78.7119 5.77477C85.1296 0.705214 94.2377 0.897089 100.506 6.15072Z" fill="#663202"/>
<path d="M106.127 4.5359C122.071 17.8997 153.093 45.4403 180.805 79.0576C185.971 85.3239 186.026 94.3668 180.96 100.714C167.876 117.11 140.485 149.014 105.809 175.968C99.6329 180.768 91.0003 180.807 84.7603 176.09C68.2387 163.602 35.5225 136.6 9.01796 100.637C4.3372 94.286 4.50291 85.5915 9.45909 79.4524C22.5117 63.2843 50.285 31.0556 84.3334 4.15949C90.7511 -0.910074 99.8588 -0.718197 106.127 4.5359Z" fill="#FFE9B7"/>
<path d="M106.127 4.5359C122.071 17.8997 153.093 45.4403 180.805 79.0576C185.971 85.3239 186.026 94.3668 180.96 100.714C167.876 117.11 140.485 149.014 105.809 175.968C99.6329 180.768 91.0003 180.807 84.7603 176.09C68.2387 163.602 35.5225 136.6 9.01796 100.637C4.3372 94.286 4.50291 85.5915 9.45909 79.4524C22.5117 63.2843 50.285 31.0556 84.3334 4.15949C90.7511 -0.910074 99.8588 -0.718197 106.127 4.5359Z" stroke="#331012" stroke-width="0.946801" stroke-miterlimit="10" stroke-linecap="round" stroke-linejoin="round"/>
<path opacity="0.16" d="M135.752 136.741C159.909 112.585 159.909 73.4188 135.752 49.262C111.596 25.1052 72.4297 25.1052 48.2729 49.262C24.1162 73.4188 24.1161 112.585 48.2729 136.741C72.4297 160.898 111.596 160.898 135.752 136.741Z" fill="#331012"/>
<path d="M138.909 133.585C163.065 109.428 163.065 70.2625 138.909 46.1057C114.752 21.9489 75.586 21.9489 51.4292 46.1057C27.2724 70.2625 27.2724 109.428 51.4292 133.585C75.586 157.742 114.752 157.742 138.909 133.585Z" fill="#EB9C47"/>
<path opacity="0.16" d="M130.501 125.179C150.015 105.665 150.015 74.026 130.501 54.5118C110.987 34.9975 79.348 34.9975 59.8337 54.5118C40.3194 74.026 40.3194 105.665 59.8337 125.179C79.348 144.693 110.987 144.693 130.501 125.179Z" fill="#331012"/>
<path d="M138.909 133.585C163.065 109.428 163.065 70.2625 138.909 46.1057C114.752 21.9489 75.586 21.9489 51.4292 46.1057C27.2724 70.2625 27.2724 109.428 51.4292 133.585C75.586 157.742 114.752 157.742 138.909 133.585Z" stroke="#331012" stroke-width="0.946801" stroke-miterlimit="10" stroke-linecap="round" stroke-linejoin="round"/>
<path d="M95.1694 146.654C126.544 146.654 151.978 121.22 151.978 89.8454C151.978 58.4712 126.544 33.0374 95.1694 33.0374C63.7952 33.0374 38.3613 58.4712 38.3613 89.8454C38.3613 121.22 63.7952 146.654 95.1694 146.654Z" stroke="white" stroke-width="0.946801" stroke-miterlimit="10" stroke-linecap="round" stroke-linejoin="round"/>
<path d="M141.273 90.1593C141.273 115.565 120.601 136.237 95.1949 136.237C69.7893 136.237 49.1172 115.565 49.1172 90.1593C49.1172 64.7536 69.7893 44.0815 95.1949 44.0815C95.8325 44.0815 96.4637 44.0939 97.0884 44.1256C112.673 44.7504 126.288 53.1644 134.146 65.5675C134.153 65.5799 134.159 65.5927 134.171 65.6116C134.203 65.6556 134.234 65.7061 134.26 65.7566C134.279 65.7819 134.292 65.8135 134.311 65.8452C138.723 72.9024 141.273 81.2407 141.273 90.1593Z" fill="#A5AA33"/>
<path opacity="0.44" d="M141.273 90.1593C141.273 115.565 120.601 136.237 95.1949 136.237C69.7893 136.237 49.1172 115.565 49.1172 90.1593C49.1172 64.7536 69.7893 44.0815 95.1949 44.0815C95.8325 44.0815 96.4637 44.0939 97.0884 44.1256C78.1653 47.3448 54.3814 61.7488 58.2694 90.3484C62.1574 118.954 96.2741 137.278 123.365 120.305C149.787 103.755 136.431 69.6639 134.311 65.8452C138.723 72.9024 141.273 81.2407 141.273 90.1593Z" fill="#587A1B"/>
<path d="M95.1949 136.237C120.643 136.237 141.273 115.607 141.273 90.1593C141.273 64.7113 120.643 44.0815 95.1949 44.0815C69.7469 44.0815 49.1172 64.7113 49.1172 90.1593C49.1172 115.607 69.7469 136.237 95.1949 136.237Z" stroke="#331012" stroke-width="0.946801" stroke-miterlimit="10" stroke-linecap="round" stroke-linejoin="round"/>
<path d="M94.7678 114.099C94.3219 114.099 93.909 113.946 93.5102 113.798C93.1888 113.679 92.8853 113.566 92.5886 113.542C92.5404 113.538 92.4916 113.536 92.4428 113.536C92.1741 113.536 91.8886 113.589 91.5862 113.644C91.276 113.701 90.9552 113.759 90.6405 113.759C90.5233 113.759 90.4077 113.751 90.295 113.732C89.8574 113.66 89.4996 113.442 89.1529 113.231C88.8775 113.063 88.6172 112.905 88.3379 112.833C88.1101 112.775 87.8426 112.767 87.6115 112.767L87.055 112.773C86.7196 112.773 86.3651 112.757 86.0426 112.644C85.6331 112.499 85.3476 112.225 85.0722 111.96C84.8573 111.754 84.6543 111.559 84.4086 111.446C84.1539 111.329 83.8011 111.275 83.46 111.223C83.0253 111.158 82.5755 111.089 82.2254 110.885C81.8614 110.671 81.6544 110.339 81.4721 110.047C81.3274 109.814 81.1905 109.594 80.992 109.449C80.7855 109.298 80.4608 109.189 80.1472 109.085C79.7388 108.949 79.3165 108.808 79.0293 108.544C78.728 108.269 78.6248 107.904 78.534 107.584C78.4644 107.338 78.3988 107.106 78.2557 106.941C78.1065 106.767 77.8272 106.611 77.5568 106.461C77.1945 106.259 76.8198 106.049 76.6117 105.734C76.3951 105.405 76.4052 105.029 76.4142 104.696C76.4209 104.449 76.4271 104.215 76.343 104.037C76.256 103.855 76.0361 103.662 75.8236 103.475C75.5257 103.212 75.2178 102.942 75.1072 102.585C74.9951 102.223 75.1196 101.859 75.2301 101.537C75.3131 101.295 75.3911 101.067 75.363 100.882C75.3355 100.702 75.1841 100.483 75.0371 100.271C74.8223 99.96 74.5996 99.6391 74.5996 99.2616V81.9648C74.5996 81.81 74.7253 81.6843 74.8801 81.6843H114.654C114.809 81.6843 114.935 81.81 114.935 81.9648V99.2616C114.935 99.6391 114.713 99.96 114.498 100.271C114.351 100.482 114.2 100.702 114.172 100.882C114.144 101.067 114.222 101.295 114.305 101.537C114.415 101.858 114.541 102.223 114.428 102.585C114.317 102.941 114.009 103.212 113.712 103.475C113.499 103.662 113.279 103.855 113.192 104.038C113.107 104.215 113.114 104.449 113.12 104.697C113.13 105.029 113.14 105.405 112.923 105.735C112.715 106.05 112.34 106.26 111.977 106.462C111.707 106.613 111.428 106.769 111.278 106.941C111.136 107.107 111.07 107.339 111.001 107.584C110.909 107.906 110.806 108.27 110.505 108.546C110.218 108.809 109.796 108.951 109.387 109.086C109.073 109.191 108.748 109.299 108.542 109.45C108.343 109.596 108.207 109.815 108.062 110.048C107.88 110.341 107.673 110.673 107.308 110.886C106.958 111.09 106.509 111.158 106.074 111.225C105.733 111.277 105.379 111.33 105.125 111.447C104.879 111.56 104.677 111.755 104.461 111.962C104.185 112.226 103.9 112.5 103.491 112.645C103.169 112.758 102.815 112.774 102.481 112.774L101.921 112.768C101.69 112.768 101.423 112.776 101.195 112.834C100.916 112.906 100.656 113.064 100.38 113.232C100.034 113.442 99.6771 113.66 99.2395 113.733C99.1268 113.752 99.0112 113.76 98.894 113.76C98.5799 113.76 98.259 113.702 97.9483 113.644C97.6459 113.589 97.361 113.537 97.0917 113.537C97.0429 113.537 96.9941 113.538 96.9459 113.542C96.6497 113.566 96.3463 113.679 96.0243 113.799C95.6266 113.946 95.2143 114.099 94.7678 114.099Z" fill="#FAA402"/>
<path d="M114.656 81.9647V99.2615C114.656 99.804 113.976 100.313 113.896 100.839C113.814 101.377 114.322 101.983 114.161 102.501C113.998 103.028 113.18 103.414 112.94 103.916C112.697 104.424 113.006 105.099 112.69 105.579C112.37 106.063 111.456 106.306 111.067 106.758C110.676 107.212 110.772 107.92 110.316 108.338C109.859 108.757 108.894 108.844 108.377 109.223C107.859 109.602 107.739 110.308 107.167 110.643C106.596 110.977 105.629 110.906 105.008 111.192C104.391 111.476 104.06 112.146 103.398 112.379C103.126 112.475 102.809 112.493 102.481 112.493C102.296 112.493 102.108 112.487 101.922 112.487C101.643 112.487 101.37 112.499 101.126 112.562C100.44 112.738 99.9127 113.336 99.1941 113.456C99.0965 113.472 98.9961 113.479 98.8946 113.479C98.3152 113.479 97.6791 113.255 97.0912 113.255C97.0346 113.255 96.979 113.257 96.9235 113.262C96.2038 113.321 95.5083 113.818 94.7673 113.818C94.0263 113.818 93.3308 113.32 92.6111 113.262C92.5556 113.257 92.4995 113.255 92.4434 113.255C91.8555 113.255 91.22 113.479 90.6405 113.479C90.5385 113.479 90.4386 113.472 90.341 113.456C89.6219 113.336 89.0946 112.738 88.4086 112.562C88.164 112.499 87.8914 112.487 87.6121 112.487C87.427 112.487 87.2391 112.492 87.0545 112.492C86.7264 112.492 86.4089 112.475 86.1368 112.379C85.4755 112.146 85.1446 111.476 84.527 111.191C83.9066 110.905 82.939 110.976 82.368 110.642C81.7958 110.308 81.6758 109.601 81.1586 109.223C80.6414 108.844 79.6761 108.756 79.2195 108.337C78.7634 107.919 78.8599 107.211 78.4695 106.757C78.0808 106.305 77.1659 106.063 76.8473 105.579C76.5309 105.099 76.8406 104.424 76.5971 103.916C76.357 103.414 75.5398 103.028 75.376 102.501C75.215 101.984 75.7232 101.377 75.6413 100.839C75.5611 100.313 74.8812 99.8034 74.8812 99.2615V81.9647H114.656ZM114.656 81.4038H74.8812C74.5716 81.4038 74.3203 81.6551 74.3203 81.9647V99.2615C74.3203 99.7266 74.5789 100.1 74.8072 100.43C74.9295 100.607 75.0686 100.807 75.0865 100.924C75.1045 101.041 75.0338 101.246 74.9659 101.445C74.8476 101.79 74.7006 102.219 74.8403 102.668C74.9744 103.099 75.3277 103.41 75.6391 103.684C75.8214 103.845 76.0283 104.027 76.0906 104.157C76.1461 104.273 76.1405 104.474 76.1349 104.687C76.1254 105.042 76.113 105.484 76.3784 105.887C76.6241 106.26 77.029 106.486 77.4211 106.705C77.6702 106.844 77.9271 106.987 78.0438 107.122C78.1458 107.241 78.2008 107.435 78.2648 107.659C78.3607 107.999 78.4807 108.421 78.8403 108.751C79.1718 109.054 79.6228 109.205 80.0586 109.35C80.352 109.449 80.656 109.55 80.8271 109.675C80.9819 109.789 81.0986 109.976 81.2343 110.194C81.434 110.515 81.6606 110.878 82.0847 111.126C82.4807 111.358 82.9575 111.43 83.4186 111.5C83.7406 111.549 84.0732 111.6 84.292 111.701C84.4944 111.794 84.6728 111.965 84.8787 112.163C85.1619 112.435 85.4828 112.743 85.9501 112.908C86.313 113.036 86.7118 113.053 87.0545 113.053C87.1493 113.053 87.2452 113.052 87.3412 113.05C87.4315 113.049 87.5223 113.048 87.6121 113.048C87.8258 113.048 88.0715 113.054 88.2695 113.105C88.5084 113.166 88.7513 113.315 89.0082 113.471C89.3599 113.685 89.7582 113.928 90.249 114.01C90.3735 114.03 90.502 114.04 90.6411 114.04C90.981 114.04 91.3148 113.979 91.6373 113.92C91.9268 113.866 92.1999 113.817 92.4439 113.817C92.4849 113.817 92.5258 113.818 92.5662 113.821C92.8242 113.842 93.1098 113.948 93.4127 114.061C93.8148 114.21 94.2709 114.379 94.7679 114.379C95.2648 114.379 95.7209 114.21 96.1231 114.061C96.426 113.948 96.7115 113.842 96.9695 113.821C97.0099 113.818 97.0508 113.817 97.0918 113.817C97.3358 113.817 97.609 113.866 97.8984 113.92C98.2215 113.979 98.5553 114.04 98.8952 114.04C99.0343 114.04 99.1622 114.03 99.2867 114.01C99.7775 113.928 100.176 113.685 100.527 113.472C100.784 113.315 101.027 113.167 101.266 113.106C101.464 113.055 101.709 113.048 101.923 113.048C102.012 113.048 102.103 113.049 102.194 113.051C102.29 113.053 102.386 113.054 102.481 113.054C102.824 113.054 103.223 113.036 103.586 112.908C104.052 112.743 104.373 112.436 104.656 112.163C104.862 111.965 105.041 111.795 105.243 111.701C105.462 111.6 105.795 111.55 106.117 111.501C106.578 111.431 107.054 111.359 107.45 111.127C107.875 110.879 108.101 110.515 108.301 110.195C108.437 109.977 108.554 109.789 108.708 109.676C108.88 109.55 109.183 109.449 109.477 109.351C109.913 109.206 110.364 109.055 110.695 108.751C111.054 108.422 111.174 107.999 111.27 107.66C111.334 107.435 111.389 107.242 111.491 107.123C111.608 106.987 111.866 106.844 112.114 106.705C112.506 106.486 112.912 106.26 113.157 105.888C113.422 105.485 113.41 105.043 113.4 104.688C113.395 104.475 113.389 104.274 113.445 104.158C113.507 104.027 113.714 103.845 113.896 103.684C114.208 103.41 114.561 103.099 114.695 102.668C114.835 102.218 114.688 101.789 114.57 101.445C114.501 101.246 114.431 101.04 114.449 100.924C114.467 100.807 114.605 100.606 114.728 100.429C114.956 100.1 115.215 99.726 115.215 99.261V81.9642C115.217 81.6551 114.965 81.4038 114.656 81.4038Z" fill="#6C4023"/>
<path d="M114.657 99.2614V81.9646H112.186V93.5254C112.186 94.0678 111.506 94.5771 111.426 95.1032C111.344 95.6406 111.852 96.247 111.691 96.7653C111.528 97.2914 110.71 97.6774 110.47 98.1799C110.227 98.6882 110.537 99.3629 110.22 99.8431C109.901 100.327 108.986 100.569 108.597 101.022C108.206 101.476 108.303 102.184 107.847 102.602C107.39 103.021 106.425 103.108 105.907 103.487C105.39 103.866 105.27 104.572 104.698 104.907C104.127 105.24 103.159 105.17 102.539 105.456C101.921 105.74 101.59 106.41 100.929 106.643C100.273 106.875 99.3515 106.648 98.6571 106.826C97.9711 107.002 97.4438 107.6 96.7253 107.72C96.0179 107.837 95.1889 107.466 94.4546 107.526C93.735 107.584 93.0394 108.081 92.2984 108.081C91.5574 108.081 90.8619 107.584 90.1422 107.526C89.4079 107.466 88.5795 107.837 87.8716 107.72C87.1525 107.6 86.6252 107.002 85.9392 106.826C85.2447 106.648 84.3231 106.874 83.6668 106.643C83.0055 106.409 82.6746 105.74 82.057 105.455C81.4366 105.169 80.469 105.24 79.898 104.906C79.3258 104.572 79.2058 103.865 78.6886 103.486C78.1714 103.108 77.2061 103.02 76.7495 102.601C76.2934 102.183 76.3899 101.475 75.9995 101.021C75.8974 100.902 75.7577 100.798 75.6029 100.7C75.6186 100.746 75.6355 100.793 75.6427 100.839C75.7246 101.377 75.2164 101.984 75.3774 102.501C75.5407 103.027 76.3585 103.413 76.5986 103.915C76.8415 104.424 76.5318 105.098 76.8487 105.579C77.1679 106.063 78.0822 106.305 78.471 106.757C78.8619 107.211 78.7649 107.919 79.2209 108.337C79.6781 108.756 80.6429 108.844 81.16 109.222C81.6772 109.601 81.7973 110.307 82.3694 110.642C82.9404 110.976 83.908 110.905 84.5284 111.191C85.146 111.476 85.477 112.145 86.1383 112.379C86.7946 112.61 87.7162 112.384 88.4106 112.562C89.0972 112.738 89.6245 113.336 90.343 113.456C91.0503 113.574 91.8788 113.202 92.6137 113.262C93.3333 113.321 94.0289 113.818 94.7699 113.818C95.5109 113.818 96.2064 113.32 96.9261 113.262C97.6603 113.202 98.4888 113.574 99.1967 113.456C99.9153 113.336 100.443 112.738 101.129 112.562C101.823 112.384 102.745 112.611 103.4 112.379C104.062 112.146 104.393 111.476 105.01 111.192C105.631 110.906 106.598 110.976 107.169 110.643C107.741 110.308 107.861 109.602 108.379 109.223C108.896 108.844 109.861 108.757 110.318 108.338C110.774 107.92 110.678 107.211 111.069 106.758C111.458 106.306 112.372 106.063 112.692 105.579C113.008 105.099 112.699 104.424 112.942 103.916C113.182 103.413 114 103.027 114.163 102.501C114.324 101.984 113.816 101.377 113.898 100.839C113.977 100.313 114.657 99.8038 114.657 99.2614Z" fill="#FA7702"/>
<path d="M86.8529 100.017C86.4821 99.7316 85.7619 99.7299 85.4226 100.28C85.0832 99.7299 84.363 99.7316 83.9922 100.017C83.6612 100.272 83.6068 100.686 83.6528 100.987C83.7437 101.582 84.2233 102.001 85.4226 102.874C86.6224 102.001 87.1014 101.582 87.1923 100.987C87.2383 100.687 87.1839 100.272 86.8529 100.017Z" fill="#6C4023"/>
<path d="M106.009 100.017C105.638 99.7316 104.918 99.7299 104.579 100.28C104.239 99.7299 103.519 99.7316 103.148 100.017C102.817 100.272 102.763 100.686 102.809 100.987C102.9 101.582 103.38 102.001 104.579 102.874C105.778 102.001 106.258 101.582 106.349 100.987C106.395 100.687 106.34 100.272 106.009 100.017Z" fill="#6C4023"/>
<path d="M96.8098 103.182C96.8098 104.369 95.8961 105.332 94.7692 105.332C93.6423 105.332 92.7285 104.37 92.7285 103.182C92.7285 101.994 93.6423 102.622 94.7692 102.622C95.8961 102.622 96.8098 101.994 96.8098 103.182Z" fill="#6C4023"/>
<path d="M94.7698 96.802C94.3233 96.802 93.911 96.6494 93.5122 96.5013C93.1907 96.3818 92.8873 96.2691 92.5906 96.2449C92.5423 96.241 92.4935 96.2394 92.4447 96.2394C92.176 96.2394 91.8905 96.2921 91.5882 96.347C91.278 96.4043 90.9571 96.4626 90.6424 96.4626C90.5252 96.4626 90.4097 96.4542 90.2969 96.4357C89.8594 96.3627 89.5015 96.1451 89.1554 95.9342C88.88 95.7665 88.6197 95.6083 88.3404 95.5365C88.1121 95.4782 87.8451 95.4703 87.6134 95.4703L87.057 95.4759C86.7215 95.4759 86.367 95.4608 86.0445 95.3469C85.635 95.2022 85.3495 94.9284 85.0741 94.6637C84.8593 94.4573 84.6562 94.2626 84.4105 94.1493C84.1559 94.0321 83.803 93.9782 83.462 93.9266C83.0273 93.861 82.5774 93.7926 82.2274 93.5878C81.8633 93.3747 81.6564 93.0426 81.4741 92.7498C81.3293 92.517 81.1925 92.2971 80.9939 92.1524C80.7875 92.001 80.4627 91.8927 80.1486 91.7884C79.7402 91.6521 79.3184 91.5113 79.0312 91.2482C78.73 90.9722 78.6268 90.6076 78.5359 90.2868C78.4664 90.0411 78.4007 89.8094 78.2577 89.6439C78.1085 89.47 77.8291 89.3141 77.5588 89.1638C77.1964 88.9619 76.8217 88.7526 76.6136 88.4374C76.3971 88.1081 76.4072 87.7317 76.4162 87.3997C76.4229 87.1517 76.4296 86.9184 76.3449 86.7406C76.258 86.5583 76.0381 86.3647 75.8255 86.178C75.5277 85.9154 75.2197 85.6451 75.1092 85.2883C74.997 84.926 75.1215 84.5619 75.232 84.2399C75.3151 83.9982 75.393 83.7704 75.365 83.5853C75.3375 83.4047 75.186 83.186 75.0391 82.9739C74.8243 82.6632 74.6016 82.3423 74.6016 81.9648C74.6016 81.5873 74.8237 81.2665 75.0385 80.9563C75.1849 80.7442 75.3369 80.5255 75.3644 80.3443C75.3925 80.1598 75.3145 79.932 75.2315 79.6903C75.121 79.3683 74.9959 79.0031 75.1081 78.6413C75.2186 78.2851 75.5271 78.0142 75.8244 77.7522C76.037 77.5649 76.2569 77.3714 76.3438 77.1891C76.4285 77.0124 76.4223 76.7785 76.415 76.5305C76.4061 76.1979 76.396 75.8215 76.6125 75.4923C76.82 75.177 77.1953 74.9678 77.5577 74.7653C77.828 74.6144 78.1074 74.4585 78.2566 74.2851C78.3996 74.1191 78.4652 73.8874 78.5348 73.6423C78.6262 73.3215 78.7294 72.9569 79.0301 72.6814C79.3173 72.4178 79.7397 72.277 80.148 72.1407C80.4621 72.0358 80.7869 71.9276 80.9939 71.7767C81.1925 71.6314 81.3288 71.4126 81.4735 71.1798C81.6564 70.887 81.8628 70.5544 82.2279 70.3418C82.578 70.1376 83.0273 70.0692 83.462 70.003C83.803 69.9508 84.1564 69.8976 84.4111 69.7803C84.6562 69.667 84.8593 69.4724 85.0741 69.266C85.3501 69.0012 85.635 68.7275 86.0445 68.5827C86.3665 68.4694 86.7215 68.4537 87.057 68.4537L87.6134 68.4593C87.8451 68.4593 88.1127 68.4509 88.3404 68.3931C88.6197 68.3213 88.8794 68.1632 89.1554 67.9954C89.501 67.7851 89.8583 67.5669 90.2958 67.494C90.4091 67.4755 90.5247 67.4671 90.6419 67.4671C90.9566 67.4671 91.2774 67.5254 91.5882 67.5832C91.8905 67.6387 92.176 67.6909 92.4453 67.6909C92.4935 67.6909 92.5417 67.6892 92.5894 67.6852C92.8856 67.6611 93.1891 67.5484 93.511 67.4289C93.9093 67.2808 94.3221 67.1277 94.7686 67.1277C95.2151 67.1277 95.6274 67.2808 96.0262 67.4289C96.3477 67.5484 96.6511 67.6611 96.9479 67.6852C96.9955 67.6892 97.0438 67.6909 97.0926 67.6909C97.3618 67.6909 97.6473 67.6381 97.9497 67.5832C98.2604 67.5254 98.5813 67.4671 98.896 67.4671C99.0132 67.4671 99.1287 67.4755 99.2415 67.494C99.679 67.5669 100.036 67.7851 100.382 67.9954C100.658 68.1632 100.918 68.3213 101.197 68.3931C101.426 68.4515 101.693 68.4593 101.924 68.4593L102.483 68.4537C102.818 68.4537 103.172 68.4694 103.493 68.5827C103.903 68.728 104.188 69.0012 104.463 69.2654C104.678 69.4718 104.882 69.667 105.127 69.7803C105.382 69.8976 105.735 69.9514 106.075 70.003C106.511 70.0686 106.96 70.1371 107.31 70.3418C107.674 70.555 107.882 70.887 108.064 71.1798C108.209 71.4121 108.345 71.6319 108.544 71.7767C108.751 71.9287 109.076 72.0369 109.39 72.1413C109.798 72.2776 110.22 72.4184 110.507 72.682C110.808 72.9574 110.912 73.322 111.002 73.6429C111.072 73.8886 111.138 74.1202 111.281 74.2857C111.43 74.459 111.709 74.615 111.979 74.7653C112.342 74.9678 112.717 75.177 112.925 75.4923C113.141 75.8215 113.131 76.1979 113.122 76.53C113.116 76.7773 113.109 77.0113 113.194 77.1891C113.281 77.3714 113.501 77.5649 113.713 77.7517C114.011 78.0142 114.319 78.2846 114.43 78.6408C114.543 79.0031 114.417 79.3683 114.307 79.6897C114.224 79.9314 114.146 80.1592 114.174 80.3437C114.201 80.5249 114.353 80.7442 114.5 80.9557C114.715 81.2659 114.937 81.5868 114.937 81.9643C114.937 82.3418 114.715 82.6626 114.5 82.9734C114.353 83.1848 114.201 83.4042 114.174 83.5848C114.146 83.7693 114.224 83.9971 114.307 84.2388C114.417 84.5608 114.543 84.926 114.43 85.2878C114.319 85.644 114.011 85.9149 113.713 86.1774C113.501 86.3642 113.281 86.5577 113.194 86.7406C113.109 86.9173 113.116 87.1512 113.122 87.3991C113.132 87.7317 113.142 88.1081 112.925 88.4374C112.717 88.7526 112.342 88.9619 111.98 89.1638C111.709 89.3152 111.43 89.4706 111.28 89.6439C111.138 89.8094 111.072 90.0416 111.002 90.2868C110.911 90.6082 110.808 90.9728 110.507 91.2482C110.22 91.5118 109.798 91.6532 109.389 91.7889C109.075 91.8938 108.75 92.0021 108.544 92.153C108.345 92.2983 108.208 92.5176 108.064 92.7504C107.881 93.0432 107.674 93.3752 107.31 93.5884C106.96 93.7926 106.511 93.861 106.076 93.9272C105.735 93.9794 105.381 94.0327 105.127 94.1499C104.881 94.2626 104.678 94.4578 104.463 94.6643C104.188 94.929 103.902 95.2022 103.493 95.3475C103.171 95.4608 102.817 95.4765 102.483 95.4765L101.924 95.4709C101.693 95.4709 101.426 95.4787 101.198 95.5371C100.919 95.6089 100.659 95.767 100.384 95.9348C100.037 96.1451 99.6801 96.3627 99.2426 96.4357C99.1299 96.4542 99.0143 96.4626 98.8971 96.4626C98.583 96.4626 98.2621 96.4043 97.9514 96.347C97.649 96.2915 97.3641 96.2394 97.0948 96.2394C97.046 96.2394 96.9972 96.241 96.949 96.2449C96.6528 96.2691 96.3493 96.3818 96.0274 96.5013C95.6285 96.6488 95.2163 96.802 94.7698 96.802Z" fill="#CC6846"/>
<path d="M94.7698 67.4081C95.5108 67.4081 96.2064 67.9056 96.926 67.964C96.9816 67.9685 97.0376 67.9707 97.0937 67.9707C97.6816 67.9707 98.3171 67.7469 98.8966 67.7469C98.9987 67.7469 99.0985 67.7536 99.1961 67.7699C99.9152 67.8894 100.442 68.4879 101.129 68.664C101.373 68.7268 101.646 68.7392 101.925 68.7392C102.11 68.7392 102.298 68.7336 102.483 68.7336C102.811 68.7336 103.128 68.751 103.4 68.8469C104.062 69.0802 104.393 69.75 105.01 70.0344C105.631 70.3204 106.598 70.2498 107.169 70.5835C107.741 70.9178 107.861 71.6246 108.379 72.0032C108.896 72.3819 109.861 72.4699 110.318 72.8884C110.774 73.3063 110.677 74.0147 111.068 74.4685C111.456 74.9206 112.371 75.1629 112.69 75.647C113.006 76.1272 112.697 76.802 112.939 77.3102C113.18 77.8122 113.997 78.1981 114.161 78.7243C114.322 79.242 113.813 79.8489 113.895 80.3863C113.975 80.913 114.655 81.4224 114.655 81.9642C114.655 82.5061 113.975 83.0159 113.895 83.5421C113.813 84.0795 114.322 84.6864 114.161 85.2041C113.997 85.7303 113.18 86.1162 112.939 86.6188C112.697 87.127 113.006 87.8018 112.689 88.282C112.37 88.766 111.455 89.0083 111.066 89.4605C110.676 89.9148 110.772 90.6227 110.316 91.0406C109.859 91.4596 108.894 91.5471 108.376 91.9258C107.859 92.3044 107.739 93.0106 107.167 93.3454C106.596 93.6792 105.628 93.6085 105.008 93.8946C104.39 94.179 104.059 94.8487 103.398 95.0821C103.126 95.178 102.808 95.1954 102.48 95.1954C102.296 95.1954 102.107 95.1898 101.922 95.1898C101.643 95.1898 101.37 95.2021 101.126 95.2649C100.44 95.4405 99.913 96.039 99.1944 96.1585C99.0968 96.1748 98.9964 96.1815 98.8949 96.1815C98.3154 96.1815 97.6793 95.9577 97.0921 95.9577C97.0354 95.9577 96.9799 95.9599 96.9243 95.9644C96.2047 96.0233 95.5091 96.5203 94.7681 96.5203C94.0271 96.5203 93.3316 96.0228 92.6119 95.9644C92.5564 95.9599 92.5003 95.9577 92.4442 95.9577C91.8563 95.9577 91.2208 96.1815 90.6414 96.1815C90.5393 96.1815 90.4394 96.1748 90.3418 96.1585C89.6227 96.039 89.0955 95.4405 88.4094 95.2644C88.1649 95.2016 87.8923 95.1892 87.6129 95.1892C87.4278 95.1892 87.2399 95.1948 87.0554 95.1948C86.7272 95.1948 86.4097 95.1774 86.1377 95.0815C85.4763 94.8482 85.1454 94.1784 84.5278 93.8941C83.9074 93.608 82.9398 93.6787 82.3688 93.3449C81.7966 93.0106 81.6766 92.3038 81.1594 91.9252C80.6423 91.5466 79.6769 91.4585 79.2203 91.04C78.7643 90.6221 78.8607 89.9137 78.4703 89.4599C78.0816 89.0078 77.1667 88.7655 76.8481 88.2814C76.5318 87.8012 76.8414 87.1264 76.5985 86.6182C76.3584 86.1162 75.5412 85.7303 75.3774 85.2041C75.2164 84.6864 75.7246 84.0795 75.6427 83.5421C75.5625 83.0154 74.8826 82.5061 74.8826 81.9642C74.8826 81.4224 75.5625 80.9125 75.6427 80.3863C75.7246 79.8489 75.2164 79.242 75.3774 78.7243C75.5406 78.1981 76.3584 77.8122 76.5985 77.3096C76.8414 76.8014 76.5318 76.1266 76.8487 75.6465C77.1679 75.1624 78.0827 74.9201 78.4715 74.4679C78.8624 74.0136 78.7659 73.3057 79.222 72.8878C79.6791 72.4688 80.6439 72.3813 81.1617 72.0027C81.6788 71.624 81.7989 70.9178 82.371 70.583C82.9421 70.2492 83.9097 70.3199 84.5301 70.0338C85.1476 69.7494 85.4786 69.0797 86.1399 68.8463C86.412 68.7504 86.7294 68.733 87.057 68.733C87.2421 68.733 87.43 68.7386 87.6157 68.7386C87.8951 68.7386 88.1677 68.7263 88.4117 68.6635C89.0977 68.4879 89.625 67.8894 90.3435 67.7699C90.4411 67.7536 90.5415 67.7469 90.6431 67.7469C91.2225 67.7469 91.8586 67.9707 92.4459 67.9707C92.5025 67.9707 92.5581 67.9685 92.6136 67.964C93.3333 67.9056 94.0288 67.4081 94.7698 67.4081ZM94.7698 66.8472C94.2728 66.8472 93.8168 67.0166 93.4146 67.1658C93.1117 67.278 92.8262 67.384 92.5682 67.4053C92.5278 67.4087 92.4874 67.4098 92.4459 67.4098C92.2019 67.4098 91.9287 67.3599 91.6393 67.3066C91.3162 67.2471 90.9824 67.186 90.6425 67.186C90.5034 67.186 90.3755 67.1961 90.2504 67.2168C89.7596 67.2987 89.3613 67.541 89.0096 67.7548C88.7527 67.9113 88.5098 68.0593 88.2714 68.1199C88.0734 68.1704 87.8283 68.1777 87.6146 68.1777C87.5248 68.1777 87.434 68.1766 87.3431 68.1749C87.2472 68.1732 87.1513 68.1721 87.0559 68.1721C86.7132 68.1721 86.3144 68.1895 85.952 68.3174C85.4853 68.4823 85.1645 68.7902 84.8812 69.0623C84.6753 69.2603 84.497 69.4308 84.2945 69.5245C84.0757 69.6255 83.7431 69.6759 83.4211 69.7247C82.96 69.7949 82.4832 69.8672 82.0872 70.0989C81.6631 70.3468 81.4365 70.7103 81.2368 71.0311C81.1011 71.2488 80.9839 71.4373 80.8296 71.55C80.658 71.6756 80.3545 71.7766 80.0611 71.8748C79.6247 72.0201 79.1737 72.171 78.8428 72.4744C78.4832 72.8042 78.3632 73.2266 78.2673 73.566C78.2039 73.7903 78.1489 73.9839 78.0463 74.1028C77.9296 74.2385 77.6721 74.3821 77.4236 74.5207C77.0315 74.7394 76.626 74.9655 76.3809 75.3379C76.1156 75.7407 76.1279 76.1827 76.1374 76.5378C76.143 76.7504 76.1486 76.9517 76.0931 77.0679C76.0309 77.1986 75.8239 77.3809 75.6416 77.5413C75.3297 77.8156 74.9763 78.1263 74.8422 78.5582C74.7026 79.0075 74.8495 79.4367 74.9679 79.7811C75.0358 79.9796 75.1064 80.1855 75.0885 80.3022C75.0705 80.4188 74.932 80.6191 74.8091 80.7964C74.5809 81.1262 74.3223 81.4997 74.3223 81.9648C74.3223 82.4298 74.5809 82.8034 74.8091 83.1332C74.9314 83.3099 75.0705 83.5107 75.0885 83.6274C75.1064 83.744 75.0358 83.9493 74.9679 84.1485C74.8495 84.4929 74.7026 84.922 74.8422 85.3713C74.9763 85.8027 75.3297 86.1134 75.641 86.3877C75.8233 86.5481 76.0303 86.7299 76.0926 86.8606C76.1481 86.9767 76.1425 87.178 76.1369 87.3906C76.1273 87.7457 76.115 88.1877 76.3803 88.5905C76.626 88.9629 77.031 89.189 77.4231 89.4077C77.6721 89.5468 77.929 89.6904 78.0457 89.8256C78.1478 89.9445 78.2028 90.1381 78.2667 90.3624C78.3626 90.7018 78.4827 91.1242 78.8422 91.454C79.1737 91.7575 79.6247 91.9084 80.0606 92.0536C80.3539 92.1518 80.658 92.2528 80.829 92.3784C80.9839 92.4917 81.1005 92.6796 81.2363 92.8973C81.436 93.2181 81.6626 93.5816 82.0866 93.8295C82.4827 94.0612 82.9595 94.1336 83.4205 94.2037C83.7425 94.2525 84.0751 94.303 84.2939 94.4039C84.4964 94.4976 84.6748 94.6681 84.8806 94.8661C85.1639 95.1382 85.4848 95.4461 85.952 95.611C86.3149 95.7389 86.7137 95.7563 87.0565 95.7563C87.1513 95.7563 87.2472 95.7552 87.3431 95.7535C87.4334 95.7524 87.5243 95.7507 87.614 95.7507C87.8278 95.7507 88.0734 95.7575 88.2714 95.8085C88.5104 95.8696 88.7533 96.0177 89.0102 96.1742C89.3619 96.3885 89.7601 96.6308 90.251 96.7127C90.3755 96.7335 90.5039 96.7436 90.6431 96.7436C90.983 96.7436 91.3167 96.6824 91.6398 96.623C91.9293 96.5697 92.2024 96.5198 92.4464 96.5198C92.4874 96.5198 92.5283 96.5214 92.5687 96.5242C92.8262 96.545 93.1123 96.6516 93.4152 96.7638C93.8174 96.913 94.2734 97.0824 94.7704 97.0824C95.2674 97.0824 95.7234 96.913 96.1256 96.7638C96.4285 96.6516 96.714 96.5456 96.972 96.5242C97.0124 96.5209 97.0528 96.5198 97.0943 96.5198C97.3383 96.5198 97.6115 96.5697 97.9009 96.623C98.224 96.6824 98.5578 96.7436 98.8977 96.7436C99.0368 96.7436 99.1647 96.7335 99.2898 96.7127C99.7806 96.6308 100.179 96.3885 100.531 96.1748C100.787 96.0183 101.03 95.8702 101.269 95.8096C101.467 95.7591 101.712 95.7518 101.926 95.7518C102.015 95.7518 102.106 95.753 102.197 95.7546C102.293 95.7563 102.389 95.7575 102.484 95.7575C102.827 95.7575 103.226 95.7401 103.589 95.6122C104.055 95.4473 104.376 95.1393 104.66 94.8673C104.865 94.6692 105.044 94.4987 105.246 94.405C105.465 94.3041 105.798 94.2536 106.12 94.2048C106.581 94.1347 107.058 94.0623 107.454 93.8307C107.878 93.5827 108.104 93.2192 108.304 92.8984C108.44 92.6807 108.557 92.4923 108.711 92.3795C108.883 92.2539 109.186 92.1529 109.48 92.0548C109.916 91.9095 110.367 91.7586 110.698 91.4551C111.058 91.1253 111.178 90.7029 111.273 90.3636C111.337 90.1392 111.392 89.9457 111.494 89.8268C111.611 89.691 111.869 89.5474 112.117 89.4089C112.509 89.1901 112.915 88.964 113.16 88.5916C113.425 88.1888 113.413 87.7468 113.403 87.3918C113.398 87.1792 113.392 86.9778 113.448 86.8617C113.51 86.731 113.717 86.5492 113.899 86.3883C114.211 86.114 114.564 85.8032 114.698 85.3713C114.838 84.922 114.691 84.4929 114.573 84.1485C114.504 83.9499 114.434 83.744 114.452 83.6274C114.47 83.5107 114.608 83.3104 114.73 83.1332C114.959 82.8034 115.217 82.4298 115.217 81.9648C115.217 81.4997 114.959 81.1262 114.73 80.7964C114.608 80.6197 114.469 80.4188 114.451 80.3022C114.433 80.1855 114.504 79.9802 114.572 79.7811C114.69 79.4367 114.837 79.0075 114.697 78.5582C114.563 78.1269 114.21 77.8161 113.899 77.5418C113.716 77.3814 113.509 77.1997 113.447 77.069C113.392 76.9529 113.397 76.7515 113.403 76.5389C113.412 76.1838 113.425 75.7418 113.159 75.3391C112.914 74.9666 112.509 74.7406 112.117 74.5218C111.867 74.3827 111.611 74.2397 111.494 74.1039C111.392 73.985 111.337 73.7915 111.273 73.5671C111.178 73.2277 111.058 72.8054 110.698 72.4755C110.366 72.1721 109.915 72.0212 109.48 71.8759C109.186 71.7777 108.882 71.6768 108.711 71.5511C108.556 71.4378 108.44 71.2499 108.304 71.0323C108.104 70.7114 107.878 70.3479 107.454 70.1C107.058 69.8683 106.581 69.796 106.12 69.7258C105.798 69.677 105.465 69.6266 105.246 69.5256C105.044 69.4319 104.865 69.2614 104.66 69.0634C104.376 68.7913 104.055 68.4834 103.588 68.3185C103.225 68.1906 102.826 68.1732 102.484 68.1732C102.388 68.1732 102.292 68.1743 102.197 68.176C102.106 68.1771 102.015 68.1788 101.926 68.1788C101.712 68.1788 101.466 68.1721 101.268 68.121C101.029 68.0599 100.786 67.9118 100.529 67.7553C100.178 67.541 99.7795 67.2987 99.2887 67.2168C99.1641 67.1961 99.0357 67.186 98.8966 67.186C98.5566 67.186 98.2229 67.2471 97.8998 67.3066C97.6104 67.3599 97.3372 67.4098 97.0932 67.4098C97.0522 67.4098 97.0113 67.4081 96.9709 67.4053C96.7129 67.3845 96.4274 67.278 96.1245 67.1658C95.7228 67.0166 95.2668 66.8472 94.7698 66.8472Z" fill="#6C4023"/>
<path d="M94.7697 94.4236C94.3883 94.4236 94.0394 94.2946 93.7023 94.169C93.4364 94.0702 93.1851 93.9771 92.9434 93.9575C92.9041 93.9541 92.8648 93.953 92.825 93.953C92.604 93.953 92.3673 93.9962 92.1165 94.0422C91.8546 94.0904 91.5842 94.1398 91.3172 94.1398C91.2163 94.1398 91.117 94.1331 91.0199 94.1168C90.6452 94.0545 90.3423 93.87 90.0495 93.6916C89.8218 93.5531 89.607 93.4224 89.3798 93.364C89.1935 93.3164 88.9725 93.3096 88.7818 93.3096L88.3174 93.3141C88.033 93.3141 87.7312 93.3012 87.4552 93.2036C87.1035 93.0791 86.85 92.8368 86.6267 92.6219C86.45 92.452 86.2823 92.2915 86.0843 92.2001C85.8779 92.1047 85.5991 92.0627 85.3041 92.0178C84.9355 91.9617 84.5547 91.9045 84.254 91.7284C83.9393 91.5444 83.7632 91.2617 83.6078 91.0121C83.4895 90.8213 83.3773 90.6413 83.2185 90.5252C83.0514 90.4023 82.7827 90.3131 82.5235 90.2267C82.1774 90.1112 81.8196 89.9912 81.5722 89.7645C81.3108 89.525 81.2222 89.2143 81.1448 88.9394C81.0881 88.7392 81.0343 88.5501 80.9215 88.4189C80.8026 88.2803 80.5721 88.1513 80.3499 88.0279C80.0414 87.8557 79.7223 87.6779 79.5428 87.4047C79.3537 87.1175 79.3621 86.795 79.37 86.51C79.3756 86.3087 79.3807 86.1185 79.3145 85.98C79.2455 85.8358 79.0654 85.677 78.891 85.5239C78.6369 85.3007 78.3749 85.069 78.2784 84.7594C78.1797 84.4425 78.2874 84.1294 78.3816 83.8535C78.449 83.6566 78.5123 83.4709 78.491 83.3273C78.4691 83.1865 78.3457 83.0082 78.2257 82.8348C78.0501 82.5819 77.8516 82.2952 77.8516 81.9648C77.8516 81.6344 78.0501 81.3478 78.2257 81.0948C78.3452 80.9215 78.4691 80.7431 78.491 80.6023C78.5129 80.4587 78.449 80.2731 78.3816 80.0767C78.2868 79.8008 78.1797 79.4878 78.2779 79.1708C78.3743 78.8601 78.6369 78.6295 78.891 78.4063C79.0654 78.2532 79.2455 78.0939 79.3145 77.9497C79.3807 77.8117 79.375 77.6216 79.37 77.4202C79.3621 77.1352 79.3532 76.8127 79.5428 76.5249C79.7228 76.2523 80.0414 76.074 80.3499 75.9023C80.5721 75.7783 80.8026 75.6499 80.9221 75.5113C81.0348 75.3807 81.0881 75.1911 81.1448 74.9908C81.2227 74.7159 81.3108 74.4046 81.5722 74.1646C81.8196 73.9379 82.178 73.8185 82.5241 73.7029C82.7833 73.6165 83.0514 73.5273 83.2191 73.4051C83.3773 73.2889 83.4895 73.1089 83.6084 72.9182C83.7638 72.6685 83.9399 72.3858 84.2546 72.2019C84.5552 72.0263 84.9355 71.9685 85.3041 71.9124C85.5991 71.8675 85.8779 71.8249 86.0854 71.7296C86.284 71.6381 86.4512 71.4777 86.6284 71.3077C86.8517 71.0935 87.1047 70.8511 87.4569 70.7266C87.7329 70.629 88.0341 70.6161 88.3191 70.6161L88.7835 70.6206C88.9748 70.6206 89.1952 70.6139 89.3815 70.5662C89.6086 70.5079 89.8235 70.3771 90.0506 70.2386C90.3435 70.0608 90.6469 69.8762 91.0211 69.8134C91.1181 69.7972 91.2174 69.7904 91.3178 69.7904C91.5854 69.7904 91.8557 69.8398 92.1177 69.888C92.3684 69.934 92.6057 69.9778 92.8267 69.9778C92.866 69.9778 92.9052 69.9761 92.9434 69.9733C93.1846 69.9537 93.4353 69.86 93.7012 69.7613C94.0389 69.6362 94.3877 69.5066 94.7697 69.5066C95.1517 69.5066 95.5006 69.6362 95.8383 69.7613C96.1042 69.86 96.3549 69.9537 96.5967 69.9733C96.6348 69.9761 96.6741 69.9778 96.7134 69.9778C96.9344 69.9778 97.1711 69.934 97.4224 69.888C97.6843 69.8398 97.9553 69.7904 98.2223 69.7904C98.3232 69.7904 98.422 69.7972 98.519 69.8134C98.8937 69.8757 99.1966 70.0602 99.4894 70.2386C99.7171 70.3771 99.932 70.5079 100.159 70.5662C100.345 70.6139 100.566 70.6206 100.757 70.6206L101.222 70.6161C101.506 70.6161 101.808 70.629 102.084 70.7266C102.435 70.8511 102.689 71.094 102.912 71.3083C103.089 71.4783 103.256 71.6387 103.455 71.7301C103.662 71.8255 103.94 71.8681 104.236 71.913C104.605 71.9691 104.985 72.0263 105.285 72.2024C105.6 72.3864 105.776 72.6697 105.932 72.9193C106.051 73.1094 106.163 73.2895 106.322 73.4056C106.489 73.5279 106.757 73.6171 107.016 73.7035C107.363 73.819 107.72 73.9385 107.968 74.1657C108.229 74.4052 108.317 74.7159 108.395 74.9908C108.452 75.1905 108.506 75.3801 108.619 75.5113C108.738 75.6505 108.969 75.7795 109.191 75.9034C109.499 76.0756 109.818 76.2529 109.998 76.5255C110.187 76.8133 110.178 77.1358 110.171 77.4207C110.165 77.6216 110.159 77.8123 110.226 77.9503C110.295 78.0944 110.475 78.2526 110.649 78.4063C110.903 78.6295 111.166 78.8612 111.262 79.1714C111.36 79.4883 111.253 79.8013 111.159 80.0773C111.092 80.2736 111.028 80.4593 111.05 80.6029C111.071 80.7437 111.195 80.9221 111.315 81.0954C111.49 81.3484 111.689 81.635 111.689 81.9654C111.689 82.2958 111.49 82.5824 111.315 82.8354C111.195 83.0087 111.071 83.1871 111.05 83.3279C111.028 83.4715 111.092 83.6571 111.159 83.854C111.253 84.13 111.361 84.443 111.262 84.7599C111.166 85.0701 110.903 85.3012 110.649 85.5245C110.475 85.6776 110.295 85.8369 110.226 85.9805C110.159 86.1185 110.164 86.3092 110.17 86.51C110.178 86.795 110.186 87.1175 109.997 87.4053C109.817 87.6784 109.499 87.8568 109.19 88.0285C108.968 88.153 108.738 88.2809 108.619 88.4194C108.506 88.5501 108.452 88.7397 108.395 88.9405C108.317 89.2148 108.229 89.5261 107.968 89.7657C107.72 89.9923 107.363 90.1118 107.017 90.2267C106.757 90.3131 106.489 90.4029 106.322 90.5257C106.163 90.6418 106.051 90.8219 105.932 91.0126C105.777 91.2622 105.6 91.5449 105.286 91.7289C104.985 91.9045 104.605 91.9617 104.237 92.0178C103.942 92.0627 103.663 92.1047 103.455 92.2007C103.257 92.2921 103.089 92.4525 102.913 92.6225C102.69 92.8367 102.437 93.0796 102.084 93.2042C101.808 93.3018 101.508 93.3147 101.223 93.3147L100.755 93.3102C100.565 93.3102 100.345 93.3164 100.16 93.364C99.9325 93.4224 99.7177 93.5531 99.4905 93.6916C99.1977 93.8694 98.8948 94.054 98.5201 94.1168C98.4231 94.1331 98.3238 94.1398 98.2228 94.1398C97.9558 94.1398 97.6849 94.0904 97.4229 94.0422C97.1722 93.9962 96.9349 93.9524 96.7139 93.9524C96.6747 93.9524 96.6354 93.9541 96.5973 93.9569C96.3561 93.9766 96.1048 94.0702 95.8389 94.169C95.5006 94.2935 95.1517 94.4236 94.7697 94.4236Z" fill="#FEFDFF"/>
<path d="M94.7678 69.7865C95.3877 69.7865 95.9699 70.2027 96.5718 70.2515C96.6183 70.2555 96.6649 70.2571 96.712 70.2571C97.2039 70.2571 97.7357 70.0698 98.2204 70.0698C98.3056 70.0698 98.3892 70.0754 98.4711 70.0894C99.0724 70.1893 99.5139 70.6902 100.088 70.8371C100.292 70.8893 100.52 70.9 100.754 70.9C100.909 70.9 101.066 70.8955 101.221 70.8955C101.495 70.8955 101.761 70.9101 101.989 70.9903C102.542 71.1855 102.819 71.7459 103.335 71.9837C103.855 72.2232 104.664 72.1637 105.142 72.4431C105.621 72.723 105.721 73.3142 106.154 73.6306C106.586 73.9475 107.394 74.021 107.776 74.371C108.157 74.7204 108.076 75.3133 108.403 75.6931C108.729 76.0712 109.494 76.2737 109.761 76.6792C110.026 77.0808 109.767 77.6451 109.97 78.0703C110.171 78.4905 110.855 78.813 110.992 79.2533C111.126 79.6864 110.701 80.194 110.769 80.6439C110.837 81.0842 111.405 81.5105 111.405 81.9643C111.405 82.4181 110.836 82.8438 110.769 83.2847C110.701 83.7346 111.126 84.2417 110.992 84.6753C110.855 85.1156 110.171 85.4381 109.97 85.8588C109.767 86.284 110.026 86.8483 109.761 87.2499C109.494 87.6549 108.729 87.8574 108.403 88.236C108.076 88.6158 108.157 89.2087 107.776 89.5581C107.393 89.9087 106.586 89.9822 106.153 90.2986C105.72 90.6155 105.62 91.2061 105.141 91.4861C104.663 91.7654 103.854 91.7059 103.335 91.9455C102.818 92.1833 102.541 92.7437 101.988 92.9389C101.76 93.0191 101.495 93.0337 101.221 93.0337C101.066 93.0337 100.908 93.0292 100.754 93.0292C100.52 93.0292 100.292 93.0398 100.088 93.092C99.5139 93.239 99.073 93.7399 98.4717 93.8397C98.3898 93.8532 98.3062 93.8594 98.2209 93.8594C97.7363 93.8594 97.204 93.672 96.7126 93.672C96.6655 93.672 96.6183 93.6737 96.5723 93.6776C95.9705 93.727 95.3882 94.1426 94.7684 94.1426C94.1486 94.1426 93.5663 93.7264 92.9644 93.6776C92.9179 93.6737 92.8713 93.672 92.8242 93.672C92.3328 93.672 91.8005 93.8594 91.3159 93.8594C91.2306 93.8594 91.147 93.8537 91.0651 93.8397C90.4638 93.7399 90.0224 93.239 89.448 93.092C89.2432 93.0398 89.0155 93.0292 88.7816 93.0292C88.6268 93.0292 88.4697 93.0337 88.3149 93.0337C88.0406 93.0337 87.7747 93.0191 87.547 92.9389C86.9934 92.7437 86.7168 92.1833 86.2002 91.9455C85.6808 91.7059 84.8714 91.7654 84.394 91.4861C83.915 91.2061 83.8151 90.6149 83.3821 90.2986C82.9496 89.9817 82.1419 89.9082 81.7599 89.5581C81.3785 89.2087 81.4592 88.6158 81.1322 88.236C80.8069 87.858 80.0418 87.6555 79.7748 87.2499C79.51 86.8483 79.7692 86.284 79.5655 85.8588C79.3647 85.4387 78.681 85.1161 78.5441 84.6758C78.4095 84.2428 78.8346 83.7351 78.7662 83.2853C78.6989 82.8449 78.1307 82.4186 78.1307 81.9648C78.1307 81.5111 78.6995 81.0853 78.7662 80.6444C78.8346 80.1946 78.4095 79.6875 78.5441 79.2539C78.681 78.8136 79.3647 78.491 79.5655 78.0703C79.7686 77.6451 79.51 77.0808 79.7748 76.6792C80.0418 76.2742 80.8069 76.0717 81.1322 75.6931C81.4592 75.3133 81.3785 74.7204 81.7599 74.371C82.1424 74.0204 82.9496 73.9469 83.3827 73.6306C83.8157 73.3137 83.9155 72.723 84.3946 72.4431C84.8725 72.1637 85.6819 72.2232 86.2008 71.9837C86.7174 71.7459 86.9945 71.1855 87.5476 70.9903C87.7753 70.9101 88.0406 70.8955 88.3149 70.8955C88.4697 70.8955 88.6268 70.9 88.7822 70.9C89.0161 70.9 89.2438 70.8893 89.4486 70.8371C90.0224 70.6902 90.4633 70.1898 91.0646 70.0894C91.1465 70.076 91.2301 70.0698 91.3153 70.0698C91.8 70.0698 92.3323 70.2571 92.8237 70.2571C92.8708 70.2571 92.9179 70.2555 92.9639 70.2515C93.5658 70.2027 94.148 69.7865 94.7678 69.7865ZM94.7678 69.2256C94.3359 69.2256 93.9461 69.3703 93.6022 69.4976C93.3549 69.5896 93.1215 69.676 92.9185 69.6928C92.887 69.6956 92.8556 69.6968 92.8237 69.6968C92.6279 69.6968 92.4035 69.6553 92.1657 69.6121C91.8914 69.5616 91.6081 69.5094 91.3153 69.5094C91.1936 69.5094 91.082 69.5184 90.9726 69.5363C90.5446 69.6076 90.203 69.8151 89.9023 69.9986C89.6931 70.1259 89.4957 70.2459 89.3094 70.2936C89.1535 70.3334 88.9555 70.339 88.7827 70.339C88.7081 70.339 88.6324 70.3379 88.5572 70.3368C88.4765 70.3357 88.3957 70.3346 88.3155 70.3346C88.021 70.3346 87.6777 70.3497 87.3613 70.4613C86.9524 70.606 86.6759 70.8708 86.4324 71.1047C86.2658 71.2646 86.1222 71.4026 85.9669 71.4744C85.7958 71.5534 85.5237 71.5944 85.2607 71.6342C84.8663 71.6942 84.4591 71.7559 84.1124 71.9584C83.7377 72.1772 83.5335 72.5053 83.3692 72.769C83.2609 72.9429 83.1673 73.0938 83.0523 73.1779C82.9205 73.2744 82.6731 73.3568 82.4341 73.4365C82.06 73.5616 81.6735 73.6906 81.3818 73.9576C81.0615 74.251 80.9578 74.6184 80.8742 74.9134C80.8237 75.0907 80.7805 75.2432 80.7082 75.3279C80.6212 75.4289 80.4036 75.5506 80.2117 75.6572C79.8898 75.8367 79.5252 76.0403 79.3075 76.3707C79.0697 76.7314 79.0803 77.1173 79.0887 77.4275C79.0932 77.5868 79.0977 77.7517 79.0607 77.8291C79.0164 77.9217 78.8436 78.0737 78.7051 78.196C78.4353 78.4332 78.1296 78.7025 78.0095 79.0884C77.8839 79.4928 78.0123 79.8675 78.1155 80.1682C78.1638 80.3096 78.2244 80.4851 78.2126 80.5603C78.2008 80.6371 78.0813 80.8093 77.9944 80.935C77.8053 81.2076 77.5703 81.547 77.5703 81.9648C77.5703 82.3827 77.8053 82.7221 77.9944 82.9947C78.0813 83.1204 78.2008 83.2931 78.2126 83.3694C78.2238 83.4446 78.1638 83.6207 78.1155 83.7615C78.0123 84.0622 77.8839 84.4369 78.0095 84.8413C78.1296 85.2272 78.4353 85.4959 78.7051 85.7332C78.8436 85.8555 79.0164 86.0075 79.0607 86.0995C79.0977 86.1769 79.0932 86.3418 79.0887 86.5011C79.0803 86.8113 79.0697 87.1966 79.3075 87.5579C79.5252 87.8883 79.8898 88.0919 80.2117 88.2714C80.4036 88.3785 80.6206 88.4997 80.7076 88.6006C80.7799 88.6848 80.8231 88.8379 80.8736 89.0146C80.9572 89.3097 81.0615 89.6771 81.3813 89.9704C81.673 90.2374 82.0594 90.367 82.4336 90.4915C82.6725 90.5712 82.9193 90.6536 83.0511 90.7501C83.1661 90.8343 83.2598 90.9846 83.3681 91.159C83.5324 91.4227 83.7366 91.7508 84.1113 91.9696C84.458 92.1721 84.8658 92.2343 85.2601 92.2938C85.5232 92.3336 85.7952 92.3751 85.9663 92.4537C86.1217 92.5255 86.2658 92.6634 86.4324 92.8233C86.6759 93.0572 86.9524 93.3225 87.3613 93.4667C87.6777 93.5783 88.0215 93.5935 88.316 93.5935C88.3957 93.5935 88.4765 93.5924 88.5572 93.5912C88.6324 93.5901 88.7076 93.589 88.7827 93.589C88.956 93.589 89.1541 93.5946 89.31 93.6344C89.4968 93.6821 89.6942 93.8027 89.9035 93.93C90.2047 94.1135 90.5463 94.321 90.9743 94.3922C91.0837 94.4102 91.1958 94.4192 91.317 94.4192C91.6098 94.4192 91.8931 94.367 92.1674 94.3165C92.4052 94.2728 92.6301 94.2318 92.8253 94.2318C92.8573 94.2318 92.8887 94.2329 92.9201 94.2357C93.1232 94.2526 93.3565 94.3389 93.6039 94.4309C93.9478 94.5583 94.3376 94.703 94.7695 94.703C95.2014 94.703 95.5913 94.5583 95.9351 94.4309C96.1825 94.3389 96.4158 94.2526 96.6189 94.2357C96.6503 94.2329 96.6817 94.2318 96.7137 94.2318C96.9095 94.2318 97.1338 94.2733 97.3717 94.3165C97.646 94.367 97.9292 94.4192 98.222 94.4192C98.3438 94.4192 98.4554 94.4102 98.5648 94.3922C98.9928 94.321 99.3344 94.1135 99.635 93.93C99.8442 93.8027 100.042 93.6827 100.228 93.635C100.384 93.5952 100.582 93.5895 100.755 93.5895C100.829 93.5895 100.905 93.5907 100.98 93.5918C101.061 93.5929 101.142 93.594 101.222 93.594C101.516 93.594 101.86 93.5789 102.176 93.4673C102.585 93.3225 102.861 93.0578 103.105 92.8239C103.272 92.664 103.415 92.526 103.57 92.4542C103.742 92.3751 104.014 92.3342 104.277 92.2944C104.671 92.2343 105.078 92.1726 105.425 91.9701C105.8 91.7514 106.004 91.4232 106.168 91.1596C106.276 90.9857 106.37 90.8348 106.485 90.7507C106.617 90.6542 106.864 90.5718 107.103 90.4921C107.477 90.367 107.864 90.238 108.156 89.971C108.476 89.6776 108.58 89.3102 108.663 89.0152C108.714 88.8379 108.757 88.6853 108.829 88.6006C108.916 88.4997 109.134 88.378 109.326 88.2714C109.648 88.0919 110.012 87.8883 110.23 87.5579C110.468 87.1972 110.457 86.8113 110.449 86.5011C110.444 86.3418 110.44 86.1769 110.477 86.0995C110.521 86.0069 110.694 85.8549 110.832 85.7326C111.102 85.4953 111.408 85.2261 111.528 84.8402C111.653 84.4357 111.525 84.061 111.422 83.7604C111.374 83.619 111.313 83.4435 111.325 83.3683C111.337 83.2914 111.456 83.1192 111.543 82.9936C111.732 82.721 111.967 82.3816 111.967 81.9637C111.967 81.5458 111.732 81.2065 111.543 80.9339C111.456 80.8082 111.337 80.6355 111.325 80.5592C111.314 80.484 111.374 80.3079 111.422 80.1671C111.525 79.8664 111.653 79.4917 111.528 79.0873C111.408 78.7019 111.102 78.4327 110.832 78.1954C110.694 78.0731 110.521 77.9211 110.477 77.8291C110.44 77.7517 110.444 77.5874 110.449 77.4275C110.457 77.1173 110.468 76.7319 110.23 76.3707C110.012 76.0403 109.648 75.8367 109.326 75.6572C109.134 75.5501 108.917 75.4289 108.83 75.3279C108.757 75.2438 108.714 75.0907 108.664 74.914C108.58 74.6189 108.476 74.2515 108.156 73.9582C107.864 73.6911 107.478 73.5616 107.104 73.4371C106.865 73.3574 106.618 73.2749 106.486 73.1785C106.371 73.0943 106.278 72.944 106.169 72.7695C106.005 72.5059 105.801 72.1778 105.426 71.959C105.079 71.7565 104.672 71.6942 104.278 71.6348C104.015 71.595 103.743 71.5534 103.572 71.4749C103.416 71.4031 103.272 71.2651 103.105 71.1053C102.862 70.8714 102.586 70.606 102.177 70.4619C101.86 70.3503 101.516 70.3351 101.222 70.3351C101.142 70.3351 101.061 70.3362 100.981 70.3374C100.906 70.3385 100.83 70.3396 100.755 70.3396C100.582 70.3396 100.384 70.334 100.228 70.2942C100.041 70.2465 99.8437 70.1259 99.6345 69.9991C99.3332 69.8157 98.9916 69.6082 98.5636 69.5369C98.4543 69.519 98.3421 69.51 98.2209 69.51C97.9281 69.51 97.6448 69.5621 97.3705 69.6126C97.1327 69.6564 96.9078 69.6973 96.7126 69.6973C96.6806 69.6973 96.6492 69.6962 96.6178 69.6934C96.4147 69.6766 96.1814 69.5902 95.934 69.4982C95.5896 69.3703 95.1997 69.2256 94.7678 69.2256Z" fill="#6C4023"/>
<path d="M94.7689 91.7256C94.4603 91.7256 94.1838 91.6224 93.9157 91.5237C93.7132 91.4486 93.5214 91.3773 93.3419 91.3627C93.3138 91.3605 93.2846 91.3594 93.256 91.3594C93.0894 91.3594 92.9077 91.393 92.7153 91.4284C92.5089 91.4659 92.2952 91.5058 92.082 91.5058C92.0001 91.5058 91.9193 91.4996 91.8408 91.4867C91.5368 91.4362 91.2849 91.2831 91.0622 91.1473C90.8895 91.0419 90.7257 90.9426 90.5585 90.9C90.4205 90.8646 90.2545 90.8601 90.1098 90.8601L89.7457 90.8635C89.5191 90.8635 89.2785 90.8528 89.0552 90.7743C88.768 90.6728 88.5661 90.4787 88.3877 90.3076C88.2537 90.1792 88.1275 90.0574 87.9822 89.9907C87.829 89.92 87.6064 89.8858 87.391 89.8538C87.0987 89.809 86.7958 89.7635 86.5518 89.6205C86.2938 89.4696 86.1524 89.2424 86.0273 89.0422C85.9342 88.893 85.854 88.7639 85.7401 88.6804C85.6179 88.5906 85.4131 88.5228 85.2157 88.4566C84.9403 88.3646 84.6553 88.2698 84.4534 88.0847C84.2369 87.8861 84.1656 87.6342 84.1028 87.4132C84.0585 87.2579 84.0209 87.1227 83.9418 87.0312C83.856 86.9314 83.6821 86.8343 83.5138 86.7401C83.267 86.6027 83.0118 86.4602 82.8637 86.2347C82.7055 85.9952 82.7128 85.7332 82.719 85.5027C82.7229 85.3535 82.7268 85.2127 82.682 85.1185C82.6337 85.0175 82.4985 84.898 82.3673 84.783C82.1637 84.6035 81.9522 84.4179 81.872 84.1598C81.7895 83.8934 81.8765 83.6399 81.9533 83.416C82.001 83.2769 82.0504 83.1328 82.0358 83.0363C82.0212 82.9404 81.9292 82.8074 81.8395 82.6784C81.6981 82.4742 81.5371 82.2426 81.5371 81.9655C81.5371 81.6884 81.6975 81.4573 81.8395 81.2525C81.9286 81.1241 82.0206 80.9906 82.0352 80.8952C82.0498 80.7988 82.0004 80.6546 81.9528 80.5155C81.8759 80.2917 81.789 80.0376 81.8714 79.7717C81.9516 79.5131 82.1631 79.3274 82.3673 79.1479C82.498 79.0324 82.6337 78.9135 82.682 78.8125C82.7274 78.7183 82.7235 78.5775 82.719 78.4283C82.7123 78.1977 82.7055 77.9358 82.8631 77.6957C83.0118 77.4708 83.267 77.3283 83.5133 77.1909C83.6815 77.0966 83.856 76.9996 83.9418 76.8997C84.0209 76.8083 84.0585 76.6737 84.1028 76.5177C84.1656 76.2962 84.2369 76.0449 84.4534 75.8469C84.6559 75.6606 84.9414 75.5653 85.2174 75.4733C85.4148 75.4077 85.6184 75.3398 85.7407 75.2506C85.8546 75.1676 85.9348 75.038 86.0279 74.8888C86.153 74.6886 86.2943 74.4608 86.5524 74.3099C86.7969 74.1669 87.0993 74.1215 87.3915 74.0771C87.6069 74.0441 87.8296 74.0109 87.9833 73.9403C88.128 73.8735 88.2542 73.7518 88.3883 73.6239C88.5667 73.4523 88.7692 73.2587 89.0558 73.1572C89.279 73.0781 89.5197 73.0675 89.7463 73.0675L90.1098 73.0714C90.2545 73.0714 90.4211 73.0664 90.5591 73.031C90.7268 72.9884 90.89 72.8885 91.0628 72.7836C91.2849 72.6485 91.5374 72.4948 91.8408 72.4448C91.9193 72.4319 92.0001 72.4258 92.082 72.4258C92.2952 72.4258 92.5089 72.465 92.7153 72.5032C92.9071 72.5385 93.0889 72.5716 93.2549 72.5716C93.2841 72.5716 93.3132 72.5705 93.3424 72.5682C93.5225 72.5537 93.7143 72.4824 93.9174 72.4072C94.1849 72.3074 94.4615 72.2053 94.77 72.2053C95.0785 72.2053 95.355 72.3085 95.6226 72.4072C95.8257 72.4824 96.0175 72.5537 96.1964 72.5682C96.2256 72.5705 96.2548 72.5716 96.2845 72.5716C96.4505 72.5716 96.6323 72.538 96.8247 72.5032C97.0311 72.4656 97.2442 72.4258 97.4574 72.4258C97.5393 72.4258 97.6201 72.4319 97.6986 72.4448C98.0021 72.4953 98.2545 72.6485 98.4766 72.7836C98.6494 72.8891 98.8132 72.9884 98.9809 73.031C99.1194 73.0664 99.2855 73.0714 99.4302 73.0714L99.7937 73.0675C100.02 73.0675 100.261 73.0787 100.485 73.1572C100.771 73.2587 100.973 73.4523 101.151 73.6234C101.285 73.7518 101.411 73.8735 101.557 73.9403C101.71 74.0109 101.932 74.0452 102.148 74.0771C102.441 74.122 102.744 74.1674 102.988 74.3105C103.246 74.4619 103.387 74.6891 103.512 74.8894C103.605 75.0386 103.685 75.1676 103.799 75.2512C103.922 75.3404 104.126 75.4082 104.323 75.4744C104.599 75.5658 104.884 75.6612 105.087 75.8463C105.303 76.0449 105.374 76.2967 105.437 76.5177C105.481 76.6731 105.519 76.8083 105.598 76.8997C105.684 77.0001 105.858 77.0977 106.027 77.1914C106.274 77.3289 106.528 77.4713 106.676 77.6957C106.834 77.9358 106.827 78.1977 106.821 78.4288C106.817 78.578 106.813 78.7188 106.858 78.8136C106.906 78.914 107.041 79.033 107.173 79.1479C107.377 79.3274 107.588 79.5131 107.669 79.7717C107.751 80.0381 107.664 80.2917 107.587 80.5155C107.54 80.6546 107.49 80.7988 107.505 80.8952C107.519 80.9906 107.611 81.1235 107.701 81.2525C107.842 81.4567 108.003 81.6884 108.003 81.9655C108.003 82.2426 107.842 82.4737 107.701 82.6784C107.611 82.8069 107.519 82.9404 107.505 83.0357C107.49 83.1328 107.54 83.2769 107.587 83.416C107.664 83.6399 107.751 83.8934 107.669 84.1593C107.588 84.4179 107.377 84.6035 107.173 84.783C107.042 84.8986 106.906 85.0175 106.858 85.1185C106.813 85.2127 106.816 85.3535 106.821 85.5033C106.827 85.7338 106.834 85.9958 106.676 86.2358C106.528 86.4602 106.274 86.6027 106.027 86.7396C105.858 86.8338 105.684 86.9314 105.598 87.0318C105.519 87.1232 105.481 87.2579 105.437 87.4138C105.374 87.6354 105.303 87.8866 105.086 88.0847C104.884 88.2703 104.599 88.3657 104.323 88.4571C104.125 88.5233 103.921 88.5912 103.799 88.6804C103.685 88.7634 103.605 88.893 103.512 89.0422C103.386 89.2424 103.245 89.4702 102.986 89.621C102.742 89.7641 102.44 89.8095 102.147 89.8544C101.932 89.8869 101.709 89.9206 101.556 89.9913C101.411 90.058 101.285 90.1797 101.151 90.3076C100.972 90.4793 100.77 90.6728 100.484 90.7743C100.26 90.8534 100.019 90.8635 99.7931 90.8635L99.4291 90.8601C99.2849 90.8601 99.1183 90.8652 98.9803 90.9C98.8126 90.9426 98.6494 91.0424 98.4766 91.1473C98.2545 91.2831 98.0021 91.4368 97.6986 91.4867C97.6201 91.4996 97.5393 91.5058 97.4574 91.5058C97.2442 91.5058 97.0305 91.4665 96.8241 91.4284C96.6317 91.393 96.45 91.3594 96.2834 91.3594C96.2542 91.3594 96.2256 91.3605 96.197 91.3627C96.0175 91.3773 95.8262 91.4486 95.6232 91.5237C95.3539 91.623 95.0774 91.7256 94.7689 91.7256Z" fill="#FAC702"/>
<path d="M94.7675 72.4845C95.2499 72.4845 95.7031 72.8087 96.1715 72.8469C96.2074 72.8497 96.2439 72.8514 96.2809 72.8514C96.6635 72.8514 97.078 72.7055 97.4549 72.7055C97.5211 72.7055 97.5862 72.71 97.6501 72.7207C98.1185 72.7986 98.4618 73.1885 98.9089 73.3029C99.0682 73.3439 99.246 73.3517 99.4277 73.3517C99.5483 73.3517 99.6706 73.3483 99.7906 73.3483C100.004 73.3483 100.211 73.3596 100.389 73.4224C100.819 73.5744 101.035 74.0108 101.437 74.1959C101.841 74.3821 102.471 74.3362 102.843 74.5538C103.216 74.7714 103.294 75.2319 103.631 75.4782C103.968 75.725 104.596 75.7822 104.894 76.0548C105.191 76.3269 105.128 76.788 105.383 77.0841C105.636 77.3786 106.231 77.5363 106.439 77.8515C106.646 78.1645 106.444 78.6037 106.602 78.9346C106.759 79.2617 107.291 79.513 107.397 79.8557C107.502 80.1928 107.171 80.5883 107.225 80.9383C107.277 81.281 107.719 81.6131 107.719 81.9659C107.719 82.3193 107.277 82.6508 107.225 82.9935C107.171 83.3435 107.502 83.7384 107.397 84.0761C107.291 84.4188 106.759 84.6701 106.602 84.9977C106.444 85.3287 106.645 85.7679 106.439 86.0809C106.231 86.3961 105.636 86.5537 105.383 86.8482C105.128 87.1438 105.191 87.6055 104.894 87.8775C104.596 88.1501 103.968 88.2074 103.631 88.4542C103.294 88.701 103.216 89.1609 102.843 89.3786C102.471 89.5957 101.841 89.5497 101.437 89.7359C101.035 89.921 100.819 90.3574 100.389 90.5094C100.211 90.5717 100.005 90.5835 99.7912 90.5835C99.6706 90.5835 99.5483 90.5801 99.4277 90.5801C99.246 90.5801 99.0682 90.5879 98.9094 90.6289C98.4624 90.7433 98.1191 91.1332 97.6513 91.2111C97.5873 91.2218 97.5222 91.2263 97.456 91.2263C97.0785 91.2263 96.6646 91.0804 96.2815 91.0804C96.2444 91.0804 96.2086 91.0816 96.1721 91.0849C95.7037 91.1231 95.2505 91.4473 94.7681 91.4473C94.2857 91.4473 93.8324 91.1231 93.3641 91.0849C93.3282 91.0821 93.2917 91.0804 93.2547 91.0804C92.8721 91.0804 92.4576 91.2263 92.0807 91.2263C92.0145 91.2263 91.9494 91.2218 91.8855 91.2111C91.4171 91.1332 91.0738 90.7433 90.6267 90.6289C90.4674 90.5879 90.2896 90.5801 90.1079 90.5801C89.9873 90.5801 89.865 90.5835 89.7444 90.5835C89.5307 90.5835 89.3237 90.5722 89.1464 90.5094C88.7157 90.3574 88.5003 89.921 88.0981 89.7359C87.6936 89.5497 87.0637 89.5957 86.6918 89.378C86.3188 89.1604 86.2408 88.6999 85.9043 88.4536C85.5672 88.2068 84.9389 88.1496 84.6411 87.877C84.3443 87.6049 84.4072 87.1438 84.1525 86.8477C83.8995 86.5532 83.3038 86.3956 83.0957 86.0803C82.8893 85.7673 83.0912 85.3281 82.933 84.9972C82.7765 84.6701 82.2442 84.4188 82.1376 84.0761C82.0327 83.739 82.3637 83.3435 82.3104 82.9935C82.2582 82.6508 81.8157 82.3187 81.8157 81.9659C81.8157 81.6131 82.2582 81.281 82.3104 80.9383C82.3637 80.5883 82.0327 80.1934 82.1376 79.8557C82.2442 79.513 82.7765 79.2617 82.933 78.9341C83.0912 78.6031 82.8898 78.1639 83.0957 77.8509C83.3038 77.5357 83.8995 77.3781 84.1525 77.0836C84.4072 76.788 84.3443 76.3263 84.6411 76.0543C84.9389 75.7817 85.5672 75.7245 85.9043 75.4776C86.2414 75.2308 86.3194 74.7709 86.6918 74.5532C87.0637 74.3362 87.6936 74.3821 88.0981 74.1959C88.5003 74.0108 88.7157 73.5744 89.1464 73.4224C89.3237 73.3601 89.5301 73.3483 89.7438 73.3483C89.8644 73.3483 89.9867 73.3517 90.1073 73.3517C90.2891 73.3517 90.4669 73.3439 90.6256 73.3029C91.0727 73.1885 91.416 72.7986 91.8838 72.7207C91.9477 72.71 92.0128 72.7055 92.079 72.7055C92.4565 72.7055 92.8705 72.8514 93.2536 72.8514C93.2906 72.8514 93.3265 72.8503 93.363 72.8469C93.8319 72.8082 94.2851 72.4845 94.7675 72.4845ZM94.7675 71.9236C94.4091 71.9236 94.0944 72.0403 93.8167 72.1435C93.6328 72.2119 93.4589 72.2764 93.3175 72.2876C93.2968 72.2893 93.2754 72.2899 93.2541 72.2899C93.1133 72.2899 92.9434 72.259 92.7644 72.2259C92.5457 72.1855 92.3191 72.144 92.0801 72.144C91.9803 72.144 91.8832 72.1519 91.7929 72.1665C91.4362 72.2259 91.1596 72.3942 90.9156 72.5429C90.7608 72.6371 90.615 72.7257 90.4876 72.7583C90.3794 72.7863 90.2279 72.7897 90.1084 72.7897L89.9346 72.788L89.7444 72.7863C89.5049 72.7863 89.2244 72.7986 88.9602 72.8923C88.6164 73.0135 88.3813 73.2395 88.1923 73.4207C88.0706 73.5374 87.9657 73.6384 87.8636 73.6849C87.7464 73.7388 87.5433 73.7696 87.3475 73.7993C87.0441 73.8453 86.6997 73.8975 86.4097 74.0675C86.0916 74.2531 85.9234 74.5229 85.7887 74.74C85.7113 74.8645 85.644 74.9722 85.5739 75.0238C85.4869 75.0872 85.2957 75.1512 85.1268 75.2078C84.8374 75.3043 84.5093 75.4137 84.263 75.6397C83.9881 75.8922 83.8978 76.2097 83.8322 76.4413C83.8002 76.5546 83.7666 76.6719 83.7284 76.7167C83.6751 76.779 83.5091 76.8715 83.3756 76.9456C83.1125 77.0925 82.8147 77.2586 82.6285 77.5413C82.4215 77.8549 82.431 78.1909 82.4377 78.436C82.44 78.5229 82.4439 78.6542 82.4276 78.6918C82.4013 78.7434 82.2683 78.86 82.1808 78.9375C81.9694 79.1237 81.7063 79.3548 81.6031 79.6885C81.4931 80.0425 81.6048 80.3684 81.6867 80.6062C81.7153 80.6892 81.7579 80.8137 81.7568 80.8575C81.7456 80.894 81.6631 81.0134 81.6081 81.0925C81.4511 81.3191 81.2559 81.6007 81.2559 81.9648C81.2559 82.3288 81.4511 82.611 81.6081 82.837C81.6631 82.9161 81.7456 83.0356 81.7585 83.0827C81.7585 83.1158 81.7153 83.2403 81.6872 83.3234C81.6053 83.5612 81.4937 83.8876 81.6036 84.241C81.7074 84.5748 81.9705 84.8059 82.1814 84.9921C82.2689 85.069 82.4013 85.1856 82.4282 85.2384C82.4439 85.2748 82.44 85.4066 82.4377 85.4936C82.431 85.7387 82.422 86.0742 82.6285 86.3883C82.8147 86.6704 83.1125 86.837 83.3756 86.984C83.5091 87.0586 83.6746 87.1511 83.7284 87.2128C83.7671 87.2577 83.8002 87.3749 83.8322 87.4883C83.8978 87.7199 83.9881 88.038 84.263 88.2898C84.5093 88.5159 84.8374 88.6253 85.1268 88.7217C85.2957 88.7778 85.4869 88.8418 85.5739 88.9057C85.644 88.9573 85.7113 89.0645 85.7887 89.1895C85.9239 89.4066 86.0916 89.6764 86.4097 89.8621C86.7002 90.0321 87.0441 90.0842 87.3475 90.1302C87.5439 90.16 87.7469 90.1908 87.8642 90.2447C87.9663 90.2918 88.0711 90.3927 88.1929 90.5094C88.3819 90.6906 88.6169 90.9167 88.9608 91.0378C89.225 91.1309 89.5054 91.1438 89.7455 91.1438L89.9351 91.1421L90.1084 91.1405C90.2279 91.1405 90.3794 91.1438 90.4882 91.1719C90.6155 91.2044 90.7614 91.2936 90.9162 91.3873C91.1602 91.5359 91.4367 91.7042 91.794 91.7637C91.886 91.7788 91.9797 91.7861 92.0812 91.7861C92.3202 91.7861 92.5468 91.7446 92.7656 91.7042C92.9451 91.6711 93.1145 91.6403 93.2553 91.6403C93.2766 91.6403 93.2979 91.6408 93.3186 91.6425C93.4594 91.6537 93.6333 91.7188 93.8179 91.7866C94.0955 91.8899 94.4096 92.0065 94.7686 92.0065C95.1271 92.0065 95.4418 91.8899 95.7194 91.7866C95.9034 91.7182 96.0773 91.6537 96.2186 91.6425C96.2394 91.6408 96.2607 91.6403 96.282 91.6403C96.4228 91.6403 96.5922 91.6717 96.7717 91.7042C96.9905 91.7446 97.2171 91.7861 97.456 91.7861C97.5559 91.7861 97.6529 91.7782 97.7432 91.7637C98.1 91.7042 98.3765 91.5359 98.6205 91.3873C98.7754 91.293 98.9212 91.2044 99.0485 91.1719C99.1568 91.1438 99.3082 91.1405 99.4277 91.1405L99.6016 91.1421L99.7918 91.1438C100.031 91.1438 100.312 91.1315 100.576 91.0378C100.92 90.9167 101.155 90.6906 101.344 90.5094C101.466 90.3927 101.57 90.2918 101.673 90.2452C101.79 90.1914 101.993 90.1605 102.189 90.1308C102.492 90.0848 102.836 90.0326 103.126 89.8627C103.445 89.677 103.613 89.4066 103.747 89.1901C103.825 89.0656 103.892 88.9579 103.962 88.9063C104.049 88.8429 104.24 88.779 104.409 88.7223C104.699 88.6258 105.027 88.5164 105.273 88.2904C105.548 88.038 105.638 87.7205 105.704 87.4888C105.736 87.3755 105.77 87.2583 105.808 87.2134C105.861 87.1511 106.027 87.0586 106.161 86.9845C106.424 86.8376 106.721 86.6715 106.908 86.3888C107.115 86.0753 107.105 85.7393 107.098 85.4942C107.096 85.4072 107.092 85.2759 107.109 85.2384C107.135 85.1867 107.268 85.0701 107.355 84.9927C107.567 84.8064 107.83 84.5753 107.933 84.2416C108.043 83.8877 107.931 83.5617 107.85 83.3239C107.821 83.2415 107.778 83.1164 107.779 83.0726C107.791 83.0362 107.873 82.9167 107.928 82.8376C108.085 82.611 108.28 82.3294 108.28 81.9653C108.28 81.6013 108.085 81.3192 107.928 81.0931C107.873 81.014 107.791 80.8945 107.778 80.8474C107.778 80.8143 107.821 80.6892 107.849 80.6068C107.931 80.3689 108.042 80.0425 107.933 79.6891C107.829 79.3553 107.566 79.1242 107.355 78.938C107.267 78.8612 107.135 78.7445 107.108 78.6918C107.092 78.6553 107.096 78.5235 107.098 78.4365C107.105 78.1914 107.114 77.856 106.908 77.5419C106.721 77.2592 106.424 77.0931 106.161 76.9461C106.027 76.8715 105.862 76.779 105.808 76.7173C105.769 76.6724 105.736 76.5552 105.704 76.4419C105.638 76.2102 105.548 75.8927 105.273 75.6403C105.027 75.4142 104.699 75.3049 104.409 75.2084C104.24 75.1523 104.049 75.0884 103.962 75.0244C103.892 74.9728 103.825 74.8657 103.747 74.7406C103.612 74.5235 103.445 74.2537 103.126 74.068C102.836 73.8981 102.492 73.8459 102.189 73.7999C101.992 73.7702 101.789 73.7393 101.672 73.6855C101.57 73.6384 101.465 73.5374 101.343 73.4207C101.154 73.2395 100.919 73.0135 100.575 72.8923C100.311 72.7992 100.031 72.7863 99.7906 72.7863L99.601 72.788L99.4277 72.7897C99.3082 72.7897 99.1568 72.7863 99.048 72.7583C98.9206 72.7257 98.7748 72.6365 98.62 72.5429C98.376 72.3942 98.0994 72.2259 97.7421 72.1665C97.6501 72.1513 97.5565 72.144 97.4549 72.144C97.216 72.144 96.9894 72.1855 96.7706 72.2259C96.5911 72.259 96.4217 72.2899 96.2809 72.2899C96.2596 72.2899 96.2383 72.2893 96.2175 72.2876C96.0767 72.2764 95.9023 72.2114 95.7183 72.1435C95.4406 72.0403 95.126 71.9236 94.7675 71.9236Z" fill="#6C4023"/>
<path d="M94.7685 88.9408C94.5357 88.9408 94.3242 88.8623 94.1375 88.7927C93.9995 88.7417 93.8693 88.6929 93.7538 88.6839C93.747 88.6839 93.7403 88.6839 93.733 88.6839C93.5788 88.6839 93.4593 88.7058 93.3325 88.7294C93.1827 88.7569 93.0285 88.7854 92.8698 88.7854C92.8075 88.7854 92.7458 88.7804 92.6858 88.7709C92.4558 88.7327 92.2707 88.6194 92.1069 88.5207C91.9902 88.4495 91.8797 88.3822 91.7726 88.3547C91.6845 88.3322 91.5734 88.3289 91.477 88.3289L91.2189 88.3317C91.0596 88.3317 90.874 88.3232 90.7046 88.2638C90.4847 88.1858 90.3355 88.0422 90.2037 87.916C90.11 87.8263 90.0292 87.7488 89.9395 87.7073C89.8419 87.6625 89.6904 87.6395 89.5434 87.617C89.3292 87.5845 89.1076 87.5508 88.9219 87.442C88.7217 87.3254 88.6117 87.1481 88.5231 87.0062C88.462 86.9075 88.4092 86.8233 88.3414 86.7734C88.2651 86.7173 88.1271 86.6713 87.9936 86.627C87.7911 86.5591 87.5813 86.4896 87.4259 86.3471C87.2554 86.1912 87.1993 85.9931 87.1544 85.8344C87.1258 85.7334 87.1012 85.647 87.0574 85.596C87.0064 85.5365 86.8897 85.4709 86.7769 85.4087C86.5941 85.306 86.405 85.2011 86.2895 85.025C86.1638 84.8337 86.1695 84.6267 86.1739 84.4601C86.1762 84.3687 86.179 84.275 86.156 84.2262C86.1296 84.1707 86.0365 84.0888 85.9541 84.0164C85.8082 83.888 85.6433 83.7433 85.5794 83.538C85.5132 83.3243 85.5822 83.1229 85.6377 82.9613C85.6669 82.8772 85.6994 82.7807 85.6927 82.7325C85.6854 82.6842 85.6203 82.5906 85.5681 82.5148C85.4666 82.3679 85.3398 82.1856 85.3398 81.9645C85.3398 81.7435 85.4666 81.5607 85.5681 81.4148C85.6203 81.3391 85.6854 81.2449 85.6927 81.1966C85.7 81.1484 85.6669 81.0525 85.6377 80.9678C85.5822 80.8062 85.5132 80.6054 85.5794 80.3911C85.6427 80.187 85.8082 80.0417 85.9535 79.9132C86.036 79.8403 86.1291 79.759 86.156 79.7023C86.1796 79.6541 86.1767 79.5599 86.1739 79.469C86.1695 79.3024 86.1638 79.0954 86.2901 78.9041C86.4062 78.7285 86.5946 78.6231 86.7775 78.5204C86.8903 78.4582 87.0069 78.3925 87.058 78.3331C87.1023 78.282 87.127 78.1957 87.155 78.0947C87.1999 77.936 87.256 77.738 87.4259 77.5826C87.5819 77.4395 87.7917 77.3694 87.9947 77.3015C88.1282 77.2572 88.2662 77.2112 88.3419 77.1557C88.4098 77.1058 88.4625 77.0217 88.5237 76.9229C88.6123 76.781 88.7222 76.6038 88.9225 76.4871C89.1087 76.3788 89.3303 76.3446 89.544 76.3121C89.6904 76.2896 89.8419 76.2666 89.94 76.2218C90.0298 76.1803 90.1105 76.1028 90.2037 76.0131C90.3355 75.8863 90.4847 75.7433 90.704 75.6653C90.8745 75.6059 91.0596 75.5974 91.2189 75.5974L91.477 75.6003C91.5734 75.6003 91.6845 75.5969 91.7731 75.5744C91.8797 75.547 91.9902 75.4797 92.1069 75.409C92.2701 75.3091 92.4552 75.1964 92.6852 75.1582C92.7452 75.1482 92.8064 75.1442 92.8686 75.1442C93.0274 75.1442 93.1822 75.1728 93.332 75.2003C93.4643 75.225 93.5889 75.2474 93.6994 75.2474C93.8682 75.2357 93.9983 75.188 94.1363 75.1369C94.3231 75.0674 94.5352 74.9883 94.7679 74.9883C95.0007 74.9883 95.2122 75.0674 95.399 75.1364C95.537 75.1874 95.6665 75.2362 95.7821 75.2452C95.7894 75.2452 95.7967 75.2452 95.804 75.2452C95.9588 75.2452 96.0783 75.2233 96.2045 75.2003C96.3542 75.1728 96.5085 75.1442 96.6667 75.1442C96.7284 75.1442 96.7895 75.1487 96.8495 75.1582C97.0801 75.1964 97.2652 75.3097 97.4284 75.409C97.5451 75.4797 97.6556 75.547 97.7627 75.5744C97.8514 75.5969 97.9624 75.6003 98.0595 75.6003L98.3147 75.5974C98.4746 75.5974 98.6613 75.6059 98.8319 75.6659C99.0512 75.7433 99.2004 75.8875 99.3328 76.0137C99.4259 76.1028 99.5067 76.1803 99.5964 76.2218C99.694 76.2666 99.8455 76.2896 99.9919 76.3121C100.206 76.3446 100.428 76.3783 100.613 76.4871C100.814 76.6038 100.924 76.781 101.013 76.9235C101.074 77.0216 101.127 77.1063 101.195 77.1557C101.27 77.2118 101.408 77.2578 101.542 77.3021C101.745 77.37 101.955 77.4401 102.11 77.5831C102.28 77.7385 102.337 77.9365 102.381 78.0953C102.41 78.1962 102.435 78.2826 102.478 78.3337C102.529 78.3926 102.646 78.4582 102.759 78.521C102.942 78.6231 103.13 78.728 103.246 78.9041C103.373 79.096 103.366 79.3029 103.362 79.4695C103.36 79.5649 103.357 79.6541 103.38 79.7029C103.407 79.7595 103.5 79.8414 103.583 79.9138C103.728 80.0423 103.893 80.1864 103.957 80.3911C104.023 80.6054 103.954 80.8062 103.899 80.9678C103.87 81.0525 103.837 81.1484 103.844 81.1966C103.851 81.2449 103.916 81.3391 103.968 81.4148C104.07 81.5612 104.197 81.7441 104.197 81.9645C104.197 82.1861 104.07 82.3684 103.968 82.5148C103.916 82.5906 103.851 82.6842 103.844 82.7325C103.836 82.7807 103.87 82.8772 103.899 82.9613C103.954 83.1229 104.023 83.3243 103.957 83.538C103.894 83.7421 103.728 83.8874 103.583 84.0159C103.5 84.0888 103.407 84.1701 103.38 84.2268C103.357 84.2756 103.36 84.3653 103.362 84.4601C103.366 84.6267 103.372 84.8337 103.246 85.025C103.13 85.2006 102.942 85.306 102.759 85.4087C102.646 85.4709 102.53 85.5365 102.478 85.596C102.434 85.647 102.409 85.734 102.381 85.835C102.336 85.9932 102.28 86.1912 102.11 86.3465C101.954 86.4896 101.744 86.5597 101.541 86.6276C101.408 86.6719 101.27 86.7184 101.194 86.774C101.126 86.8239 101.073 86.908 101.012 87.0067C100.924 87.1487 100.814 87.3259 100.613 87.4426C100.427 87.5508 100.206 87.5845 99.9924 87.6176C99.846 87.6395 99.694 87.6625 99.5964 87.7079C99.5061 87.7494 99.4253 87.8268 99.3322 87.916C99.2004 88.0428 99.0506 88.1864 98.8313 88.2638C98.6613 88.3232 98.4757 88.3317 98.3169 88.3317L98.0589 88.3289C97.9619 88.3289 97.8508 88.3322 97.7622 88.3547C97.6562 88.3822 97.5457 88.4489 97.429 88.5201C97.2652 88.62 97.0806 88.7327 96.8507 88.7709C96.7906 88.781 96.7289 88.7854 96.6661 88.7854C96.5079 88.7854 96.3531 88.7569 96.2039 88.7294C96.0715 88.7047 95.947 88.6822 95.8365 88.6822C95.6671 88.6935 95.537 88.7417 95.3995 88.7927C95.2128 88.8623 95.0007 88.9408 94.7685 88.9408Z" fill="#FB485E"/>
<path d="M94.7699 75.2689C95.111 75.2689 95.4307 75.4978 95.7617 75.5247C95.7869 75.527 95.8127 75.5275 95.8391 75.5275C96.1094 75.5275 96.4017 75.4243 96.6687 75.4243C96.7158 75.4243 96.7618 75.4277 96.8067 75.435C97.1376 75.4899 97.3799 75.7654 97.6957 75.8461C97.8085 75.8747 97.9336 75.8809 98.062 75.8809C98.1473 75.8809 98.2337 75.8787 98.3184 75.8787C98.4693 75.8787 98.6157 75.8865 98.7408 75.9308C99.0448 76.0385 99.1974 76.3465 99.4812 76.4772C99.7667 76.609 100.212 76.5765 100.475 76.7296C100.738 76.8833 100.793 77.2086 101.031 77.3825C101.269 77.557 101.713 77.5973 101.923 77.7897C102.133 77.9821 102.088 78.3075 102.268 78.5167C102.447 78.7248 102.868 78.8359 103.014 79.0586C103.16 79.2796 103.018 79.5898 103.129 79.8237C103.24 80.0548 103.616 80.232 103.691 80.4744C103.765 80.7128 103.531 80.9915 103.569 81.2389C103.606 81.4812 103.918 81.7151 103.918 81.9647C103.918 82.2143 103.606 82.4483 103.569 82.6906C103.531 82.938 103.764 83.2167 103.691 83.4551C103.616 83.6975 103.24 83.8747 103.129 84.1058C103.018 84.3397 103.16 84.6499 103.014 84.8709C102.868 85.0936 102.447 85.2052 102.268 85.4128C102.088 85.6214 102.133 85.9473 101.923 86.1397C101.713 86.3327 101.269 86.3725 101.031 86.547C100.793 86.7209 100.738 87.0462 100.475 87.1999C100.212 87.3536 99.7667 87.3211 99.4812 87.4523C99.1974 87.583 99.0448 87.891 98.7408 87.9987C98.6157 88.043 98.4698 88.0508 98.3189 88.0508C98.2337 88.0508 98.1473 88.048 98.062 88.048C97.9336 88.048 97.8085 88.0536 97.6957 88.0828C97.3799 88.1636 97.1376 88.439 96.8072 88.494C96.7624 88.5012 96.7164 88.5046 96.6692 88.5046C96.4028 88.5046 96.11 88.4014 95.8396 88.4014C95.8138 88.4014 95.788 88.4025 95.7622 88.4042C95.4313 88.4311 95.111 88.66 94.7705 88.66C94.43 88.66 94.1097 88.4311 93.7788 88.4042C93.7535 88.402 93.7277 88.4014 93.7014 88.4014C93.431 88.4014 93.1388 88.5046 92.8718 88.5046C92.8246 88.5046 92.7786 88.5012 92.7338 88.494C92.4028 88.439 92.1605 88.1636 91.8447 88.0828C91.7319 88.0542 91.6069 88.048 91.4784 88.048C91.3931 88.048 91.3068 88.0503 91.2221 88.0503C91.0712 88.0503 90.9248 88.0424 90.7997 87.9981C90.4957 87.8904 90.3431 87.5824 90.0593 87.4518C89.7737 87.3199 89.3289 87.3525 89.0659 87.1993C88.8028 87.0456 88.7472 86.7203 88.5094 86.5464C88.2716 86.372 87.8273 86.3316 87.6175 86.1392C87.4077 85.9468 87.4521 85.6214 87.2726 85.4122C87.0936 85.2041 86.6729 85.0931 86.5265 84.8704C86.3807 84.6494 86.5232 84.3392 86.4115 84.1052C86.301 83.8741 85.9252 83.6969 85.85 83.4546C85.776 83.2162 86.0099 82.9374 85.9723 82.69C85.9353 82.4477 85.6229 82.2138 85.6229 81.9642C85.6229 81.7146 85.9353 81.4807 85.9723 81.2383C86.0099 80.991 85.7766 80.7122 85.85 80.4738C85.9252 80.2315 86.301 80.0542 86.4115 79.8231C86.5232 79.5892 86.3807 79.279 86.5265 79.058C86.6735 78.8353 87.0942 78.7237 87.2731 78.5162C87.4526 78.3069 87.4083 77.9816 87.6181 77.7892C87.8284 77.5962 88.2721 77.5564 88.51 77.382C88.7478 77.2081 88.8033 76.8827 89.0664 76.729C89.3289 76.5753 89.7743 76.6079 90.0598 76.4766C90.3437 76.3459 90.4962 76.038 90.8002 75.9303C90.9253 75.886 91.0712 75.8781 91.2221 75.8781C91.3073 75.8781 91.3937 75.8809 91.479 75.8809C91.6074 75.8809 91.7325 75.8753 91.8453 75.8461C92.1611 75.7654 92.4034 75.4899 92.7338 75.435C92.7786 75.4277 92.8246 75.4243 92.8718 75.4243C93.1382 75.4243 93.431 75.5275 93.7014 75.5275C93.7272 75.5275 93.753 75.5264 93.7788 75.5247C94.1092 75.4978 94.4295 75.2689 94.7699 75.2689ZM94.7699 74.708C94.4872 74.708 94.2399 74.8 94.0413 74.8735C93.9224 74.9178 93.8096 74.9593 93.7328 74.9655L93.7014 74.9666C93.6167 74.9666 93.5045 74.9458 93.385 74.924C93.2308 74.8954 93.0557 74.8634 92.8718 74.8634C92.7921 74.8634 92.7147 74.8696 92.6418 74.8819C92.3579 74.929 92.1392 75.0625 91.963 75.1697C91.8649 75.2297 91.7718 75.2863 91.7056 75.3032C91.6461 75.3183 91.5474 75.32 91.4784 75.32L91.3584 75.3189L91.2221 75.3177C91.0386 75.3177 90.8232 75.3278 90.6135 75.4019C90.3369 75.4995 90.149 75.6801 90.0121 75.8113C89.9431 75.8775 89.8725 75.946 89.8254 75.9673C89.7637 75.9959 89.6262 76.0167 89.5051 76.0352C89.2762 76.0699 89.0165 76.1092 88.7843 76.2449C88.5246 76.397 88.3882 76.6157 88.289 76.775C88.2547 76.8294 88.2037 76.9119 88.1796 76.9293C88.1386 76.959 88.0007 77.005 87.9092 77.0359C87.6893 77.1093 87.4397 77.1924 87.24 77.3758C87.0112 77.5856 86.9371 77.8458 86.8883 78.0186C86.8749 78.0663 86.8547 78.1381 86.8423 78.1594C86.8221 78.1768 86.715 78.2368 86.6443 78.2761C86.4519 78.3832 86.213 78.5167 86.0593 78.7501C85.8848 79.0148 85.8921 79.293 85.8972 79.477C85.8983 79.5118 85.8994 79.56 85.8983 79.5903C85.8747 79.6122 85.8141 79.6661 85.7721 79.7031C85.6072 79.8484 85.4024 80.0284 85.3155 80.3083C85.2218 80.6095 85.3144 80.8799 85.3761 81.0588C85.3862 81.0874 85.3991 81.1256 85.4075 81.1553C85.3884 81.1856 85.3609 81.2254 85.3407 81.2552C85.2235 81.4246 85.0625 81.6562 85.0625 81.9653C85.0625 82.2744 85.2229 82.506 85.3407 82.6754C85.3609 82.7052 85.389 82.745 85.4075 82.7753C85.3985 82.805 85.3856 82.8432 85.3761 82.8718C85.3149 83.0507 85.2218 83.3211 85.3155 83.6223C85.4024 83.9022 85.6072 84.0823 85.7721 84.2275C85.8119 84.2623 85.868 84.3117 85.8983 84.3442C85.8994 84.3745 85.8983 84.4199 85.8972 84.453C85.8921 84.637 85.8843 84.9152 86.0593 85.18C86.213 85.4128 86.4519 85.5463 86.6443 85.654C86.715 85.6932 86.8221 85.7533 86.8519 85.7824C86.8547 85.7914 86.8749 85.8632 86.8889 85.9109C86.9377 86.0831 87.0117 86.3439 87.2406 86.5537C87.4403 86.7371 87.6899 86.8201 87.9098 86.8936C88.0012 86.9239 88.1398 86.9705 88.1801 87.0002C88.2043 87.0176 88.2553 87.1 88.2895 87.1545C88.3888 87.3143 88.5251 87.5325 88.7848 87.6845C89.0171 87.8203 89.2768 87.8595 89.5056 87.8943C89.6268 87.9128 89.7642 87.9336 89.8259 87.9622C89.873 87.9841 89.9443 88.0519 90.0127 88.1181C90.1501 88.2499 90.338 88.4306 90.6146 88.5282C90.8244 88.6022 91.0403 88.6123 91.2237 88.6123L91.3601 88.6112L91.4801 88.6101C91.5491 88.6101 91.6478 88.6118 91.7073 88.6269C91.7735 88.6437 91.8666 88.7004 91.9647 88.7604C92.1409 88.8675 92.3596 89.001 92.6435 89.0482C92.7164 89.0605 92.7938 89.0667 92.8734 89.0667C93.0574 89.0667 93.2324 89.0347 93.3867 89.0061C93.5056 88.9842 93.6184 88.9635 93.7031 88.9635L93.7345 88.9646C93.8113 88.9707 93.9241 89.0128 94.043 89.0566C94.2415 89.13 94.4889 89.222 94.7716 89.222C95.0543 89.222 95.3017 89.13 95.5003 89.0566C95.6192 89.0123 95.7319 88.9707 95.8088 88.9646L95.8402 88.9635C95.9249 88.9635 96.0371 88.9842 96.1566 89.0061C96.3108 89.0347 96.4858 89.0667 96.6698 89.0667C96.7495 89.0667 96.8269 89.0605 96.8998 89.0482C97.1836 89.001 97.4024 88.8675 97.5785 88.7604C97.6767 88.7004 97.7698 88.6437 97.836 88.6269C97.8954 88.6118 97.9942 88.6101 98.0632 88.6101L98.1838 88.6112L98.3201 88.6123C98.5035 88.6123 98.7189 88.6022 98.9287 88.5282C99.2052 88.4306 99.3931 88.2499 99.5305 88.1187C99.5995 88.0525 99.6702 87.9841 99.7173 87.9628C99.779 87.9342 99.9165 87.9134 100.038 87.8949C100.266 87.8601 100.526 87.8209 100.758 87.6851C101.018 87.5331 101.154 87.3143 101.254 87.155C101.288 87.1006 101.339 87.0182 101.363 87.0008C101.404 86.971 101.542 86.925 101.633 86.8942C101.853 86.8207 102.103 86.7377 102.303 86.5543C102.532 86.3445 102.606 86.0842 102.654 85.9114C102.668 85.8638 102.688 85.792 102.7 85.7706C102.721 85.7533 102.828 85.6932 102.898 85.654C103.091 85.5468 103.33 85.4133 103.483 85.18C103.658 84.9152 103.651 84.637 103.646 84.453C103.644 84.4182 103.643 84.37 103.644 84.3397C103.668 84.3178 103.729 84.264 103.771 84.227C103.936 84.0817 104.14 83.9016 104.227 83.6217C104.321 83.3205 104.228 83.0501 104.167 82.8712C104.157 82.8426 104.144 82.8044 104.135 82.7747C104.154 82.7444 104.182 82.7046 104.202 82.6749C104.319 82.5055 104.48 82.2738 104.48 81.9647C104.48 81.6557 104.32 81.424 104.202 81.2546C104.182 81.2249 104.154 81.185 104.135 81.1548C104.144 81.125 104.157 81.0869 104.167 81.0583C104.228 80.8793 104.321 80.609 104.227 80.3078C104.14 80.0279 103.936 79.8478 103.771 79.7025C103.731 79.6677 103.675 79.6184 103.644 79.5858C103.643 79.5555 103.644 79.5101 103.646 79.477C103.651 79.293 103.658 79.0148 103.483 78.7501C103.33 78.5173 103.091 78.3838 102.898 78.2761C102.828 78.2368 102.721 78.1768 102.691 78.1476C102.688 78.1386 102.668 78.0668 102.654 78.0192C102.605 77.847 102.531 77.5861 102.302 77.3763C102.102 77.1929 101.853 77.1099 101.633 77.0364C101.541 77.0061 101.403 76.9596 101.363 76.9298C101.338 76.9125 101.287 76.83 101.253 76.7756C101.154 76.6157 101.018 76.3975 100.758 76.2455C100.526 76.1098 100.266 76.0705 100.037 76.0357C99.9159 76.0172 99.7785 75.9965 99.7168 75.9679C99.6697 75.946 99.5984 75.8781 99.53 75.8119C99.3926 75.6801 99.2046 75.4995 98.9281 75.4019C98.7183 75.3278 98.5024 75.3177 98.3189 75.3177L98.1826 75.3189L98.062 75.32C97.993 75.32 97.8943 75.3183 97.8349 75.3032C97.7687 75.2863 97.6756 75.2297 97.5774 75.1697C97.4013 75.0625 97.1825 74.929 96.8987 74.8819C96.8257 74.8696 96.7483 74.8634 96.6687 74.8634C96.4847 74.8634 96.3097 74.8954 96.1554 74.924C96.0365 74.9458 95.9238 74.9666 95.8391 74.9666L95.8077 74.9655C95.7308 74.9593 95.6181 74.9172 95.4991 74.8735C95.3 74.7994 95.0526 74.708 94.7699 74.708Z" fill="#6C4023"/>
<path d="M94.7697 86.1089C94.6144 86.1089 94.4814 86.0595 94.3647 86.0163C94.2929 85.99 94.2251 85.9647 94.1752 85.9603C94.1729 85.9603 94.1701 85.9603 94.1679 85.9603C94.0871 85.9603 94.0254 85.9732 93.9626 85.9849C93.865 86.0029 93.7674 86.0192 93.6743 86.0192C93.6316 86.0192 93.5896 86.0163 93.5486 86.0091C93.3932 85.9833 93.2709 85.9086 93.1722 85.8492C93.1128 85.8127 93.0561 85.7785 93.0118 85.7673C92.9731 85.7572 92.9147 85.7561 92.8682 85.7561L92.7235 85.7572C92.6208 85.7572 92.5002 85.7516 92.3847 85.7112C92.2338 85.6579 92.1339 85.5614 92.0532 85.4846C92.0089 85.4425 91.9673 85.4027 91.9337 85.387C91.8916 85.3673 91.8092 85.3544 91.7362 85.3438C91.6078 85.3242 91.4625 85.3017 91.3357 85.2277C91.1955 85.1458 91.1198 85.0246 91.0648 84.936C91.0384 84.8934 91.011 84.8496 90.9908 84.8345C90.9627 84.8137 90.8853 84.7879 90.8236 84.7671C90.7008 84.7262 90.5611 84.6797 90.4523 84.5798C90.3294 84.4676 90.2902 84.3302 90.2621 84.2298C90.2531 84.1973 90.2391 84.149 90.2301 84.1367C90.2128 84.1182 90.1454 84.08 90.1006 84.0548C89.9884 83.9925 89.8616 83.9213 89.7786 83.7962C89.6849 83.6537 89.6894 83.5017 89.6922 83.4013C89.6928 83.3721 89.6939 83.3284 89.6905 83.3143C89.6832 83.3059 89.6361 83.2644 89.6047 83.2364C89.5138 83.1562 89.4005 83.0569 89.354 82.9066C89.304 82.7467 89.3529 82.6042 89.3888 82.5004C89.3988 82.4718 89.4134 82.4286 89.4145 82.4135C89.4145 82.4141 89.414 82.4141 89.414 82.4141C89.4084 82.4141 89.3815 82.3754 89.3635 82.349C89.299 82.2559 89.2109 82.1285 89.2109 81.9636C89.2109 81.7993 89.299 81.6714 89.3635 81.5783C89.3831 81.5502 89.4117 81.5082 89.4179 81.4919C89.4179 81.4925 89.4174 81.4925 89.4174 81.4925C89.4117 81.4925 89.3983 81.4537 89.3893 81.4268C89.354 81.3231 89.3052 81.1811 89.3545 81.0201C89.4011 80.8704 89.5144 80.7711 89.6053 80.6909C89.6367 80.6628 89.6838 80.6213 89.695 80.6034C89.6945 80.5989 89.6933 80.5551 89.6928 80.526C89.69 80.425 89.686 80.273 89.7792 80.1316C89.8611 80.0066 89.9889 79.9353 90.1011 79.8731C90.146 79.8478 90.2133 79.8102 90.2307 79.7911C90.2402 79.7788 90.2543 79.73 90.2632 79.698C90.2918 79.5976 90.3311 79.4602 90.4539 79.3475C90.5622 79.2482 90.7013 79.2016 90.8247 79.1607C90.8864 79.1399 90.9638 79.1141 90.9924 79.0934C91.0126 79.0782 91.0401 79.0345 91.0665 78.9918C91.1215 78.9038 91.1972 78.7826 91.338 78.7002C91.4647 78.6255 91.6106 78.6037 91.739 78.584C91.8114 78.5728 91.8939 78.5605 91.9354 78.542C91.969 78.5268 92.0105 78.4859 92.0548 78.4438C92.1356 78.3658 92.236 78.2694 92.3869 78.2166C92.5019 78.1762 92.6214 78.1706 92.7235 78.1706L92.8704 78.1723C92.9164 78.1723 92.9742 78.1712 93.0129 78.1605C93.0578 78.1488 93.1139 78.1151 93.1739 78.0786C93.2721 78.0186 93.3943 77.944 93.5497 77.9182C93.5907 77.9115 93.6322 77.9081 93.6748 77.9081C93.7679 77.9081 93.865 77.9238 93.9631 77.9423C94.0271 77.9541 94.091 77.9676 94.1527 77.9676C94.2262 77.9625 94.2935 77.9373 94.3653 77.9109C94.482 77.8677 94.6149 77.8184 94.7703 77.8184C94.9257 77.8184 95.0586 77.8677 95.1758 77.9109C95.2471 77.9373 95.315 77.9625 95.3655 77.967C95.3683 77.967 95.3711 77.967 95.3739 77.967C95.4546 77.967 95.5163 77.9541 95.5786 77.9423C95.6762 77.9244 95.7738 77.9081 95.8669 77.9081C95.9096 77.9081 95.9511 77.9115 95.992 77.9182C96.1474 77.944 96.2702 78.0192 96.3684 78.0786C96.4278 78.1145 96.4845 78.1493 96.5294 78.1605C96.567 78.1706 96.6242 78.1717 96.6696 78.1717L96.8205 78.1701C96.922 78.1701 97.0409 78.1757 97.1559 78.2161C97.3074 78.2694 97.4072 78.3658 97.488 78.4432C97.5323 78.4859 97.5738 78.5257 97.6075 78.5414C97.6479 78.5599 97.7303 78.5728 97.8032 78.5835C97.9317 78.6031 98.0775 78.625 98.2049 78.6996C98.3457 78.7815 98.4208 78.9026 98.4758 78.9913C98.5022 79.0339 98.5297 79.0776 98.5498 79.0928C98.5779 79.1135 98.6553 79.1393 98.717 79.1601C98.8398 79.201 98.9795 79.2476 99.0883 79.3475C99.2112 79.4596 99.2504 79.5971 99.2785 79.698C99.2875 79.7306 99.3015 79.7788 99.3105 79.7911C99.3278 79.8097 99.3952 79.8478 99.4395 79.8725C99.5517 79.9353 99.6795 80.0065 99.7626 80.1328C99.8557 80.2741 99.8512 80.4261 99.8484 80.5271C99.8478 80.5563 99.8467 80.6 99.8501 80.614C99.8568 80.6213 99.9039 80.6628 99.9353 80.6903C100.026 80.7705 100.14 80.8698 100.187 81.0201C100.237 81.1806 100.188 81.3225 100.152 81.4268C100.142 81.4554 100.127 81.4981 100.126 81.5132C100.132 81.5132 100.159 81.5519 100.178 81.5788C100.242 81.6714 100.33 81.7993 100.33 81.9636C100.33 82.1285 100.242 82.2559 100.178 82.349C100.158 82.377 100.129 82.4191 100.123 82.4354C100.123 82.4348 100.124 82.4348 100.124 82.4348C100.129 82.4348 100.142 82.4741 100.152 82.5004C100.187 82.6048 100.236 82.7461 100.187 82.9071C100.14 83.0569 100.027 83.1562 99.9359 83.2364C99.9045 83.2644 99.8568 83.3059 99.8456 83.3239C99.8467 83.3278 99.8478 83.3716 99.8484 83.4007C99.8512 83.5017 99.8557 83.6537 99.762 83.7956C99.679 83.9213 99.5517 83.9925 99.4395 84.0548C99.3946 84.08 99.3267 84.1176 99.3093 84.1367C99.3004 84.1484 99.2863 84.1967 99.2774 84.2292C99.2488 84.3296 99.2101 84.4671 99.0872 84.5798C98.9784 84.6797 98.8393 84.7262 98.7164 84.7666C98.6547 84.7874 98.5773 84.8132 98.5482 84.8345C98.5274 84.8491 98.5005 84.8928 98.4741 84.936C98.4191 85.0241 98.344 85.1452 98.2026 85.2277C98.0759 85.3017 97.9311 85.3236 97.8032 85.3432C97.7303 85.3544 97.6473 85.3668 97.6058 85.3859C97.5721 85.401 97.5301 85.4414 97.4863 85.484C97.4055 85.5614 97.3051 85.6579 97.1543 85.7106C97.0393 85.751 96.9192 85.7566 96.8166 85.7566L96.6685 85.7555C96.6225 85.7555 96.5653 85.7566 96.5271 85.7667C96.4828 85.7785 96.4262 85.8122 96.3667 85.8486C96.2685 85.9081 96.1463 85.9827 95.9909 86.0085C95.9499 86.0158 95.9079 86.0186 95.8652 86.0186C95.7721 86.0186 95.6751 86.0029 95.5769 85.9844C95.5124 85.9726 95.4485 85.9591 95.3868 85.9591C95.3144 85.9642 95.2465 85.9894 95.1753 86.0158C95.0581 86.0601 94.9251 86.1089 94.7697 86.1089Z" fill="#72CC5E"/>
<path d="M94.769 78.1005C94.9658 78.1005 95.1504 78.2323 95.3411 78.248C95.3557 78.2491 95.3708 78.2497 95.3854 78.2497C95.5414 78.2497 95.7102 78.1902 95.8639 78.1902C95.8908 78.1902 95.9177 78.1919 95.9435 78.1964C96.1343 78.2284 96.2745 78.3871 96.4568 78.4337C96.5219 78.4505 96.5942 78.4539 96.6683 78.4539C96.7176 78.4539 96.7675 78.4522 96.8163 78.4522C96.9033 78.4522 96.988 78.4567 97.0598 78.4825C97.2354 78.5447 97.3234 78.722 97.4872 78.7977C97.6521 78.8734 97.909 78.8549 98.0605 78.9436C98.2125 79.0322 98.2445 79.2201 98.3813 79.3205C98.5182 79.4209 98.7751 79.4445 98.8963 79.5555C99.0174 79.6666 98.9916 79.8545 99.0954 79.9751C99.1986 80.0951 99.4415 80.1596 99.5262 80.2881C99.6103 80.4154 99.5279 80.5944 99.5924 80.7295C99.6563 80.863 99.8728 80.9651 99.9166 81.1048C99.9592 81.2422 99.8246 81.4032 99.8459 81.5463C99.8672 81.6859 100.048 81.8211 100.048 81.9653C100.048 82.1094 99.8672 82.2446 99.8459 82.3843C99.8241 82.5268 99.9592 82.6878 99.9166 82.8252C99.8734 82.9649 99.6563 83.0675 99.5924 83.2004C99.5279 83.3356 99.6103 83.5146 99.5262 83.6419C99.4415 83.7703 99.1986 83.8348 99.0954 83.9549C98.9916 84.0755 99.0174 84.2634 98.8963 84.3745C98.7751 84.4855 98.5188 84.5091 98.3813 84.6095C98.2439 84.7099 98.2119 84.8973 98.0605 84.9864C97.909 85.0751 97.6521 85.056 97.4872 85.1323C97.3234 85.208 97.2354 85.3853 97.0598 85.4475C96.9874 85.4728 96.9033 85.4778 96.8163 85.4778C96.7675 85.4778 96.7176 85.4761 96.6683 85.4761C96.5942 85.4761 96.5219 85.4795 96.4568 85.4963C96.2745 85.5429 96.1348 85.7016 95.9441 85.7336C95.9183 85.7381 95.8914 85.7398 95.8644 85.7398C95.7108 85.7398 95.5419 85.6803 95.386 85.6803C95.3708 85.6803 95.3563 85.6809 95.3417 85.682C95.151 85.6977 94.9658 85.8295 94.7695 85.8295C94.5732 85.8295 94.3881 85.6977 94.1974 85.682C94.1828 85.6809 94.1676 85.6803 94.1531 85.6803C93.9971 85.6803 93.8283 85.7398 93.6746 85.7398C93.6477 85.7398 93.6207 85.7381 93.5949 85.7336C93.4042 85.7016 93.264 85.5429 93.0817 85.4963C93.0166 85.4795 92.9443 85.4761 92.8702 85.4761C92.8208 85.4761 92.7709 85.4778 92.7221 85.4778C92.6352 85.4778 92.5505 85.4733 92.4787 85.4475C92.3031 85.3853 92.2151 85.208 92.0513 85.1323C91.8863 85.0565 91.6294 85.0751 91.478 84.9864C91.326 84.8978 91.294 84.7099 91.1571 84.6095C91.0197 84.5091 90.7634 84.4855 90.6422 84.3745C90.521 84.2634 90.5468 84.0755 90.4431 83.9549C90.3399 83.8348 90.097 83.7703 90.0123 83.6419C89.9281 83.5146 90.0106 83.3356 89.9461 83.2004C89.8821 83.0669 89.6656 82.9649 89.6219 82.8252C89.5792 82.6878 89.7139 82.5268 89.6926 82.3837C89.6712 82.2441 89.4906 82.1089 89.4906 81.9647C89.4906 81.8205 89.6712 81.6854 89.6926 81.5457C89.7144 81.4032 89.5792 81.2422 89.6219 81.1048C89.6651 80.9651 89.8821 80.8625 89.9461 80.7295C90.0106 80.5944 89.9281 80.4154 90.0123 80.2881C90.097 80.1596 90.3399 80.0951 90.4431 79.9751C90.5468 79.8545 90.521 79.6666 90.6422 79.5555C90.7634 79.4445 91.0197 79.4209 91.1571 79.3205C91.2946 79.2201 91.3265 79.0327 91.478 78.9436C91.6294 78.8549 91.8863 78.874 92.0513 78.7977C92.2151 78.722 92.3031 78.5447 92.4787 78.4825C92.551 78.4572 92.6352 78.4522 92.7221 78.4522C92.7709 78.4522 92.8214 78.4539 92.8702 78.4539C92.9443 78.4539 93.0166 78.4505 93.0817 78.4337C93.264 78.3871 93.4037 78.2284 93.5944 78.1964C93.6202 78.1919 93.6471 78.1902 93.674 78.1902C93.8277 78.1902 93.9966 78.2497 94.1525 78.2497C94.1676 78.2497 94.1822 78.2491 94.1968 78.248C94.3875 78.2323 94.5721 78.1005 94.769 78.1005ZM94.769 77.5396C94.5631 77.5396 94.3915 77.6035 94.2658 77.65C94.2243 77.6652 94.1682 77.6865 94.1475 77.6899C94.125 77.6893 94.0627 77.6781 94.0123 77.6686C93.918 77.6512 93.8008 77.6298 93.6735 77.6298C93.6151 77.6298 93.5579 77.6344 93.5018 77.6439C93.2932 77.6787 93.1383 77.7723 93.0261 77.8413C92.9959 77.8598 92.9673 77.8806 92.9347 77.8935C92.9302 77.894 92.9241 77.8941 92.9168 77.8941C92.9039 77.8941 92.887 77.8935 92.8702 77.8935L92.804 77.8929L92.7216 77.8924C92.5959 77.8924 92.4461 77.8997 92.2913 77.9546C92.0832 78.0281 91.9486 78.1577 91.8589 78.2435C91.8426 78.2587 91.8274 78.2755 91.8106 78.2895C91.782 78.2962 91.7304 78.3041 91.6945 78.3091C91.5487 78.331 91.3675 78.3591 91.1942 78.46C90.9933 78.5773 90.889 78.745 90.8267 78.8454C90.8211 78.8544 90.8155 78.8639 90.8099 78.8734C90.7914 78.879 90.7622 78.8869 90.7342 78.8964C90.5996 78.9413 90.4156 79.003 90.263 79.1427C90.0869 79.3042 90.0291 79.4938 89.9954 79.6127C89.9848 79.6183 89.9747 79.624 89.964 79.6301C89.8378 79.7008 89.6645 79.7973 89.5439 79.9801C89.4188 80.1697 89.4087 80.3649 89.4104 80.4906C89.3055 80.5831 89.1541 80.7211 89.0862 80.9399C89.0206 81.1514 89.0649 81.3398 89.1041 81.4627C89.029 81.5743 88.9297 81.7432 88.9297 81.9664C88.9297 82.1897 89.029 82.3579 89.1041 82.4701C89.0649 82.5929 89.0206 82.7814 89.0862 82.9929C89.1541 83.2117 89.3055 83.3497 89.4104 83.4416C89.4087 83.5667 89.4188 83.7619 89.5439 83.9521C89.6645 84.1349 89.8373 84.2314 89.964 84.3021C89.9747 84.3077 89.9854 84.3133 89.9954 84.3195C90.0291 84.4384 90.0869 84.628 90.263 84.7896C90.4156 84.9292 90.6001 84.9909 90.7342 85.0358C90.7606 85.0448 90.7869 85.0521 90.8116 85.0616C90.8167 85.07 90.8217 85.0784 90.8267 85.0868C90.889 85.1872 90.9939 85.355 91.1942 85.4722C91.3675 85.5737 91.5487 85.6012 91.6945 85.6231C91.7304 85.6287 91.782 85.6366 91.8106 85.6433C91.8274 85.6573 91.8426 85.6736 91.8589 85.6893C91.948 85.7751 92.0832 85.9047 92.2913 85.9782C92.4461 86.0331 92.5959 86.0404 92.7216 86.0404L92.8035 86.0399L92.8691 86.0393C92.8775 86.0393 92.8865 86.0393 92.8949 86.0393C92.9123 86.0393 92.9291 86.0399 92.9454 86.0427C92.9667 86.0522 92.9953 86.073 93.0256 86.0915C93.1383 86.1599 93.2926 86.2541 93.5018 86.2889C93.5579 86.2985 93.6151 86.3029 93.6735 86.3029C93.8014 86.3029 93.918 86.2816 94.0123 86.2642C94.0622 86.2553 94.125 86.2435 94.1519 86.2435C94.1676 86.2463 94.2243 86.267 94.2658 86.2828C94.3915 86.3293 94.5631 86.3933 94.769 86.3933C94.9748 86.3933 95.1465 86.3293 95.2721 86.2828C95.3136 86.2676 95.3697 86.2463 95.3905 86.2429C95.4129 86.2435 95.4752 86.2547 95.5256 86.2642C95.6199 86.2816 95.7371 86.3029 95.8644 86.3029C95.9228 86.3029 95.98 86.2985 96.0361 86.2889C96.2448 86.2541 96.3996 86.1605 96.5123 86.0915C96.5426 86.073 96.5712 86.0516 96.6038 86.0393C96.6082 86.0387 96.6144 86.0387 96.6217 86.0387C96.6346 86.0387 96.6514 86.0393 96.6683 86.0393L96.7339 86.0399L96.8163 86.0404C96.942 86.0404 97.0918 86.0331 97.2466 85.9782C97.4547 85.9047 97.5899 85.7751 97.6791 85.6893C97.6953 85.6741 97.7105 85.6573 97.7273 85.6433C97.7559 85.6366 97.8075 85.6287 97.8434 85.6237C97.9892 85.6018 98.1704 85.5737 98.3432 85.4728C98.544 85.3555 98.6483 85.1878 98.7106 85.0874C98.7162 85.0784 98.7218 85.0689 98.7274 85.0594C98.7459 85.0538 98.7751 85.0459 98.8032 85.0364C98.9378 84.9915 99.1218 84.9298 99.2749 84.7901C99.451 84.6286 99.5088 84.439 99.5425 84.3201C99.5531 84.3144 99.5632 84.3088 99.5739 84.3027C99.7001 84.232 99.8734 84.1355 99.994 83.9526C100.119 83.7625 100.129 83.5678 100.128 83.4422C100.232 83.3496 100.384 83.2117 100.452 82.9929C100.517 82.7814 100.473 82.5929 100.434 82.4701C100.509 82.3585 100.608 82.1897 100.608 81.9664C100.608 81.7432 100.509 81.5749 100.434 81.4627C100.473 81.3398 100.517 81.1514 100.452 80.9399C100.384 80.7211 100.232 80.5831 100.128 80.4912C100.129 80.3661 100.119 80.1709 99.994 79.9807C99.8734 79.7978 99.7006 79.7014 99.5739 79.6307C99.5632 79.6251 99.5526 79.6195 99.5425 79.6133C99.5088 79.4944 99.451 79.3048 99.2749 79.1432C99.1223 79.0036 98.9378 78.9419 98.8037 78.897C98.7774 78.888 98.751 78.8807 98.7263 78.8712C98.7213 78.8628 98.7162 78.8544 98.7112 78.8459C98.6489 78.7455 98.544 78.5778 98.3438 78.4606C98.1704 78.3591 97.9892 78.3316 97.8434 78.3097C97.8075 78.3041 97.7559 78.2962 97.7273 78.2895C97.7105 78.2755 97.6953 78.2592 97.6791 78.2435C97.5899 78.1577 97.4547 78.0281 97.2466 77.9546C97.0918 77.8997 96.942 77.8924 96.8163 77.8924L96.7345 77.8929L96.6688 77.8935C96.6604 77.8935 96.6514 77.8935 96.643 77.8935C96.6256 77.8935 96.6088 77.8929 96.5925 77.8901C96.5712 77.8806 96.5426 77.8598 96.5123 77.8413C96.3996 77.7729 96.2453 77.6787 96.0361 77.6439C95.98 77.6344 95.9228 77.6298 95.8644 77.6298C95.7366 77.6298 95.6193 77.6512 95.5256 77.6686C95.4757 77.6775 95.4129 77.6893 95.386 77.6893C95.3703 77.6865 95.3136 77.6658 95.2721 77.65C95.1465 77.6035 94.9748 77.5396 94.769 77.5396Z" fill="#6C4023"/>
</svg>
