<svg width="458" height="168" viewBox="0 0 458 168" fill="none" xmlns="http://www.w3.org/2000/svg">
<rect x="0.5" y="0.5" width="456.041" height="166.263" rx="4.5" stroke="#8A38F5" stroke-dasharray="10 5"/>
<path d="M21.5215 85.5021C21.5215 119.613 49.1725 147.263 83.2835 147.263C117.39 147.263 145.041 119.614 145.041 85.5021C145.041 51.3941 117.391 23.7441 83.2835 23.7441C49.1735 23.7431 21.5215 51.3941 21.5215 85.5021Z" fill="#D6D2CF"/>
<path d="M81.7617 20.5C115.595 20.5 143.021 47.927 143.021 81.7578C143.021 115.594 115.595 143.018 81.7617 143.018C47.927 143.017 20.5 115.593 20.5 81.7578C20.5001 47.9271 47.926 20.5001 81.7617 20.5Z" fill="white" stroke="#FFB83A"/>
<path d="M81.7625 24.197C89.5315 24.197 97.0705 25.72 104.166 28.719C111.02 31.62 117.176 35.771 122.459 41.059C127.75 46.345 131.898 52.499 134.799 59.355C137.801 66.45 139.322 73.988 139.322 81.758C139.322 89.529 137.801 97.068 134.799 104.162C131.899 111.016 127.75 117.172 122.459 122.458C117.176 127.746 111.02 131.897 104.166 134.797C97.0695 137.797 89.5305 139.318 81.7625 139.318C73.9915 139.318 66.4505 137.797 59.3575 134.797C52.5025 131.897 46.3455 127.746 41.0595 122.458C35.7735 117.172 31.6225 111.017 28.7225 104.162C25.7205 97.068 24.2025 89.529 24.2025 81.758C24.2025 73.988 25.7205 66.45 28.7225 59.355C31.6225 52.5 35.7735 46.345 41.0595 41.059C46.3455 35.77 52.5015 31.62 59.3575 28.719C66.4515 25.72 73.9925 24.197 81.7625 24.197ZM81.7625 22.769C49.1815 22.769 22.7695 49.178 22.7695 81.758C22.7695 114.338 49.1815 140.751 81.7625 140.751C114.342 140.751 140.754 114.339 140.754 81.758C140.754 49.177 114.342 22.769 81.7625 22.769Z" fill="#FFB83A"/>
<path d="M81.7628 26.2049C89.2598 26.2049 96.5348 27.6729 103.385 30.5699C110 33.3679 115.944 37.3719 121.045 42.4749C126.147 47.5789 130.154 53.5199 132.951 60.1339C135.849 66.9819 137.318 74.2599 137.318 81.7589C137.318 89.2589 135.849 96.5349 132.951 103.385C130.154 109.999 126.146 115.942 121.045 121.043C115.943 126.147 110 130.15 103.385 132.95C96.5348 135.848 89.2598 137.315 81.7628 137.315C74.2598 137.315 66.9848 135.848 60.1368 132.95C53.5238 130.15 47.5808 126.146 42.4788 121.043C37.3768 115.941 33.3698 109.999 30.5728 103.385C27.6738 96.5349 26.2058 89.2589 26.2058 81.7589C26.2058 74.2599 27.6738 66.9819 30.5728 60.1339C33.3698 53.5199 37.3778 47.5789 42.4788 42.4749C47.5818 37.3719 53.5238 33.3679 60.1368 30.5699C66.9848 27.6729 74.2598 26.2049 81.7628 26.2049ZM81.7628 25.6299C50.7638 25.6299 25.6328 50.7609 25.6328 81.7579C25.6328 112.757 50.7638 137.886 81.7628 137.886C112.758 137.886 137.889 112.756 137.889 81.7579C137.889 50.7609 112.758 25.6299 81.7628 25.6299Z" fill="#FFB83A"/>
<path d="M124.188 81.758C124.188 105.189 105.194 124.183 81.7629 124.183C58.3329 124.183 39.3359 105.189 39.3359 81.758C39.3359 58.325 58.3329 39.333 81.7629 39.333C105.194 39.333 124.188 58.325 124.188 81.758Z" fill="#DADADA"/>
<path d="M123.485 81.9759C123.485 104.91 104.895 123.496 81.9605 123.496C59.0325 123.496 40.4395 104.91 40.4395 81.9759C40.4395 59.0429 59.0335 40.4519 81.9605 40.4519C104.895 40.4519 123.485 59.0439 123.485 81.9759Z" fill="#F4F4F4"/>
<path d="M167.521 85.5021C167.521 119.613 195.172 147.263 229.283 147.263C263.39 147.263 291.041 119.614 291.041 85.5021C291.041 51.3941 263.391 23.7441 229.283 23.7441C195.173 23.7431 167.521 51.3941 167.521 85.5021Z" fill="#D6D2CF"/>
<path d="M227.762 20.5C261.595 20.5 289.021 47.927 289.021 81.7578C289.021 115.594 261.595 143.018 227.762 143.018C193.927 143.017 166.5 115.593 166.5 81.7578C166.5 47.9271 193.926 20.5001 227.762 20.5Z" fill="white" stroke="#EF3733"/>
<path d="M227.763 24.197C235.532 24.197 243.071 25.72 250.166 28.719C257.02 31.62 263.176 35.771 268.459 41.059C273.75 46.345 277.898 52.499 280.799 59.355C283.801 66.45 285.322 73.988 285.322 81.758C285.322 89.529 283.801 97.068 280.799 104.162C277.899 111.016 273.75 117.172 268.459 122.458C263.176 127.746 257.02 131.897 250.166 134.797C243.07 137.797 235.531 139.318 227.763 139.318C219.992 139.318 212.451 137.797 205.358 134.797C198.503 131.897 192.346 127.746 187.06 122.458C181.774 117.172 177.623 111.017 174.723 104.162C171.721 97.068 170.203 89.529 170.203 81.758C170.203 73.988 171.721 66.45 174.723 59.355C177.623 52.5 181.774 46.345 187.06 41.059C192.346 35.77 198.502 31.62 205.358 28.719C212.452 25.72 219.993 24.197 227.763 24.197ZM227.763 22.769C195.182 22.769 168.77 49.178 168.77 81.758C168.77 114.338 195.182 140.751 227.763 140.751C260.342 140.751 286.754 114.339 286.754 81.758C286.754 49.177 260.342 22.769 227.763 22.769Z" fill="#EF3733"/>
<path d="M227.763 26.2049C235.26 26.2049 242.535 27.6729 249.385 30.5699C256 33.3679 261.944 37.3719 267.045 42.4749C272.147 47.5789 276.154 53.5199 278.951 60.1339C281.849 66.9819 283.318 74.2599 283.318 81.7589C283.318 89.2589 281.849 96.5349 278.951 103.385C276.154 109.999 272.146 115.942 267.045 121.043C261.943 126.147 256 130.15 249.385 132.95C242.535 135.848 235.26 137.315 227.763 137.315C220.26 137.315 212.985 135.848 206.137 132.95C199.524 130.15 193.581 126.146 188.479 121.043C183.377 115.941 179.37 109.999 176.573 103.385C173.674 96.5349 172.206 89.2589 172.206 81.7589C172.206 74.2599 173.674 66.9819 176.573 60.1339C179.37 53.5199 183.378 47.5789 188.479 42.4749C193.582 37.3719 199.524 33.3679 206.137 30.5699C212.985 27.6729 220.26 26.2049 227.763 26.2049ZM227.763 25.6299C196.764 25.6299 171.633 50.7609 171.633 81.7579C171.633 112.757 196.764 137.886 227.763 137.886C258.758 137.886 283.889 112.756 283.889 81.7579C283.889 50.7609 258.758 25.6299 227.763 25.6299Z" fill="#EF3733"/>
<path d="M270.188 81.758C270.188 105.189 251.194 124.183 227.763 124.183C204.333 124.183 185.336 105.189 185.336 81.758C185.336 58.325 204.333 39.333 227.763 39.333C251.194 39.333 270.188 58.325 270.188 81.758Z" fill="#DADADA"/>
<path d="M269.485 81.9759C269.485 104.91 250.895 123.496 227.96 123.496C205.032 123.496 186.439 104.91 186.439 81.9759C186.439 59.0429 205.033 40.4519 227.96 40.4519C250.895 40.4519 269.485 59.0439 269.485 81.9759Z" fill="#F4F4F4"/>
<path d="M313.521 85.5021C313.521 119.613 341.172 147.263 375.283 147.263C409.39 147.263 437.041 119.614 437.041 85.5021C437.041 51.3941 409.391 23.7441 375.283 23.7441C341.173 23.7431 313.521 51.3941 313.521 85.5021Z" fill="#D6D2CF"/>
<path d="M373.762 20.5C407.595 20.5 435.021 47.927 435.021 81.7578C435.021 115.594 407.595 143.018 373.762 143.018C339.927 143.017 312.5 115.593 312.5 81.7578C312.5 47.9271 339.926 20.5001 373.762 20.5Z" fill="white" stroke="#00C950"/>
<path d="M373.763 24.197C381.532 24.197 389.071 25.72 396.166 28.719C403.02 31.62 409.176 35.771 414.459 41.059C419.75 46.345 423.898 52.499 426.799 59.355C429.801 66.45 431.322 73.988 431.322 81.758C431.322 89.529 429.801 97.068 426.799 104.162C423.899 111.016 419.75 117.172 414.459 122.458C409.176 127.746 403.02 131.897 396.166 134.797C389.07 137.797 381.531 139.318 373.763 139.318C365.992 139.318 358.451 137.797 351.358 134.797C344.503 131.897 338.346 127.746 333.06 122.458C327.774 117.172 323.623 111.017 320.723 104.162C317.721 97.068 316.203 89.529 316.203 81.758C316.203 73.988 317.721 66.45 320.723 59.355C323.623 52.5 327.774 46.345 333.06 41.059C338.346 35.77 344.502 31.62 351.358 28.719C358.452 25.72 365.993 24.197 373.763 24.197ZM373.763 22.769C341.182 22.769 314.77 49.178 314.77 81.758C314.77 114.338 341.182 140.751 373.763 140.751C406.342 140.751 432.754 114.339 432.754 81.758C432.754 49.177 406.342 22.769 373.763 22.769Z" fill="#00C950"/>
<path d="M373.763 26.2049C381.26 26.2049 388.535 27.6729 395.385 30.5699C402 33.3679 407.944 37.3719 413.045 42.4749C418.147 47.5789 422.154 53.5199 424.951 60.1339C427.849 66.9819 429.318 74.2599 429.318 81.7589C429.318 89.2589 427.849 96.5349 424.951 103.385C422.154 109.999 418.146 115.942 413.045 121.043C407.943 126.147 402 130.15 395.385 132.95C388.535 135.848 381.26 137.315 373.763 137.315C366.26 137.315 358.985 135.848 352.137 132.95C345.524 130.15 339.581 126.146 334.479 121.043C329.377 115.941 325.37 109.999 322.573 103.385C319.674 96.5349 318.206 89.2589 318.206 81.7589C318.206 74.2599 319.674 66.9819 322.573 60.1339C325.37 53.5199 329.378 47.5789 334.479 42.4749C339.582 37.3719 345.524 33.3679 352.137 30.5699C358.985 27.6729 366.26 26.2049 373.763 26.2049ZM373.763 25.6299C342.764 25.6299 317.633 50.7609 317.633 81.7579C317.633 112.757 342.764 137.886 373.763 137.886C404.758 137.886 429.889 112.756 429.889 81.7579C429.889 50.7609 404.758 25.6299 373.763 25.6299Z" fill="#00C950"/>
<path d="M416.188 81.758C416.188 105.189 397.194 124.183 373.763 124.183C350.333 124.183 331.336 105.189 331.336 81.758C331.336 58.325 350.333 39.333 373.763 39.333C397.194 39.333 416.188 58.325 416.188 81.758Z" fill="#DADADA"/>
<path d="M415.485 81.9759C415.485 104.91 396.895 123.496 373.96 123.496C351.032 123.496 332.439 104.91 332.439 81.9759C332.439 59.0429 351.033 40.4519 373.96 40.4519C396.895 40.4519 415.485 59.0439 415.485 81.9759Z" fill="#F4F4F4"/>
</svg>
